<svg xmlns="http://www.w3.org/2000/svg" width="49.533" height="64.533" viewBox="0 0 49.533 64.533">
  <g id="Group_208" data-name="Group 208" transform="translate(-780.853 -123.006)">
    <path id="Path_765" data-name="Path 765" d="M803.67,181.779a13.018,13.018,0,0,1-4.052-2.944,11.5,11.5,0,0,1-2.585-5.217,15.77,15.77,0,0,1,2.22-10.9,39.131,39.131,0,0,1,7.711-8.963,19.837,19.837,0,0,0-2.511,6.613c4.887-6.048,11.573-9.993,18.752-13.845-4.533-5.3-9.462-11.819-13.995-17.121l3-2.88a45.12,45.12,0,0,0-16.611,9.142,35.392,35.392,0,0,1,7.5-3.077c-7.689,4.147-15.831,10.573-19.758,18.747a27.013,27.013,0,0,0,.388,23.428,17.813,17.813,0,0,1,.433-7.417,19.255,19.255,0,0,0,7.514,14.76A23.785,23.785,0,0,0,808.4,187.3a18.708,18.708,0,0,0,8.607-2.845,15.375,15.375,0,0,0,5.382-6.719A14.965,14.965,0,0,1,803.67,181.779Z" fill="#3d7cbe"/>
    <circle id="Ellipse_21" data-name="Ellipse 21" cx="12.852" cy="12.852" r="12.852" transform="translate(804.682 123.006)" fill="#26336c"/>
    <path id="Path_766" data-name="Path 766" d="M828.862,136.831l-4.026-2.707,1.745-5.08a11.392,11.392,0,0,0-4.795-3.66l-4.144,3.115-4.372-3.1a11.372,11.372,0,0,0-4.789,3.688l1.715,4.688-3.957,3.1a11.288,11.288,0,0,0,2.142,5.731l4.408-.161,1.6,4.374a11.381,11.381,0,0,0,6.257.016l1.191-4.176,4.971-.182A11.282,11.282,0,0,0,828.862,136.831Zm-8.546,3-5.147.083-1.669-4.87,4.115-3.092,4.213,2.958Z" fill="#fff"/>
    <path id="Path_767" data-name="Path 767" d="M792.643,141.72l-4.837,2.634,2.842,4.7-3.708-4.206-5.333,1.768,4.837-2.634-3.36-5.419,4.226,4.923Z" fill="#fff"/>
    <path id="Path_768" data-name="Path 768" d="M787.075,152.419l-1.893.674.757,1.856-1.1-1.726-2.022.334,1.893-.674-.757-1.856,1.1,1.726Z" fill="#fff"/>
    <path id="Path_769" data-name="Path 769" d="M806.879,181.612l-1.739,2.43,2.347,1.525-2.654-1.078-2.159,2.142,1.739-2.43-2.348-1.525,2.654,1.078Z" fill="#fff"/>
    <path id="Path_770" data-name="Path 770" d="M794.652,175.168l-2.908,3.263,3.618,1.919-4.025-1.326-3.246,2.881,2.707-3.25-3.418-1.931,3.824,1.339Z" fill="#fff"/>
    <path id="Path_771" data-name="Path 771" d="M800.377,184.819l-1.586,1.291,1.275,1.429-1.558-1.19-1.811,1.025,1.586-1.291-1.275-1.429,1.558,1.19Z" fill="#fff"/>
    <path id="Path_772" data-name="Path 772" d="M802.7,146.133l-1.667.851.923,1.623-1.222-1.462-1.828.553,1.667-.851-.923-1.623,1.222,1.462Z" fill="#f1f1f2"/>
    <path id="Path_773" data-name="Path 773" d="M802.528,140.065l-2.735,1.465,1.582,2.66L799.3,141.8l-3.011.975,2.735-1.465-1.582-2.66,2.072,2.384Z" fill="#f1f1f2"/>
  </g>
</svg>
