<svg xmlns="http://www.w3.org/2000/svg" width="45.84" height="38.148" viewBox="0 0 45.84 38.148">
  <g id="Group_478" data-name="Group 478" transform="translate(-19.287 -684.6)">
    <path id="Path_1222" data-name="Path 1222" d="M-18.322-1.35V0h-4.39V-7.285h1.69V-1.35Zm3.06-4.635v1.7h2.29v1.25h-2.29V-1.3h2.99V0h-4.69V-7.285h4.69v1.3Zm8.38,3.2L-7.557-4.78q-.075-.19-.16-.448t-.17-.557q-.075.305-.16.565t-.16.45l-.67,1.985ZM-4.2,0h-1.31a.572.572,0,0,1-.355-.1.651.651,0,0,1-.2-.263l-.43-1.27h-2.77L-9.7-.365a.608.608,0,0,1-.2.253A.551.551,0,0,1-10.247,0h-1.32l2.82-7.285h1.73ZM.138-3.775h2.59V-.7A3.828,3.828,0,0,1,1.535-.1,4.687,4.687,0,0,1,.213.08,4.545,4.545,0,0,1-1.425-.2a3.773,3.773,0,0,1-1.263-.78,3.423,3.423,0,0,1-.81-1.18,3.809,3.809,0,0,1-.285-1.483,4.036,4.036,0,0,1,.27-1.5A3.373,3.373,0,0,1-2.74-6.32a3.5,3.5,0,0,1,1.215-.77A4.392,4.392,0,0,1,.068-7.365a4.638,4.638,0,0,1,.855.075,4.207,4.207,0,0,1,.737.2,3.394,3.394,0,0,1,.618.31,3.326,3.326,0,0,1,.5.39l-.49.745a.47.47,0,0,1-.3.215.525.525,0,0,1-.393-.09q-.2-.12-.378-.207a2.3,2.3,0,0,0-.362-.142,2.376,2.376,0,0,0-.39-.08,3.827,3.827,0,0,0-.46-.025A2.1,2.1,0,0,0-.847-5.8a1.833,1.833,0,0,0-.647.473,2.137,2.137,0,0,0-.413.733,2.953,2.953,0,0,0-.145.952,3.066,3.066,0,0,0,.16,1.03,2.13,2.13,0,0,0,.453.76,1.934,1.934,0,0,0,.7.473,2.416,2.416,0,0,0,.9.162,2.348,2.348,0,0,0,.552-.06A3.089,3.089,0,0,0,1.2-1.44V-2.545H.478a.35.35,0,0,1-.25-.085.283.283,0,0,1-.09-.215ZM7.4-1.335a1.554,1.554,0,0,0,.608-.113,1.229,1.229,0,0,0,.453-.322,1.425,1.425,0,0,0,.282-.513,2.238,2.238,0,0,0,.1-.687V-7.285h1.69V-2.97a3.37,3.37,0,0,1-.217,1.23,2.759,2.759,0,0,1-.623.965,2.809,2.809,0,0,1-.985.63A3.584,3.584,0,0,1,7.4.08a3.6,3.6,0,0,1-1.31-.225,2.809,2.809,0,0,1-.985-.63,2.73,2.73,0,0,1-.62-.965,3.4,3.4,0,0,1-.215-1.23V-7.285h1.69v4.31a2.238,2.238,0,0,0,.1.688,1.451,1.451,0,0,0,.282.515,1.216,1.216,0,0,0,.452.325A1.554,1.554,0,0,0,7.4-1.335Zm6.65-4.65v1.7h2.29v1.25h-2.29V-1.3h2.99V0h-4.69V-7.285h4.69v1.3Zm8.555.18a.635.635,0,0,1-.157.18.352.352,0,0,1-.212.06.52.52,0,0,1-.248-.073l-.3-.162a2.49,2.49,0,0,0-.382-.163,1.53,1.53,0,0,0-.49-.072,1.054,1.054,0,0,0-.708.2.689.689,0,0,0-.233.547.5.5,0,0,0,.14.365,1.207,1.207,0,0,0,.368.25,3.939,3.939,0,0,0,.52.193q.292.087.6.195a5.344,5.344,0,0,1,.6.253,1.993,1.993,0,0,1,.52.37,1.727,1.727,0,0,1,.368.547,1.947,1.947,0,0,1,.14.777,2.533,2.533,0,0,1-.175.945,2.213,2.213,0,0,1-.507.767,2.356,2.356,0,0,1-.82.515A3.068,3.068,0,0,1,20.517.08a3.55,3.55,0,0,1-.692-.07,4.113,4.113,0,0,1-.683-.2,3.958,3.958,0,0,1-.62-.3,2.634,2.634,0,0,1-.505-.39l.5-.79a.5.5,0,0,1,.158-.143.411.411,0,0,1,.212-.058.569.569,0,0,1,.3.1q.153.1.345.21a2.808,2.808,0,0,0,.443.21,1.659,1.659,0,0,0,.59.1,1.123,1.123,0,0,0,.715-.2.771.771,0,0,0,.255-.643.607.607,0,0,0-.14-.415,1.082,1.082,0,0,0-.368-.265,3.386,3.386,0,0,0-.517-.185q-.29-.08-.595-.178a4.353,4.353,0,0,1-.6-.24,1.878,1.878,0,0,1-.517-.375,1.755,1.755,0,0,1-.368-.58A2.3,2.3,0,0,1,18.3-5.2a2.035,2.035,0,0,1,.165-.8,2.065,2.065,0,0,1,.485-.695,2.385,2.385,0,0,1,.785-.488A2.9,2.9,0,0,1,20.8-7.365a3.994,3.994,0,0,1,.653.053,3.43,3.43,0,0,1,.6.155,3.309,3.309,0,0,1,.533.245,2.455,2.455,0,0,1,.442.323Z" transform="translate(42 722.669)" fill="#fff"/>
    <path id="Path_118" data-name="Path 118" d="M1134.559,404.6a1.405,1.405,0,0,0-.986-.4H1129.3c.016-.3.034-.591.044-.9h.033a.9.9,0,1,0,0-1.8h-16.75a.9.9,0,1,0,0,1.8h.033c.01.307.028.6.044.9h-4.269a1.418,1.418,0,0,0-.992.4,1.32,1.32,0,0,0-.4.963c0,.219.007.4.013.491a10.415,10.415,0,0,0,2.955,7.22,9.808,9.808,0,0,0,6.254,2.6,6.919,6.919,0,0,0,1.827,1.5,2,2,0,0,1,1.048,1.741v.715c0,1.014-1.577,1.5-2.928,1.793a.989.989,0,0,0-.794.955v.485h-.93a.914.914,0,0,0-.931.9v1.8a.914.914,0,0,0,.931.9h13.027a.914.914,0,0,0,.931-.9v-1.8a.914.914,0,0,0-.931-.9h-.931v-.485a.988.988,0,0,0-.794-.955c-1.35-.292-2.928-.779-2.928-1.793v-.715a1.993,1.993,0,0,1,1.048-1.741,6.923,6.923,0,0,0,1.827-1.5,9.807,9.807,0,0,0,6.254-2.6,10.416,10.416,0,0,0,2.956-7.22c.005-.087.009-.271.012-.491A1.323,1.323,0,0,0,1134.559,404.6Zm-25.621,1.655a.234.234,0,0,1,.066-.181.255.255,0,0,1,.183-.077h3.657a21.727,21.727,0,0,0,2.075,7.894C1112.9,413.436,1109.368,411.843,1108.938,406.258Zm18.156,7.635a21.739,21.739,0,0,0,2.074-7.894h3.657a.254.254,0,0,1,.183.077.235.235,0,0,1,.067.181C1132.644,411.843,1129.115,413.436,1127.094,413.893Z" transform="translate(-1079.048 283.091)" fill="#fff"/>
  </g>
</svg>
