<?xml version="1.0" encoding="utf-8"?>
<!-- Generator: Adobe Illustrator 23.0.3, SVG Export Plug-In . SVG Version: 6.00 Build 0)  -->
<svg version="1.1" id="Layer_1" xmlns="http://www.w3.org/2000/svg" xmlns:xlink="http://www.w3.org/1999/xlink" x="0px" y="0px"
	 viewBox="0 0 57.43 60.26" style="enable-background:new 0 0 57.43 60.26;" xml:space="preserve">
<style type="text/css">
	.st0{fill:#FFFFFF;}
	.st1{fill:#C6C6C6;}
	.st2{opacity:0.2;}
	.st3{fill:#00394F;}
	.st4{opacity:0.1;}
	.st5{fill:#EDEDED;}
	.st6{fill:#878787;}
</style>
<g id="Group_358" transform="translate(-1348 -761)">
	<g transform="matrix(1, 0, 0, 1, 1348, 761)">
		<path id="Path_951-2" class="st0" d="M49.27,7.87L49.27,7.87L49.27,7.87c-0.65-0.95-1.93-1.68-3.79-2.46
			c-1.12-0.47-2.44-0.96-3.97-1.52C41,3.69,40.52,3.5,40.07,3.31c-1.38-0.61-2.73-1.29-4.03-2.05V1.25
			c-0.45-0.3-0.95-0.53-1.47-0.67V0.56H22.63v0.01c-0.53,0.14-1.04,0.37-1.49,0.67v0.01c-1.75,1.03-3.58,1.91-5.47,2.63
			c-1.53,0.57-2.85,1.06-3.97,1.52c-1.21,0.44-2.34,1.08-3.32,1.91C8.21,7.48,8.05,7.66,7.91,7.86L7.88,7.91
			c-0.29,0.53-5.24,9.43-7.45,16.22c0.4,0.79,1,1.47,1.75,1.95c0.86,0.64,1.79,1.18,2.77,1.62c1.15,0.52,2.37,0.9,3.62,1.11H8.6
			c0.29,0.05,0.58,0.09,0.88,0.12c0.08,0.01,0.15,0.01,0.23,0.01c0.22,0.02,0.44,0.04,0.66,0.04h0.02c0.31,0,0.62,0,0.93-0.03
			c0.25-0.68,0.49-1.29,0.73-1.87l0,0c0.16-0.4,0.33-0.78,0.48-1.13c0.39-0.88,0.74-1.59,1.04-2.14l0.31,33.89l0,0L14,57.75h0.01
			c2.32,0.62,4.68,1.07,7.06,1.36h0.02l0,0c2.47,0.32,4.96,0.48,7.45,0.49c3.02,0,6.04-0.22,9.02-0.67l0.22-0.03
			c0.7-0.11,1.34-0.22,1.92-0.33l0.06-0.01c0.6-0.12,1.14-0.23,1.59-0.34h0.01c0.46-0.11,0.84-0.2,1.13-0.28l0.03-0.01
			c0.29-0.08,0.5-0.14,0.62-0.17l0.02-0.01l0.12-0.04l0.31-33.89c0.29,0.55,0.64,1.26,1.04,2.14c0.15,0.35,0.32,0.73,0.48,1.13l0,0
			c0.24,0.57,0.48,1.18,0.73,1.86c0.31,0.02,0.62,0.03,0.93,0.03c0.23,0,0.45-0.02,0.68-0.04c0.08-0.01,0.16-0.01,0.24-0.01
			c0.29-0.03,0.58-0.07,0.88-0.11h0.02c0.04-0.01,0.08-0.01,0.12-0.02c1.77-0.33,3.47-0.96,5.02-1.87c0.44-0.26,0.86-0.54,1.26-0.84
			c0.74-0.48,1.35-1.16,1.75-1.95C54.48,17.16,49.31,7.94,49.27,7.87z"/>
	</g>
	<g id="Group_357">
		<g id="Group_356" transform="translate(1035.802 175.792)">
			<g id="Group_83" transform="translate(320.86 591.027)">
				<g id="Group_66" transform="translate(0 0)">
					<rect id="Rectangle_122" x="13.79" y="-4.93" class="st1" width="12.02" height="11.18"/>
					<rect id="Rectangle_123" x="13.77" y="-5.43" class="st0" width="12" height="1.82"/>
					<path id="Path_97" class="st0" d="M-1.04,1.91c0,0-5.23,9.32-7.52,16.37c0.57,1.71,5.81,5.23,10.94,4.85
						c0.78-2.34,1.83-4.57,3.14-6.66C5.53,16.47,5.91,4.29-1.04,1.91z"/>
					<path id="Path_98" class="st0" d="M40.55,1.91c0,0,5.23,9.33,7.52,16.37c-0.57,1.71-5.81,5.23-10.94,4.85
						c-0.78-2.34-1.83-4.57-3.14-6.66C33.99,16.47,33.61,4.29,40.55,1.91z"/>
					<g id="Group_59" transform="translate(43.724 15.785)" class="st2">
						<path id="Path_99" class="st3" d="M-9.02-5.86c-0.5,2.15-0.74,4.34-0.72,6.54c1.31,2.09,2.36,4.32,3.14,6.66
							c1.22,0.08,2.45-0.03,3.64-0.32C-6.07-1.44-8.69-5.38-9.02-5.86z"/>
					</g>
					<g id="Group_60" transform="translate(7.49 15.766)" class="st4">
						<path id="Path_100" class="st3" d="M-2.68-5.86c-0.24,0.35-2.9,4.27-6.07,12.9c1.2,0.3,2.43,0.41,3.66,0.33
							c0.78-2.34,1.83-4.57,3.14-6.66C-1.94-1.5-2.18-3.71-2.68-5.86z"/>
					</g>
					<path id="Path_101" class="st0" d="M32.75-2.09c-4.09-1.52-6.28-3.33-7.04-3.33c0,0,1.6,4.33-5.94,5.85
						c-7.55-2.01-5.96-5.85-5.96-5.85c-0.76,0-2.95,1.81-7.04,3.33s-6.76,2.47-7.8,4c1.43,1.14,5.99,3.71,5.99,15.42v34.73
						c4.81,1.28,9.77,1.92,14.75,1.9c5.01,0.06,10.01-0.58,14.85-1.9V17.33c0-11.71,4.57-14.27,5.99-15.42
						C39.51,0.39,36.84-0.56,32.75-2.09z"/>
					<g id="Group_61" transform="translate(0 23.697)">
						<path id="Path_102" class="st5" d="M-8.34-6.07C-8.43-5.86-8.5-5.64-8.55-5.42C-7.98-3.7-2.75-0.18,2.39-0.56
							c0.25-0.69,0.02-0.15,0.26-0.73C-1.58-1.14-6.84-4.16-8.34-6.07z"/>
					</g>
					<g id="Group_62" transform="translate(46.695 23.743)">
						<path id="Path_103" class="st5" d="M1.19-6.07C-0.3-4.19-5.57-1.14-9.82-1.3c0.1,0.22,0.18,0.45,0.25,0.69
							C-4.43-0.23,0.81-3.75,1.38-5.46C1.33-5.67,1.26-5.87,1.19-6.07z"/>
					</g>
					<g id="Group_65" transform="translate(12.321 13.388)" class="st4">
						<g id="Group_63" transform="translate(24.536)">
							<path id="Path_104" class="st3" d="M-8.49,9.25c-0.33,9.52-0.82,23.84-1.06,30.85c2.45-0.28,4.88-0.76,7.25-1.43V3.94
								C-2.4,0.63-1.89-2.67-0.77-5.79C-5.58-2.28-8.44,3.3-8.49,9.25z"/>
						</g>
						<g id="Group_64">
							<path id="Path_105" class="st3" d="M-0.11,40.09c-0.24-7.02-0.74-21.33-1.06-30.83C-1.22,3.3-4.08-2.28-8.89-5.79
								c1.11,3.12,1.63,6.42,1.53,9.73v34.73C-4.98,39.32-2.56,39.79-0.11,40.09z"/>
						</g>
					</g>
					<path id="Path_106" class="st0" d="M-2.64,7.31c1.3-2.66,2.3-4.52,2.3-4.52c1.01-1.52,3.59-2.47,7.54-4
						c3.77-1.45,5.85-3.14,6.68-3.3c-0.05-0.3-0.07-0.61-0.07-0.92c-0.76,0-2.95,1.81-7.04,3.33s-6.76,2.47-7.8,4
						c0,0-1.06,1.89-2.42,4.59L-2.64,7.31z"/>
					<path id="Path_107" class="st0" d="M32.31-1.2c3.95,1.52,6.53,2.47,7.54,4c0,0,0.95,1.77,2.21,4.32l0.81-0.81
						c-1.32-2.6-2.32-4.39-2.32-4.39c-1.05-1.52-3.71-2.48-7.8-4s-6.28-3.33-7.04-3.33c0,0.31-0.02,0.61-0.07,0.92
						C26.46-4.34,28.55-2.65,32.31-1.2z"/>
					<path id="Path_108" class="st0" d="M19.77,0.43c6.61,0,7.48-4.6,7.48-5.17c-0.47-0.32-0.99-0.55-1.54-0.68
						c0,0,0.75,4.16-5.95,4.16c-6.23,0-5.95-4.16-5.95-4.16c-0.55,0.13-1.07,0.36-1.54,0.68C12.27-4.74,13.21,0.43,19.77,0.43z"/>
					<rect id="Rectangle_124" x="13.77" y="-5.43" class="st5" width="12" height="1.82"/>
					<path id="Path_109" class="st5" d="M19.77,0.43c6.61,0,7.48-4.6,7.48-5.17c-0.47-0.32-0.99-0.55-1.54-0.68
						c0,0,0.75,4.16-5.95,4.16c-6.23,0-5.95-4.16-5.95-4.16c-0.55,0.13-1.07,0.36-1.54,0.68C12.27-4.74,13.21,0.43,19.77,0.43z"/>
				</g>
				<g id="Group_68" transform="translate(20.09 15.491)">
					<g id="Group_67">
						<path id="Path_110" class="st6" d="M0.3-5.85C1.95-5.86,3.58-5.42,5-4.58c1.42,0.83,2.6,2.01,3.43,3.43
							c1.69,2.9,1.69,6.49,0,9.4C7.6,9.66,6.42,10.85,5,11.67c-2.9,1.69-6.49,1.69-9.4,0C-5.82,10.85-7,9.66-7.83,8.24
							c-1.69-2.9-1.69-6.49,0-9.4C-7-2.58-5.82-3.76-4.4-4.58C-2.98-5.42-1.35-5.86,0.3-5.85z M5.76,4.61V2.49
							c0-0.25-0.2-0.45-0.45-0.46c0,0,0,0,0,0H1.82v-3.49c0-0.25-0.2-0.45-0.45-0.46c0,0,0,0-0.01,0h-2.12
							c-0.25,0-0.45,0.2-0.46,0.45c0,0,0,0,0,0.01v3.49H-4.7c-0.25,0-0.45,0.2-0.45,0.45c0,0,0,0,0,0v2.12
							c0,0.25,0.2,0.45,0.45,0.46c0,0,0,0,0,0h3.49v3.49c0,0.25,0.2,0.45,0.45,0.45c0,0,0,0,0,0h2.12c0.25,0,0.45-0.2,0.46-0.45
							c0,0,0,0,0,0V5.07H5.3C5.55,5.07,5.76,4.86,5.76,4.61C5.76,4.61,5.76,4.61,5.76,4.61z"/>
					</g>
				</g>
			</g>
		</g>
	</g>
</g>
</svg>
