<svg xmlns="http://www.w3.org/2000/svg" width="51.92" height="58.195" viewBox="0 0 51.92 58.195">
  <g id="Group_360" data-name="Group 360" transform="translate(-178.197 -218)">
    <g id="Group_338" data-name="Group 338" transform="translate(-88.188 152.902)">
      <rect id="Rectangle_373" data-name="Rectangle 373" width="11.757" height="1.782" transform="translate(286.418 65.098)" fill="#fff"/>
      <path id="Path_941" data-name="Path 941" d="M317.764,98.075a148.888,148.888,0,0,0-2.627-20.712,9.163,9.163,0,0,0-6.105-7.5c-.964-.373-2.488-.93-3.967-1.463l-.048-.018c-4.009-1.492-6.154-3.263-6.9-3.263a2.908,2.908,0,0,1,.137.852l-.037.011V65.6h-11.78v.374c-.039-.012-.077-.021-.116-.034a2.423,2.423,0,0,1,.137-.816c-.746,0-2.89,1.771-6.9,3.263-1.248.465-2.36.875-3.331,1.264-.2.077-.4.15-.567.217a11.609,11.609,0,0,0-1.708.813,5.588,5.588,0,0,0-2.039,1.622l.01.008a9.8,9.8,0,0,0-2.369,5.053,148.875,148.875,0,0,0-2.628,20.712c-.464,7.961-.541,15.611-.541,15.611l.232,7.188a12.914,12.914,0,0,0,6.105-.077s.077-4.946.309-9.2A96.392,96.392,0,0,1,274.5,97.921s1.778-7.5,2.657-10.4c.253-.541.449-1.019.605-1.453.014.434.024.876.024,1.338V121.44a55.865,55.865,0,0,0,14.452,1.865,52.78,52.78,0,0,0,14.549-1.865V87.408c0-.574.014-1.119.035-1.649a15.786,15.786,0,0,0,.71,1.764c.88,2.9,2.657,10.4,2.657,10.4a96.468,96.468,0,0,1,1.468,13.679c.232,4.251.309,9.2.309,9.2a12.914,12.914,0,0,0,6.105.077l.232-7.188S318.228,106.036,317.764,98.075ZM307.331,81.3a1.347,1.347,0,0,1-.049.153c.121-.65.258-1.257.412-1.816C307.592,80.17,307.477,80.717,307.331,81.3Z" transform="translate(0 -0.012)" fill="#fff"/>
      <path id="Path_942" data-name="Path 942" d="M308.882,70.844c6.476,0,7.331-4.505,7.331-5.068a4.435,4.435,0,0,0-1.51-.671s.739,4.079-5.829,4.079c-6.1,0-5.829-4.079-5.829-4.079a4.438,4.438,0,0,0-1.51.671S302.461,70.844,308.882,70.844Z" transform="translate(-16.587 -0.003)" fill="#fff"/>
      <rect id="Rectangle_374" data-name="Rectangle 374" width="11.757" height="1.782" transform="translate(286.418 65.098)" fill="#ededed"/>
      <path id="Path_943" data-name="Path 943" d="M308.882,70.844c6.476,0,7.331-4.505,7.331-5.068a4.435,4.435,0,0,0-1.51-.671s.739,4.079-5.829,4.079c-6.1,0-5.829-4.079-5.829-4.079a4.438,4.438,0,0,0-1.51.671S302.461,70.844,308.882,70.844Z" transform="translate(-16.587 -0.003)" fill="#ededed"/>
      <path id="Path_944" data-name="Path 944" d="M287.271,134.217c-.237-6.878-.72-20.895-1.041-30.213A18.425,18.425,0,0,0,278.7,89.286l0-.009,0,0-.022-.017c0,.01.008.022.012.032a37.365,37.365,0,0,0-4.934,12.037,126.789,126.789,0,0,0-2.125,31.261,11.31,11.31,0,0,0,3.478-.406s.116-4.888.348-9.139a92,92,0,0,1,1.391-13.428s1.749-7.839,2.743-10.7a7.273,7.273,0,0,0,.541-1.526c.024.553.041.805.041,1.407v34.032A49.691,49.691,0,0,0,287.271,134.217Z" transform="translate(-2.378 -11.404)" fill="#00394f" opacity="0.1"/>
      <path id="Path_945" data-name="Path 945" d="M329.643,134.2c.237-6.878.72-20.895,1.041-30.212a18.424,18.424,0,0,1,7.532-14.718l0-.009,0,0,.022-.017c0,.011-.007.022-.012.033a37.364,37.364,0,0,1,4.933,12.037,126.8,126.8,0,0,1,2.126,31.261,11.353,11.353,0,0,1-3.478-.406s-.116-4.889-.348-9.139a92.075,92.075,0,0,0-1.391-13.428s-1.749-7.839-2.744-10.7a7.268,7.268,0,0,1-.541-1.527c-.023.553-.04.806-.04,1.407v34.033A49.779,49.779,0,0,1,329.643,134.2Z" transform="translate(-29.851 -11.397)" fill="#00394f" opacity="0.1"/>
      <path id="Path_946" data-name="Path 946" d="M269.573,170.547a9.853,9.853,0,0,1-2.758-.358l-.035-.513a15.066,15.066,0,0,0,6.136-.009l-.009.468A14.121,14.121,0,0,1,269.573,170.547Z" transform="translate(-0.186 -49.346)" fill="#fff"/>
      <path id="Path_947" data-name="Path 947" d="M356.128,170.6a9.858,9.858,0,0,0,2.758-.358l.035-.513a15.064,15.064,0,0,1-6.136-.009l.009.468A14.146,14.146,0,0,0,356.128,170.6Z" transform="translate(-40.772 -49.37)" fill="#fff"/>
      <path id="Path_948" data-name="Path 948" d="M305.239,68.435h10.9a3.169,3.169,0,0,1-1.6,1.6,9.54,9.54,0,0,1-5.835.56A5.094,5.094,0,0,1,305.239,68.435Z" transform="translate(-18.335 -1.575)" fill="#c6c6c6"/>
      <g id="Group_336" data-name="Group 336" transform="translate(283.491 79.04)">
        <g id="Group_335" data-name="Group 335" transform="translate(0 0)">
          <path id="Path_949" data-name="Path 949" d="M307.985,91.5a8.927,8.927,0,0,1,4.6,1.244,9.306,9.306,0,0,1,3.361,3.36,9.146,9.146,0,0,1,0,9.209,9.306,9.306,0,0,1-3.361,3.36,9.145,9.145,0,0,1-9.209,0,9.3,9.3,0,0,1-3.36-3.36,9.142,9.142,0,0,1,0-9.209,9.3,9.3,0,0,1,3.36-3.36A8.929,8.929,0,0,1,307.985,91.5Zm5.347,10.249v-2.08a.444.444,0,0,0-.446-.446H309.47V95.8a.444.444,0,0,0-.446-.446h-2.079a.444.444,0,0,0-.446.446v3.416h-3.416a.444.444,0,0,0-.445.446v2.08a.444.444,0,0,0,.445.445H306.5v3.416a.444.444,0,0,0,.446.446h2.079a.444.444,0,0,0,.446-.446v-3.416h3.416a.444.444,0,0,0,.446-.445Z" transform="translate(-298.776 -91.497)" fill="#878787"/>
        </g>
      </g>
    </g>
  </g>
</svg>
