<svg xmlns="http://www.w3.org/2000/svg" width="57.337" height="60.142" viewBox="0 0 57.337 60.142">
  <g id="Group_361" data-name="Group 361" transform="translate(-20.86 -305.027)">
    <g id="Group_69" data-name="Group 69" transform="translate(-910.543 270.627)">
      <g id="Group_66" data-name="Group 66" transform="translate(931.403 34.4)">
        <rect id="Rectangle_122" data-name="Rectangle 122" width="12.174" height="11.324" transform="translate(22.622 0.505)" fill="#c6c6c6"/>
        <rect id="Rectangle_123" data-name="Rectangle 123" width="12.15" height="1.842" transform="translate(22.604)" fill="#fff"/>
        <path id="Path_97" data-name="Path 97" d="M939.015,48.019s-5.3,9.443-7.612,16.573c.578,1.734,5.878,5.3,11.081,4.915a31.262,31.262,0,0,1,3.18-6.745S946.049,50.428,939.015,48.019Z" transform="translate(-931.403 -40.586)" fill="#fff"/>
        <path id="Path_98" data-name="Path 98" d="M1016.975,48.019s5.3,9.443,7.613,16.573c-.579,1.734-5.878,5.3-11.082,4.915a31.262,31.262,0,0,0-3.18-6.745S1009.941,50.428,1016.975,48.019Z" transform="translate(-967.251 -40.586)" fill="#fff"/>
        <g id="Group_59" data-name="Group 59" transform="translate(43.073 15.55)" opacity="0.2">
          <path id="Path_99" data-name="Path 99" d="M1011.055,62.891a28.391,28.391,0,0,0-.728,6.626,31.265,31.265,0,0,1,3.18,6.745,12.174,12.174,0,0,0,3.687-.328C1014.045,67.366,1011.389,63.376,1011.055,62.891Z" transform="translate(-1010.324 -62.891)" fill="#00394f"/>
        </g>
        <g id="Group_60" data-name="Group 60" transform="translate(7.378 15.532)" opacity="0.1">
          <path id="Path_100" data-name="Path 100" d="M951.072,62.858c-.244.35-2.938,4.319-6.15,13.058a12.209,12.209,0,0,0,3.7.331A31.257,31.257,0,0,1,951.8,69.5,28.433,28.433,0,0,0,951.072,62.858Z" transform="translate(-944.922 -62.858)" fill="#00394f"/>
        </g>
        <path id="Path_101" data-name="Path 101" d="M979.562,37.8c-4.144-1.541-6.359-3.372-7.13-3.372,0,0,1.616,4.387-6.016,5.922-7.65-2.034-6.033-5.922-6.033-5.922-.771,0-2.987,1.831-7.13,3.372s-6.841,2.506-7.9,4.047c1.445,1.156,6.071,3.758,6.071,15.61V92.625a57.734,57.734,0,0,0,14.936,1.927,54.546,54.546,0,0,0,15.036-1.927V57.454c0-11.853,4.625-14.454,6.071-15.61C986.4,40.3,983.705,39.338,979.562,37.8Z" transform="translate(-937.739 -34.411)" fill="#fff"/>
        <g id="Group_61" data-name="Group 61" transform="translate(0 23.345)">
          <path id="Path_102" data-name="Path 102" d="M931.617,77.173a4.84,4.84,0,0,0-.214.662c.578,1.734,5.878,5.3,11.081,4.915.256-.7.022-.154.262-.736C938.46,82.166,933.142,79.105,931.617,77.173Z" transform="translate(-931.403 -77.173)" fill="#ededed"/>
        </g>
        <g id="Group_62" data-name="Group 62" transform="translate(46 23.389)">
          <path id="Path_103" data-name="Path 103" d="M1026.833,77.255c-1.507,1.9-6.843,4.993-11.146,4.835a7.417,7.417,0,0,1,.256.7c5.2.385,10.5-3.18,11.081-4.915A4.592,4.592,0,0,0,1026.833,77.255Z" transform="translate(-1015.687 -77.255)" fill="#ededed"/>
        </g>
        <g id="Group_65" data-name="Group 65" transform="translate(12.138 13.189)" opacity="0.1">
          <g id="Group_63" data-name="Group 63" transform="translate(24.171)">
            <path id="Path_104" data-name="Path 104" d="M999.007,73.8c-.332,9.637-.832,24.14-1.077,31.241a45.6,45.6,0,0,0,7.346-1.45V68.419a26.761,26.761,0,0,1,1.545-9.854A19.048,19.048,0,0,0,999.007,73.8Z" transform="translate(-997.93 -58.565)" fill="#00394f"/>
          </g>
          <g id="Group_64" data-name="Group 64">
            <path id="Path_105" data-name="Path 105" d="M962.532,105.022c-.245-7.108-.745-21.593-1.076-31.223a19.045,19.045,0,0,0-7.813-15.234,26.763,26.763,0,0,1,1.545,9.854V103.59A51.354,51.354,0,0,0,962.532,105.022Z" transform="translate(-953.643 -58.565)" fill="#00394f"/>
          </g>
        </g>
        <path id="Path_106" data-name="Path 106" d="M941.682,47.314c1.317-2.692,2.333-4.572,2.333-4.572,1.024-1.541,3.632-2.505,7.637-4.047,3.817-1.469,5.927-3.183,6.762-3.342a5.292,5.292,0,0,1-.072-.929c-.771,0-2.987,1.831-7.13,3.372s-6.841,2.506-7.9,4.047c0,0-1.07,1.914-2.452,4.647Z" transform="translate(-935.698 -34.411)" fill="#fff"/>
        <path id="Path_107" data-name="Path 107" d="M1001.6,38.695c4,1.542,6.612,2.506,7.637,4.047,0,0,.966,1.788,2.235,4.373l.822-.822c-1.335-2.631-2.353-4.449-2.353-4.449-1.06-1.542-3.758-2.506-7.9-4.047s-6.359-3.372-7.13-3.372a5.292,5.292,0,0,1-.072.929C995.673,35.512,997.783,37.225,1001.6,38.695Z" transform="translate(-960.216 -34.411)" fill="#fff"/>
        <path id="Path_108" data-name="Path 108" d="M977.627,40.337c6.693,0,7.576-4.657,7.576-5.238a4.586,4.586,0,0,0-1.561-.694s.764,4.215-6.024,4.215c-6.308,0-6.024-4.215-6.024-4.215a4.6,4.6,0,0,0-1.56.693S970.992,40.337,977.627,40.337Z" transform="translate(-948.95 -34.403)" fill="#fff"/>
        <rect id="Rectangle_124" data-name="Rectangle 124" width="12.15" height="1.842" transform="translate(22.604)" fill="#ededed"/>
        <path id="Path_109" data-name="Path 109" d="M977.627,40.337c6.693,0,7.576-4.657,7.576-5.238a4.586,4.586,0,0,0-1.561-.694s.764,4.215-6.024,4.215c-6.308,0-6.024-4.215-6.024-4.215a4.6,4.6,0,0,0-1.56.693S970.992,40.337,977.627,40.337Z" transform="translate(-948.95 -34.403)" fill="#ededed"/>
      </g>
      <g id="Group_68" data-name="Group 68" transform="translate(951.194 49.66)">
        <g id="Group_67" data-name="Group 67">
          <path id="Path_110" data-name="Path 110" d="M977.183,62.36a9.226,9.226,0,0,1,4.758,1.285,9.623,9.623,0,0,1,3.473,3.473,9.45,9.45,0,0,1,0,9.517,9.617,9.617,0,0,1-3.473,3.473,9.447,9.447,0,0,1-9.517,0,9.616,9.616,0,0,1-3.473-3.473,9.45,9.45,0,0,1,0-9.517,9.622,9.622,0,0,1,3.473-3.473A9.227,9.227,0,0,1,977.183,62.36Zm5.526,10.591V70.8a.459.459,0,0,0-.461-.461h-3.531V66.811a.459.459,0,0,0-.461-.461h-2.149a.458.458,0,0,0-.461.461v3.531h-3.531a.458.458,0,0,0-.46.461v2.149a.458.458,0,0,0,.46.461h3.531v3.531a.458.458,0,0,0,.461.46h2.149a.459.459,0,0,0,.461-.46V73.412h3.531a.459.459,0,0,0,.461-.461Z" transform="translate(-967.666 -62.36)" fill="#878787"/>
        </g>
      </g>
    </g>
  </g>
</svg>
