<?xml version="1.0" encoding="utf-8"?>
<!-- Generator: Adobe Illustrator 23.0.3, SVG Export Plug-In . SVG Version: 6.00 Build 0)  -->
<svg version="1.1" id="Layer_1" xmlns="http://www.w3.org/2000/svg" xmlns:xlink="http://www.w3.org/1999/xlink" x="0px" y="0px"
	 viewBox="0 0 57.43 60.04" style="enable-background:new 0 0 57.43 60.04;" xml:space="preserve">
<style type="text/css">
	.st0{fill:#FFFFFF;}
	.st1{fill:#EDEDED;}
	.st2{opacity:0.1;fill:#00394F;enable-background:new    ;}
	.st3{fill:#C6C6C6;}
	.st4{fill:#878787;}
</style>
<g id="Group_359" transform="translate(-901.221 -655.027)">
	<g transform="matrix(1, 0, 0, 1, 901.22, 655.03)">
		<path id="Path_950-2" class="st0" d="M54.45,49.46c0,0-0.08-7.64-0.54-15.6c-0.39-6.95-1.27-13.87-2.62-20.69
			c-0.44-3.45-2.81-6.36-6.1-7.49c-0.96-0.37-2.49-0.93-3.96-1.46L41.17,4.2c-1.86-0.71-3.67-1.58-5.39-2.59V1.6
			c-0.44-0.3-0.93-0.52-1.45-0.66V0.93H22.59v0.01c-0.52,0.14-1.02,0.36-1.47,0.66v0.01C19.4,2.63,17.6,3.49,15.74,4.2
			c-1.25,0.46-2.36,0.87-3.33,1.26l-0.57,0.22c-0.59,0.22-1.16,0.5-1.71,0.81c-0.8,0.37-1.5,0.93-2.04,1.62l0.01,0.01
			c-1.26,1.42-2.08,3.17-2.37,5.05C4.38,20,3.51,26.92,3.12,33.87c-0.46,7.95-0.54,15.6-0.54,15.6l0.21,6.65H2.78l0.01,0.17
			l0.01,0.36c0.13,0.03,0.26,0.05,0.39,0.07c0.72,0.17,1.46,0.26,2.2,0.26c0.63,0.03,1.25,0,1.88-0.08c0.53-0.05,1.06-0.15,1.57-0.3
			l0.07-0.02l0,0l0,0c0,0,0.12-4.88,0.35-9.13c0.13-4.5,0.6-8.98,1.39-13.42c0,0,0.37-1.65,0.86-3.71c0.37-1.5,0.81-3.26,1.21-4.76
			c0.24-0.87,0.47-1.65,0.67-2.23c0.14-0.41,0.38-0.83,0.49-1.27c0.02-0.05,0.04-0.1,0.06-0.15c0.01,0.19,0.02,0.35,0.02,0.51
			c0.01,0.26,0.01,0.52,0.01,0.79v34l0,0c4.71,1.25,9.57,1.88,14.44,1.86c4.29,0.01,8.58-0.46,12.77-1.4
			c1.2-0.27,1.88-0.47,1.88-0.47v-34c0-0.57,0.02-0.83,0.04-1.31l0.06,0.15c0.11,0.44,0.35,0.87,0.49,1.28
			c0.23,0.66,0.5,1.59,0.78,2.62c0.32,1.21,0.66,2.56,0.96,3.79c0.56,2.32,1,4.28,1,4.28c0.79,4.43,1.26,8.92,1.39,13.42
			c0.23,4.25,0.35,9.13,0.35,9.13l0,0v0.01l0.05,0.02v0.02c1.09,0.27,2.21,0.41,3.33,0.41c0.93,0.01,1.86-0.11,2.76-0.36l0.04-0.51
			l-0.06,0.01L54.45,49.46z"/>
	</g>
	<g id="Group_351" transform="translate(889 69)">
		<g id="Group_337" transform="translate(-245.188 526.902)">
			<rect id="Rectangle_373" x="280" y="60.03" class="st0" width="11.76" height="1.78"/>
			<path id="Path_941" class="st0" d="M311.34,92.99c-0.39-6.96-1.27-13.88-2.63-20.71c-0.44-3.46-2.81-6.36-6.11-7.5
				c-0.96-0.37-2.49-0.93-3.97-1.46l-0.05-0.02c-4.01-1.49-6.15-3.26-6.9-3.26c0.09,0.28,0.13,0.56,0.14,0.85l-0.04,0.01v-0.38
				h-11.78v0.37c-0.04-0.01-0.08-0.02-0.12-0.03c0-0.28,0.04-0.55,0.14-0.82c-0.75,0-2.89,1.77-6.9,3.26
				c-1.25,0.46-2.36,0.88-3.33,1.26c-0.2,0.08-0.4,0.15-0.57,0.22c-0.59,0.22-1.16,0.5-1.71,0.81c-0.8,0.37-1.5,0.93-2.04,1.62
				l0.01,0.01c-1.26,1.42-2.09,3.17-2.37,5.05c-1.36,6.83-2.24,13.76-2.63,20.71c-0.46,7.96-0.54,15.61-0.54,15.61l0.23,7.19
				c2.01,0.46,4.11,0.44,6.11-0.08c0,0,0.08-4.95,0.31-9.2c0.16-4.59,0.65-9.16,1.47-13.68c0,0,1.78-7.5,2.66-10.4
				c0.25-0.54,0.45-1.02,0.61-1.45c0.01,0.43,0.02,0.88,0.02,1.34v34.03c4.72,1.25,9.57,1.88,14.45,1.86
				c4.91,0.06,9.81-0.57,14.55-1.86V82.33c0-0.57,0.01-1.12,0.04-1.65c0.2,0.6,0.44,1.19,0.71,1.76c0.88,2.9,2.66,10.4,2.66,10.4
				c0.81,4.52,1.3,9.09,1.47,13.68c0.23,4.25,0.31,9.2,0.31,9.2c2,0.51,4.09,0.54,6.11,0.08l0.23-7.19
				C311.88,108.61,311.81,100.96,311.34,92.99z M300.91,76.22c-0.01,0.05-0.03,0.1-0.05,0.15c0.12-0.65,0.26-1.26,0.41-1.82
				C301.17,75.09,301.06,75.64,300.91,76.22z"/>
			<path id="Path_942" class="st0" d="M285.87,65.77c6.48,0,7.33-4.5,7.33-5.07c-0.46-0.32-0.97-0.54-1.51-0.67
				c0,0,0.74,4.08-5.83,4.08c-6.1,0-5.83-4.08-5.83-4.08c-0.54,0.13-1.05,0.35-1.51,0.67C278.53,60.7,279.45,65.77,285.87,65.77z"/>
			<rect id="Rectangle_374" x="280" y="60.03" class="st1" width="11.76" height="1.78"/>
			<path id="Path_943" class="st1" d="M285.87,65.77c6.48,0,7.33-4.5,7.33-5.07c-0.46-0.32-0.97-0.54-1.51-0.67
				c0,0,0.74,4.08-5.83,4.08c-6.1,0-5.83-4.08-5.83-4.08c-0.54,0.13-1.05,0.35-1.51,0.67C278.53,60.7,279.45,65.77,285.87,65.77z"/>
			<path id="Path_944" class="st2" d="M278.47,117.74c-0.24-6.88-0.72-20.9-1.04-30.21c-0.04-5.82-2.84-11.28-7.53-14.72V72.8l0,0
				l-0.02-0.02c0,0.01,0.01,0.02,0.01,0.03c-2.34,3.69-4.01,7.77-4.93,12.04c-2,10.29-2.71,20.79-2.12,31.26
				c1.17,0.05,2.35-0.09,3.48-0.41c0,0,0.12-4.89,0.35-9.14c0.13-4.5,0.6-8.99,1.39-13.43c0,0,1.75-7.84,2.74-10.7
				c0.24-0.49,0.42-1,0.54-1.53c0.02,0.55,0.04,0.81,0.04,1.41v34.03C273.7,116.99,276.08,117.45,278.47,117.74z"/>
			<path id="Path_945" class="st2" d="M293.37,117.73c0.24-6.88,0.72-20.9,1.04-30.21c0.04-5.82,2.84-11.28,7.53-14.72V72.8l0,0
				l0.02-0.02c0,0.01-0.01,0.02-0.01,0.03c2.34,3.69,4.01,7.77,4.93,12.04c2,10.29,2.71,20.79,2.13,31.26
				c-1.17,0.05-2.35-0.09-3.48-0.41c0,0-0.12-4.89-0.35-9.14c-0.13-4.5-0.6-8.99-1.39-13.43c0,0-1.75-7.84-2.74-10.7
				c-0.24-0.49-0.42-1-0.54-1.53c-0.02,0.55-0.04,0.81-0.04,1.41v34.03C298.14,116.98,295.77,117.45,293.37,117.73z"/>
			<path id="Path_946" class="st0" d="M262.97,116.13c-0.93,0.01-1.86-0.11-2.76-0.36l-0.04-0.51c2.02,0.42,4.11,0.41,6.14-0.01
				l-0.01,0.47C265.21,115.99,264.09,116.13,262.97,116.13z"/>
			<path id="Path_947" class="st0" d="M308.94,116.16c0.93,0.01,1.86-0.11,2.76-0.36l0.04-0.51c-2.02,0.42-4.11,0.41-6.14-0.01
				l0.01,0.47C306.69,116.02,307.81,116.16,308.94,116.16z"/>
			<path id="Path_948" class="st3" d="M280.48,61.79h10.9c-0.32,0.71-0.89,1.28-1.6,1.6c-1.84,0.79-3.88,0.99-5.83,0.56
				C282.54,63.75,281.29,62.96,280.48,61.79z"/>
			<g id="Group_336" transform="translate(283.491 79.04)">
				<g id="Group_335" transform="translate(0 0)">
					<path id="Path_949" class="st4" d="M2.79-5.07C4.41-5.08,6-4.65,7.39-3.82c1.39,0.81,2.55,1.97,3.36,3.36
						c1.66,2.85,1.66,6.36,0,9.21c-0.81,1.39-1.97,2.55-3.36,3.36c-2.85,1.66-6.36,1.66-9.21,0c-1.39-0.81-2.55-1.97-3.36-3.36
						c-1.66-2.85-1.66-6.36,0-9.21c0.81-1.39,1.97-2.55,3.36-3.36C-0.43-4.65,1.17-5.08,2.79-5.07z M8.14,5.18V3.1
						c0-0.25-0.2-0.44-0.44-0.45c0,0,0,0,0,0H4.27v-3.42c0-0.25-0.2-0.44-0.44-0.45c0,0,0,0,0,0H1.75c-0.25,0-0.44,0.2-0.45,0.44
						c0,0,0,0,0,0v3.42h-3.42c-0.25,0-0.44,0.2-0.45,0.44c0,0,0,0,0,0v2.08c0,0.25,0.2,0.44,0.44,0.44c0,0,0,0,0,0H1.3v3.42
						c0,0.25,0.2,0.44,0.44,0.45c0,0,0,0,0,0h2.08c0.25,0,0.44-0.2,0.45-0.44c0,0,0,0,0,0V5.62h3.42C7.94,5.62,8.14,5.42,8.14,5.18
						C8.14,5.18,8.14,5.18,8.14,5.18L8.14,5.18z"/>
				</g>
			</g>
		</g>
	</g>
</g>
</svg>
