<svg xmlns="http://www.w3.org/2000/svg" xmlns:xlink="http://www.w3.org/1999/xlink" width="560.966" height="496.003" viewBox="0 0 560.966 496.003">
  <defs>
    <radialGradient id="radial-gradient" cx="208.406" cy="45.25" r="751.997" gradientTransform="translate(163.156 40.779) scale(0.217 0.099)" gradientUnits="userSpaceOnUse">
      <stop offset="0" stop-color="#1a6ab4"/>
      <stop offset="0.971" stop-color="#0f265a"/>
    </radialGradient>
  </defs>
  <g id="Group_366" data-name="Group 366" transform="translate(-57.64 -997.775)">
    <rect id="Rectangle_376" data-name="Rectangle 376" width="416.812" height="90.5" transform="translate(129.938 997.775)" fill="url(#radial-gradient)"/>
    <path id="Path_952" data-name="Path 952" d="M-5276.193,997.2h-417.083l-71.769,406.337h560.966Z" transform="translate(5822.684 90.14)" fill="#039545"/>
    <path id="Path_953" data-name="Path 953" d="M-5726.6,1666.362l-10.351,58.547h537.42l-10.4-58.547Z" transform="translate(5806.339 -299.242)" fill="#1a411e" opacity="0.11"/>
    <path id="Path_954" data-name="Path 954" d="M-5682.741,1427.873l-8.371,47.26h499l-8.412-47.26Z" transform="translate(5779.663 -160.466)" fill="#1a411e" opacity="0.11"/>
    <path id="Path_955" data-name="Path 955" d="M-5647,1232.336l-6.912,38.949H-5186.1l-6.944-38.949Z" transform="translate(5758.018 -46.684)" fill="#1a411e" opacity="0.11"/>
    <path id="Path_956" data-name="Path 956" d="M-5617.507,1069.107l-5.621,32.653h442.009l-5.452-32.653Z" transform="translate(5740.103 48.299)" fill="#1a411e" opacity="0.11"/>
    <path id="Path_957" data-name="Path 957" d="M-5658.051,1259.286l2.783-17.687h0l0-.01h134.889a48.543,48.543,0,0,0,1.194,12.266,51.274,51.274,0,0,0,4.3,11.81,58.74,58.74,0,0,0,7.343,11.056,70.827,70.827,0,0,0,10.308,9.989q.317.252.636.5c.215.165.432.331.647.495s.434.328.652.489.436.324.656.485a86.2,86.2,0,0,0,12.833,7.729,96.993,96.993,0,0,0,14.478,5.7,107,107,0,0,0,15.757,3.521,114.783,114.783,0,0,0,16.643,1.2h.483l.482,0,.481-.005.481-.008.685-.016.514-.013.4-.01.344-.011.726-.027.537-.022.41-.018.347-.017.81-.044.643-.036.534-.034.477-.034.6-.046.488-.039.138-.011.471-.044c.4-.044.958-.1,1.718-.183.69-.067,1.558-.163,2.649-.279l.5-.063.428-.055c.228-.031.527-.079.976-.146.484-.081,1.14-.191,2.045-.338.655-.112,1.448-.243,2.4-.4l.1-.018c.656-.121,1.143-.212,1.518-.283l.4-.078c.2-.044.437-.1.749-.172.51-.118,1.189-.279,2.138-.5.924-.221,2.1-.5,3.6-.864.328-.09.645-.178.948-.263s.575-.163.848-.242c.177-.052.359-.105.554-.167.454-.132.962-.294,1.56-.485.561-.172,1.208-.377,1.952-.619l.612-.209.063-.022q.372-.129.733-.256l.647-.231.251-.091c.2-.071.393-.142.585-.214.48-.177.947-.354,1.407-.532s.912-.358,1.361-.541l.433-.177.381-.157.348-.145.329-.138q.731-.312,1.438-.626c.368-.164.728-.329,1.088-.495.161-.075.317-.148.485-.228.541-.249,1.12-.536,1.762-.852.46-.224.95-.471,1.479-.74l.5-.259c.341-.178.612-.321.841-.443s.39-.208.546-.292l.105-.059c.077-.039.16-.086.239-.13l.123-.068.474-.264c.15-.084.294-.164.431-.243l.4-.228.384-.223.616-.365.223-.133.119-.074c.177-.11.433-.279.868-.558s1.044-.683,1.908-1.264,1.992-1.315,3.464-2.291h0l.013-.008h-.006c.222-.161.44-.322.659-.485.085-.062.167-.124.25-.187l.4-.3c.13-.095.254-.192.38-.289l.276-.21q.321-.249.639-.5c.111-.086.22-.174.328-.26l.169-.137.011-.009.144-.117c.108-.088.214-.175.321-.263l.319-.264.079-.064.077-.064c.027-.021.052-.043.077-.065s.053-.042.078-.064l.313-.263.278-.236.034-.03c.113-.1.22-.191.333-.286s.234-.206.359-.316c.082-.07.166-.14.248-.214l.013-.011.31-.277c.1-.089.2-.176.291-.262l.28-.256c.026-.022.049-.044.073-.066l.072-.067.021-.02c.04-.036.075-.068.115-.107s.084-.076.125-.115l.176-.163c.1-.089.193-.181.289-.271l.176-.166c.055-.053.1-.1.165-.159.114-.111.232-.221.358-.346.088-.089.177-.169.265-.257.066-.067.14-.138.215-.211l.025-.025.09-.09c.087-.088.178-.178.281-.284s.251-.258.4-.4c.095-.095.183-.184.277-.286l.252-.257.022-.023.06-.062c.086-.093.174-.184.271-.291.114-.118.232-.243.359-.382.043-.043.084-.089.127-.133l.042-.046.276-.3c.087-.094.167-.184.246-.272l.227-.254c.021-.022.041-.044.06-.066l.031-.033.142-.163a3.215,3.215,0,0,0,.252-.287c.087-.094.176-.2.27-.308s.188-.228.295-.353.221-.257.347-.411c.07-.081.145-.169.215-.257s.151-.177.233-.279.17-.214.265-.331c.046-.055.1-.115.146-.178.12-.15.23-.288.329-.414l.162-.206.169-.223c.073-.091.152-.192.235-.3.039-.053.079-.1.118-.156.082-.109.164-.22.257-.347.024-.03.049-.065.073-.1s.033-.043.047-.062c.089-.12.17-.228.242-.329l.021-.029.019-.026c.076-.1.151-.213.24-.33s.184-.258.29-.4c.021-.03.045-.063.065-.093l.076-.106.259-.372c.08-.115.155-.223.225-.328l.11-.163c.081-.123.171-.253.265-.4.01-.013.019-.028.027-.041.025-.039.056-.084.08-.12.083-.126.157-.24.225-.345s.132-.2.191-.295l0,0c.018-.029.033-.055.053-.085.064-.1.131-.2.2-.31.035-.057.069-.111.1-.165l.14-.23c.069-.11.133-.221.208-.339s.151-.249.233-.389.182-.3.283-.477c.031-.047.06-.1.087-.146l.079-.135c.02-.036.041-.073.062-.11.034-.061.065-.12.1-.183.063-.1.125-.213.188-.331s.139-.25.214-.39c.06-.1.112-.192.165-.294.015-.027.028-.051.042-.077q.073-.141.153-.29c.07-.125.139-.257.214-.4s.158-.309.246-.485c.049-.1.1-.2.151-.294s.1-.2.151-.3.107-.221.164-.338.112-.235.174-.375c.052-.1.108-.206.159-.324s.1-.221.158-.353.119-.257.188-.412c.056-.131.123-.278.2-.438l.027-.06c.037-.1.08-.2.123-.3s.088-.214.14-.324.088-.213.137-.331.1-.228.146-.352.087-.213.13-.331.09-.228.139-.36.1-.265.158-.419.119-.316.189-.507c.044-.11.082-.22.118-.331s.077-.221.12-.33.077-.221.113-.331l.114-.33c.038-.111.069-.22.107-.338s.075-.243.119-.374.081-.273.132-.427.094-.323.151-.507c.03-.11.069-.22.1-.331s.063-.22.094-.338.063-.22.094-.331.063-.227.095-.345.062-.235.094-.36.063-.249.094-.375.063-.272.1-.411.069-.3.115-.462c.025-.118.048-.235.074-.353s.05-.235.076-.353.05-.235.076-.353.05-.235.075-.353.044-.25.068-.382.051-.25.077-.382.044-.25.07-.382.044-.257.062-.389c.127-.756.241-1.521.328-2.285s.163-1.528.22-2.3c.015-.2.025-.408.038-.612.032-.568.058-1.137.07-1.707q.028-1.157,0-2.319h140.8l7.413,47.09,7.919,50.32,4.185,26.591v-24.071l-.4-2.518-8.048-50.314-7.533-47.1-.422-2.645-6.633-41.5-6.639-41.5-6.241-39.066-5.9-36.839-5.562-34.805-3.5-21.88-.3-1.9-1.465-9.154-.3-1.859-17.462-.008-2.977.008h-135.966l-.4-14.055h-66.42l-.4,14.047h0v.009H-5548l-53.419-.008-2.963.008h-17.467l-.307,1.851-5.265,32.931-5.564,34.8-5.892,36.843-6.246,39.064-6.635,41.5-6.637,41.515-.275,1.717-.149.938-1.348,8.429-6.181,38.651-6.758,42.273v24.025L-5670.6,1339l3.21-20.388,4.711-29.934Zm305.306-16.416c0,.142,0,.284,0,.426s0,.273-.009.411-.008.273-.013.411-.01.273-.014.41-.013.273-.019.41c0,.09-.011.174-.014.253s-.01.156-.016.228-.008.142-.012.21c0,.024,0,.047-.005.071s-.006.062-.006.1h0l0,.034c0,.067-.009.132-.014.2s-.01.133-.015.2-.013.133-.017.2-.013.132-.017.2c-.017.169-.032.319-.046.456s-.026.259-.039.372-.024.217-.036.317-.022.194-.034.288c0,.041-.01.082-.014.123s-.01.082-.016.123-.009.082-.014.122-.01.082-.015.122c-.015.112-.029.223-.045.334s-.032.223-.048.334-.034.222-.05.332-.036.221-.052.332c-.005.028-.009.056-.013.083s-.009.055-.015.083l-.012.083c0,.025-.009.051-.013.076,0,0,0,.009,0,.012v0c0,.034-.01.067-.018.1l-.019.109-.018.109-.019.109c-.014.073-.027.145-.039.217s-.028.146-.042.218-.027.145-.041.217-.028.145-.043.217c0,.027-.011.056-.015.082s-.01.054-.016.08-.012.054-.017.08-.011.053-.017.08a.618.618,0,0,1-.017.078c0,.026-.011.052-.016.078s-.013.051-.018.077-.012.052-.017.077c-.029.129-.052.242-.074.343s-.041.189-.06.269-.034.153-.049.22-.029.132-.043.2c-.039.16-.075.3-.107.433s-.062.247-.089.356l-.08.307-.074.281c-.009.027-.016.053-.022.08s-.013.053-.021.08-.012.053-.02.08-.014.053-.021.08-.015.058-.024.088-.014.051-.019.081c-.038.117-.07.235-.1.353-.018.059-.034.115-.051.171s-.031.108-.046.159c-.039.129-.077.253-.113.373s-.074.24-.112.359c-.012.041-.024.081-.038.121s-.027.081-.039.122-.026.081-.041.122-.024.082-.04.122c-.025.083-.053.164-.08.247s-.055.163-.082.246l-.084.245c-.027.082-.055.163-.084.245-.014.043-.03.086-.045.128s-.029.086-.044.129-.03.085-.045.127v0l0,.006,0,.01c-.014.036-.025.072-.04.109q-.06.166-.122.333c-.042.111-.083.222-.123.332s-.084.221-.127.331-.084.221-.128.33l-.318.771c-.089.214-.162.391-.226.542s-.117.277-.166.39-.094.213-.14.312-.074.172-.114.259c-.008.019-.018.038-.025.057-.03.067-.061.136-.091.208s-.083.168-.12.257-.082.169-.12.257c0,.007-.007.014-.01.021-.033.068-.064.136-.1.2s-.075.154-.111.231l-.114.23-.114.23c-.041.079-.074.147-.1.206s-.053.108-.076.152l-.057.114c-.016.034-.03.066-.048.1-.036.073-.074.145-.112.217l-.114.217c-.038.072-.076.143-.114.215s-.076.144-.116.216c-.027.052-.054.1-.082.155s-.055.1-.081.155-.057.1-.084.155c-.015.028-.031.056-.046.083l-.043.079a.948.948,0,0,0-.068.125c-.008.013-.015.024-.021.036l-.007.012c-.006.013-.015.025-.021.038a.348.348,0,0,1-.018.034c-.022.04-.043.08-.066.12a.046.046,0,0,0,0,.01c-.023.041-.046.082-.068.122-.014.025-.03.051-.043.076s-.031.051-.047.077-.028.051-.044.077h0a.03.03,0,0,0,0,.009.554.554,0,0,0-.044.074v0l-.09.159-.1.167c-.031.056-.064.112-.1.168l-.015.026c-.011.02-.021.037-.032.058-.056.1-.114.191-.17.287-.014.023-.029.045-.042.068l-.056.092-.071.121c-.025.041-.049.082-.076.122l-.013.023a.08.08,0,0,1-.009.012c-.022.039-.046.077-.072.115s-.052.084-.078.126l-.011.018a.939.939,0,0,0-.089.14c-.005.008-.012.02-.019.029l-.054.087c-.025.042-.053.085-.081.127v0l0,0v0l-.073.118c-.026.043-.054.085-.08.128s-.041.063-.061.095-.041.064-.061.1-.04.064-.061.1-.04.063-.061.095c-.063.1-.127.2-.193.293s-.129.2-.194.293-.131.2-.2.293-.131.194-.2.292l-.005.01c-.053.08-.1.155-.161.24s-.12.17-.18.252-.1.134-.14.2-.083.123-.126.182c-.019.028-.039.053-.06.08-.054.077-.108.154-.161.226-.078.108-.154.213-.232.317-.048.067-.1.134-.146.2s-.1.132-.148.2-.1.133-.147.2l-.151.2-.006.006h0l-.076.1-.082.107c-.026.035-.054.071-.081.106l-.024.03c-.024.035-.047.063-.076.105-.063.074-.132.169-.215.279l-.091.109-.052.064c-.024.032-.054.068-.09.114l-.027.033c-.032.042-.063.079-.091.116-.168.208-.311.382-.431.53s-.223.273-.312.379-.162.2-.23.278l-.191.227-.147.173-.145.169-.144.167-.1.109c-.02.022-.038.043-.055.066-.039.042-.081.089-.121.136l-.024.028-.152.172-.153.171c-.053.058-.1.116-.154.173l-.169.187c-.056.062-.113.125-.17.187s-.112.124-.169.186l0,0-.006.007-.057.063-.1.112-.019.021c-.041.046-.081.087-.123.135s-.087.1-.131.139a.662.662,0,0,0-.048.049c-.028.029-.055.06-.083.089l-.134.142-.091.094c-.029.031-.058.062-.089.093l-.087.093-.091.094-.081.084-.047.048c-.014.015-.029.031-.042.046a.894.894,0,0,0-.071.069l0,0-.02.021a.906.906,0,0,1-.071.076l-.138.14c-.05.052-.1.1-.146.147s-.094.1-.143.147c-.025.026-.056.053-.085.082l-.05.05-.174.173-.174.171-.027.026-.153.153c-.063.059-.12.11-.174.169s-.1.095-.152.147-.1.095-.145.139c-.015.016-.031.028-.046.043l-.1.093-.069.064-.083.086c-.026.024-.053.048-.083.072l-.01.01-.094.089c-.033.029-.064.059-.1.089l-.094.089-.081.074c-.028.025-.055.05-.081.075l-.082.074-.029.027c-.019.019-.038.039-.057.056l-.145.13-.007.006-.155.145-.157.143-.158.142-.238.212-.125.109c-.03.028-.061.057-.093.084-.044.043-.087.08-.132.117s-.087.081-.132.125-.113.1-.176.147c-.018.017-.043.036-.064.053s-.057.05-.085.075c-.054.048-.109.1-.164.142l-.165.144-.068.056-.068.056-.068.056-.068.056-.088.074c-.031.025-.06.049-.089.075s-.058.05-.09.074l-.024.021c-.022.021-.044.041-.065.065q-.141.11-.27.22c-.082.06-.167.128-.25.2l-.017.013-.064.051-.212.174-.07.054c-.064.053-.131.105-.2.158l-.1.083-.014.013c-.023.015-.047.037-.071.056l-.023.019-.073.059c-.05.039-.1.081-.166.137l-.283.22c-.069.06-.138.111-.208.169s-.144.111-.214.162-.144.11-.212.169-.147.11-.222.161-.138.111-.214.162-.156.118-.252.191-.194.147-.314.236c-.041.028-.084.061-.128.093l-.1.071-.2.152c-.057.044-.119.088-.183.133l-.184.128c-.04.029-.086.061-.121.087l-.159.113c-.035.025-.068.052-.1.076s-.05.036-.075.051a.345.345,0,0,1-.081.059c-.025.022-.057.044-.088.067l-.1.066c-.094.067-.188.132-.283.2s-.188.132-.3.206-.214.146-.34.228-.245.169-.389.265l-.02.011-.125.084c-.02.014-.039.03-.058.042a1.081,1.081,0,0,1-.1.067c-.031.022-.064.044-.1.073s-.07.044-.105.067a.54.54,0,0,0-.108.073,1.249,1.249,0,0,0-.107.066.675.675,0,0,0-.107.074c-.062.037-.125.073-.188.117s-.125.088-.194.132-.151.1-.233.154-.176.111-.278.177c-.042.021-.086.05-.136.079l-.1.06-.084.053c-.055.037-.11.071-.18.115s-.169.11-.277.176c-.063.037-.121.074-.184.111-.038.021-.072.043-.106.064l-.064.04-.169.1-.031.019c-.062.037-.126.082-.188.118-.044.029-.1.058-.144.088s-.1.059-.146.088l-.151.088c-.052.03-.1.059-.144.088-.065.036-.127.073-.183.11l-.189.11c-.057.037-.121.074-.183.111s-.131.073-.2.11c-.106.067-.221.132-.328.192s-.226.132-.333.191-.2.115-.3.168l-.024.014-.337.188c-1.151.642-2.335,1.254-3.531,1.852-2.359,1.178-4.792,2.277-7.311,3.273a97.956,97.956,0,0,1-11.9,3.828,106.255,106.255,0,0,1-12.794,2.4,109.792,109.792,0,0,1-13.484.83,109.269,109.269,0,0,1-15.177-1.057,102.508,102.508,0,0,1-14.254-3.035,94.641,94.641,0,0,1-13.038-4.805,85.093,85.093,0,0,1-11.56-6.355,73.583,73.583,0,0,1-11.937-9.721,60.366,60.366,0,0,1-8.872-11.358,50.694,50.694,0,0,1-5.424-12.587,45.928,45.928,0,0,1-1.65-13.424h.007a.026.026,0,0,1,0-.009h164.07q0,.213.006.427c0,.142,0,.285,0,.427S-5352.745,1242.727-5352.746,1242.87Zm-.163-3.931h-163.766c.12-1.242.284-2.483.5-3.7s.479-2.439.787-3.637.667-2.381,1.064-3.549.85-2.328,1.339-3.474a1.046,1.046,0,0,1,.047-.1l.011-.029c.012-.024.021-.047.031-.071s.021-.051.032-.075c.018-.044.038-.088.056-.133s.043-.095.063-.139c.031-.066.063-.132.1-.206s.056-.132.087-.205.058-.125.091-.186l.011-.025c.032-.067.063-.134.093-.2.012-.037.031-.074.044-.11a.794.794,0,0,0,.051-.1c.019-.037.038-.074.056-.11a1.027,1.027,0,0,1,.05-.111c.038-.081.075-.169.12-.25s.083-.169.12-.257.082-.161.125-.25.088-.169.126-.25a.436.436,0,0,0,.056-.11c.019-.037.037-.081.057-.118l.057-.11c.019-.036.038-.081.056-.118.051-.087.1-.183.145-.271s.1-.192.15-.287l.114-.208c.011-.02.021-.04.032-.06.048-.091.1-.181.146-.272l.018-.032c.012-.02.021-.04.033-.06.019-.036.038-.073.056-.1s.039-.067.056-.1.039-.066.058-.1.037-.066.056-.1a.216.216,0,0,1,.014-.022l.1-.171c.025-.042.048-.084.072-.125l.025-.048a.481.481,0,0,1,.03-.049l.08-.143.047-.082c.019-.032.036-.064.051-.094l.072-.118.023-.041c.03-.051.059-.1.09-.152s.051-.086.077-.129a.127.127,0,0,0,.008-.016c.026-.052.057-.1.087-.154a1.325,1.325,0,0,0,.077-.125c.025-.037.052-.081.076-.125s.05-.081.075-.125a1.356,1.356,0,0,1,.075-.125c.038-.058.069-.118.108-.177s.075-.125.118-.191.089-.14.14-.221.107-.177.169-.271l.094-.138c.059-.091.113-.175.162-.253l.012-.017a.274.274,0,0,1,.016-.026c.009-.013.019-.03.029-.044l.088-.136c.047-.071.092-.139.134-.207.069-.1.127-.188.182-.273.032-.048.065-.1.1-.148s.076-.11.118-.169l.007-.009c.019-.028.034-.052.053-.079.038-.057.077-.114.116-.177.057-.073.106-.161.17-.242s.132-.2.2-.294.146-.2.221-.309.157-.213.239-.33l.111-.149c.018-.026.038-.052.055-.078l.14-.186.1-.143.022-.03c.021-.033.043-.065.067-.1a.9.9,0,0,0,.088-.118c.042-.051.08-.11.125-.162l.14-.183c.019-.023.042-.053.062-.079l.047-.062.108-.138c.044-.061.091-.122.14-.191.031-.037.062-.074.095-.117s.063-.074.088-.11.034-.043.051-.063.032-.041.045-.059c.033-.041.063-.08.094-.119s.076-.1.115-.145.077-.1.115-.145l.005-.008.222-.278c.081-.094.168-.2.263-.313l0,0c.093-.117.187-.234.293-.366a.443.443,0,0,0,.081-.1c.024-.028.051-.057.079-.085s.062-.072.089-.1.056-.065.081-.1c.052-.059.1-.111.135-.156l.062-.071a1.2,1.2,0,0,0,.091-.113,1.328,1.328,0,0,1,.1-.111l.075-.087.083-.1c.021-.02.042-.046.064-.07l.007-.009c.024-.028.049-.057.075-.085l.046-.053.008-.01.095-.11c.031-.036.064-.073.094-.1.007-.009.016-.018.024-.027l.078-.087c.034-.036.066-.073.1-.108l.052-.058c.014-.017.029-.034.044-.051.037-.037.068-.074.1-.11s.05-.055.075-.083l.033-.035v0c.03-.034.058-.067.086-.1a1,1,0,0,0,.082-.089c.028-.031.057-.059.09-.092l.077-.084,0-.007c.024-.027.044-.05.074-.082l.071-.073.123-.131c.022-.025.038-.041.059-.062l.023-.028.031-.03.021-.024.063-.065c.01-.011.018-.022.03-.035a.671.671,0,0,0,.068-.073.89.89,0,0,0,.065-.067c.007-.009.017-.016.025-.024l.041-.042.029-.032c.009-.009.016-.018.024-.027a.288.288,0,0,1,.027-.025l.04-.041.047-.048c.023-.026.043-.051.068-.077.044-.044.1-.088.146-.147.036-.037.078-.08.119-.121l.1-.1.133-.134.1-.1c.067-.073.144-.139.213-.213s.145-.147.221-.221.145-.147.22-.22.145-.14.221-.214l.125-.125c.038-.037.083-.074.125-.118.028-.025.059-.055.09-.083l.041-.04.023-.021.093-.091c.037-.036.076-.073.132-.125s.126-.118.226-.214l.013-.012.1-.091.192-.177.109-.1c.181-.169.408-.374.7-.646a1.124,1.124,0,0,0,.138-.125c.05-.037.095-.082.145-.125s.1-.088.159-.14.112-.1.175-.162c.108-.088.214-.183.321-.279l.241-.2c.025-.023.053-.047.079-.069l.241-.207.088-.076c.106-.095.214-.183.327-.279.1-.081.2-.161.3-.25l.084-.068.229-.19c.1-.083.207-.167.31-.25l.307-.249c.052-.041.1-.081.153-.122s.1-.081.155-.121.1-.081.152-.121.1-.081.154-.122l.1-.079c.034-.026.069-.053.1-.08l.1-.079.045-.036a.613.613,0,0,0,.051-.039l.03-.022.106-.081.095-.073.027-.022.037-.027.1-.073c.042-.033.085-.066.13-.1s.082-.063.124-.095l.094-.072.02-.016c.045-.03.083-.066.126-.1a.76.76,0,0,0,.125-.1l.031-.021.1-.077.124-.091.124-.09.125-.091.106-.078.1-.078c.036-.026.07-.053.106-.078l.1-.078.288-.207.152-.109.181-.134c.088-.06.176-.118.264-.184l.043-.03.227-.158c.117-.082.233-.163.352-.243s.235-.162.353-.242l.355-.241.355-.239a85.89,85.89,0,0,1,11.8-6.555,95.632,95.632,0,0,1,13.206-4.9,103.445,103.445,0,0,1,14.354-3.074,108.931,108.931,0,0,1,15.265-1.067,108.851,108.851,0,0,1,15.261,1.067,103.2,103.2,0,0,1,14.343,3.074,95.387,95.387,0,0,1,13.186,4.9,85.452,85.452,0,0,1,11.771,6.555c.2.135.406.272.608.41s.4.276.6.416.4.278.6.42.394.28.591.422l.1.073.1.073.1.072.1.073.147.11.148.11.145.11.146.109.195.144c.063.049.128.1.193.145l.192.144.189.145c.043.033.087.066.128.1s.086.066.128.1.083.066.124.1l.128.1.2.161.206.159.205.161.2.162.261.212c.086.071.174.141.26.214s.172.142.257.214.174.143.258.215l.065.053.063.053c.021.018.044.035.065.053s.043.034.063.052c.091.076.181.153.27.23l.269.231c.09.077.177.154.268.232s.176.156.266.233l.372.328.316.284c.1.089.191.172.28.253s.176.16.261.239c.123.115.236.217.339.313s.2.183.282.265.169.16.246.235.154.147.227.219l.073.068c.025.023.049.045.072.068s.047.046.073.068l.071.069c.092.089.183.179.275.268s.181.179.272.27l.27.271.267.271c.1.1.192.2.281.288s.174.181.257.267.161.171.241.254l.231.247.387.411c.117.127.226.245.328.357s.2.217.29.321.183.2.271.3l.269.3c.087.1.175.2.263.3l.26.3c.084.1.17.2.254.3a59.3,59.3,0,0,1,4.068,5.428,54.032,54.032,0,0,1,3.338,5.773,50.051,50.051,0,0,1,2.553,6.09,47.478,47.478,0,0,1,1.708,6.379c.024.122.047.244.069.364s.044.242.063.361.043.24.063.359.04.238.059.358c.022.142.043.277.063.406s.038.253.055.374.033.238.05.353.031.229.046.343c.02.158.037.3.054.441s.031.265.043.387.026.237.037.351.022.223.034.333h-.006C-5352.927,1238.765-5352.918,1238.85-5352.909,1238.939Zm93.891-226.648h14.517l1.442,9.156a25.692,25.692,0,0,1-5-.793c-.2-.051-.4-.1-.592-.152a21.579,21.579,0,0,1-4.791-2,16.648,16.648,0,0,1-1.952-1.308l-.017-.013a13.1,13.1,0,0,1-1.62-1.5,8.785,8.785,0,0,1-1.99-3.394ZM-5462.173,998.2h.007v0h60.653l.315,12.235h0v.009h-61.29Zm-21.156,14.1h.006v-.008h102.966l.929,21.465h-.009v0h-104.817Zm-61.882,0h.006v-.008h58.9l-1.07,23.4h111.053l-1.069-23.389h.006v-.008h58.907l3.137,32.931,2.767,29.052h0v.006h-238.542l2.769-29.052Zm166.705,64.046c-.39.323-.788.646-1.184.955s-.811.631-1.221.933c-.154.115-.313.226-.471.34-.259.189-.517.38-.78.566-.062.043-.126.086-.187.129-.365.258-.73.513-1.1.766-.1.066-.2.132-.3.2s-.208.132-.307.205l-.2.126-.091.06-.137.088c-.067.045-.132.09-.206.138-.02.014-.039.022-.059.037a.506.506,0,0,0-.061.037c-.008.006-.017.009-.025.015l-.03.018c-.02.013-.038.026-.06.039l-.086.053-.19.125c-.088.052-.182.11-.271.169s-.181.11-.27.161-.183.111-.277.17c-.025.014-.056.036-.087.051l-.07.043-.042.025c-.02.014-.041.027-.064.043s-.058.036-.083.051c-.082.044-.164.1-.238.14s-.165.1-.241.139-.164.1-.239.14-.164.1-.245.147c-.125.066-.252.14-.378.213s-.251.14-.378.214-.251.139-.383.213-.251.139-.383.213a.877.877,0,0,0-.079.039l-.022.011c-.033.018-.066.036-.1.054l-.012.006-.006,0-.1.052-.109.058-.111.06-.177.1c-.086.047-.172.092-.257.133l-.023.012-.024.013c-.093.048-.181.1-.27.144s-.189.1-.285.147l-.131.065c-.044.023-.087.044-.127.067l-.131.066c-.044.022-.081.044-.125.066-.079.037-.162.079-.244.117l-.037.019-.083.041-.217.11c-.093.044-.187.1-.289.14s-.189.1-.289.14c-.038.022-.076.036-.121.058a.749.749,0,0,0-.112.06c-.034.012-.069.03-.1.044l-.008,0-.111.053-.019.008c-.062.029-.131.066-.194.1s-.138.066-.207.1-.133.066-.2.1-.139.066-.2.1-.137.059-.207.1-.14.059-.208.1-.138.066-.208.095-.145.066-.219.1-.158.073-.234.1-.163.073-.251.11-.184.081-.282.125-.214.088-.334.139c-.017.007-.04.018-.066.026l-.049.021-.09.04h0a.992.992,0,0,1-.119.052c-.061.028-.133.056-.222.091l-.018.008c-.055.028-.116.049-.169.078s-.116.046-.179.067l-.1.042c-.039.018-.077.035-.122.052-.071.029-.152.067-.234.1a.292.292,0,0,1-.076.029.585.585,0,0,1-.069.029c-.025.008-.043.023-.069.03s-.043.023-.069.03a1.315,1.315,0,0,1-.158.058,1.752,1.752,0,0,0-.168.074l-.155.054-.115.045-.133.055c-.11.043-.224.086-.336.129l-.018.008-.049.018c-.139.059-.276.11-.415.161s-.29.111-.44.169-.315.111-.48.176c-.049.015-.1.037-.15.052s-.1.037-.146.059-.094.037-.144.051-.1.037-.152.052a.9.9,0,0,1-.144.052c-.05.022-.1.036-.146.051s-.1.037-.149.059-.108.037-.158.051-.1.037-.15.051a.988.988,0,0,1-.147.052,1.226,1.226,0,0,1-.15.052,1.374,1.374,0,0,1-.151.051c-.064.022-.133.043-.2.073s-.145.044-.228.073-.182.058-.29.1-.226.074-.359.117c-.062.023-.125.045-.181.067a1.878,1.878,0,0,0-.189.059c-.057.022-.119.036-.183.058s-.126.045-.182.06a.608.608,0,0,0-.063.021l-.07.022-.062.022c-.026.007-.044.015-.069.022l-.215.066-.22.066c-.075.022-.151.044-.233.074s-.163.044-.25.074c-.107.037-.22.066-.328.1s-.221.066-.333.1-.22.066-.334.1-.22.066-.333.1c-.094.029-.183.052-.277.081s-.182.052-.271.081-.183.051-.276.073-.184.052-.278.081l-.168.043c-.056.015-.113.03-.176.044l-.17.044c-.062.022-.12.037-.175.052-.126.029-.246.066-.372.1s-.245.066-.366.1-.25.067-.371.1-.252.058-.371.095a.269.269,0,0,0-.075.015.229.229,0,0,1-.07.015l-.074.023c-.019.007-.043.007-.075.015-.089.022-.184.043-.271.073l-.283.067-.278.066c-.095.022-.189.044-.289.066-.05.015-.107.022-.158.037s-.113.023-.163.037-.114.029-.164.037-.106.022-.164.036l-.3.066c-.1.03-.2.052-.31.074s-.214.044-.334.074-.233.052-.358.074l-.094.022-.094.022a.415.415,0,0,0-.089.015l-.093.022c-.127.03-.252.052-.385.082s-.256.051-.4.08-.284.052-.434.082-.314.058-.486.1c-.15.029-.3.059-.453.081l-.459.088c-.158.03-.315.059-.472.081l-.5.088c-.113.023-.227.045-.34.059s-.226.036-.339.059-.226.036-.345.051-.227.037-.34.059a.433.433,0,0,0-.094.015.447.447,0,0,0-.1.015.508.508,0,0,0-.1.015c-.031.007-.063.007-.095.015l-.276.043c-.094.008-.189.023-.283.037l-.282.045-.291.043a.493.493,0,0,0-.1.015.472.472,0,0,0-.107.015.582.582,0,0,0-.115.015.624.624,0,0,0-.105.015c-.094.015-.189.022-.284.037s-.188.022-.282.036-.19.022-.29.037-.188.021-.283.037c-.031.007-.062.007-.094.015a.421.421,0,0,0-.094.015c-.031,0-.063.007-.095.007a.386.386,0,0,1-.093.008l-.31.044c-.1.007-.208.022-.308.036s-.213.022-.321.036-.22.022-.334.037a.59.59,0,0,0-.113.015c-.037,0-.074.007-.113.007a.543.543,0,0,1-.119.015c-.038.007-.076.007-.114.014-.114.008-.227.022-.346.029s-.238.029-.372.044-.271.022-.42.037-.315.029-.493.051c-.038,0-.073.008-.113.008s-.068.007-.107.007-.075.008-.113.015a.6.6,0,0,0-.107.007l-.3.022c-.1.007-.2.015-.3.029l-.309.023-.3.022c-.051.007-.106.007-.157.015s-.1.007-.15.007a1.057,1.057,0,0,1-.151.015c-.057.007-.108.007-.158.015l-.34.022-.339.022c-.107.007-.221.014-.334.014l-.339.022c-.037,0-.077.008-.113.008s-.077.007-.113.007-.076.008-.115.008a.59.59,0,0,0-.114.007l-.363.022c-.12,0-.24.007-.365.015s-.247.015-.373.015-.258.015-.39.015c-.377.022-.761.029-1.139.043s-.761.022-1.144.029-.769.015-1.152.015-.769.007-1.151.007h-.711c-.238,0-.478-.007-.717-.007s-.472-.008-.712-.008-.478-.015-.723-.015q-2.481-.066-4.934-.235t-4.853-.448c-1.6-.191-3.189-.4-4.761-.662s-3.136-.543-4.677-.867c-.15-.029-.308-.059-.459-.1s-.313-.067-.466-.1-.319-.074-.479-.1l-.489-.11c-.113-.03-.233-.059-.346-.082s-.232-.058-.347-.08l-.359-.089c-.118-.029-.239-.058-.364-.087-.347-.089-.692-.177-1.032-.265s-.686-.176-1.026-.272-.679-.183-1.012-.279-.68-.191-1.013-.294-.668-.2-1.007-.3l-1-.308c-.333-.11-.673-.221-1.014-.331s-.68-.235-1.018-.353l-.322-.11c-.108-.036-.214-.073-.328-.118s-.232-.08-.352-.125-.258-.1-.4-.147-.258-.1-.382-.139-.271-.1-.411-.155-.289-.11-.44-.169-.321-.118-.5-.191l-.389-.154c-.134-.051-.265-.1-.4-.162s-.271-.11-.415-.169-.3-.118-.455-.183c-.132-.051-.263-.11-.4-.162s-.266-.117-.4-.176-.277-.118-.422-.184-.295-.125-.453-.2c-.113-.051-.225-.095-.34-.146s-.227-.1-.34-.154-.219-.1-.333-.154l-.334-.155c-.031-.014-.056-.029-.087-.045s-.057-.021-.083-.037-.057-.029-.088-.043a.438.438,0,0,1-.081-.036l-.341-.155c-.107-.058-.22-.11-.334-.161s-.219-.111-.333-.17-.22-.1-.333-.161c-.025-.015-.05-.022-.076-.036l-.075-.045a.775.775,0,0,1-.083-.037c-.025-.015-.051-.022-.075-.037-.1-.051-.195-.1-.29-.147s-.187-.095-.282-.147a3.222,3.222,0,0,1-.29-.147c-.094-.044-.187-.1-.283-.146-.024-.016-.05-.023-.069-.037s-.044-.023-.069-.037a.729.729,0,0,1-.07-.037c-.025-.014-.05-.022-.075-.036-.106-.059-.208-.111-.315-.169s-.214-.118-.32-.169l-.314-.176c-.107-.059-.208-.118-.315-.176a.2.2,0,0,1-.074-.045c-.034-.014-.064-.029-.108-.051s-.1-.058-.17-.1-.15-.081-.251-.139c-.062-.037-.12-.067-.177-.1s-.119-.066-.174-.1a1.634,1.634,0,0,1-.177-.1,1.94,1.94,0,0,1-.175-.1c-.025-.015-.051-.029-.082-.044s-.057-.036-.1-.058-.083-.045-.132-.074-.106-.066-.175-.11c-.051-.03-.108-.059-.164-.1s-.114-.066-.178-.1-.137-.087-.22-.132-.168-.1-.269-.169a.164.164,0,0,1-.063-.037.379.379,0,0,1-.064-.037.571.571,0,0,0-.062-.036.488.488,0,0,0-.062-.036.491.491,0,0,0-.051-.03.12.12,0,0,0-.056-.037c-.02-.015-.045-.029-.07-.051s-.063-.037-.1-.059l-.208-.132c-.07-.044-.138-.089-.214-.133s-.144-.1-.228-.147-.157-.1-.244-.161c-.039-.022-.077-.051-.122-.073a1.034,1.034,0,0,0-.131-.089c-.043-.029-.094-.066-.146-.095l-.18-.125c-.033-.015-.058-.037-.088-.051a.669.669,0,0,0-.084-.06.548.548,0,0,0-.087-.058.65.65,0,0,0-.082-.059c-.435-.294-.863-.589-1.291-.89s-.837-.6-1.246-.911-.817-.618-1.22-.933-.787-.632-1.177-.955h.012l-.008-.005H-5378.5l-.006.005Zm-240.675-64.053h14.52a8.827,8.827,0,0,1-1.992,3.394,14.819,14.819,0,0,1-3.588,2.817,20.15,20.15,0,0,1-2.27,1.118l-.056.021a22.958,22.958,0,0,1-2.465.861,25.609,25.609,0,0,1-5.591.945h0Zm-29.134,185.137,6.529-41.5,6.15-39.064,2.6-16.534,3.194-20.3,1.1-6.971,4.381-27.84,1.177-7.48,2.26-14.393h.006v0a30.489,30.489,0,0,0,6.786-1.1,27.6,27.6,0,0,0,3.056-1.06l.079-.035c.456-.192.9-.393,1.336-.6.03-.015.058-.031.088-.046.427-.212.846-.433,1.248-.664q.333-.193.654-.394a17.359,17.359,0,0,0,3.437-2.785c.076-.08.152-.159.224-.239q.211-.236.405-.478a9.935,9.935,0,0,0,1.916-3.636h.007v-.008h53.5l-3.219,32.931-3.042,31.118h60.05c.079.071.161.143.242.214s.161.142.243.213c.136.109.308.245.544.43.358.286.85.676,1.555,1.227.661.515,1.5,1.176,2.583,2.023l.111.079c.232.166.47.331.706.494s.478.326.719.488.484.321.729.481c.081.052.154.1.227.147s.133.088.2.129.124.08.183.118l.176.112.334.209c.108.068.216.135.322.2s.21.13.316.193l.313.19c.37.222.722.429,1.06.624s.66.382.975.559.621.347.922.51.6.325.9.483c.24.126.471.246.7.362s.448.229.665.338.43.215.644.319l.272.132.4.193.137.066,1,.462c.307.142.541.249.723.331s.312.143.418.191l.268.118.294.125.489.2.924.4.094.039.215.089.549.222.427.169.347.136.3.119.323.122.088.032.186.071.2.073.281.1.248.091.542.2.436.156.364.129.33.114q4.015,1.38,8.207,2.421t8.543,1.741q4.351.7,8.837,1.05t9.087.351q3.7,0,7.318-.23c.6-.038,1.2-.078,1.8-.126,3.021-.25,6.034-.625,9.074-1.139s6.086-1.161,9.181-1.962c3.054-.79,6.15-1.731,9.314-2.821l.041-.016.671-.249.508-.194.428-.167c.186-.073.351-.139.506-.2l.324-.13.032-.013a.046.046,0,0,0,.017-.007l0,0c.106-.036.206-.08.305-.124l.15-.066a.314.314,0,0,1,.045-.014l.036-.014.226-.094c.208-.086.394-.166.566-.238l.229-.1c.191-.086.445-.2.819-.372.4-.184.924-.433,1.654-.779l2.32-1.1.11-.056.98-.5c.255-.131.447-.233.609-.318l.314-.169.2-.11.469-.257.434-.243.031-.017.042-.023.431-.246.422-.245c.111-.066.223-.13.332-.2l.212-.126.41-.259,1.037-.646c.441-.286,1-.639,1.707-1.1.045-.025.091-.057.136-.086l.269-.181.267-.182c.081-.055.154-.106.227-.157l.354-.246.3-.214.269-.193.252-.181q.609-.443,1.2-.9t1.17-.913c.213-.171.42-.345.63-.517.164-.136.333-.27.5-.408q.557-.462,1.088-.947h.006l.006-.005h65.26l-3.044-31.111-3.216-32.93h0v-.008h53.506a10.261,10.261,0,0,0,2.329,4.121,17.386,17.386,0,0,0,4.316,3.418,25.645,25.645,0,0,0,5.805,2.412,30.5,30.5,0,0,0,6.788,1.1l3.442,21.878,5.478,34.8,5.8,36.843,6.149,39.064,6.531,41.5,6.533,41.507h-.008v0h-140.541a49.572,49.572,0,0,0-2.53-11.741,53.512,53.512,0,0,0-5.268-10.962,61.845,61.845,0,0,0-7.8-9.985,74.277,74.277,0,0,0-10.156-8.817c-.089-.059-.176-.125-.265-.192s-.176-.125-.264-.191-.177-.125-.271-.191-.176-.125-.264-.184a87.92,87.92,0,0,0-12.876-7.45,97.54,97.54,0,0,0-14.233-5.4,107.468,107.468,0,0,0-15.3-3.3,114.569,114.569,0,0,0-16.065-1.124,114.593,114.593,0,0,0-16.07,1.124,107.5,107.5,0,0,0-15.316,3.3,97.921,97.921,0,0,0-14.261,5.4,88.345,88.345,0,0,0-12.906,7.45c-.087.059-.176.125-.264.184-.059.044-.118.085-.178.126l-.082.058-.265.191-.264.192-.164.119c-.062.046-.124.093-.186.136l-.072.052-.255.187c-.113.083-.225.166-.335.249l-.046.034c-.118.093-.239.186-.362.279-.067.045-.134.1-.2.146l-.018.013-.178.136c-.051.04-.1.08-.156.123-.106.081-.227.176-.364.286s-.295.228-.473.367c-.1.074-.2.155-.29.229l-.176.141-.09.071c-.041.034-.082.066-.121.1-.087.072-.173.144-.272.225-.126.1-.264.213-.415.338l-.016.013-.14.116-.177.149c-.1.089-.219.192-.378.331-.189.155-.421.36-.73.632s-.693.6-1.171,1.029a3.521,3.521,0,0,0-.359.36c-.214.235-.572.631-1.22,1.374s-1.592,1.814-2.97,3.4-3.2,3.7-5.613,6.487c-.057.081-.113.169-.169.257-.04.055-.082.119-.124.181l-.123.184c-.07.106-.14.211-.208.317s-.139.212-.206.319c-.119.186-.232.367-.345.548l-.061.1c-.032.049-.068.111-.1.167-.1.161-.2.321-.294.48-.127.209-.25.416-.371.621s-.24.411-.357.616c-.084.145-.159.28-.231.408s-.139.25-.2.366-.125.229-.184.339-.118.218-.175.326-.107.2-.157.3-.1.19-.147.281-.093.182-.14.273l-.135.266c-.059.119-.115.23-.166.335l-.146.3c-.016.032-.03.061-.044.092-.038.077-.074.159-.114.244s-.086.18-.133.272c-.127.268-.246.532-.364.8-.058.13-.116.258-.176.4-.182.427-.378.919-.618,1.55s-.508,1.4-.842,2.373c-.326.945-.705,2.089-1.167,3.485l-.028.107c-.026.1-.052.2-.079.3,0,.018-.008.037-.013.055l-.008.036c-.043.184-.1.456-.19.9s-.207,1.058-.371,1.932c-.166.851-.372,1.949-.634,3.376,0,.037-.009.073-.013.11-.016.11-.028.22-.042.33s-.024.22-.037.331-.023.221-.035.331-.022.221-.034.332h-.029c0,.018,0,.037-.007.055h-134.606l0,0h0Z" transform="translate(5769.188 90.617)" fill="#e2e2e2"/>
    <g id="Rectangle_397" data-name="Rectangle 397" transform="translate(290 1087)" fill="#039144" stroke="#039144" stroke-width="1">
      <rect width="101" height="14" stroke="none"/>
      <rect x="0.5" y="0.5" width="100" height="13" fill="none"/>
    </g>
    <path id="Path_958" data-name="Path 958" d="M1123.922,246V208.33h106.01V246Z" transform="translate(-839.637 856)" fill="none" stroke="#fff" stroke-width="2"/>
    <line id="Line_144" data-name="Line 144" x1="63" y2="391" transform="translate(86.5 1102.5)" fill="none" stroke="#e2e2e2" stroke-width="3.5"/>
    <line id="Line_145" data-name="Line 145" x2="62" y2="392" transform="translate(526.5 1101.5)" fill="none" stroke="#e2e2e2" stroke-width="3.5"/>
  </g>
</svg>
