<svg xmlns="http://www.w3.org/2000/svg" width="50.165" height="39.148" viewBox="0 0 50.165 39.148">
  <g id="Group_481" data-name="Group 481" transform="translate(-346.843 -683.6)">
    <path id="Path_1225" data-name="Path 1225" d="M-20.568-5.805a.635.635,0,0,1-.157.18.352.352,0,0,1-.212.06.52.52,0,0,1-.248-.073l-.3-.162a2.49,2.49,0,0,0-.382-.163,1.53,1.53,0,0,0-.49-.072,1.054,1.054,0,0,0-.708.2.689.689,0,0,0-.233.547.5.5,0,0,0,.14.365,1.207,1.207,0,0,0,.368.25,3.939,3.939,0,0,0,.52.193q.292.087.6.195a5.344,5.344,0,0,1,.6.253,1.993,1.993,0,0,1,.52.37,1.727,1.727,0,0,1,.368.547,1.947,1.947,0,0,1,.14.777,2.533,2.533,0,0,1-.175.945,2.213,2.213,0,0,1-.507.767,2.356,2.356,0,0,1-.82.515A3.068,3.068,0,0,1-22.658.08,3.55,3.55,0,0,1-23.35.01a4.113,4.113,0,0,1-.683-.2,3.958,3.958,0,0,1-.62-.3,2.634,2.634,0,0,1-.505-.39l.5-.79a.5.5,0,0,1,.158-.143.411.411,0,0,1,.212-.058.569.569,0,0,1,.3.1q.153.1.345.21a2.808,2.808,0,0,0,.443.21,1.659,1.659,0,0,0,.59.1,1.123,1.123,0,0,0,.715-.2.771.771,0,0,0,.255-.643.607.607,0,0,0-.14-.415,1.082,1.082,0,0,0-.368-.265,3.386,3.386,0,0,0-.517-.185q-.29-.08-.595-.178a4.353,4.353,0,0,1-.6-.24,1.878,1.878,0,0,1-.517-.375,1.755,1.755,0,0,1-.368-.58,2.3,2.3,0,0,1-.14-.858,2.035,2.035,0,0,1,.165-.8,2.065,2.065,0,0,1,.485-.695,2.385,2.385,0,0,1,.785-.488,2.9,2.9,0,0,1,1.065-.183,3.994,3.994,0,0,1,.653.053,3.43,3.43,0,0,1,.6.155,3.309,3.309,0,0,1,.533.245,2.455,2.455,0,0,1,.442.323Zm3.715-.18v1.7h2.29v1.25h-2.29V-1.3h2.99V0h-4.69V-7.285h4.69v1.3Zm9.765.04h-2.05V0h-1.69V-5.945h-2.05v-1.34h5.79Zm6.59,0h-2.05V0h-1.69V-5.945h-2.05v-1.34H-.5ZM2.558,0H.858V-7.285h1.7Zm8.27-7.285V0h-.88A.765.765,0,0,1,9.62-.062.8.8,0,0,1,9.357-.28L5.922-4.625q.02.2.028.378t.008.342V0H4.467V-7.285h.89a1.434,1.434,0,0,1,.185.01.472.472,0,0,1,.135.037.45.45,0,0,1,.115.077,1.314,1.314,0,0,1,.125.135L9.382-2.65q-.025-.21-.035-.408t-.01-.372V-7.285Zm5.41,3.51h2.59V-.7A3.828,3.828,0,0,1,17.635-.1,4.687,4.687,0,0,1,16.313.08,4.545,4.545,0,0,1,14.675-.2a3.773,3.773,0,0,1-1.262-.78,3.423,3.423,0,0,1-.81-1.18,3.809,3.809,0,0,1-.285-1.483,4.036,4.036,0,0,1,.27-1.5A3.373,3.373,0,0,1,13.36-6.32a3.5,3.5,0,0,1,1.215-.77,4.392,4.392,0,0,1,1.593-.275,4.638,4.638,0,0,1,.855.075,4.207,4.207,0,0,1,.738.2,3.394,3.394,0,0,1,.618.31,3.326,3.326,0,0,1,.5.39l-.49.745a.47.47,0,0,1-.3.215.525.525,0,0,1-.392-.09q-.2-.12-.378-.207a2.3,2.3,0,0,0-.363-.142,2.376,2.376,0,0,0-.39-.08,3.827,3.827,0,0,0-.46-.025,2.1,2.1,0,0,0-.855.168,1.833,1.833,0,0,0-.648.473,2.137,2.137,0,0,0-.413.733,2.953,2.953,0,0,0-.145.952,3.066,3.066,0,0,0,.16,1.03,2.13,2.13,0,0,0,.453.76,1.934,1.934,0,0,0,.7.473,2.416,2.416,0,0,0,.9.162,2.348,2.348,0,0,0,.552-.06,3.089,3.089,0,0,0,.483-.16V-2.545h-.72a.35.35,0,0,1-.25-.085.283.283,0,0,1-.09-.215Zm8.25-2.03a.635.635,0,0,1-.157.18.352.352,0,0,1-.212.06.52.52,0,0,1-.248-.073l-.3-.162a2.49,2.49,0,0,0-.382-.163,1.53,1.53,0,0,0-.49-.072,1.054,1.054,0,0,0-.708.2.689.689,0,0,0-.233.547.5.5,0,0,0,.14.365,1.207,1.207,0,0,0,.368.25,3.939,3.939,0,0,0,.52.193q.292.087.6.195a5.344,5.344,0,0,1,.6.253,1.993,1.993,0,0,1,.52.37,1.727,1.727,0,0,1,.368.547,1.947,1.947,0,0,1,.14.777,2.533,2.533,0,0,1-.175.945,2.213,2.213,0,0,1-.507.767,2.356,2.356,0,0,1-.82.515A3.068,3.068,0,0,1,22.4.08,3.55,3.55,0,0,1,21.7.01a4.113,4.113,0,0,1-.683-.2,3.958,3.958,0,0,1-.62-.3A2.634,2.634,0,0,1,19.9-.88l.5-.79a.5.5,0,0,1,.158-.143.411.411,0,0,1,.212-.058.569.569,0,0,1,.3.1q.153.1.345.21a2.808,2.808,0,0,0,.443.21,1.659,1.659,0,0,0,.59.1,1.123,1.123,0,0,0,.715-.2.771.771,0,0,0,.255-.643.607.607,0,0,0-.14-.415,1.082,1.082,0,0,0-.368-.265,3.386,3.386,0,0,0-.517-.185q-.29-.08-.595-.178a4.353,4.353,0,0,1-.6-.24,1.878,1.878,0,0,1-.517-.375,1.755,1.755,0,0,1-.368-.58,2.3,2.3,0,0,1-.14-.858,2.035,2.035,0,0,1,.165-.8,2.065,2.065,0,0,1,.485-.695,2.385,2.385,0,0,1,.785-.488,2.9,2.9,0,0,1,1.065-.183,3.994,3.994,0,0,1,.653.053,3.43,3.43,0,0,1,.6.155,3.309,3.309,0,0,1,.533.245,2.455,2.455,0,0,1,.442.323Z" transform="translate(372 722.669)" fill="#fff"/>
    <path id="Cog" d="M1296.409,422.329l1.521.816a1.318,1.318,0,0,0,1.556-.23l.914-.914a1.318,1.318,0,0,0,.23-1.556l-.816-1.521a1.308,1.308,0,0,1-.031-1.185q.136-.283.255-.576.088-.216.164-.435a1.331,1.331,0,0,1,.868-.839l1.652-.5a1.319,1.319,0,0,0,.938-1.262v-1.294a1.319,1.319,0,0,0-.938-1.262l-1.652-.5a1.332,1.332,0,0,1-.868-.839q-.077-.219-.164-.435-.118-.293-.255-.575a1.308,1.308,0,0,1,.031-1.185l.816-1.521a1.318,1.318,0,0,0-.23-1.556l-.914-.914a1.319,1.319,0,0,0-1.556-.23l-1.521.816a1.307,1.307,0,0,1-1.185.031q-.283-.137-.576-.256-.216-.087-.435-.164a1.331,1.331,0,0,1-.839-.868l-.5-1.653a1.319,1.319,0,0,0-1.262-.938h-1.294a1.319,1.319,0,0,0-1.263.938l-.5,1.653a1.331,1.331,0,0,1-.839.868q-.219.077-.435.164-.293.119-.575.256a1.307,1.307,0,0,1-1.185-.031l-1.521-.816a1.319,1.319,0,0,0-1.556.23l-.914.914a1.319,1.319,0,0,0-.23,1.556l.816,1.521a1.307,1.307,0,0,1,.031,1.185q-.137.282-.255.575-.088.216-.164.435a1.331,1.331,0,0,1-.868.839l-1.653.5a1.319,1.319,0,0,0-.938,1.262v1.294a1.319,1.319,0,0,0,.938,1.262l1.653.5a1.331,1.331,0,0,1,.868.839q.077.219.164.435.119.293.255.576a1.306,1.306,0,0,1-.031,1.185l-.816,1.521a1.319,1.319,0,0,0,.23,1.556l.914.914a1.318,1.318,0,0,0,1.556.23l1.521-.816a1.308,1.308,0,0,1,1.185-.031q.282.136.575.255.216.087.435.164a1.331,1.331,0,0,1,.839.868l.5,1.653a1.319,1.319,0,0,0,1.263.938h1.294a1.319,1.319,0,0,0,1.262-.938l.5-1.653a1.332,1.332,0,0,1,.839-.868q.219-.077.435-.164.293-.119.576-.255A1.308,1.308,0,0,1,1296.409,422.329Zm-1.759-5.3a5.111,5.111,0,1,1,0-7.09A5.111,5.111,0,0,1,1294.65,417.028Z" transform="translate(-919.274 282.811)" fill="#fff"/>
  </g>
</svg>
