<svg xmlns="http://www.w3.org/2000/svg" width="29.175" height="38.669" viewBox="0 0 29.175 38.669">
  <g id="Group_479" data-name="Group 479" transform="translate(-132.135 -684)">
    <path id="Path_1223" data-name="Path 1223" d="M-9.075-5.945h-2.05V0h-1.69V-5.945h-2.05v-1.34h5.79Zm3.055-.04v1.7h2.29v1.25H-6.02V-1.3h2.99V0H-7.72V-7.285h4.69v1.3Zm8.38,3.2L1.685-4.78q-.075-.19-.16-.448t-.17-.557q-.075.305-.16.565t-.16.45L.365-2.785ZM5.045,0H3.735A.572.572,0,0,1,3.38-.1a.651.651,0,0,1-.2-.263l-.43-1.27H-.025l-.43,1.27a.608.608,0,0,1-.2.253A.551.551,0,0,1-1.005,0h-1.32L.495-7.285h1.73ZM14.31-7.285V0H12.82V-4.19q0-.145.007-.315t.028-.345L10.92-1.105a.636.636,0,0,1-.243.265.671.671,0,0,1-.347.09H10.1a.671.671,0,0,1-.347-.09.636.636,0,0,1-.243-.265L7.575-4.86q.015.18.025.353t.01.317V0H6.12V-7.285H7.41q.11,0,.193.005a.493.493,0,0,1,.148.03.336.336,0,0,1,.118.078.611.611,0,0,1,.1.148L9.845-3.33q.1.19.193.395t.177.42q.085-.22.177-.43t.2-.4l1.87-3.68a.611.611,0,0,1,.1-.148.336.336,0,0,1,.118-.078.493.493,0,0,1,.147-.03q.083-.005.193-.005Z" transform="translate(147 722.669)" fill="#fff"/>
    <g id="Group_85" data-name="Group 85" transform="translate(-1065.558 169.826)">
      <path id="Path_120" data-name="Path 120" d="M1221.47,535.484,1219.342,540l3.477,3.5,4.276-2.354-.834-4.951Z" transform="translate(-10.972 -12.107)" fill="#fff"/>
      <path id="Path_121" data-name="Path 121" d="M1221.048,517.707a11.77,11.77,0,0,0-17.087.285,12.892,12.892,0,0,0,.275,17.744,11.77,11.77,0,0,0,17.087-.285A12.892,12.892,0,0,0,1221.048,517.707Zm-10.07,16.683-3.568,2.062a10.7,10.7,0,0,1-2.224-1.718,11.025,11.025,0,0,1-1.926-2.614L1205.1,528l-3.037-2.932a11.219,11.219,0,0,1,2.386-5.435l4.693.59,1.976-4.42a10.334,10.334,0,0,1,5.636.76l.848,5.156,4.826.71a11.509,11.509,0,0,1,.754,5.837l-4.538,2.3.878,4.648a10.443,10.443,0,0,1-5.122,2.483Z" transform="translate(0)" fill="#fff"/>
    </g>
  </g>
</svg>
