<svg xmlns="http://www.w3.org/2000/svg" width="60.155" height="39.59" viewBox="0 0 60.155 39.59">
  <g id="Group_480" data-name="Group 480" transform="translate(-227.853 -683.159)">
    <path id="Path_1224" data-name="Path 1224" d="M-24.358-5.945h-2.05V0H-28.1V-5.945h-2.05v-1.34h5.79Zm3.725,2.085a1.739,1.739,0,0,0,.587-.087,1.062,1.062,0,0,0,.4-.243.923.923,0,0,0,.225-.362A1.391,1.391,0,0,0-19.353-5a.938.938,0,0,0-.312-.75,1.455,1.455,0,0,0-.967-.27h-.68v2.16ZM-17.042,0h-1.53a.649.649,0,0,1-.61-.32l-1.21-2.115a.586.586,0,0,0-.19-.2.592.592,0,0,0-.3-.062h-.43V0H-23V-7.285h2.37a4.864,4.864,0,0,1,1.347.162,2.53,2.53,0,0,1,.91.452,1.713,1.713,0,0,1,.513.685,2.269,2.269,0,0,1,.16.86,2.309,2.309,0,0,1-.1.67,2.066,2.066,0,0,1-.28.582,2.136,2.136,0,0,1-.458.477,2.443,2.443,0,0,1-.628.345,1.529,1.529,0,0,1,.31.213,1.487,1.487,0,0,1,.26.3Zm4.965-2.785-.675-1.995q-.075-.19-.16-.448t-.17-.557q-.075.305-.16.565t-.16.45l-.67,1.985ZM-9.392,0H-10.7a.572.572,0,0,1-.355-.1.651.651,0,0,1-.2-.263l-.43-1.27h-2.77l-.43,1.27a.608.608,0,0,1-.2.253A.551.551,0,0,1-15.442,0h-1.32l2.82-7.285h1.73Zm7.435-7.285V0h-.88a.765.765,0,0,1-.327-.062A.8.8,0,0,1-3.428-.28L-6.863-4.625q.02.2.028.378t.008.342V0h-1.49V-7.285h.89a1.434,1.434,0,0,1,.185.01.472.472,0,0,1,.135.037.45.45,0,0,1,.115.077,1.314,1.314,0,0,1,.125.135L-3.4-2.65q-.025-.21-.035-.408t-.01-.372V-7.285Zm5.935,1.48a.635.635,0,0,1-.157.18.352.352,0,0,1-.213.06.52.52,0,0,1-.247-.073L3.06-5.8a2.49,2.49,0,0,0-.383-.163,1.53,1.53,0,0,0-.49-.072,1.054,1.054,0,0,0-.707.2.689.689,0,0,0-.233.547.5.5,0,0,0,.14.365,1.207,1.207,0,0,0,.368.25,3.939,3.939,0,0,0,.52.193q.292.087.6.195a5.343,5.343,0,0,1,.6.253,1.993,1.993,0,0,1,.52.37,1.727,1.727,0,0,1,.367.547,1.947,1.947,0,0,1,.14.777,2.533,2.533,0,0,1-.175.945,2.213,2.213,0,0,1-.507.767,2.356,2.356,0,0,1-.82.515A3.068,3.068,0,0,1,1.887.08,3.55,3.55,0,0,1,1.195.01a4.113,4.113,0,0,1-.683-.2,3.958,3.958,0,0,1-.62-.3,2.634,2.634,0,0,1-.5-.39l.5-.79a.5.5,0,0,1,.157-.143A.411.411,0,0,1,.257-1.87a.569.569,0,0,1,.3.1q.153.1.345.21a2.808,2.808,0,0,0,.442.21,1.659,1.659,0,0,0,.59.1,1.123,1.123,0,0,0,.715-.2.771.771,0,0,0,.255-.643.607.607,0,0,0-.14-.415A1.082,1.082,0,0,0,2.4-2.785a3.386,3.386,0,0,0-.518-.185q-.29-.08-.6-.178a4.353,4.353,0,0,1-.595-.24,1.878,1.878,0,0,1-.518-.375,1.755,1.755,0,0,1-.368-.58A2.3,2.3,0,0,1-.333-5.2,2.035,2.035,0,0,1-.168-6a2.065,2.065,0,0,1,.485-.695A2.385,2.385,0,0,1,1.1-7.182a2.9,2.9,0,0,1,1.065-.183,3.994,3.994,0,0,1,.652.053,3.43,3.43,0,0,1,.6.155,3.309,3.309,0,0,1,.533.245A2.455,2.455,0,0,1,4.4-6.59Zm3.715-.18V-4.14h2.49v1.305H7.692V0h-1.7V-7.285h4.69v1.3Zm6.165,0v1.7h2.29v1.25h-2.29V-1.3h2.99V0h-4.69V-7.285h4.69v1.3Zm6.9,2.125a1.739,1.739,0,0,0,.587-.087,1.062,1.062,0,0,0,.4-.243.923.923,0,0,0,.225-.362A1.391,1.391,0,0,0,22.037-5a.938.938,0,0,0-.312-.75,1.455,1.455,0,0,0-.967-.27h-.68v2.16ZM24.347,0h-1.53a.649.649,0,0,1-.61-.32L21-2.435a.586.586,0,0,0-.19-.2.592.592,0,0,0-.3-.062h-.43V0h-1.69V-7.285h2.37a4.864,4.864,0,0,1,1.347.162,2.53,2.53,0,0,1,.91.452,1.713,1.713,0,0,1,.513.685,2.269,2.269,0,0,1,.16.86,2.309,2.309,0,0,1-.1.67,2.066,2.066,0,0,1-.28.582,2.136,2.136,0,0,1-.458.477,2.443,2.443,0,0,1-.628.345,1.529,1.529,0,0,1,.31.213,1.487,1.487,0,0,1,.26.3Zm5.14-5.805a.635.635,0,0,1-.157.18.352.352,0,0,1-.212.06.52.52,0,0,1-.248-.073l-.3-.162a2.49,2.49,0,0,0-.382-.163,1.53,1.53,0,0,0-.49-.072,1.054,1.054,0,0,0-.708.2.689.689,0,0,0-.233.547.5.5,0,0,0,.14.365,1.207,1.207,0,0,0,.368.25,3.939,3.939,0,0,0,.52.193q.292.087.6.195a5.344,5.344,0,0,1,.6.253,1.993,1.993,0,0,1,.52.37,1.727,1.727,0,0,1,.368.547,1.947,1.947,0,0,1,.14.777,2.533,2.533,0,0,1-.175.945,2.213,2.213,0,0,1-.507.767,2.356,2.356,0,0,1-.82.515A3.068,3.068,0,0,1,27.4.08,3.55,3.55,0,0,1,26.7.01a4.113,4.113,0,0,1-.683-.2,3.958,3.958,0,0,1-.62-.3A2.634,2.634,0,0,1,24.9-.88l.5-.79a.5.5,0,0,1,.158-.143.411.411,0,0,1,.212-.058.569.569,0,0,1,.3.1q.153.1.345.21a2.808,2.808,0,0,0,.443.21,1.659,1.659,0,0,0,.59.1,1.123,1.123,0,0,0,.715-.2.771.771,0,0,0,.255-.643.607.607,0,0,0-.14-.415,1.082,1.082,0,0,0-.368-.265,3.386,3.386,0,0,0-.517-.185q-.29-.08-.595-.178a4.353,4.353,0,0,1-.6-.24,1.878,1.878,0,0,1-.517-.375,1.755,1.755,0,0,1-.368-.58,2.3,2.3,0,0,1-.14-.858,2.035,2.035,0,0,1,.165-.8,2.065,2.065,0,0,1,.485-.695,2.385,2.385,0,0,1,.785-.488,2.9,2.9,0,0,1,1.065-.183,3.994,3.994,0,0,1,.653.053,3.43,3.43,0,0,1,.6.155,3.309,3.309,0,0,1,.533.245,2.455,2.455,0,0,1,.442.323Z" transform="translate(258 722.669)" fill="#fff"/>
    <g id="loop" transform="translate(-954.354 281.056)">
      <path id="Path_119" data-name="Path 119" d="M1214.05,422.268a12.269,12.269,0,0,1-1.485-.245,11.781,11.781,0,0,1-6.03-3.89.7.7,0,0,1,.141-1.026l1.861-1.345c.336-.243.278-.507-.129-.589l-8.264-1.662a.678.678,0,0,0-.824.6l-.961,8.329c-.048.411.187.547.524.3l1.252-.9a.84.84,0,0,1,1.1.129,14.885,14.885,0,0,0,7.211,4.786,12.128,12.128,0,0,0,1.485.243,11.75,11.75,0,0,0,3.159-.117,13.324,13.324,0,0,0,1.455-.386,14.562,14.562,0,0,0,2.173-.933,10.22,10.22,0,0,0,1.271-.8,12,12,0,0,0,2.712-3.043,4.837,4.837,0,0,0,.3-.971c-.061.027-.34.149-.679.29A12.384,12.384,0,0,1,1214.05,422.268Zm6.951-1.521.013-.006C1221.014,420.711,1221.009,420.717,1221,420.747Zm1.771-14.334-1.252.9a.839.839,0,0,1-1.1-.129,14.887,14.887,0,0,0-7.211-4.786,12.293,12.293,0,0,0-1.485-.243,11.772,11.772,0,0,0-3.16.117,13.325,13.325,0,0,0-1.455.386,14.542,14.542,0,0,0-2.173.933,10.259,10.259,0,0,0-1.271.8,11.991,11.991,0,0,0-2.712,3.043,2.7,2.7,0,0,0-.313.976s.308-.136.692-.3a11.179,11.179,0,0,1,7.757-.986,11.781,11.781,0,0,1,6.03,3.89.7.7,0,0,1-.141,1.026l-1.861,1.345c-.336.243-.278.507.129.589l8.264,1.662a.679.679,0,0,0,.824-.6l.961-8.329C1223.344,406.307,1223.109,406.17,1222.773,406.413Z" transform="translate(0 0)" fill="#fff" fill-rule="evenodd"/>
    </g>
  </g>
</svg>
