<svg xmlns="http://www.w3.org/2000/svg" xmlns:xlink="http://www.w3.org/1999/xlink" width="115.728" height="124.156" viewBox="0 0 115.728 124.156">
  <defs>
    <filter id="Path_1218" x="0" y="0" width="115.728" height="120.507" filterUnits="userSpaceOnUse">
      <feOffset dy="3" input="SourceAlpha"/>
      <feGaussianBlur stdDeviation="3" result="blur"/>
      <feFlood flood-opacity="0.161"/>
      <feComposite operator="in" in2="blur"/>
      <feComposite in="SourceGraphic"/>
    </filter>
  </defs>
  <g id="Group_468" data-name="Group 468" transform="translate(-1690.665 165.156)">
    <g transform="matrix(1, 0, 0, 1, 1690.66, -165.16)" filter="url(#Path_1218)">
      <path id="Path_1218-2" data-name="Path 1218" d="M166.9-118.819a7.766,7.766,0,0,0-.324-1.046l-.019.02c-4.1-12.012-12.631-27.218-12.631-27.218h0c-1.58-2.3-5.3-3.844-10.935-5.954q-1.208-.452-2.532-.943-.663-.247-1.287-.5c-.6-.242-1.166-.485-1.714-.728a72.492,72.492,0,0,1-6.494-3.341v-.016a8.8,8.8,0,0,0-2.555-1.162v-.026H107.7v.02a8.438,8.438,0,0,0-2.592,1.168l0,.015a69.754,69.754,0,0,1-7,3.567c-.782.337-1.614.673-2.5,1-2.207.821-4.173,1.546-5.888,2.235-3.088,1.24-5.366,2.363-6.771,3.719a6.23,6.23,0,0,0-.807.943l-.02.034c-.383.687-8.568,15.379-12.581,27.095l-.007-.009a8.155,8.155,0,0,0-.364,1.12l0,.009c.807,2.422,7.022,6.936,14.12,8.126l.024,0c.509.085,1.02.154,1.536.2.13.013.261.013.392.023.384.029.767.061,1.153.067.015,0,.03,0,.045,0,.539.008,1.079-.006,1.619-.046.866-2.357,1.687-4.31,2.42-5.907.8-1.756,1.5-3.074,2.015-3.984v59.82a98.4,98.4,0,0,0,25.457,3.285c15.274,0,25.627-3.285,25.627-3.285v-59.82a60.174,60.174,0,0,1,3.353,7.087q.526,1.3,1.082,2.8c.539.04,1.077.054,1.614.046.393-.006.785-.035,1.177-.064.135-.01.271-.011.406-.024.511-.047,1.019-.117,1.523-.2l.028,0c.068-.011.138-.016.2-.028,7.022-1.236,13.135-5.7,13.936-8.1Z" transform="translate(-60.17 165.73)" fill="#fff"/>
    </g>
    <ellipse id="Ellipse_31" data-name="Ellipse 31" cx="26" cy="4" rx="26" ry="4" transform="translate(1722 -49)" fill="#ddd"/>
    <g id="Group_399" data-name="Group 399" transform="translate(1250.53 -222.104)">
      <rect id="Rectangle_404" data-name="Rectangle 404" width="20.49" height="19.923" transform="translate(487.822 63.589)" fill="#e42321"/>
      <rect id="Rectangle_405" data-name="Rectangle 405" width="20.49" height="2.208" transform="translate(487.822 63.589)" fill="#941914"/>
      <path id="Path_1040" data-name="Path 1040" d="M462.559,77.206S453.638,93.1,449.746,105.1c.974,2.919,9.893,8.92,18.651,8.272,2.919-7.947,5.352-11.353,5.352-11.353S474.4,81.261,462.559,77.206Z" transform="translate(0 -1.108)" fill="#e42321"/>
      <path id="Path_1041" data-name="Path 1041" d="M539.863,77.206s8.92,15.894,12.813,27.895c-.973,2.919-9.893,8.92-18.651,8.272-2.919-7.947-5.352-11.353-5.352-11.353S528.024,81.261,539.863,77.206Z" transform="translate(-6.425 -1.108)" fill="#e42321"/>
      <g id="Group_395" data-name="Group 395" transform="translate(522.242 89.759)" opacity="0.2">
        <path id="Path_1042" data-name="Path 1042" d="M529.9,92.078a47.862,47.862,0,0,0-1.225,11.153s2.432,3.406,5.352,11.353a20.491,20.491,0,0,0,6.205-.552C534.93,99.61,530.46,92.895,529.9,92.078Z" transform="translate(-528.667 -92.078)" fill="#00394f"/>
      </g>
      <g id="Group_396" data-name="Group 396" transform="translate(462.165 89.729)" opacity="0.1">
        <path id="Path_1043" data-name="Path 1043" d="M473.616,92.045c-.41.589-4.945,7.27-10.351,21.978a20.525,20.525,0,0,0,6.233.558c2.919-7.947,5.352-11.353,5.352-11.353A47.8,47.8,0,0,0,473.616,92.045Z" transform="translate(-463.265 -92.045)" fill="#00394f"/>
      </g>
      <path id="Path_1044" data-name="Path 1044" d="M521.275,69.288c-6.974-2.6-10.7-5.677-12-5.677,0,0,.465,8.142-10.139,16.03-10.6-7.889-10.139-16.03-10.139-16.03-1.3,0-5.028,3.082-12,5.677s-11.516,4.216-13.3,6.811c2.432,1.947,10.217,6.325,10.217,26.274v59.2a97.173,97.173,0,0,0,25.138,3.244c15.083,0,25.306-3.244,25.306-3.244v-59.2c0-19.949,7.785-24.327,10.218-26.274C532.79,73.5,528.249,71.882,521.275,69.288Z" transform="translate(-1.135 -0.002)" fill="#e42321"/>
      <path id="Path_1045" data-name="Path 1045" d="M450.108,106.357a8.272,8.272,0,0,0-.362,1.117c.973,2.919,9.893,8.92,18.651,8.272a12.443,12.443,0,0,1,.431-1.173C461.614,114.828,452.673,109.61,450.108,106.357Z" transform="translate(0 -3.482)" opacity="0.1"/>
      <path id="Path_1046" data-name="Path 1046" d="M552.771,106.357c-5,6.006-10.379,8.37-18.741,8.216.4.979,0,0,.431,1.173,8.758.649,17.126-4.88,18.651-8.272A8.865,8.865,0,0,0,552.771,106.357Z" transform="translate(-6.861 -3.482)" opacity="0.1"/>
      <g id="Group_397" data-name="Group 397" transform="translate(510.858 85.785)" opacity="0.1">
        <path id="Path_1047" data-name="Path 1047" d="M518.086,113.393c-.559,16.221-1.4,40.63-1.812,52.582a76.788,76.788,0,0,0,12.362-2.44v-59.2c0-7.495,1.1-12.791,2.6-16.586C524.888,92.587,518.536,100.347,518.086,113.393Z" transform="translate(-516.274 -87.752)"/>
      </g>
      <g id="Group_398" data-name="Group 398" transform="translate(470.176 85.785)" opacity="0.1">
        <path id="Path_1048" data-name="Path 1048" d="M486.948,165.944c-.412-11.963-1.252-36.344-1.811-52.551-.45-13.047-6.8-20.805-13.151-25.641,1.5,3.8,2.6,9.091,2.6,16.586v59.2A86.527,86.527,0,0,0,486.948,165.944Z" transform="translate(-471.987 -87.752)"/>
      </g>
      <path id="Path_1049" data-name="Path 1049" d="M460.587,85.305c2.217-4.531,3.927-7.694,3.927-7.694,1.724-2.6,6.113-4.217,12.854-6.812,6.425-2.473,9.975-5.357,11.382-5.625a8.914,8.914,0,0,1-.121-1.563c-1.3,0-5.028,3.082-12,5.677s-11.516,4.216-13.3,6.811c0,0-1.8,3.222-4.126,7.821Z" transform="translate(-0.77 -0.002)" fill="#e42321"/>
      <path id="Path_1050" data-name="Path 1050" d="M524.562,70.8c6.741,2.6,11.13,4.217,12.854,6.812,0,0,1.626,3.009,3.763,7.359l1.383-1.382c-2.246-4.429-3.96-7.488-3.96-7.488-1.784-2.6-6.325-4.217-13.3-6.811s-10.7-5.677-12-5.677a8.919,8.919,0,0,1-.121,1.563C514.587,65.442,518.138,68.326,524.562,70.8Z" transform="translate(-5.164 -0.002)" fill="#e42321"/>
      <path id="Path_1051" data-name="Path 1051" d="M499.464,81.933l1.7,1.326,1.71-1.326c8.337-7.013,10.3-13.941,10.748-17.156a7.429,7.429,0,0,0-2.562-1.167s.453,8.142-9.891,16.03c-10.345-7.889-9.892-16.03-9.892-16.03a7.436,7.436,0,0,0-2.562,1.167C489.166,67.993,491.126,74.92,499.464,81.933Z" transform="translate(-3.172 -0.002)" fill="#e42321"/>
      <path id="Path_1052" data-name="Path 1052" d="M499.464,81.933l1.7,1.326,1.71-1.326c8.337-7.013,10.3-13.941,10.748-17.156a7.429,7.429,0,0,0-2.562-1.167s.453,8.142-9.891,16.03c-10.345-7.889-9.892-16.03-9.892-16.03a7.436,7.436,0,0,0-2.562,1.167C489.166,67.993,491.126,74.92,499.464,81.933Z" transform="translate(-3.172 -0.002)" opacity="0.1"/>
    </g>
  </g>
</svg>
