<svg xmlns="http://www.w3.org/2000/svg" width="18.852" height="20.046" viewBox="0 0 18.852 20.046">
  <g id="Group_309" data-name="Group 309" transform="translate(-1897.574 -275.927)">
    <ellipse id="Ellipse_19" data-name="Ellipse 19" cx="6.637" cy="7.058" rx="6.637" ry="7.058" transform="translate(1900.362 278.893)" fill="#fff"/>
    <g id="Group_201" data-name="Group 201" transform="translate(1897.574 275.927)">
      <path id="Path_756" data-name="Path 756" d="M233.265,515.225a8.726,8.726,0,0,1,4.714,1.354,9.857,9.857,0,0,1,3.439,3.657,10.5,10.5,0,0,1,0,10.023,9.859,9.859,0,0,1-3.439,3.658,8.884,8.884,0,0,1-9.427,0,9.859,9.859,0,0,1-3.439-3.658,10.5,10.5,0,0,1,0-10.023,9.857,9.857,0,0,1,3.439-3.657A8.725,8.725,0,0,1,233.265,515.225Zm4.447,14.024a.427.427,0,0,0,.114-.3.561.561,0,0,0-.076-.3l-.95-1.374a.444.444,0,0,0-.342-.182.35.35,0,0,0-.342.141,4.851,4.851,0,0,1-.722.606,3.256,3.256,0,0,1-1.786.566,2.474,2.474,0,0,1-2.091-1.01,3.55,3.55,0,0,1-.722-2.243,3.2,3.2,0,0,1,.76-2.182,2.59,2.59,0,0,1,2.053-.869,3.305,3.305,0,0,1,1.672.485,3.921,3.921,0,0,1,.684.485.373.373,0,0,0,.362.121.494.494,0,0,0,.323-.2l.836-1.414a.561.561,0,0,0,.076-.3.427.427,0,0,0-.114-.3,4.04,4.04,0,0,0-1.027-.808,5.744,5.744,0,0,0-2.87-.728,5.252,5.252,0,0,0-4.77,2.829,6.135,6.135,0,0,0-.723,2.97,6.266,6.266,0,0,0,.7,2.971,5.285,5.285,0,0,0,4.77,2.869,5.646,5.646,0,0,0,3.079-.889A4.123,4.123,0,0,0,237.712,529.249Z" transform="translate(-223.839 -515.225)" fill="#0f265a"/>
    </g>
  </g>
</svg>
