<svg xmlns="http://www.w3.org/2000/svg" xmlns:xlink="http://www.w3.org/1999/xlink" width="115.728" height="124.156" viewBox="0 0 115.728 124.156">
  <defs>
    <filter id="Path_1220" x="0" y="0" width="115.728" height="120.507" filterUnits="userSpaceOnUse">
      <feOffset dy="3" input="SourceAlpha"/>
      <feGaussianBlur stdDeviation="3" result="blur"/>
      <feFlood flood-opacity="0.161"/>
      <feComposite operator="in" in2="blur"/>
      <feComposite in="SourceGraphic"/>
    </filter>
  </defs>
  <g id="Group_466" data-name="Group 466" transform="translate(-1437.665 165.156)">
    <g transform="matrix(1, 0, 0, 1, 1437.66, -165.16)" filter="url(#Path_1220)">
      <path id="Path_1220-2" data-name="Path 1220" d="M166.9-118.819a7.766,7.766,0,0,0-.324-1.046l-.019.02c-4.1-12.012-12.631-27.218-12.631-27.218h0c-1.58-2.3-5.3-3.844-10.935-5.954q-1.208-.452-2.532-.943-.663-.247-1.287-.5c-.6-.242-1.166-.485-1.714-.728a72.492,72.492,0,0,1-6.494-3.341v-.016a8.8,8.8,0,0,0-2.555-1.162v-.026H107.7v.02a8.438,8.438,0,0,0-2.592,1.168l0,.015a69.754,69.754,0,0,1-7,3.567c-.782.337-1.614.673-2.5,1-2.207.821-4.173,1.546-5.888,2.235-3.088,1.24-5.366,2.363-6.771,3.719a6.23,6.23,0,0,0-.807.943l-.02.034c-.383.687-8.568,15.379-12.581,27.095l-.007-.009a8.155,8.155,0,0,0-.364,1.12l0,.009c.807,2.422,7.022,6.936,14.12,8.126l.024,0c.509.085,1.02.154,1.536.2.13.013.261.013.392.023.384.029.767.061,1.153.067.015,0,.03,0,.045,0,.539.008,1.079-.006,1.619-.046.866-2.357,1.687-4.31,2.42-5.907.8-1.756,1.5-3.074,2.015-3.984v59.82a98.4,98.4,0,0,0,25.457,3.285c15.274,0,25.627-3.285,25.627-3.285v-59.82a60.174,60.174,0,0,1,3.353,7.087q.526,1.3,1.082,2.8c.539.04,1.077.054,1.614.046.393-.006.785-.035,1.177-.064.135-.01.271-.011.406-.024.511-.047,1.019-.117,1.523-.2l.028,0c.068-.011.138-.016.2-.028,7.022-1.236,13.135-5.7,13.936-8.1Z" transform="translate(-60.17 165.73)" fill="#fff"/>
    </g>
    <g id="Group_376" data-name="Group 376" transform="translate(1429 -237)">
      <g id="Group_288" data-name="Group 288">
        <g id="Group_287" data-name="Group 287">
          <g id="Group_286" data-name="Group 286">
            <g id="Group_285" data-name="Group 285">
              <g id="Group_284" data-name="Group 284">
                <g id="Group_283" data-name="Group 283">
                  <g id="Group_282" data-name="Group 282">
                    <g id="Group_281" data-name="Group 281">
                      <g id="Group_280" data-name="Group 280">
                        <g id="Group_279" data-name="Group 279">
                          <g id="Group_278" data-name="Group 278">
                            <g id="Group_277" data-name="Group 277">
                              <g id="Group_276" data-name="Group 276">
                                <g id="Group_275" data-name="Group 275">
                                  <g id="Group_274" data-name="Group 274">
                                    <g id="Group_273" data-name="Group 273">
                                      <g id="Group_272" data-name="Group 272">
                                        <g id="Group_211" data-name="Group 211" transform="translate(-51.485 17.13)">
                                          <path id="Path_125" data-name="Path 125" d="M92.946,90.9c-.228-1.069-.484-2.059-.765-2.977L82.164,83.139c-.333.665-.685,1.374-1.05,2.122l-1.378-1.378q.4-.8.78-1.531l-.005,0c-.865,1.682-1.835,3.617-2.835,5.7l13.281,6.344C91.785,92.841,92.463,91.684,92.946,90.9Z" transform="translate(-0.62 -1.784)" fill="#0ba550"/>
                                          <path id="Path_126" data-name="Path 126" d="M70.474,105.044c.359-1.109.773-2.257,1.208-3.418,1.854,2.351,7.041,5.89,12.491,7.552.989-2.524,1.936-4.767,2.82-6.74L73.881,96.174c-1.293,3-2.49,6.044-3.408,8.87.908,2.723,8.764,8.14,16.923,8.275C79.237,113.184,71.381,107.768,70.474,105.044Z" transform="translate(0 -2.975)" fill="#0ba550"/>
                                          <path id="Path_127" data-name="Path 127" d="M93.565,107.915c.4-.856.767-1.6,1.1-2.229h0C94.332,106.318,93.963,107.059,93.565,107.915Z" transform="translate(-1.988 -3.794)" fill="#0ba550"/>
                                          <path id="Path_128" data-name="Path 128" d="M151.429,106.053h0c.635,1.242,1.4,2.861,2.234,4.892h0C152.827,108.914,152.064,107.295,151.429,106.053Z" transform="translate(-6.97 -3.825)" fill="#0ba550"/>
                                          <path id="Path_129" data-name="Path 129" d="M170.444,95.873l-13.018,6.547c.888,1.983,1.842,4.24,2.835,6.778,5.5-1.608,10.739-5.071,12.579-7.394.406,1.09.793,2.171,1.131,3.214-.816,2.451-7.262,7.084-14.49,8.084,7.228-1,13.674-5.633,14.491-8.084C173.027,102.1,171.783,98.961,170.444,95.873Z" transform="translate(-7.487 -2.949)" fill="#0ba550"/>
                                          <path id="Path_130" data-name="Path 130" d="M159.523,114.726q-.8.111-1.617.16Q158.719,114.838,159.523,114.726Z" transform="translate(-7.528 -4.572)" fill="#0ba550"/>
                                          <path id="Path_131" data-name="Path 131" d="M164.664,83.528,163.288,84.9c-.345-.7-.677-1.37-.991-2l-9.911,4.984c-.285.93-.546,1.936-.775,3.022.483.786,1.153,1.929,1.971,3.458l13.175-6.626c-1-2.072-1.969-4-2.827-5.66h0Q164.284,82.781,164.664,83.528Z" transform="translate(-6.986 -1.762)" fill="#0ba550"/>
                                          <path id="Path_132" data-name="Path 132" d="M156.019,114.925c-.264-.008-.528-.021-.792-.04C155.491,114.9,155.755,114.917,156.019,114.925Z" transform="translate(-7.297 -4.586)" fill="#fff"/>
                                          <path id="Path_133" data-name="Path 133" d="M156.932,114.934h0Z" transform="translate(-7.432 -4.59)" fill="#fff"/>
                                          <path id="Path_134" data-name="Path 134" d="M153.663,110.685a19.462,19.462,0,0,0,6.081-.87c-.993-2.538-1.947-4.8-2.835-6.778l-5.481,2.756C152.064,107.035,152.827,108.655,153.663,110.685Z" transform="translate(-6.97 -3.566)" fill="#fff"/>
                                          <path id="Path_135" data-name="Path 135" d="M153.512,95.205c-.818-1.529-1.488-2.672-1.971-3.458a45.958,45.958,0,0,0-.741,4.823Z" transform="translate(-6.916 -2.593)" fill="#fff"/>
                                          <path id="Path_136" data-name="Path 136" d="M89.186,114.934c-.044,0-.089,0-.133,0C89.1,114.935,89.142,114.933,89.186,114.934Z" transform="translate(-1.6 -4.59)" fill="#fff"/>
                                          <path id="Path_137" data-name="Path 137" d="M90.7,114.885c-.264.019-.529.032-.794.04C90.173,114.918,90.437,114.9,90.7,114.885Z" transform="translate(-1.673 -4.586)" fill="#fff"/>
                                          <path id="Path_138" data-name="Path 138" d="M92.131,111.123c.462-1.122.9-2.12,1.311-3-.409.877-.849,1.875-1.311,3Z" transform="translate(-1.865 -4.004)" fill="#fff"/>
                                          <path id="Path_139" data-name="Path 139" d="M94.2,91.707c-.483.783-1.162,1.939-1.99,3.487L94.939,96.5A45.4,45.4,0,0,0,94.2,91.707Z" transform="translate(-1.871 -2.59)" fill="#fff"/>
                                          <path id="Path_140" data-name="Path 140" d="M93.937,105.457l-.105.221-5.547-2.65c-.885,1.973-1.831,4.216-2.82,6.74a18.922,18.922,0,0,0,6.093.916c.462-1.122.9-2.12,1.311-3,.4-.856.767-1.6,1.1-2.229Z" transform="translate(-1.291 -3.565)" fill="#fff"/>
                                          <path id="Path_141" data-name="Path 141" d="M95.544,129.484h50.188v-7.11H95.544Z" transform="translate(-2.159 -5.23)" fill="#0ba550"/>
                                          <path id="Path_142" data-name="Path 142" d="M145.991,88.5H95.331l-.292.61-.087-.042a43.836,43.836,0,0,1,1.314,7.509h48.64A43.746,43.746,0,0,1,146.24,89Z" transform="translate(-2.108 -2.314)" fill="#0ba550"/>
                                          <path id="Path_143" data-name="Path 143" d="M144.883,79.38l7.945-4c-1.688-1.484-4.45-2.707-8.209-4.183v.035H126.067a16.847,16.847,0,0,1-6.505,1.151,15.577,15.577,0,0,1-6.179-1.151H95.054c-3.848,1.513-6.638,2.764-8.295,4.308l8.03,3.836Z" transform="translate(-1.402 -0.825)" fill="#0ba550"/>
                                          <path id="Path_144" data-name="Path 144" d="M95.544,146.579h50.188V138.5H95.544Z" transform="translate(-2.159 -6.619)" fill="#0ba550"/>
                                          <path id="Path_145" data-name="Path 145" d="M95.544,113.307h50.188v-7.621H95.544Z" transform="translate(-2.159 -3.794)" fill="#0ba550"/>
                                          <path id="Path_146" data-name="Path 146" d="M95.544,163.309h50.188v-7.621H95.544Z" transform="translate(-2.159 -8.099)" fill="#0ba550"/>
                                          <path id="Path_147" data-name="Path 147" d="M160.058,74.318h0c-1.746-1.884-5.122-3.289-9.987-5.115h0C154.936,71.029,158.313,72.435,160.058,74.318Z" transform="translate(-6.854 -0.652)" fill="#0ba550"/>
                                          <path id="Path_148" data-name="Path 148" d="M93.548,88.45c.281.918.537,1.907.765,2.977.434-.7.713-1.112.8-1.238a45.555,45.555,0,0,1,1.027,6.384h.005a43.836,43.836,0,0,0-1.314-7.509Z" transform="translate(-1.987 -2.31)" fill="#0ba550"/>
                                          <path id="Path_149" data-name="Path 149" d="M150.638,90.218c.113.165.39.578.8,1.245.229-1.087.49-2.092.775-3.022l-1.233.621-.035-.069a43.746,43.746,0,0,0-1.333,7.58h.005A45.315,45.315,0,0,1,150.638,90.218Z" transform="translate(-6.814 -2.309)" fill="#0ba550"/>
                                          <path id="Path_150" data-name="Path 150" d="M149.619,96.738h.51l.569-.286a45.958,45.958,0,0,1,.741-4.823c-.41-.666-.687-1.079-.8-1.245A45.315,45.315,0,0,0,149.619,96.738Z" transform="translate(-6.815 -2.476)" fill="#0ba550"/>
                                          <path id="Path_151" data-name="Path 151" d="M95.865,96.736h.348a45.555,45.555,0,0,0-1.027-6.384c-.088.126-.366.534-.8,1.238a45.4,45.4,0,0,1,.741,4.792Z" transform="translate(-2.059 -2.473)" fill="#0ba550"/>
                                          <path id="Path_152" data-name="Path 152" d="M88.99,114.935h0Z" transform="translate(-1.594 -4.59)" fill="#fff"/>
                                          <path id="Path_153" data-name="Path 153" d="M89.2,114.934h0c.216,0,.432,0,.649,0h0C89.63,114.935,89.415,114.934,89.2,114.934Z" transform="translate(-1.612 -4.589)" fill="#fff"/>
                                          <path id="Path_154" data-name="Path 154" d="M92.02,111.4h-.005c-.4.967-.812,2.023-1.237,3.18C91.207,113.418,91.619,112.379,92.02,111.4Z" transform="translate(-1.748 -4.286)" fill="#fff"/>
                                          <path id="Path_155" data-name="Path 155" d="M82.829,113.233c.455-1.239.9-2.416,1.344-3.541-5.45-1.661-10.637-5.2-12.491-7.552-.435,1.161-.849,2.309-1.208,3.418.907,2.723,8.763,8.14,16.922,8.275h.058A21.463,21.463,0,0,1,82.829,113.233Z" transform="translate(0 -3.488)" fill="#fff"/>
                                          <path id="Path_156" data-name="Path 156" d="M89.846,114.929c-.216.005-.431.006-.648,0C89.415,114.934,89.63,114.935,89.846,114.929Z" transform="translate(-1.612 -4.589)" fill="#fff"/>
                                          <path id="Path_157" data-name="Path 157" d="M89.053,114.935h0c.044,0,.089,0,.133,0h0C89.142,114.933,89.1,114.935,89.053,114.935Z" transform="translate(-1.6 -4.59)" fill="#fff"/>
                                          <path id="Path_158" data-name="Path 158" d="M90.7,114.585c-.265.019-.53.032-.8.04h0c.265-.008.53-.021.794-.04.425-1.157.839-2.213,1.237-3.18h0C91.541,112.372,91.127,113.428,90.7,114.585Z" transform="translate(-1.673 -4.286)" fill="#fff"/>
                                          <path id="Path_159" data-name="Path 159" d="M88.617,114.545c.044,0,.089,0,.133,0,.217,0,.432,0,.648,0,.265-.008.53-.021.8-.04.425-1.157.839-2.213,1.237-3.18a18.922,18.922,0,0,1-6.093-.916c-.44,1.125-.889,2.3-1.344,3.541A21.463,21.463,0,0,0,88.617,114.545Z" transform="translate(-1.164 -4.2)" fill="#fff"/>
                                          <path id="Path_160" data-name="Path 160" d="M153.873,111.406h-.006c.4.974.814,2.012,1.243,3.179q-.409-1.112-.8-2.106C154.16,112.109,154.016,111.753,153.873,111.406Z" transform="translate(-7.18 -4.286)" fill="#fff"/>
                                          <path id="Path_161" data-name="Path 161" d="M153.874,111.406h0c.143.347.287.7.434,1.074C154.161,112.109,154.017,111.753,153.874,111.406Z" transform="translate(-7.181 -4.286)" fill="#fff"/>
                                          <path id="Path_162" data-name="Path 162" d="M173.93,105.577c-.338-1.044-.726-2.124-1.131-3.214-1.84,2.323-7.082,5.787-12.579,7.394.436,1.113.879,2.277,1.329,3.5a21.4,21.4,0,0,1-4.6.594c.293,0,.586-.013.878-.03q.813-.048,1.617-.16C166.668,112.661,173.114,108.028,173.93,105.577Z" transform="translate(-7.445 -3.508)" fill="#fff"/>
                                          <path id="Path_163" data-name="Path 163" d="M156.729,114.934c-.211,0-.423,0-.635,0C156.306,114.934,156.518,114.934,156.729,114.934Z" transform="translate(-7.372 -4.589)" fill="#fff"/>
                                          <path id="Path_164" data-name="Path 164" d="M159.955,110.454a19.463,19.463,0,0,1-6.081.87c.143.347.287.7.434,1.074q.393.994.8,2.106c.264.019.528.032.792.04.212.005.424.005.635,0h.143a21.4,21.4,0,0,0,4.6-.594C160.834,112.731,160.391,111.567,159.955,110.454Z" transform="translate(-7.181 -4.204)" fill="#fff"/>
                                          <path id="Path_165" data-name="Path 165" d="M92.277,70.337h0c-3.583,1.42-6.109,2.67-7.475,4.279h0C86.168,73.007,88.693,71.757,92.277,70.337Z" transform="translate(-1.234 -0.75)" fill="#0ba550"/>
                                          <path id="Path_166" data-name="Path 166" d="M79.93,83.883l1.378,1.378c.366-.748.717-1.457,1.05-2.122l-1.648-.787Q80.332,83.088,79.93,83.883Z" transform="translate(-0.814 -1.785)" fill="#0ba550"/>
                                          <path id="Path_167" data-name="Path 167" d="M94.885,71.162H92.277v-.825c-3.583,1.42-6.109,2.67-7.475,4.279l1.788.854C88.247,73.926,91.038,72.675,94.885,71.162Z" transform="translate(-1.234 -0.75)" fill="#0ba550"/>
                                          <path id="Path_168" data-name="Path 168" d="M164.295,84.9l1.376-1.376q-.38-.747-.737-1.439l-1.63.82C163.617,83.535,163.949,84.2,164.295,84.9Z" transform="translate(-7.993 -1.762)" fill="#0ba550"/>
                                          <path id="Path_169" data-name="Path 169" d="M158.28,75.213l1.778-.895c-1.746-1.884-5.122-3.289-9.987-5.115V71.03C153.83,72.506,156.592,73.729,158.28,75.213Z" transform="translate(-6.854 -0.652)" fill="#0ba550"/>
                                          <path id="Path_170" data-name="Path 170" d="M95.544,168.168a96.684,96.684,0,0,0,25.01,3.227c15.006,0,25.178-3.227,25.178-3.227v-4.141H95.544Z" transform="translate(-2.159 -8.817)" fill="#fff"/>
                                          <path id="Path_171" data-name="Path 171" d="M150.845,105.686l.242.482.292-.146-.174-.335Z" transform="translate(-6.92 -3.794)" fill="#fff"/>
                                          <path id="Path_172" data-name="Path 172" d="M171.617,95.095l-3.428-6.816,0,0c1.057,2.192,2.151,4.548,3.187,6.938Z" transform="translate(-8.413 -2.295)" fill="#fff"/>
                                          <path id="Path_173" data-name="Path 173" d="M157.111,101.766l13.018-6.547c-1.035-2.391-2.129-4.747-3.187-6.938l-13.175,6.626C154.71,96.671,155.845,98.943,157.111,101.766Z" transform="translate(-7.172 -2.295)" fill="#fff"/>
                                          <path id="Path_174" data-name="Path 174" d="M151.239,105.686h0l.174.335h0Z" transform="translate(-6.954 -3.794)" fill="#fff"/>
                                          <path id="Path_175" data-name="Path 175" d="M150.8,96.9c-.009.1-.019.19-.028.286h.545v7.63H151.2l.174.335,5.481-2.756c-1.266-2.823-2.4-5.1-3.343-6.86Z" transform="translate(-6.914 -2.919)" fill="#fff"/>
                                          <path id="Path_176" data-name="Path 176" d="M150.718,97.31c.009-.1.019-.191.028-.286l-.569.286Z" transform="translate(-6.863 -3.048)" fill="#fff"/>
                                          <path id="Path_177" data-name="Path 177" d="M90.658,94.925,77.377,88.581c-1.057,2.2-2.147,4.554-3.175,6.939l13.113,6.264C88.58,98.96,89.715,96.687,90.658,94.925Z" transform="translate(-0.321 -2.321)" fill="#fff"/>
                                          <path id="Path_178" data-name="Path 178" d="M93.782,97.181h.877c-.012-.118-.023-.236-.036-.353l-2.731-1.305c-.942,1.762-2.077,4.035-3.343,6.859l5.547,2.65.105-.221h-.42Z" transform="translate(-1.556 -2.919)" fill="#fff"/>
                                          <path id="Path_179" data-name="Path 179" d="M95.2,96.951c.013.117.024.235.036.353h.7Z" transform="translate(-2.129 -3.042)" fill="#fff"/>
                                          <path id="Path_180" data-name="Path 180" d="M95.544,154.969h50.188V147.34H95.544Z" transform="translate(-2.159 -7.38)" fill="#fff"/>
                                          <path id="Path_181" data-name="Path 181" d="M95.544,137.784h50.188v-7.63H95.544Z" transform="translate(-2.159 -5.9)" fill="#fff"/>
                                          <path id="Path_182" data-name="Path 182" d="M95.544,121.655h50.188v-7.63H95.544Z" transform="translate(-2.159 -4.512)" fill="#fff"/>
                                          <path id="Path_183" data-name="Path 183" d="M150.46,105.62h.352l-.352-.7Z" transform="translate(-6.887 -3.728)" fill="#fff"/>
                                          <path id="Path_184" data-name="Path 184" d="M94.765,105.562h.712V104.25C95.268,104.619,95.029,105.056,94.765,105.562Z" transform="translate(-2.092 -3.67)" fill="#fff"/>
                                          <path id="Path_185" data-name="Path 185" d="M95.477,104.25c-.209.369-.448.806-.712,1.312h0c.264-.506.5-.943.712-1.312Z" transform="translate(-2.092 -3.67)" fill="#fff"/>
                                          <path id="Path_186" data-name="Path 186" d="M95.474,103.994l-.739,1.546h.027c.264-.506.5-.943.712-1.312v-.234Z" transform="translate(-2.089 -3.648)" fill="#fff"/>
                                          <path id="Path_187" data-name="Path 187" d="M142.9,98.632l2.035-1.024c.008-.089.016-.18.025-.271H96.318l.016.176,1.655.791-1.47,3.076c0,.45-.005.7-.005.7s-.361.505-.969,1.576v1.312h50.188v-.7Z" transform="translate(-2.159 -3.075)" fill="#fff"/>
                                          <path id="Path_188" data-name="Path 188" d="M96.513,102.46s-.361.505-.969,1.576h0c.608-1.07.969-1.576.969-1.576s.007-.249.005-.7v0C96.52,102.211,96.513,102.46,96.513,102.46Z" transform="translate(-2.159 -3.456)" fill="#fff"/>
                                          <path id="Path_189" data-name="Path 189" d="M96.4,97.511l.005,0-.016-.176h-.005C96.39,97.4,96.4,97.453,96.4,97.511Z" transform="translate(-2.231 -3.075)" fill="#fff"/>
                                          <path id="Path_190" data-name="Path 190" d="M149.616,97.337h-.005c-.008.091-.016.183-.025.271l.005,0Z" transform="translate(-6.812 -3.075)" fill="#fff"/>
                                          <path id="Path_191" data-name="Path 191" d="M149.617,97.337l-.025.269.535-.269Z" transform="translate(-6.812 -3.075)" fill="#fff"/>
                                          <path id="Path_192" data-name="Path 192" d="M96.368,97.511c0-.058-.01-.115-.016-.174H96Z" transform="translate(-2.198 -3.075)" fill="#fff"/>
                                          <path id="Path_193" data-name="Path 193" d="M96.517,101.764l-.973,2.038v.234c.608-1.07.969-1.576.969-1.576S96.52,102.211,96.517,101.764Z" transform="translate(-2.159 -3.456)" fill="#fff"/>
                                          <path id="Path_194" data-name="Path 194" d="M150.46,104.25v.612l.352.7h.36C150.908,105.056,150.669,104.619,150.46,104.25Z" transform="translate(-6.887 -3.67)" fill="#fff"/>
                                          <path id="Path_195" data-name="Path 195" d="M150.46,104.25c.209.369.448.806.712,1.312h0c-.264-.506-.5-.943-.712-1.312Z" transform="translate(-6.887 -3.67)" fill="#fff"/>
                                          <path id="Path_196" data-name="Path 196" d="M151.287,97.337h-.545c-.181,1.877-.282,3.934-.282,6.194v.123c.209.369.448.806.712,1.312h.115Z" transform="translate(-6.887 -3.075)" fill="#fff"/>
                                          <path id="Path_197" data-name="Path 197" d="M149.394,97.634l-2.035,1.024,2.834,5.635v-.612c-.608-1.07-.969-1.576-.969-1.576A42.588,42.588,0,0,1,149.394,97.634Z" transform="translate(-6.62 -3.1)" fill="#fff"/>
                                          <path id="Path_198" data-name="Path 198" d="M149.4,102.1a43.129,43.129,0,0,1,.175-4.474l-.005,0a42.588,42.588,0,0,0-.17,4.471s.361.505.969,1.576h0C149.76,102.61,149.4,102.1,149.4,102.1Z" transform="translate(-6.795 -3.1)" fill="#fff"/>
                                          <path id="Path_199" data-name="Path 199" d="M149.575,97.606a43.129,43.129,0,0,0-.175,4.474s.361.505.969,1.576v-.123c0-2.26.1-4.317.282-6.194h-.541Z" transform="translate(-6.795 -3.075)" fill="#fff"/>
                                          <path id="Path_200" data-name="Path 200" d="M95.152,97.337h-.877v7.63h.42l.739-1.546C95.431,101.2,95.331,99.184,95.152,97.337Z" transform="translate(-2.049 -3.075)" fill="#fff"/>
                                          <path id="Path_201" data-name="Path 201" d="M98.063,98.321l-1.655-.791c.15,1.716.182,3.091.185,3.867Z" transform="translate(-2.233 -3.091)" fill="#fff"/>
                                          <path id="Path_202" data-name="Path 202" d="M96.591,101.4v0c0-.776-.035-2.15-.185-3.867l-.005,0C96.554,99.247,96.588,100.622,96.591,101.4Z" transform="translate(-2.233 -3.091)" fill="#fff"/>
                                          <path id="Path_203" data-name="Path 203" d="M95.235,97.337c.178,1.847.279,3.868.282,6.084l.973-2.038c0-.777-.037-2.152-.189-3.872l-.364-.174Z" transform="translate(-2.132 -3.075)" fill="#fff"/>
                                          <path id="Path_204" data-name="Path 204" d="M145.624,80.151H95.53l2.835,1.355-3,6.275h50.66l-3.144-6.251Z" transform="translate(-2.143 -1.595)" fill="#fff"/>
                                          <path id="Path_205" data-name="Path 205" d="M98.965,68c-.081.031-.161.062-.243.092l-1.88.7,1.88-.7C98.8,68.058,98.884,68.027,98.965,68Z" transform="translate(-2.27 -0.548)" fill="#fff"/>
                                          <path id="Path_206" data-name="Path 206" d="M149.816,69.108h0c-.859-.323-1.759-.656-2.711-1.011C148.056,68.452,148.957,68.785,149.816,69.108Z" transform="translate(-6.598 -0.557)" fill="#fff"/>
                                          <path id="Path_207" data-name="Path 207" d="M131.686,69.671h0a11.5,11.5,0,0,1-1.915,1h18.553v-.035c-1.07-.42-2.219-.86-3.448-1.333a61.277,61.277,0,0,1-9.276-4.625A9.737,9.737,0,0,1,131.686,69.671Z" transform="translate(-5.106 -0.263)" fill="#fff"/>
                                          <path id="Path_208" data-name="Path 208" d="M108.258,64.929a58.965,58.965,0,0,1-8.885,4.4c-1.263.486-2.443.938-3.538,1.368h18.329A11.2,11.2,0,0,1,108.258,64.929Z" transform="translate(-2.184 -0.284)" fill="#fff"/>
                                          <path id="Path_209" data-name="Path 209" d="M108.012,63.334a61.16,61.16,0,0,1-8.847,4.261,61.063,61.063,0,0,0,8.847-4.261Z" transform="translate(-2.47 -0.147)" fill="#fff"/>
                                          <path id="Path_210" data-name="Path 210" d="M96.51,68.863c-1.271.474-2.448.919-3.529,1.347h0C94.061,69.782,95.238,69.337,96.51,68.863Z" transform="translate(-1.938 -0.623)" fill="#fff"/>
                                          <path id="Path_211" data-name="Path 211" d="M95.589,70.559c1.095-.43,2.275-.882,3.538-1.368a58.965,58.965,0,0,0,8.885-4.4,10.3,10.3,0,0,1-.533-1.458,61.064,61.064,0,0,1-8.847,4.261c-.081.031-.161.062-.243.092l-1.88.7c-1.271.474-2.448.919-3.529,1.347v.825Z" transform="translate(-1.938 -0.147)" fill="#fff"/>
                                          <path id="Path_212" data-name="Path 212" d="M146.195,67.657a64.162,64.162,0,0,1-9.664-4.674h0A64.162,64.162,0,0,0,146.195,67.657Z" transform="translate(-5.688 -0.117)" fill="#fff"/>
                                          <path id="Path_213" data-name="Path 213" d="M136.148,64.536a61.278,61.278,0,0,0,9.276,4.625c1.229.473,2.378.913,3.448,1.333V68.667c-.859-.323-1.759-.656-2.711-1.011a64.163,64.163,0,0,1-9.664-4.674A6.336,6.336,0,0,1,136.148,64.536Z" transform="translate(-5.655 -0.117)" fill="#fff"/>
                                          <path id="Path_214" data-name="Path 214" d="M121.762,68.98c6.17,0,8.613-2.079,9.558-3.98H112.48C113.551,66.9,116.029,68.98,121.762,68.98Z" transform="translate(-3.617 -0.291)" fill="#fff"/>
                                          <path id="Path_215" data-name="Path 215" d="M131.866,70.141h0Z" transform="translate(-5.286 -0.733)" fill="#fff"/>
                                          <path id="Path_216" data-name="Path 216" d="M111.594,61.945a1.336,1.336,0,0,1,.333-.052s-.008.208.015.578h19.865a4.215,4.215,0,0,0-.038-.84c.031,0,.069.007.1.011v-.016H111.525v.013c.022,0,.048-.007.068-.007C111.593,61.631,111.585,61.747,111.594,61.945Z" transform="translate(-3.535)" fill="#339937"/>
                                          <path id="Path_217" data-name="Path 217" d="M111.933,61.918a2.234,2.234,0,0,0-.3.465c0,.037.009.074.015.113h.3c-.023-.37-.015-.578-.015-.578a1.336,1.336,0,0,0-.333.052h0A1.336,1.336,0,0,1,111.933,61.918Z" transform="translate(-3.541 -0.025)" fill="#339937"/>
                                          <path id="Path_218" data-name="Path 218" d="M111.933,61.918a1.336,1.336,0,0,0-.333.052c0,.111.016.252.034.413A2.234,2.234,0,0,1,111.933,61.918Z" transform="translate(-3.541 -0.025)" fill="#339937"/>
                                          <path id="Path_219" data-name="Path 219" d="M112.277,64.594l-.333-.939-.04.012A6.285,6.285,0,0,0,112.277,64.594Z" transform="translate(-3.567 -0.175)" fill="#339937"/>
                                          <path id="Path_220" data-name="Path 220" d="M133.554,63.7l-.079.3C133.505,63.9,133.532,63.8,133.554,63.7Z" transform="translate(-5.425 -0.179)" fill="#339937"/>
                                          <path id="Path_221" data-name="Path 221" d="M111.931,63.607l-.181-.513c.037.165.083.342.141.525Z" transform="translate(-3.554 -0.126)" fill="#339937"/>
                                          <path id="Path_222" data-name="Path 222" d="M131.824,62.862c.011-.11.017-.213.021-.311H111.98c.006.094.014.2.025.311Z" transform="translate(-3.574 -0.08)" fill="#339937"/>
                                          <path id="Path_223" data-name="Path 223" d="M111.7,62.862h.272c-.011-.114-.018-.217-.025-.311h-.3C111.666,62.649,111.683,62.753,111.7,62.862Z" transform="translate(-3.546 -0.08)" fill="#339937"/>
                                          <path id="Path_224" data-name="Path 224" d="M111.948,63.589l.333.939c.048.1.1.192.154.29h18.841a5.371,5.371,0,0,0,.346-.887l.079-.3a5.52,5.52,0,0,0,.122-.742H112c.018.195.044.417.081.666C112.04,63.565,112,63.576,111.948,63.589Z" transform="translate(-3.571 -0.109)" fill="#339937"/>
                                          <path id="Path_225" data-name="Path 225" d="M111.927,63.589c.048-.013.092-.024.135-.032-.037-.249-.063-.472-.081-.666h-.272c.012.06.024.122.037.186Z" transform="translate(-3.55 -0.109)" fill="#339937"/>
                                          <path id="Path_226" data-name="Path 226" d="M111.287,61.964V61.64a8.363,8.363,0,0,0-2.528,1.143h.8A10.2,10.2,0,0,1,111.287,61.964Z" transform="translate(-3.296 -0.001)" fill="#339937"/>
                                          <path id="Path_227" data-name="Path 227" d="M133.857,62.473l-.07.269v.042h.193a7.144,7.144,0,0,0,.038-.889h0a5.871,5.871,0,0,1,2.126.889h.136a8.825,8.825,0,0,0-2.493-1.14v.829Z" transform="translate(-5.451 -0.002)" fill="#339937"/>
                                          <path id="Path_228" data-name="Path 228" d="M119.429,71.24c.878.381,1.857.765,2.945,1.151a28.186,28.186,0,0,0,3.786-1.151Z" transform="translate(-4.215 -0.828)" fill="#339937"/>
                                          <path id="Path_229" data-name="Path 229" d="M122.652,72.391a16.847,16.847,0,0,0,6.505-1.151h-2.719A28.186,28.186,0,0,1,122.652,72.391Z" transform="translate(-4.493 -0.828)" fill="#339937"/>
                                          <path id="Path_230" data-name="Path 230" d="M115.891,71.24a15.577,15.577,0,0,0,6.179,1.151c-1.088-.386-2.067-.77-2.945-1.151Z" transform="translate(-3.911 -0.828)" fill="#339937"/>
                                          <path id="Path_231" data-name="Path 231" d="M134.04,61.918h0Z" transform="translate(-5.473 -0.025)" fill="#339937"/>
                                          <path id="Path_232" data-name="Path 232" d="M111.519,62.68c-.024.061-.047.125-.068.193h.068Z" transform="translate(-3.528 -0.091)" fill="#339937"/>
                                          <path id="Path_233" data-name="Path 233" d="M111.363,61.995h0a10.2,10.2,0,0,0-1.725.819h0A10.2,10.2,0,0,1,111.363,61.995Z" transform="translate(-3.372 -0.032)" fill="#339937"/>
                                          <path id="Path_234" data-name="Path 234" d="M111.363,62.621v-.626a10.2,10.2,0,0,0-1.725.819h1.657C111.316,62.746,111.339,62.682,111.363,62.621Z" transform="translate(-3.372 -0.032)" fill="#339937"/>
                                          <path id="Path_235" data-name="Path 235" d="M136.166,62.807a5.871,5.871,0,0,0-2.126-.889h0a5.871,5.871,0,0,1,2.126.889Z" transform="translate(-5.473 -0.025)" fill="#339937"/>
                                          <path id="Path_236" data-name="Path 236" d="M134.036,61.918a7.141,7.141,0,0,1-.038.889h.187A3.765,3.765,0,0,0,134.036,61.918Z" transform="translate(-5.47 -0.025)" fill="#339937"/>
                                          <path id="Path_237" data-name="Path 237" d="M136.166,62.807a5.871,5.871,0,0,0-2.126-.889h0a3.765,3.765,0,0,1,.149.889Z" transform="translate(-5.473 -0.025)" fill="#339937"/>
                                          <path id="Path_238" data-name="Path 238" d="M133.164,64.818l-.6,2.263a6.074,6.074,0,0,0,1.488-3.452,2.026,2.026,0,0,0-.263-.072c.037-.249.064-.472.082-.666h-.193v1.927Z" transform="translate(-5.346 -0.109)" fill="#339937"/>
                                          <path id="Path_239" data-name="Path 239" d="M136.517,62.975c0-.027,0-.053,0-.074l-.017-.01h-.136Z" transform="translate(-5.673 -0.109)" fill="#339937"/>
                                          <path id="Path_240" data-name="Path 240" d="M108.836,63.3c.258-.145.5-.28.725-.4h-.8l-.017.01S108.766,63.046,108.836,63.3Z" transform="translate(-3.295 -0.109)" fill="#339937"/>
                                          <path id="Path_241" data-name="Path 241" d="M111.506,64.9v-1.09c-.065.027-.132.058-.2.09a4.787,4.787,0,0,0,1.865,3.381l-.842-2.382Z" transform="translate(-3.516 -0.188)" fill="#339937"/>
                                          <path id="Path_242" data-name="Path 242" d="M128.112,70.173l-10.674.122c.554.281,1.157.567,1.82.853h6.732A18.334,18.334,0,0,0,128.112,70.173Z" transform="translate(-4.044 -0.736)" fill="#339937"/>
                                          <path id="Path_243" data-name="Path 243" d="M115.335,70.609h3.233c-.663-.286-1.266-.571-1.82-.853l-2.856.033-.885-2.5a4.787,4.787,0,0,1-1.865-3.381c-.455.212-1.024.535-1.714.935A11.2,11.2,0,0,0,115.335,70.609Z" transform="translate(-3.354 -0.196)" fill="#339937"/>
                                          <path id="Path_244" data-name="Path 244" d="M135.779,64.6A11.646,11.646,0,0,0,134,63.7a6.074,6.074,0,0,1-1.488,3.452l-.642,2.436A9.737,9.737,0,0,0,135.779,64.6Z" transform="translate(-5.286 -0.178)" fill="#339937"/>
                                          <path id="Path_245" data-name="Path 245" d="M128.918,70.17a18.334,18.334,0,0,1-2.123.975h2.719a11.5,11.5,0,0,0,1.915-1Z" transform="translate(-4.849 -0.733)" fill="#339937"/>
                                          <path id="Path_246" data-name="Path 246" d="M111.506,62.891h-.068a2.921,2.921,0,0,0-.134.928c.07-.033.137-.063.2-.09Z" transform="translate(-3.516 -0.109)" fill="#339937"/>
                                          <path id="Path_247" data-name="Path 247" d="M109.57,62.891h0c-.227.125-.467.26-.725.4h0C109.1,63.151,109.343,63.016,109.57,62.891Z" transform="translate(-3.304 -0.109)" fill="#339937"/>
                                          <path id="Path_248" data-name="Path 248" d="M111.227,62.891H109.57c-.227.125-.467.26-.725.4a10.3,10.3,0,0,0,.533,1.458c.691-.4,1.259-.723,1.714-.935A2.921,2.921,0,0,1,111.227,62.891Z" transform="translate(-3.304 -0.109)" fill="#339937"/>
                                          <path id="Path_249" data-name="Path 249" d="M136.517,62.975h0l-.151-.084h0Z" transform="translate(-5.673 -0.109)" fill="#339937"/>
                                          <path id="Path_250" data-name="Path 250" d="M134.171,63.629a5.162,5.162,0,0,0,.006-.738h-.187c-.018.195-.045.417-.082.666A2.027,2.027,0,0,1,134.171,63.629Z" transform="translate(-5.462 -0.109)" fill="#339937"/>
                                          <path id="Path_251" data-name="Path 251" d="M136.33,62.975l-.151-.084H134.2a5.162,5.162,0,0,1-.006.738,11.647,11.647,0,0,1,1.784.9A6.336,6.336,0,0,0,136.33,62.975Z" transform="translate(-5.487 -0.109)" fill="#339937"/>
                                          <path id="Path_252" data-name="Path 252" d="M133.858,62.551h-.071v.269Z" transform="translate(-5.451 -0.08)" fill="#339937"/>
                                          <path id="Path_253" data-name="Path 253" d="M121.758,68.98c-5.734,0-8.211-2.079-9.282-3.98h-.051l.842,2.382a16.743,16.743,0,0,0,3.741,2.468l10.674-.122a10.722,10.722,0,0,0,3.153-2.465l.6-2.263h-.113C130.37,66.9,127.927,68.98,121.758,68.98Z" transform="translate(-3.612 -0.291)" fill="#339937"/>
                                          <path id="Path_254" data-name="Path 254" d="M114.23,70.107l2.856-.033a16.743,16.743,0,0,1-3.741-2.468Z" transform="translate(-3.691 -0.515)" fill="#339937"/>
                                          <path id="Path_255" data-name="Path 255" d="M129.118,69.941l2.51-.028h0l.642-2.436A10.722,10.722,0,0,1,129.118,69.941Z" transform="translate(-5.049 -0.504)" fill="#339937"/>
                                          <path id="Path_256" data-name="Path 256" d="M133.786,62.887v-.042l-.011.042Z" transform="translate(-5.45 -0.105)" fill="#339937"/>
                                          <path id="Path_257" data-name="Path 257" d="M111.594,61.945c-.008-.2,0-.313,0-.313-.02,0-.046.005-.068.007v.324Z" transform="translate(-3.535 -0.001)" fill="#339937"/>
                                          <path id="Path_258" data-name="Path 258" d="M133.713,62.472h.064v-.829c-.034,0-.071-.011-.1-.011A4.215,4.215,0,0,1,133.713,62.472Z" transform="translate(-5.442 -0.001)" fill="#339937"/>
                                          <path id="Path_259" data-name="Path 259" d="M111.594,61.975h0l-.069.018h0Z" transform="translate(-3.535 -0.03)" fill="#339937"/>
                                          <path id="Path_260" data-name="Path 260" d="M111.647,62.54c-.005-.039-.01-.076-.015-.113-.017.036-.036.074-.053.113Z" transform="translate(-3.539 -0.069)" fill="#339937"/>
                                          <path id="Path_261" data-name="Path 261" d="M111.666,62.864l-.1-.287c-.014.031-.026.062-.039.094v.193Z" transform="translate(-3.535 -0.082)" fill="#339937"/>
                                          <path id="Path_262" data-name="Path 262" d="M111.564,62.525l-.009-.024h.019c.017-.039.036-.078.053-.113-.018-.161-.029-.3-.034-.413l-.069.018v.626C111.538,62.587,111.551,62.556,111.564,62.525Z" transform="translate(-3.535 -0.03)" fill="#339937"/>
                                          <path id="Path_263" data-name="Path 263" d="M111.525,63.8v1.09h.822l-.1-.29a6.284,6.284,0,0,1-.373-.928C111.766,63.7,111.65,63.743,111.525,63.8Z" transform="translate(-3.535 -0.176)" fill="#339937"/>
                                          <path id="Path_264" data-name="Path 264" d="M133.532,63.633c-.022.1-.048.2-.079.3l-.233.887h.518V62.891h-.011Z" transform="translate(-5.403 -0.109)" fill="#339937"/>
                                          <path id="Path_265" data-name="Path 265" d="M111.525,63.728c.125-.052.241-.1.346-.127-.058-.183-.1-.359-.141-.525l-.065-.186h-.141Z" transform="translate(-3.535 -0.109)" fill="#339937"/>
                                          <path id="Path_266" data-name="Path 266" d="M133.768,62.862l.011-.042v-.269h-.064c0,.1-.01.2-.021.311Z" transform="translate(-5.443 -0.08)" fill="#339937"/>
                                          <path id="Path_267" data-name="Path 267" d="M111.568,62.575l.1.287h.027c-.021-.109-.038-.213-.051-.311h-.068Z" transform="translate(-3.538 -0.08)" fill="#339937"/>
                                          <path id="Path_268" data-name="Path 268" d="M111.558,62.551l.009.024.01-.024Z" transform="translate(-3.537 -0.08)" fill="#339937"/>
                                          <path id="Path_269" data-name="Path 269" d="M133.757,62.891h-.074a5.525,5.525,0,0,1-.122.742Z" transform="translate(-5.432 -0.109)" fill="#339937"/>
                                          <path id="Path_270" data-name="Path 270" d="M133.209,64.916l.233-.887a5.371,5.371,0,0,1-.346.887Z" transform="translate(-5.392 -0.207)" fill="#339937"/>
                                          <path id="Path_271" data-name="Path 271" d="M112.466,64.973c-.054-.1-.106-.194-.154-.29l.1.29Z" transform="translate(-3.602 -0.263)" fill="#339937"/>
                                          <path id="Path_272" data-name="Path 272" d="M111.744,63.077c-.014-.063-.026-.125-.037-.186h-.027Z" transform="translate(-3.548 -0.109)" fill="#339937"/>
                                          <path id="Path_273" data-name="Path 273" d="M84.08,75.566c-.2.364-1.528,2.75-3.3,6.2l.005,0C82.553,78.323,83.88,75.927,84.08,75.566Z" transform="translate(-0.887 -1.2)" fill="#fff"/>
                                          <path id="Path_274" data-name="Path 274" d="M85.726,76.744c-.1.124-.2.249-.282.378,0,0-1.184,2.192-2.857,5.534L92.6,87.442C90.708,81.249,87.742,78.355,85.726,76.744Z" transform="translate(-1.043 -1.302)" fill="#fff"/>
                                          <path id="Path_275" data-name="Path 275" d="M94.754,79.79l-8.03-3.836c-.131.122-.255.247-.371.374C90,78.3,92.228,82.037,93.593,85.98V79.79Z" transform="translate(-1.367 -1.234)" fill="#fff"/>
                                          <path id="Path_276" data-name="Path 276" d="M94.938,89.068l.087.042.292-.61h-.539C94.833,88.689,94.886,88.878,94.938,89.068Z" transform="translate(-2.093 -2.314)" fill="#fff"/>
                                          <path id="Path_277" data-name="Path 277" d="M94.023,87.455h-.459V86.016c-1.364-3.943-3.6-7.679-7.24-9.653-.106.114-.209.23-.3.348,2.016,1.611,4.982,4.5,6.878,10.7l1.284.613C94.132,87.833,94.079,87.644,94.023,87.455Z" transform="translate(-1.339 -1.269)" fill="#fff"/>
                                          <path id="Path_278" data-name="Path 278" d="M84.391,75.519l.027-.048h0a5.514,5.514,0,0,1,.348-.451h0a5.514,5.514,0,0,0-.348.451Z" transform="translate(-1.198 -1.153)" fill="#fff"/>
                                          <path id="Path_279" data-name="Path 279" d="M85.571,76.638c-.583-.466-1.088-.824-1.462-1.125h0l-.027.048c-.2.361-1.527,2.757-3.3,6.2l1.648.787c1.672-3.342,2.857-5.534,2.857-5.534C85.375,76.888,85.471,76.762,85.571,76.638Z" transform="translate(-0.888 -1.196)" fill="#fff"/>
                                          <path id="Path_280" data-name="Path 280" d="M86.558,75.873l-1.788-.854a5.515,5.515,0,0,0-.348.451h0a11.581,11.581,0,0,1,1.765.777C86.3,76.12,86.427,76,86.558,75.873Z" transform="translate(-1.201 -1.153)" fill="#fff"/>
                                          <path id="Path_281" data-name="Path 281" d="M86.187,76.29a11.581,11.581,0,0,0-1.765-.777c.375.3.879.659,1.462,1.125C85.977,76.52,86.081,76.4,86.187,76.29Z" transform="translate(-1.201 -1.196)" fill="#fff"/>
                                          <path id="Path_282" data-name="Path 282" d="M95.436,80.151H94.275v6.191q.248.717.459,1.439h.539l3-6.275Z" transform="translate(-2.049 -1.595)" fill="#fff"/>
                                          <path id="Path_283" data-name="Path 283" d="M94.275,88.364h.459q-.211-.721-.459-1.439Z" transform="translate(-2.049 -2.178)" fill="#fff"/>
                                          <path id="Path_284" data-name="Path 284" d="M161.583,75.513s1.342,2.4,3.2,6.01h0c-1.866-3.621-3.206-6.009-3.206-6.009Z" transform="translate(-7.845 -1.196)" fill="#fff"/>
                                          <path id="Path_285" data-name="Path 285" d="M159.334,76.744c-2.015,1.61-4.979,4.5-6.875,10.689l9.911-4.984c-1.618-3.225-2.754-5.326-2.754-5.326C159.531,76.993,159.434,76.868,159.334,76.744Z" transform="translate(-7.059 -1.302)" fill="#fff"/>
                                          <path id="Path_286" data-name="Path 286" d="M151.278,79.775v7.212c1.324-4.309,3.615-8.53,7.573-10.673a7.052,7.052,0,0,0-.547-.534l-7.945,4Z" transform="translate(-6.878 -1.219)" fill="#fff"/>
                                          <path id="Path_287" data-name="Path 287" d="M150.8,88.5l.249.5q.069-.248.142-.5Z" transform="translate(-6.916 -2.314)" fill="#fff"/>
                                          <path id="Path_288" data-name="Path 288" d="M161.533,75.452h0A5.743,5.743,0,0,0,161,74.8h0A5.949,5.949,0,0,1,161.533,75.452Z" transform="translate(-7.794 -1.134)" fill="#fff"/>
                                          <path id="Path_289" data-name="Path 289" d="M159.215,76.711c-.093-.118-.2-.234-.3-.348-3.957,2.143-6.248,6.364-7.573,10.673v.419h-.126q-.073.248-.142.5l.035.069,1.233-.621C154.236,81.213,157.2,78.321,159.215,76.711Z" transform="translate(-6.94 -1.269)" fill="#fff"/>
                                          <path id="Path_290" data-name="Path 290" d="M161.583,75.513h0Z" transform="translate(-7.845 -1.196)" fill="#fff"/>
                                          <path id="Path_291" data-name="Path 291" d="M159.982,76.638c.1.124.2.249.282.378,0,0,1.136,2.1,2.754,5.326l1.63-.82c-1.862-3.613-3.2-6.008-3.2-6.01h0C161.07,75.814,160.565,76.172,159.982,76.638Z" transform="translate(-7.707 -1.196)" fill="#fff"/>
                                          <path id="Path_292" data-name="Path 292" d="M159.6,76.228a11.582,11.582,0,0,1,1.765-.777h0a5.949,5.949,0,0,0-.534-.652l-1.778.895A7.052,7.052,0,0,1,159.6,76.228Z" transform="translate(-7.627 -1.134)" fill="#fff"/>
                                          <path id="Path_293" data-name="Path 293" d="M161.416,75.513a11.582,11.582,0,0,0-1.765.777c.106.114.209.23.3.348C160.537,76.172,161.041,75.814,161.416,75.513Z" transform="translate(-7.678 -1.196)" fill="#fff"/>
                                          <path id="Path_294" data-name="Path 294" d="M151.02,87.363V80.151H150.1l-2.742,1.379,3.144,6.251h.391C150.935,87.642,150.977,87.5,151.02,87.363Z" transform="translate(-6.62 -1.595)" fill="#fff"/>
                                          <path id="Path_295" data-name="Path 295" d="M151.353,88.461v-.419c-.043.14-.085.28-.126.419Z" transform="translate(-6.953 -2.274)" fill="#fff"/>
                                          <g id="Group_90" data-name="Group 90" transform="translate(90.799 84.07)" opacity="0.1">
                                            <g id="Group_88" data-name="Group 88" transform="translate(40.474)">
                                              <path id="Path_296" data-name="Path 296" d="M138.8,111.694c-.557,16.139-1.393,40.423-1.8,52.313a76.423,76.423,0,0,0,12.3-2.427V102.685c0-7.456,1.093-12.725,2.586-16.5C145.571,91,139.252,98.714,138.8,111.694Z" transform="translate(-137.001 -86.184)" fill="#6c6c6c"/>
                                            </g>
                                            <g id="Group_89" data-name="Group 89">
                                              <path id="Path_297" data-name="Path 297" d="M107.6,163.977c-.41-11.9-1.247-36.159-1.8-52.283-.448-12.979-6.767-20.7-13.083-25.51,1.493,3.777,2.586,9.045,2.586,16.5V161.58A86.146,86.146,0,0,0,107.6,163.977Z" transform="translate(-92.714 -86.184)" fill="#6c6c6c"/>
                                            </g>
                                          </g>
                                        </g>
                                      </g>
                                    </g>
                                  </g>
                                </g>
                              </g>
                            </g>
                          </g>
                        </g>
                      </g>
                    </g>
                  </g>
                </g>
              </g>
            </g>
          </g>
        </g>
      </g>
    </g>
    <ellipse id="Ellipse_26" data-name="Ellipse 26" cx="26" cy="4" rx="26" ry="4" transform="translate(1470 -49)" fill="#ddd"/>
  </g>
</svg>
