<svg xmlns="http://www.w3.org/2000/svg" xmlns:xlink="http://www.w3.org/1999/xlink" width="115.728" height="126.156" viewBox="0 0 115.728 126.156">
  <defs>
    <filter id="Path_1216" x="0" y="0" width="115.728" height="120.507" filterUnits="userSpaceOnUse">
      <feOffset dy="3" input="SourceAlpha"/>
      <feGaussianBlur stdDeviation="3" result="blur"/>
      <feFlood flood-opacity="0.161"/>
      <feComposite operator="in" in2="blur"/>
      <feComposite in="SourceGraphic"/>
    </filter>
  </defs>
  <g id="Group_470" data-name="Group 470" transform="translate(-1928.665 167.156)">
    <g transform="matrix(1, 0, 0, 1, 1928.66, -167.16)" filter="url(#Path_1216)">
      <path id="Path_1216-2" data-name="Path 1216" d="M166.9-118.819a7.766,7.766,0,0,0-.324-1.046l-.019.02c-4.1-12.012-12.631-27.218-12.631-27.218h0c-1.58-2.3-5.3-3.844-10.935-5.954q-1.208-.452-2.532-.943-.663-.247-1.287-.5c-.6-.242-1.166-.485-1.714-.728a72.492,72.492,0,0,1-6.494-3.341v-.016a8.8,8.8,0,0,0-2.555-1.162v-.026H107.7v.02a8.438,8.438,0,0,0-2.592,1.168l0,.015a69.754,69.754,0,0,1-7,3.567c-.782.337-1.614.673-2.5,1-2.207.821-4.173,1.546-5.888,2.235-3.088,1.24-5.366,2.363-6.771,3.719a6.23,6.23,0,0,0-.807.943l-.02.034c-.383.687-8.568,15.379-12.581,27.095l-.007-.009a8.155,8.155,0,0,0-.364,1.12l0,.009c.807,2.422,7.022,6.936,14.12,8.126l.024,0c.509.085,1.02.154,1.536.2.13.013.261.013.392.023.384.029.767.061,1.153.067.015,0,.03,0,.045,0,.539.008,1.079-.006,1.619-.046.866-2.357,1.687-4.31,2.42-5.907.8-1.756,1.5-3.074,2.015-3.984v59.82a98.4,98.4,0,0,0,25.457,3.285c15.274,0,25.627-3.285,25.627-3.285v-59.82a60.174,60.174,0,0,1,3.353,7.087q.526,1.3,1.082,2.8c.539.04,1.077.054,1.614.046.393-.006.785-.035,1.177-.064.135-.01.271-.011.406-.024.511-.047,1.019-.117,1.523-.2l.028,0c.068-.011.138-.016.2-.028,7.022-1.236,13.135-5.7,13.936-8.1Z" transform="translate(-60.17 165.73)" fill="#fff"/>
    </g>
    <ellipse id="Ellipse_33" data-name="Ellipse 33" cx="26" cy="4" rx="26" ry="4" transform="translate(1960 -49)" fill="#ddd"/>
    <g id="Group_412" data-name="Group 412" transform="translate(1862.638 -391.736)">
      <rect id="Rectangle_409" data-name="Rectangle 409" width="20.859" height="20.282" transform="translate(113.16 231.319)" fill="#15427f"/>
      <path id="Path_1065" data-name="Path 1065" d="M99.842,299.287h51.351v-7.275H99.842Z" transform="translate(-1.627 -3.939)" fill="#1c3661"/>
      <path id="Path_1066" data-name="Path 1066" d="M99.842,316.4h51.351v-8.264H99.842Z" transform="translate(-1.627 -4.985)" fill="#1c3661"/>
      <path id="Path_1067" data-name="Path 1067" d="M99.842,333.124h51.351v-7.8H99.842Z" transform="translate(-1.627 -6.101)" fill="#1c3661"/>
      <path id="Path_1068" data-name="Path 1068" d="M99.842,337.9a98.919,98.919,0,0,0,25.59,3.3c15.354,0,25.761-3.3,25.761-3.3v-4.237H99.842Z" transform="translate(-1.627 -6.642)" fill="#15427f"/>
      <path id="Path_1069" data-name="Path 1069" d="M99.842,324.785h51.351v-7.807H99.842Z" transform="translate(-1.627 -5.559)" fill="#15427f"/>
      <path id="Path_1070" data-name="Path 1070" d="M99.842,307.6h51.351v-7.807H99.842Z" transform="translate(-1.627 -4.444)" fill="#15427f"/>
      <path id="Path_1071" data-name="Path 1071" d="M99.842,291.47h51.351v-7.807H99.842Z" transform="translate(-1.627 -3.397)" fill="#15427f"/>
      <path id="Path_1072" data-name="Path 1072" d="M150.491,268.548l-.114-1.294c.007-.092.017-.185.025-.279H100.634l.016.18.069.948.12,3.009c0,.459-.007.714-.007.714s-.368.517-.99,1.613v1.342h51.351v-.716Z" transform="translate(-1.627 -2.314)" fill="#15427f"/>
      <path id="Path_1073" data-name="Path 1073" d="M151.087,249.79H99.831l2.9,1.386L99.664,257.6H151.5l-3.217-6.4Z" transform="translate(-1.615 -1.199)" fill="#15427f"/>
      <path id="Path_1074" data-name="Path 1074" d="M103.312,237.635l-.25.094-1.924.716,1.924-.716Z" transform="translate(-1.711 -0.41)" fill="#fff"/>
      <path id="Path_1075" data-name="Path 1075" d="M154.176,238.769h0c-.878-.329-1.8-.671-2.773-1.033C152.376,238.1,153.3,238.44,154.176,238.769Z" transform="translate(-4.973 -0.416)" fill="#fff"/>
      <path id="Path_1076" data-name="Path 1076" d="M136.111,239.408h0c-.576.379-.025,1.334-.757,1.637l17.78-.61V240.4c-1.094-.429-2.27-.88-3.527-1.364a69.943,69.943,0,0,1-10.008-4.98C139.1,235.515,138.5,237.839,136.111,239.408Z" transform="translate(-3.931 -0.178)" fill="#15427f"/>
      <path id="Path_1077" data-name="Path 1077" d="M112.843,234.567a60.111,60.111,0,0,1-9.091,4.5c-1.292.5-2.5.96-3.619,1.4H117.1C113.575,238.967,113.645,236.352,112.843,234.567Z" transform="translate(-1.646 -0.211)" fill="#15427f"/>
      <path id="Path_1078" data-name="Path 1078" d="M112.514,232.972a62.544,62.544,0,0,1-9.051,4.36,62.544,62.544,0,0,0,9.051-4.36Z" transform="translate(-1.862 -0.107)" fill="#fff"/>
      <path id="Path_1079" data-name="Path 1079" d="M139.893,233.961a69.951,69.951,0,0,0,10.008,4.98c1.258.484,2.433.935,3.527,1.364v-1.869c-.878-.329-1.8-.671-2.773-1.033a73.637,73.637,0,0,1-10.233-4.792A12.718,12.718,0,0,1,139.893,233.961Z" transform="translate(-4.226 -0.084)" fill="#1c3661"/>
      <path id="Path_1080" data-name="Path 1080" d="M136.164,239.779h0Z" transform="translate(-3.984 -0.549)" fill="#fff"/>
      <path id="Path_1081" data-name="Path 1081" d="M99.239,258.72l.09.042.3-.623h-.552Q99.16,258.429,99.239,258.72Z" transform="translate(-1.577 -1.74)" fill="#1c3661"/>
      <path id="Path_1082" data-name="Path 1082" d="M99.76,249.79H98.572v6.334q.254.734.469,1.473h.552l3.068-6.421Z" transform="translate(-1.545 -1.199)" fill="#15427f"/>
      <path id="Path_1083" data-name="Path 1083" d="M98.572,258.037h.469q-.216-.739-.469-1.473Z" transform="translate(-1.545 -1.638)" fill="#15427f"/>
      <path id="Path_1084" data-name="Path 1084" d="M155.1,258.139l.255.508q.07-.254.144-.508Z" transform="translate(-5.213 -1.74)" fill="#1c3661"/>
      <path id="Path_1085" data-name="Path 1085" d="M99.842,283.122h51.351v-7.8H99.842Z" transform="translate(-1.627 -2.856)" fill="#1c3661"/>
      <path id="Path_1086" data-name="Path 1086" d="M172.964,272.595c-.078-.238-.157-.476-.239-.717-.926-2.736-2.083-5.641-3.322-8.5-1.06-2.445-2.179-4.857-3.262-7.1-1.024-2.121-2.014-4.089-2.892-5.792-1.909-3.7-3.28-6.148-3.28-6.148h0a6.055,6.055,0,0,0-.545-.667c-1.787-1.927-5.242-3.365-10.22-5.234h0v1.906H132.179c-1.723.714-5.9,9.357-8.659,9.357-2.578,0-8.07-7.36-8.07-9.357H98.487c1.12-.44,2.327-.9,3.619-1.4a60.108,60.108,0,0,0,9.091-4.5c-.281-.628-.057-1.483-.15-1.82a66.094,66.094,0,0,1-9.446,4.689l-.25.094-1.924.716c-1.3.484-2.5.94-3.609,1.377q-.687.273-1.324.539c-2.97,1.24-5.1,2.4-6.325,3.84a5.741,5.741,0,0,0-.355.462l-.028.051c-.208.371-1.564,2.813-3.379,6.343-.885,1.721-1.879,3.7-2.9,5.827-1.082,2.249-2.2,4.66-3.248,7.1-1.193,2.767-2.3,5.569-3.2,8.214-.035.1-.066.2-.1.3-.063.188-.127.378-.188.564.842,2.525,7.523,7.313,14.98,8.292.38.051.762.087,1.146.116l.1.007c.166.011.333.022.5.03l.254.009c.113,0,.226.01.339.012h.2c.147,0,.295,0,.441,0H92.64c.094,0,.189,0,.283,0h.021q.407-.011.814-.041c.439-1.194.86-2.257,1.272-3.253h-.007c.473-1.148.923-2.17,1.341-3.067.409-.876.785-1.635,1.122-2.282h0c-.338.647-.713,1.405-1.122,2.282.409-.876.785-1.635,1.122-2.282.27-.518.515-.965.729-1.342.622-1.1.99-1.613.99-1.613s.008-.255.007-.714l-.12-3.009-.069-.948-.017-.18h49.768a44.761,44.761,0,0,1,1.365-7.755l-.255-.508H98.049l-.3.623-.09-.042h0q-.079-.29-.165-.581h-.469v-7.807h52.444l8.131-4.089h0l-8.131,4.089h.941v7.807h-.129q-.074.254-.144.508h0a44.761,44.761,0,0,0-1.365,7.755c-.008.094-.017.187-.024.278l.114,1.3.7,5.518v-.626c.214.377.459.824.729,1.342.057.111.117.225.177.343h0c.406.794.864,1.739,1.359,2.844q.445.995.928,2.163h-.006c.3.738.615,1.514.934,2.352.111.3.223.592.337.9q.405.029.812.041c.216.007.433.007.65,0h.145c.236,0,.471-.013.706-.024.064,0,.128,0,.193-.008.088,0,.176-.014.264-.021l.09-.007c.436-.034.87-.077,1.3-.137.694-.1,1.38-.224,2.055-.381,6.527-1.512,12.014-5.618,12.772-7.89C173,272.688,172.979,272.641,172.964,272.595Zm-76.616-16.16h0c.287.939.551,1.952.783,3.046a46.76,46.76,0,0,1,.759,4.9c.012.12.024.24.036.361h0c-.011-.121-.023-.241-.036-.361a46.76,46.76,0,0,0-.759-4.9C96.9,258.388,96.635,257.374,96.348,256.435Zm2.862,12.45-1,2.085-.756,1.582h0l.756-1.582,1-2.085c0-.794-.037-2.2-.193-3.962l-.372-.178h0l.372.178C99.173,266.683,99.206,268.091,99.21,268.885Zm51.916-12.3-.951.479h0Z" transform="translate(0 -0.085)" fill="#1c3661"/>
      <path id="Path_1087" data-name="Path 1087" d="M155.4,257.169V249.79h-.941l-2.8,1.41,3.217,6.4h.4Q155.336,257.383,155.4,257.169Z" transform="translate(-4.989 -1.199)" fill="#15427f"/>
      <path id="Path_1088" data-name="Path 1088" d="M155.653,258.109v-.428q-.066.213-.129.428Z" transform="translate(-5.24 -1.711)" fill="#15427f"/>
      <g id="Group_411" data-name="Group 411" transform="translate(95.644 254.141)" opacity="0.1">
        <g id="Group_409" data-name="Group 409" transform="translate(41.414)">
          <path id="Path_1089" data-name="Path 1089" d="M143.225,281.827c-.569,16.513-1.426,41.361-1.845,53.527a78.2,78.2,0,0,0,12.585-2.484V272.609c0-7.629,1.118-13.02,2.646-16.884C150.148,260.648,143.682,268.546,143.225,281.827Z" transform="translate(-141.38 -255.725)" fill="#6c6c6c"/>
        </g>
        <g id="Group_410" data-name="Group 410">
          <path id="Path_1090" data-name="Path 1090" d="M112.323,335.323c-.42-12.178-1.275-37-1.844-53.5-.457-13.28-6.924-21.178-13.387-26.1,1.528,3.865,2.647,9.256,2.647,16.884V332.87A88.15,88.15,0,0,0,112.323,335.323Z" transform="translate(-97.092 -255.725)" fill="#6c6c6c"/>
        </g>
      </g>
      <path id="Path_1091" data-name="Path 1091" d="M136.522,231.421v-.1H115.663v.065a11.405,11.405,0,0,0-2.318,1.143c.457,3.274,2.453,10.324,10.94,17.464l1.735,1.349,1.74-1.349c8.487-7.139,10.483-14.19,10.941-17.463A13.581,13.581,0,0,0,136.522,231.421Zm-10.5,16.236c-7.194-5.485-9.258-11.089-9.843-14.091h19.685C135.28,236.568,133.216,242.172,126.023,247.657Z" transform="translate(-2.503 0)" fill="#1c3661" stroke="#15427f" stroke-linecap="round" stroke-linejoin="round" stroke-width="1"/>
    </g>
  </g>
</svg>
