<svg xmlns="http://www.w3.org/2000/svg" xmlns:xlink="http://www.w3.org/1999/xlink" width="111.24" height="128.156" viewBox="0 0 111.24 128.156">
  <defs>
    <filter id="Path_1209" x="0" y="0" width="111.24" height="122.507" filterUnits="userSpaceOnUse">
      <feOffset dy="3" input="SourceAlpha"/>
      <feGaussianBlur stdDeviation="3" result="blur"/>
      <feFlood flood-opacity="0.161"/>
      <feComposite operator="in" in2="blur"/>
      <feComposite in="SourceGraphic"/>
    </filter>
  </defs>
  <g id="Group_477" data-name="Group 477" transform="translate(-2790.537 169.156)">
    <g transform="matrix(1, 0, 0, 1, 2790.54, -169.16)" filter="url(#Path_1209)">
      <path id="Path_1209-2" data-name="Path 1209" d="M281.063-76.91s-.138-13.74-.971-28.035a267.452,267.452,0,0,0-4.719-37.195c-1.619-8.945-7.234-12.019-10.964-13.463-1.731-.67-4.469-1.67-7.124-2.626l-.086-.032a64.266,64.266,0,0,1-9.68-4.657v-.016a8.986,8.986,0,0,0-2.605-1.185v-.027H223.8v.019a8.612,8.612,0,0,0-2.641,1.192l0,.015a64.2,64.2,0,0,1-9.682,4.658c-2.241.834-4.238,1.571-5.982,2.27-.366.138-.71.269-1.019.388a21.006,21.006,0,0,0-3.067,1.46,10.027,10.027,0,0,0-3.662,2.913l.018.014a17.607,17.607,0,0,0-4.254,9.075,267.461,267.461,0,0,0-4.719,37.195c-.832,14.295-.971,28.035-.971,28.035l.386,11.955-.011,0,.021.3.021.652c.237.049.467.088.7.13a17.847,17.847,0,0,0,3.945.47,19.41,19.41,0,0,0,3.371-.15,16.011,16.011,0,0,0,2.82-.548l.126-.031v-.009h0s.209-8.778.625-16.412c.35-6.418.693-15.093,2.5-24.114,0,0,.661-2.963,1.549-6.664.664-2.7,1.456-5.859,2.171-8.551.433-1.571.848-2.972,1.207-4.008.254-.733.679-1.5.874-2.288.033-.088.074-.185.105-.271.015.35.028.638.039.919.01.472.026.934.026,1.427v61.117h0a100.323,100.323,0,0,0,25.953,3.349A102.778,102.778,0,0,0,257.2-62.149c2.159-.487,3.384-.849,3.384-.849v-61.117c0-1.018.027-1.484.065-2.365.032.092.066.185.1.278.193.8.621,1.564.877,2.3.412,1.187.9,2.853,1.4,4.709.574,2.182,1.185,4.606,1.732,6.818,1.01,4.168,1.8,7.7,1.8,7.7,1.8,9.022,2.148,17.7,2.5,24.115.416,7.634.624,16.412.624,16.412l.01,0v.009l.1.029v.029a25.416,25.416,0,0,0,5.986.738,17.664,17.664,0,0,0,4.953-.643l.064-.921c-.036.01-.073.017-.108.027Z" transform="translate(-178.82 170.15)" fill="#fff"/>
    </g>
    <g id="Group_465" data-name="Group 465" transform="translate(2532.712 -227.748)">
      <rect id="Rectangle_368" data-name="Rectangle 368" width="21.312" height="3.23" transform="translate(302.701 65.098)" fill="#fff"/>
      <path id="Path_933" data-name="Path 933" d="M359.523,124.858a269.892,269.892,0,0,0-4.763-37.546c-1.634-9.029-7.3-12.132-11.068-13.589-1.747-.677-4.511-1.686-7.192-2.652l-.087-.033c-7.268-2.7-11.156-5.915-12.508-5.915a5.273,5.273,0,0,1,.249,1.545c-.022.008-.045.012-.067.02v-.7H302.733v.678c-.07-.022-.14-.038-.21-.061a4.39,4.39,0,0,1,.248-1.479c-1.352,0-5.239,3.211-12.508,5.915-2.262.842-4.278,1.585-6.039,2.292-.37.14-.717.272-1.028.393a21.04,21.04,0,0,0-3.1,1.473,10.13,10.13,0,0,0-3.7,2.941l.018.014a17.77,17.77,0,0,0-4.294,9.161,269.885,269.885,0,0,0-4.764,37.546c-.841,14.431-.98,28.3-.98,28.3l.42,13.029a23.411,23.411,0,0,0,11.068-.14s.14-8.966.56-16.672a174.743,174.743,0,0,1,2.662-24.8s3.222-13.589,4.817-18.85c.459-.98.814-1.848,1.1-2.635.025.786.043,1.588.043,2.426v61.693a101.272,101.272,0,0,0,26.2,3.38c15.719,0,26.374-3.38,26.374-3.38V105.52c0-1.04.026-2.029.064-2.989a28.6,28.6,0,0,0,1.288,3.2c1.595,5.261,4.817,18.85,4.817,18.85a174.888,174.888,0,0,1,2.661,24.8c.42,7.706.561,16.672.561,16.672a23.41,23.41,0,0,0,11.068.14l.42-13.029S360.364,139.289,359.523,124.858Zm-18.913-30.4a2.442,2.442,0,0,1-.088.277c.219-1.178.468-2.278.748-3.292C341.084,92.4,340.875,93.392,340.61,94.457Z" transform="translate(0 -0.001)" fill="#b2b2b2"/>
      <path id="Path_934" data-name="Path 934" d="M314.853,75.508c11.74,0,13.29-8.167,13.29-9.188a8.04,8.04,0,0,0-2.738-1.216s1.34,7.394-10.567,7.394c-11.065,0-10.567-7.394-10.567-7.394a8.044,8.044,0,0,0-2.737,1.216S303.214,75.508,314.853,75.508Z" transform="translate(-1.5 0)" fill="#fff"/>
      <rect id="Rectangle_369" data-name="Rectangle 369" width="21.312" height="3.23" transform="translate(302.701 65.098)" fill="#ededed"/>
      <path id="Path_935" data-name="Path 935" d="M314.853,75.508c11.74,0,13.29-8.167,13.29-9.188a8.04,8.04,0,0,0-2.738-1.216s1.34,7.394-10.567,7.394c-11.065,0-10.567-7.394-10.567-7.394a8.044,8.044,0,0,0-2.737,1.216S303.214,75.508,314.853,75.508Z" transform="translate(-1.5 0)" fill="#ededed"/>
      <path id="Path_936" data-name="Path 936" d="M300.151,170.753c-.43-12.467-1.3-37.877-1.888-54.768-.467-13.561-7.054-21.638-13.654-26.681l-.007-.016,0,.007-.04-.031c.008.018.014.039.022.058a67.734,67.734,0,0,0-8.943,21.821c-5.955,28.019-3.852,56.67-3.852,56.67a20.5,20.5,0,0,0,6.3-.735s.211-8.861.631-16.567c.353-6.479.7-15.236,2.522-24.342,0,0,3.171-14.211,4.973-19.4a13.184,13.184,0,0,0,.98-2.767c.043,1,.074,1.46.074,2.551v61.693A90.082,90.082,0,0,0,300.151,170.753Z" transform="translate(-0.215 -1.031)" fill="#00394f" opacity="0.1"/>
      <path id="Path_937" data-name="Path 937" d="M329.643,170.741c.43-12.467,1.306-37.877,1.888-54.768.467-13.561,7.054-21.639,13.654-26.681l.008-.016,0,.007.039-.032c-.007.019-.013.04-.021.059a67.731,67.731,0,0,1,8.943,21.821c5.955,28.019,3.853,56.669,3.853,56.669a20.581,20.581,0,0,1-6.305-.735s-.21-8.862-.63-16.567c-.353-6.479-.7-15.236-2.522-24.342,0,0-3.171-14.211-4.973-19.4a13.172,13.172,0,0,1-.981-2.768c-.042,1-.073,1.461-.073,2.551V168.23A90.242,90.242,0,0,1,329.643,170.741Z" transform="translate(-2.699 -1.03)" fill="#00394f" opacity="0.1"/>
      <path id="Path_938" data-name="Path 938" d="M271.843,171.262a17.859,17.859,0,0,1-5-.648l-.064-.93c4.766,1.353,11.06,0,11.122-.016l-.016.849A25.6,25.6,0,0,1,271.843,171.262Z" transform="translate(-0.017 -4.461)" fill="#fff"/>
      <path id="Path_939" data-name="Path 939" d="M358.844,171.313a17.873,17.873,0,0,0,5-.648l.064-.93c-4.767,1.353-11.061,0-11.122-.016l.016.849A25.643,25.643,0,0,0,358.844,171.313Z" transform="translate(-3.686 -4.464)" fill="#fff"/>
    </g>
    <ellipse id="Ellipse_40" data-name="Ellipse 40" cx="26" cy="4" rx="26" ry="4" transform="translate(2820 -49)" fill="#ddd"/>
  </g>
</svg>
