<svg xmlns="http://www.w3.org/2000/svg" xmlns:xlink="http://www.w3.org/1999/xlink" width="115.728" height="125.156" viewBox="0 0 115.728 125.156">
  <defs>
    <filter id="Path_1211" x="0" y="0" width="115.728" height="120.507" filterUnits="userSpaceOnUse">
      <feOffset dy="3" input="SourceAlpha"/>
      <feGaussianBlur stdDeviation="3" result="blur"/>
      <feFlood flood-opacity="0.161"/>
      <feComposite operator="in" in2="blur"/>
      <feComposite in="SourceGraphic"/>
    </filter>
  </defs>
  <g id="Group_475" data-name="Group 475" transform="translate(-2536.665 166.156)">
    <g transform="matrix(1, 0, 0, 1, 2536.66, -166.16)" filter="url(#Path_1211)">
      <path id="Path_1211-2" data-name="Path 1211" d="M166.9-118.819a7.766,7.766,0,0,0-.324-1.046l-.019.02c-4.1-12.012-12.631-27.218-12.631-27.218h0c-1.58-2.3-5.3-3.844-10.935-5.954q-1.208-.452-2.532-.943-.663-.247-1.287-.5c-.6-.242-1.166-.485-1.714-.728a72.492,72.492,0,0,1-6.494-3.341v-.016a8.8,8.8,0,0,0-2.555-1.162v-.026H107.7v.02a8.438,8.438,0,0,0-2.592,1.168l0,.015a69.754,69.754,0,0,1-7,3.567c-.782.337-1.614.673-2.5,1-2.207.821-4.173,1.546-5.888,2.235-3.088,1.24-5.366,2.363-6.771,3.719a6.23,6.23,0,0,0-.807.943l-.02.034c-.383.687-8.568,15.379-12.581,27.095l-.007-.009a8.155,8.155,0,0,0-.364,1.12l0,.009c.807,2.422,7.022,6.936,14.12,8.126l.024,0c.509.085,1.02.154,1.536.2.13.013.261.013.392.023.384.029.767.061,1.153.067.015,0,.03,0,.045,0,.539.008,1.079-.006,1.619-.046.866-2.357,1.687-4.31,2.42-5.907.8-1.756,1.5-3.074,2.015-3.984v59.82a98.4,98.4,0,0,0,25.457,3.285c15.274,0,25.627-3.285,25.627-3.285v-59.82a60.174,60.174,0,0,1,3.353,7.087q.526,1.3,1.082,2.8c.539.04,1.077.054,1.614.046.393-.006.785-.035,1.177-.064.135-.01.271-.011.406-.024.511-.047,1.019-.117,1.523-.2l.028,0c.068-.011.138-.016.2-.028,7.022-1.236,13.135-5.7,13.936-8.1Z" transform="translate(-60.17 165.73)" fill="#fff"/>
    </g>
    <ellipse id="Ellipse_38" data-name="Ellipse 38" cx="26" cy="4" rx="26" ry="4" transform="translate(2569 -49)" fill="#ddd"/>
    <g id="Group_444" data-name="Group 444" transform="translate(2287.122 -568.367)">
      <rect id="Rectangle_423" data-name="Rectangle 423" width="20.906" height="20.327" transform="translate(296.652 408.847)" fill="#fff"/>
      <rect id="Rectangle_424" data-name="Rectangle 424" width="20.906" height="20.327" transform="translate(296.652 408.834)" fill="#1d1d1b" opacity="0.1"/>
      <path id="Path_1151" data-name="Path 1151" d="M283.247,476.833h51.468v-7.292H283.247Z" transform="translate(-1.574 -3.812)" fill="#e52321"/>
      <path id="Path_1152" data-name="Path 1152" d="M283.247,493.952h51.468V485.67H283.247Z" transform="translate(-1.574 -4.824)" fill="#e42321"/>
      <path id="Path_1153" data-name="Path 1153" d="M283.247,510.671h51.468v-7.815H283.247Z" transform="translate(-1.574 -5.903)" fill="#e42321"/>
      <path id="Path_1154" data-name="Path 1154" d="M283.247,515.441a99.151,99.151,0,0,0,25.648,3.309c15.389,0,25.82-3.309,25.82-3.309v-4.246H283.247Z" transform="translate(-1.574 -6.427)" fill="#fff"/>
      <path id="Path_1155" data-name="Path 1155" d="M283.247,502.332h51.468v-7.825H283.247Z" transform="translate(-1.574 -5.379)" fill="#fff"/>
      <path id="Path_1156" data-name="Path 1156" d="M283.247,485.146h51.468v-7.824H283.247Z" transform="translate(-1.574 -4.3)" fill="#fff"/>
      <path id="Path_1157" data-name="Path 1157" d="M283.247,469.017h51.468v-7.825H283.247Z" transform="translate(-1.574 -3.287)" fill="#fff"/>
      <path id="Path_1158" data-name="Path 1158" d="M334.01,446.08l-.114-1.3c.008-.092.017-.186.025-.278h-49.88l.016.181.069.95.12,3.015c0,.46-.006.716-.006.716s-.37.519-.993,1.617v1.346h51.468v-.719Z" transform="translate(-1.574 -2.24)" fill="#fff"/>
      <path id="Path_1159" data-name="Path 1159" d="M334.609,427.319H283.237l2.908,1.389-3.075,6.436h51.952l-3.224-6.411Z" transform="translate(-1.563 -1.161)" fill="#fff"/>
      <path id="Path_1160" data-name="Path 1160" d="M286.722,415.164l-.249.095-1.928.718,1.928-.718Z" transform="translate(-1.656 -0.397)" fill="#fff"/>
      <path id="Path_1161" data-name="Path 1161" d="M337.588,416.3h0c-.881-.331-1.805-.674-2.78-1.037C335.783,415.628,336.707,415.971,337.588,416.3Z" transform="translate(-4.812 -0.404)" fill="#fff"/>
      <path id="Path_1162" data-name="Path 1162" d="M319.518,416.95h0c-.576.38-.025,1.337-.758,1.641l17.821-.611v-.036c-1.1-.431-2.276-.883-3.536-1.367a70.229,70.229,0,0,1-10.03-4.992C322.515,413.047,321.91,415.377,319.518,416.95Z" transform="translate(-3.804 -0.173)" fill="#fff"/>
      <path id="Path_1163" data-name="Path 1163" d="M296.278,412.1a60.37,60.37,0,0,1-9.112,4.513c-1.3.5-2.505.962-3.628,1.4h17C297.011,416.506,297.081,413.885,296.278,412.1Z" transform="translate(-1.592 -0.205)" fill="#fff"/>
      <path id="Path_1164" data-name="Path 1164" d="M295.94,410.5a62.827,62.827,0,0,1-9.072,4.369,62.726,62.726,0,0,0,9.072-4.369Z" transform="translate(-1.802 -0.105)" fill="#fff"/>
      <path id="Path_1165" data-name="Path 1165" d="M323.3,411.494a70.229,70.229,0,0,0,10.03,4.992c1.261.485,2.439.936,3.536,1.367V415.98c-.881-.331-1.805-.674-2.78-1.037a73.568,73.568,0,0,1-10.255-4.8A13.182,13.182,0,0,1,323.3,411.494Z" transform="translate(-4.089 -0.082)" fill="#e42321"/>
      <path id="Path_1166" data-name="Path 1166" d="M319.569,417.309h0Z" transform="translate(-3.855 -0.532)" fill="#fff"/>
      <path id="Path_1167" data-name="Path 1167" d="M282.645,436.25l.089.042.3-.624h-.553C282.537,435.862,282.592,436.056,282.645,436.25Z" transform="translate(-1.526 -1.685)" fill="#e42321"/>
      <path id="Path_1168" data-name="Path 1168" d="M283.168,427.319h-1.19v6.349q.254.735.47,1.476H283l3.074-6.436Z" transform="translate(-1.494 -1.161)" fill="#fff"/>
      <path id="Path_1169" data-name="Path 1169" d="M281.978,435.569h.47q-.217-.739-.47-1.476Z" transform="translate(-1.494 -1.586)" fill="#fff"/>
      <path id="Path_1170" data-name="Path 1170" d="M338.5,435.668l.256.509q.07-.254.145-.509Z" transform="translate(-5.044 -1.685)" fill="#e42321"/>
      <path id="Path_1171" data-name="Path 1171" d="M283.247,460.668h51.468v-7.814H283.247Z" transform="translate(-1.574 -2.764)" fill="#e42321"/>
      <path id="Path_1172" data-name="Path 1172" d="M356.59,450.214c-.078-.238-.157-.477-.239-.719-.928-2.742-2.088-5.653-3.331-8.52-1.062-2.451-2.184-4.867-3.268-7.114-1.026-2.126-2.02-4.1-2.9-5.805-1.914-3.712-3.288-6.162-3.288-6.162h0a5.991,5.991,0,0,0-.547-.667c-1.79-1.932-5.254-3.374-10.242-5.246h0v1.909H315.713c-1.727.715-5.917,9.378-8.679,9.378-2.583,0-8.088-7.376-8.088-9.378h-17c1.123-.441,2.333-.9,3.628-1.4a60.37,60.37,0,0,0,9.112-4.513c-.283-.63-.058-1.486-.151-1.824a66.195,66.195,0,0,1-9.468,4.7l-.249.095-1.928.718c-1.3.485-2.511.942-3.619,1.381q-.689.273-1.327.539c-2.977,1.244-5.113,2.4-6.338,3.849a5.813,5.813,0,0,0-.357.462l-.028.051c-.208.373-1.567,2.819-3.386,6.357-.887,1.725-1.882,3.71-2.907,5.84-1.084,2.254-2.2,4.671-3.256,7.116-1.2,2.773-2.309,5.582-3.206,8.232-.035.1-.067.2-.1.3-.063.188-.127.379-.188.565.843,2.53,7.54,7.331,15.015,8.311.381.05.764.086,1.147.115l.1.007c.167.012.333.023.5.03.084,0,.17.007.255.009.113,0,.227.01.34.012h.059c.045,0,.091,0,.136,0,.148,0,.3,0,.443,0h-.083c.095,0,.19,0,.285,0h.02c.272-.007.544-.021.815-.041.44-1.2.863-2.262,1.275-3.261h-.006c.473-1.151.925-2.175,1.344-3.074.409-.878.786-1.637,1.125-2.286h0c-.338.649-.716,1.408-1.125,2.286.409-.878.786-1.637,1.125-2.286.271-.52.515-.967.73-1.346.623-1.1.993-1.617.993-1.617s.008-.256.006-.716l-.12-3.015-.069-.95-.016-.181h49.88a44.851,44.851,0,0,1,1.367-7.773l-.256-.509H281.507l-.3.624-.089-.042h0c-.053-.194-.108-.388-.165-.582h-.47v-7.825h52.563l8.148-4.1h0l-8.148,4.1h.943v7.825h-.129q-.074.254-.145.509h0a44.851,44.851,0,0,0-1.367,7.773c-.008.093-.017.186-.025.278l.114,1.3.7,5.53v-.627c.215.379.459.826.73,1.346.058.111.117.226.177.344h0c.408.8.866,1.742,1.362,2.85q.447,1,.931,2.167h-.007c.306.74.617,1.517.936,2.357.112.3.224.593.338.9.271.021.542.034.813.041.217.007.435.007.651,0,.049,0,.1,0,.146,0q.354-.006.707-.024c.065,0,.129,0,.193-.007.089-.006.177-.015.265-.022l.089-.007c.437-.034.873-.077,1.3-.136.694-.1,1.382-.226,2.059-.382,6.542-1.515,12.042-5.631,12.8-7.908C356.622,450.308,356.606,450.261,356.59,450.214Zm-76.788-16.2h0q.432,1.41.784,3.052a46.628,46.628,0,0,1,.76,4.916c.012.119.024.24.037.362h0c-.012-.122-.024-.243-.037-.362a46.628,46.628,0,0,0-.76-4.916Q280.237,435.427,279.8,434.019Zm2.869,12.477-1,2.091-.757,1.586h0l.757-1.586,1-2.091c0-.8-.038-2.207-.194-3.97l-.373-.178h0l.373.178C282.633,444.289,282.667,445.7,282.671,446.5Zm52.033-12.33-.954.479h0Z" transform="translate(0 -0.083)" fill="#e42321"/>
      <path id="Path_1173" data-name="Path 1173" d="M338.816,434.715v-7.4h-.943l-2.812,1.414,3.224,6.411h.4C338.729,435,338.772,434.857,338.816,434.715Z" transform="translate(-4.828 -1.161)" fill="#fff"/>
      <path id="Path_1174" data-name="Path 1174" d="M339.059,435.639v-.429c-.044.142-.087.286-.129.429Z" transform="translate(-5.07 -1.656)" fill="#fff"/>
      <g id="Group_443" data-name="Group 443" transform="translate(279.096 431.722)" opacity="0.1">
        <g id="Group_441" data-name="Group 441" transform="translate(41.506)">
          <path id="Path_1175" data-name="Path 1175" d="M326.634,459.414c-.571,16.55-1.429,41.455-1.849,53.648a78.207,78.207,0,0,0,12.613-2.489v-60.4c0-7.647,1.122-13.05,2.653-16.922C333.573,438.188,327.093,446.1,326.634,459.414Z" transform="translate(-324.785 -433.255)" fill="#6c6c6c"/>
        </g>
        <g id="Group_442" data-name="Group 442">
          <path id="Path_1176" data-name="Path 1176" d="M295.763,513.031c-.421-12.205-1.278-37.081-1.848-53.617-.459-13.31-6.939-21.226-13.417-26.159,1.531,3.873,2.652,9.276,2.652,16.922v60.4A88.174,88.174,0,0,0,295.763,513.031Z" transform="translate(-280.498 -433.255)" fill="#6c6c6c"/>
        </g>
      </g>
      <path id="Path_1177" data-name="Path 1177" d="M319.979,408.95v-.1H299.073v.065a11.449,11.449,0,0,0-2.323,1.146c.458,3.28,2.458,10.347,10.964,17.5l1.739,1.352,1.743-1.352c8.506-7.156,10.508-14.223,10.966-17.5A13.615,13.615,0,0,0,319.979,408.95Zm-10.522,16.274c-7.21-5.5-9.277-11.114-9.865-14.124h19.73C318.734,414.109,316.667,419.725,309.457,425.224Z" transform="translate(-2.422 -0.001)" fill="#fff" stroke="#e52321" stroke-linecap="round" stroke-linejoin="round" stroke-width="1"/>
    </g>
  </g>
</svg>
