<svg xmlns="http://www.w3.org/2000/svg" xmlns:xlink="http://www.w3.org/1999/xlink" width="115.728" height="125.156" viewBox="0 0 115.728 125.156">
  <defs>
    <filter id="Path_1214" x="0" y="0" width="115.728" height="120.507" filterUnits="userSpaceOnUse">
      <feOffset dy="3" input="SourceAlpha"/>
      <feGaussianBlur stdDeviation="3" result="blur"/>
      <feFlood flood-opacity="0.161"/>
      <feComposite operator="in" in2="blur"/>
      <feComposite in="SourceGraphic"/>
    </filter>
  </defs>
  <g id="Group_472" data-name="Group 472" transform="translate(-2180.665 166.156)">
    <g transform="matrix(1, 0, 0, 1, 2180.66, -166.16)" filter="url(#Path_1214)">
      <path id="Path_1214-2" data-name="Path 1214" d="M166.9-118.819a7.766,7.766,0,0,0-.324-1.046l-.019.02c-4.1-12.012-12.631-27.218-12.631-27.218h0c-1.58-2.3-5.3-3.844-10.935-5.954q-1.208-.452-2.532-.943-.663-.247-1.287-.5c-.6-.242-1.166-.485-1.714-.728a72.492,72.492,0,0,1-6.494-3.341v-.016a8.8,8.8,0,0,0-2.555-1.162v-.026H107.7v.02a8.438,8.438,0,0,0-2.592,1.168l0,.015a69.754,69.754,0,0,1-7,3.567c-.782.337-1.614.673-2.5,1-2.207.821-4.173,1.546-5.888,2.235-3.088,1.24-5.366,2.363-6.771,3.719a6.23,6.23,0,0,0-.807.943l-.02.034c-.383.687-8.568,15.379-12.581,27.095l-.007-.009a8.155,8.155,0,0,0-.364,1.12l0,.009c.807,2.422,7.022,6.936,14.12,8.126l.024,0c.509.085,1.02.154,1.536.2.13.013.261.013.392.023.384.029.767.061,1.153.067.015,0,.03,0,.045,0,.539.008,1.079-.006,1.619-.046.866-2.357,1.687-4.31,2.42-5.907.8-1.756,1.5-3.074,2.015-3.984v59.82a98.4,98.4,0,0,0,25.457,3.285c15.274,0,25.627-3.285,25.627-3.285v-59.82a60.174,60.174,0,0,1,3.353,7.087q.526,1.3,1.082,2.8c.539.04,1.077.054,1.614.046.393-.006.785-.035,1.177-.064.135-.01.271-.011.406-.024.511-.047,1.019-.117,1.523-.2l.028,0c.068-.011.138-.016.2-.028,7.022-1.236,13.135-5.7,13.936-8.1Z" transform="translate(-60.17 165.73)" fill="#fff"/>
    </g>
    <ellipse id="Ellipse_35" data-name="Ellipse 35" cx="26" cy="4" rx="26" ry="4" transform="translate(2212 -49)" fill="#ddd"/>
    <g id="Group_431" data-name="Group 431" transform="translate(1739.479 -391.262)">
      <rect id="Rectangle_413" data-name="Rectangle 413" width="20.905" height="19.445" transform="translate(488.667 232.59)" fill="#552e34"/>
      <rect id="Rectangle_414" data-name="Rectangle 414" width="20.864" height="3.162" transform="translate(488.636 231.722)" fill="#832437"/>
      <path id="Path_1111" data-name="Path 1111" d="M462.892,245.341s-9.1,16.216-13.072,28.461c.993,2.978,10.094,9.1,19.029,8.439,2.978-8.108,5.461-11.583,5.461-11.583S474.971,249.478,462.892,245.341Z" transform="translate(0 -0.855)" fill="#832437"/>
      <path id="Path_1112" data-name="Path 1112" d="M540.164,245.341s9.1,16.216,13.072,28.461c-.993,2.978-10.094,9.1-19.029,8.439-2.978-8.108-5.461-11.583-5.461-11.583S528.085,249.478,540.164,245.341Z" transform="translate(-4.957 -0.855)" fill="#832437"/>
      <g id="Group_424" data-name="Group 424" transform="translate(523.784 258.425)" opacity="0.2">
        <path id="Path_1113" data-name="Path 1113" d="M530,260.214a48.789,48.789,0,0,0-1.251,11.378s2.483,3.475,5.461,11.583a20.938,20.938,0,0,0,6.331-.562C535.132,267.9,530.57,261.046,530,260.214Z" transform="translate(-528.741 -260.214)" fill="#00394f"/>
      </g>
      <g id="Group_425" data-name="Group 425" transform="translate(462.491 258.393)" opacity="0.1">
        <path id="Path_1114" data-name="Path 1114" d="M473.9,260.18c-.419.6-5.046,7.417-10.56,22.424a20.931,20.931,0,0,0,6.358.568c2.978-8.108,5.461-11.583,5.461-11.583A48.819,48.819,0,0,0,473.9,260.18Z" transform="translate(-463.34 -260.18)" fill="#00394f"/>
      </g>
      <path id="Path_1115" data-name="Path 1115" d="M522.515,237.538c-7.115-2.648-10.92-5.791-12.244-5.791,0,0,2.775,7.533-10.331,10.168-13.135-3.491-10.359-10.168-10.359-10.168-1.323,0-5.129,3.143-12.244,5.791s-11.748,4.3-13.569,6.949c2.483,1.986,10.424,6.454,10.424,26.806v60.4A99.148,99.148,0,0,0,499.84,335c15.389,0,25.82-3.309,25.82-3.309v-60.4c0-20.352,7.942-24.82,10.424-26.806C534.264,241.84,529.63,240.186,522.515,237.538Z" transform="translate(-0.876 -0.002)" fill="#832437"/>
      <g id="Group_426" data-name="Group 426" transform="translate(449.821 271.809)">
        <path id="Path_1116" data-name="Path 1116" d="M450.189,274.495a8.228,8.228,0,0,0-.368,1.138c.992,2.978,10.093,9.1,19.028,8.438.44-1.2.028-.2.44-1.2C461.929,283.136,452.806,277.814,450.189,274.495Z" transform="translate(-449.821 -274.495)" fill="#fff"/>
      </g>
      <g id="Group_427" data-name="Group 427" transform="translate(528.811 271.875)">
        <path id="Path_1117" data-name="Path 1117" d="M553.226,274.566c-2.589,3.271-11.732,8.585-19.121,8.314.411,1,0,0,.44,1.2,8.935.662,18.035-5.46,19.029-8.438A8.347,8.347,0,0,0,553.226,274.566Z" transform="translate(-534.105 -274.566)" fill="#fff"/>
      </g>
      <g id="Group_430" data-name="Group 430" transform="translate(470.664 254.369)" opacity="0.1">
        <g id="Group_428" data-name="Group 428" transform="translate(41.505)">
          <path id="Path_1118" data-name="Path 1118" d="M518.2,282.047c-.571,16.55-1.428,41.453-1.849,53.647a78.367,78.367,0,0,0,12.614-2.489v-60.4c0-7.646,1.121-13.049,2.652-16.922C525.136,260.821,518.656,268.737,518.2,282.047Z" transform="translate(-516.348 -255.887)" fill="#00394f"/>
        </g>
        <g id="Group_429" data-name="Group 429">
          <path id="Path_1119" data-name="Path 1119" d="M487.326,335.663c-.421-12.205-1.278-37.081-1.848-53.616-.459-13.31-6.939-21.225-13.417-26.16,1.531,3.873,2.652,9.276,2.652,16.922v60.4A88.343,88.343,0,0,0,487.326,335.663Z" transform="translate(-472.061 -255.887)" fill="#00394f"/>
        </g>
      </g>
      <path id="Path_1120" data-name="Path 1120" d="M460.69,253.88c2.261-4.622,4.006-7.85,4.006-7.85,1.759-2.648,6.237-4.3,13.114-6.949,6.555-2.524,10.177-5.466,11.612-5.739a9.092,9.092,0,0,1-.124-1.6c-1.323,0-5.129,3.144-12.244,5.792s-11.749,4.3-13.569,6.949c0,0-1.837,3.288-4.209,7.98Z" transform="translate(-0.594 -0.002)" fill="#832437"/>
      <path id="Path_1121" data-name="Path 1121" d="M524.867,239.08c6.877,2.648,11.355,4.3,13.114,6.949,0,0,1.66,3.07,3.84,7.509l1.412-1.411c-2.292-4.518-4.04-7.64-4.04-7.64-1.82-2.648-6.453-4.3-13.569-6.949s-10.92-5.792-12.244-5.792a9.1,9.1,0,0,1-.124,1.6C514.691,233.615,518.312,236.557,524.867,239.08Z" transform="translate(-3.984 -0.002)" fill="#832437"/>
      <path id="Path_1122" data-name="Path 1122" d="M501.49,241.913c11.494,0,13.01-8,13.01-8.994a7.868,7.868,0,0,0-2.679-1.19s1.312,7.238-10.345,7.238c-10.833,0-10.345-7.238-10.345-7.238a7.877,7.877,0,0,0-2.679,1.19S490.1,241.913,501.49,241.913Z" transform="translate(-2.426 0)" fill="#fff"/>
      <rect id="Rectangle_415" data-name="Rectangle 415" width="20.864" height="3.162" transform="translate(488.636 231.722)" fill="#00394f" opacity="0.1"/>
    </g>
  </g>
</svg>
