<svg xmlns="http://www.w3.org/2000/svg" xmlns:xlink="http://www.w3.org/1999/xlink" width="115.728" height="123.156" viewBox="0 0 115.728 123.156">
  <defs>
    <filter id="Path_1215" x="0" y="0" width="115.728" height="120.507" filterUnits="userSpaceOnUse">
      <feOffset dy="3" input="SourceAlpha"/>
      <feGaussianBlur stdDeviation="3" result="blur"/>
      <feFlood flood-opacity="0.161"/>
      <feComposite operator="in" in2="blur"/>
      <feComposite in="SourceGraphic"/>
    </filter>
  </defs>
  <g id="Group_471" data-name="Group 471" transform="translate(-2046.665 164.156)">
    <g transform="matrix(1, 0, 0, 1, 2046.66, -164.16)" filter="url(#Path_1215)">
      <path id="Path_1215-2" data-name="Path 1215" d="M166.9-118.819a7.766,7.766,0,0,0-.324-1.046l-.019.02c-4.1-12.012-12.631-27.218-12.631-27.218h0c-1.58-2.3-5.3-3.844-10.935-5.954q-1.208-.452-2.532-.943-.663-.247-1.287-.5c-.6-.242-1.166-.485-1.714-.728a72.492,72.492,0,0,1-6.494-3.341v-.016a8.8,8.8,0,0,0-2.555-1.162v-.026H107.7v.02a8.438,8.438,0,0,0-2.592,1.168l0,.015a69.754,69.754,0,0,1-7,3.567c-.782.337-1.614.673-2.5,1-2.207.821-4.173,1.546-5.888,2.235-3.088,1.24-5.366,2.363-6.771,3.719a6.23,6.23,0,0,0-.807.943l-.02.034c-.383.687-8.568,15.379-12.581,27.095l-.007-.009a8.155,8.155,0,0,0-.364,1.12l0,.009c.807,2.422,7.022,6.936,14.12,8.126l.024,0c.509.085,1.02.154,1.536.2.13.013.261.013.392.023.384.029.767.061,1.153.067.015,0,.03,0,.045,0,.539.008,1.079-.006,1.619-.046.866-2.357,1.687-4.31,2.42-5.907.8-1.756,1.5-3.074,2.015-3.984v59.82a98.4,98.4,0,0,0,25.457,3.285c15.274,0,25.627-3.285,25.627-3.285v-59.82a60.174,60.174,0,0,1,3.353,7.087q.526,1.3,1.082,2.8c.539.04,1.077.054,1.614.046.393-.006.785-.035,1.177-.064.135-.01.271-.011.406-.024.511-.047,1.019-.117,1.523-.2l.028,0c.068-.011.138-.016.2-.028,7.022-1.236,13.135-5.7,13.936-8.1Z" transform="translate(-60.17 165.73)" fill="#fff"/>
    </g>
    <ellipse id="Ellipse_34" data-name="Ellipse 34" cx="26" cy="4" rx="26" ry="4" transform="translate(2079 -49)" fill="#ddd"/>
    <g id="Group_423" data-name="Group 423" transform="translate(1799.215 -390.212)">
      <rect id="Rectangle_410" data-name="Rectangle 410" width="20.302" height="18.884" transform="translate(295.635 232.637)" fill="#b1b1b1"/>
      <rect id="Rectangle_411" data-name="Rectangle 411" width="20.262" height="3.071" transform="translate(295.605 231.794)" fill="#fff"/>
      <path id="Path_1097" data-name="Path 1097" d="M270.6,245.413s-8.837,15.748-12.695,27.639c.965,2.892,9.8,8.838,18.479,8.195,2.892-7.874,5.3-11.248,5.3-11.248S282.335,249.43,270.6,245.413Z" transform="translate(0 -1.224)" fill="#fff"/>
      <path id="Path_1098" data-name="Path 1098" d="M347.924,245.413s8.838,15.748,12.695,27.639c-.964,2.892-9.8,8.838-18.479,8.195-2.893-7.874-5.3-11.248-5.3-11.248S336.194,249.43,347.924,245.413Z" transform="translate(-7.092 -1.224)" fill="#fff"/>
      <g id="Group_418" data-name="Group 418" transform="translate(257.91 268.425)">
        <path id="Path_1099" data-name="Path 1099" d="M259.114,272.041c-.433,1.156-.846,2.3-1.2,3.4.965,2.892,9.8,8.838,18.479,8.195.428-1.162.838-2.2,1.238-3.166C270.479,280.727,261.655,275.264,259.114,272.041Z" transform="translate(-257.91 -272.041)" fill="#fff"/>
      </g>
      <g id="Group_419" data-name="Group 419" transform="translate(333.81 268.627)">
        <path id="Path_1100" data-name="Path 1100" d="M359.894,272.264c-2.515,3.175-11.414,8.494-18.59,8.23.4.969.81,2,1.238,3.165,8.677.644,17.515-5.3,18.479-8.195C360.684,274.425,360.3,273.35,359.894,272.264Z" transform="translate(-341.304 -272.264)" fill="#fff"/>
      </g>
      <path id="Path_1101" data-name="Path 1101" d="M268.739,253.314c2.2-4.49,3.891-7.624,3.891-7.624,1.708-2.571,6.057-4.178,12.737-6.749,6.365-2.451,9.882-5.308,11.277-5.574a8.818,8.818,0,0,1-.12-1.548c-1.286,0-4.981,3.053-11.891,5.624s-11.41,4.178-13.177,6.749c0,0-1.784,3.193-4.088,7.75Z" transform="translate(-0.85 -0.002)" fill="#fff"/>
      <path id="Path_1102" data-name="Path 1102" d="M332.622,238.941c6.679,2.571,11.027,4.178,12.736,6.749,0,0,1.611,2.982,3.729,7.292l1.37-1.371c-2.225-4.387-3.924-7.419-3.924-7.419-1.768-2.57-6.266-4.178-13.176-6.749s-10.606-5.624-11.891-5.624a8.822,8.822,0,0,1-.12,1.548C322.739,233.633,326.256,236.49,332.622,238.941Z" transform="translate(-5.7 -0.002)" fill="#fff"/>
      <g id="Group_420" data-name="Group 420" transform="translate(329.739 257.726)" opacity="0.2">
        <path id="Path_1103" data-name="Path 1103" d="M338.051,260.286a47.408,47.408,0,0,0-1.214,11.049s2.41,3.375,5.3,11.248a20.331,20.331,0,0,0,6.148-.546C343.036,267.748,338.608,261.094,338.051,260.286Z" transform="translate(-336.831 -260.286)" fill="#00394f"/>
      </g>
      <g id="Group_421" data-name="Group 421" transform="translate(270.215 257.695)" opacity="0.1">
        <path id="Path_1104" data-name="Path 1104" d="M281.685,260.252c-.406.584-4.9,7.2-10.255,21.777a20.326,20.326,0,0,0,6.174.552c2.892-7.874,5.3-11.248,5.3-11.248A47.358,47.358,0,0,0,281.685,260.252Z" transform="translate(-271.43 -260.252)" fill="#00394f"/>
      </g>
      <path id="Path_1105" data-name="Path 1105" d="M321.316,231.819h0a6.025,6.025,0,0,1-1.625,6.026h0A6.025,6.025,0,0,0,321.316,231.819Z" transform="translate(-5.552 -0.002)" fill="#18351c"/>
      <path id="Path_1106" data-name="Path 1106" d="M318.906,238.44h0c-1.413,1.464-3.841,2.863-7.95,3.752h0C315.065,241.3,317.494,239.9,318.906,238.44Z" transform="translate(-4.767 -0.597)" fill="#08632d"/>
      <path id="Path_1107" data-name="Path 1107" d="M317.421,346.19l-.036.036h0l.036-.036Z" transform="translate(-5.344 -10.279)" fill="#0f9639"/>
      <rect id="Rectangle_412" data-name="Rectangle 412" width="0.051" height="0.051" transform="translate(312.004 335.91) rotate(-45.055)" fill="#0f9639"/>
      <g id="Group_422" data-name="Group 422" transform="translate(270.605 231.817)">
        <path id="Path_1108" data-name="Path 1108" d="M331.908,339.891l-.007,0q-.464.093-.964.188Q331.441,339.986,331.908,339.891Z" transform="translate(-277.167 -241.53)" fill="#027738"/>
        <path id="Path_1109" data-name="Path 1109" d="M341.722,243.721q-.2-.231-.427-.451a18.573,18.573,0,0,0-5.647-3.239q-.474-.2-.978-.4c-1.679-.674-3.6-1.383-5.762-2.187A53.2,53.2,0,0,1,323.348,235q-.7-.355-1.323-.692c-.869-.467-1.617-.89-2.271-1.257-.629-.354-1.165-.648-1.6-.86-.05-.025-.1-.045-.146-.066-.157-.072-.3-.13-.43-.177-.046-.017-.1-.035-.139-.048a1.5,1.5,0,0,0-.416-.08,6.025,6.025,0,0,1-1.625,6.026c-1.413,1.464-3.841,2.863-7.95,3.752-.15.033-.3.066-.457.1-12.756-3.39-10.06-9.874-10.06-9.874-1.286,0-4.981,3.053-11.891,5.624s-11.41,4.178-13.177,6.749a19.92,19.92,0,0,1,7.548,9.6h0c.167.425.329.876.486,1.34.033.1.066.2.1.3q.463,1.413.84,3.076.042.188.083.38.36,1.685.613,3.641c.019.157.038.315.057.473.078.664.149,1.342.2,2.055v0c.055.708.1,1.451.127,2.21.008.187.015.375.021.564.026.775.045,1.568.045,2.4v58.652h0a95.449,95.449,0,0,0,22.62,3.185c.753.018,1.514.029,2.287.029.855,0,1.692-.012,2.515-.031l.071,0c2.954-.073,5.689-.267,8.164-.524l.08-.008q1.756-.184,3.327-.4c2.128-.3,3.991-.625,5.546-.938.938-.189,1.764-.372,2.469-.539.47-.111.885-.214,1.245-.307,1.079-.278,1.656-.461,1.656-.461V270.223c0-.379.015-.728.021-1.1.008-.532.01-1.076.029-1.585.012-.32.037-.614.054-.926.027-.525.05-1.06.09-1.561.023-.29.056-.555.083-.837.046-.492.089-.994.147-1.462.025-.2.057-.389.085-.588.07-.521.139-1.043.222-1.534.02-.118.046-.225.066-.341.1-.552.2-1.095.311-1.608.013-.06.029-.114.043-.174.125-.557.256-1.1.4-1.612l.011-.036a29.949,29.949,0,0,1,1.019-3.074h0a19.859,19.859,0,0,1,4.948-7.5c.133-.123.264-.241.392-.353l.19-.166c.189-.161.372-.311.548-.452q.176-.141.341-.268c.221-.171.428-.326.616-.469.142-.107.274-.207.394-.3l.117-.093A5.423,5.423,0,0,0,341.722,243.721Z" transform="translate(-271.858 -231.819)" fill="#027738"/>
      </g>
      <path id="Path_1110" data-name="Path 1110" d="M309.2,241.692c11.161,0,12.635-7.764,12.635-8.735a7.648,7.648,0,0,0-2.6-1.156s1.274,7.029-10.046,7.029c-10.52,0-10.046-7.029-10.046-7.029a7.643,7.643,0,0,0-2.6,1.156S298.138,241.692,309.2,241.692Z" transform="translate(-3.471 -0.001)" fill="#fff"/>
    </g>
  </g>
</svg>
