<svg xmlns="http://www.w3.org/2000/svg" width="22" height="22" viewBox="0 0 22 22">
  <g id="Group_380" data-name="Group 380" transform="translate(-143.197 -392.126)">
    <circle id="Ellipse_28" data-name="Ellipse 28" cx="9.706" cy="9.706" r="9.706" transform="translate(144.491 393.42)" fill="#ad1800"/>
    <g id="Group_379" data-name="Group 379" transform="translate(143.197 392.126)">
      <path id="Path_1021" data-name="Path 1021" d="M161.985,395.337a10.674,10.674,0,0,1,2.842,4.946,11.118,11.118,0,0,1,0,5.685,10.94,10.94,0,0,1-7.788,7.788,11.129,11.129,0,0,1-5.684,0,10.937,10.937,0,0,1-7.788-7.788,11.136,11.136,0,0,1,0-5.684,10.935,10.935,0,0,1,7.789-7.789,11.133,11.133,0,0,1,5.684,0A10.674,10.674,0,0,1,161.985,395.337Zm-6,13.661-.031-4.113,4.114.031a.6.6,0,0,0,.534-.534V401.87a.479.479,0,0,0-.157-.346.648.648,0,0,0-.377-.189l-4.114.032.031-4.114a.615.615,0,0,0-.172-.361.621.621,0,0,0-.361-.173H152.94a.48.48,0,0,0-.346.157.653.653,0,0,0-.189.377l.032,4.115-4.115-.032a.6.6,0,0,0-.534.534v2.512a.48.48,0,0,0,.158.346.644.644,0,0,0,.376.189l4.115-.031L152.406,409a.6.6,0,0,0,.534.534h2.512a.479.479,0,0,0,.346-.157A.653.653,0,0,0,155.986,409Z" transform="translate(-143.197 -392.126)" fill="#e94e1b"/>
    </g>
  </g>
</svg>
