<svg xmlns="http://www.w3.org/2000/svg" xmlns:xlink="http://www.w3.org/1999/xlink" width="115.728" height="126.156" viewBox="0 0 115.728 126.156">
  <defs>
    <filter id="Path_1210" x="0" y="0" width="115.728" height="120.507" filterUnits="userSpaceOnUse">
      <feOffset dy="3" input="SourceAlpha"/>
      <feGaussianBlur stdDeviation="3" result="blur"/>
      <feFlood flood-opacity="0.161"/>
      <feComposite operator="in" in2="blur"/>
      <feComposite in="SourceGraphic"/>
    </filter>
  </defs>
  <g id="Group_476" data-name="Group 476" transform="translate(-2656.665 167.156)">
    <g transform="matrix(1, 0, 0, 1, 2656.66, -167.16)" filter="url(#Path_1210)">
      <path id="Path_1210-2" data-name="Path 1210" d="M166.9-118.819a7.766,7.766,0,0,0-.324-1.046l-.019.02c-4.1-12.012-12.631-27.218-12.631-27.218h0c-1.58-2.3-5.3-3.844-10.935-5.954q-1.208-.452-2.532-.943-.663-.247-1.287-.5c-.6-.242-1.166-.485-1.714-.728a72.492,72.492,0,0,1-6.494-3.341v-.016a8.8,8.8,0,0,0-2.555-1.162v-.026H107.7v.02a8.438,8.438,0,0,0-2.592,1.168l0,.015a69.754,69.754,0,0,1-7,3.567c-.782.337-1.614.673-2.5,1-2.207.821-4.173,1.546-5.888,2.235-3.088,1.24-5.366,2.363-6.771,3.719a6.23,6.23,0,0,0-.807.943l-.02.034c-.383.687-8.568,15.379-12.581,27.095l-.007-.009a8.155,8.155,0,0,0-.364,1.12l0,.009c.807,2.422,7.022,6.936,14.12,8.126l.024,0c.509.085,1.02.154,1.536.2.13.013.261.013.392.023.384.029.767.061,1.153.067.015,0,.03,0,.045,0,.539.008,1.079-.006,1.619-.046.866-2.357,1.687-4.31,2.42-5.907.8-1.756,1.5-3.074,2.015-3.984v59.82a98.4,98.4,0,0,0,25.457,3.285c15.274,0,25.627-3.285,25.627-3.285v-59.82a60.174,60.174,0,0,1,3.353,7.087q.526,1.3,1.082,2.8c.539.04,1.077.054,1.614.046.393-.006.785-.035,1.177-.064.135-.01.271-.011.406-.024.511-.047,1.019-.117,1.523-.2l.028,0c.068-.011.138-.016.2-.028,7.022-1.236,13.135-5.7,13.936-8.1Z" transform="translate(-60.17 165.73)" fill="#fff"/>
    </g>
    <ellipse id="Ellipse_39" data-name="Ellipse 39" cx="26" cy="4" rx="26" ry="4" transform="translate(2688 -49)" fill="#ddd"/>
    <g id="Group_464" data-name="Group 464" transform="translate(-128.697 7.22)">
      <g id="Group_463" data-name="Group 463" transform="translate(2793.992 -167.763)">
        <rect id="Rectangle_429" data-name="Rectangle 429" width="20.907" height="20.328" transform="translate(38.85 0)" fill="#fff"/>
        <rect id="Rectangle_430" data-name="Rectangle 430" width="20.907" height="2.252" transform="translate(38.85 0)" fill="#fff"/>
        <rect id="Rectangle_431" data-name="Rectangle 431" width="20.907" height="18.076" transform="translate(38.85 2.252)" fill="#1d1d1b" opacity="0.1"/>
        <path id="Path_1192" data-name="Path 1192" d="M660.581,423.221s-9.1,16.217-13.073,28.462c.993,2.979,10.094,9.1,19.03,8.439C669.517,452.014,672,448.54,672,448.54S672.662,427.357,660.581,423.221Z" transform="translate(-647.508 -410.458)" fill="#294b9a"/>
        <path id="Path_1193" data-name="Path 1193" d="M737.853,423.221s9.1,16.217,13.072,28.462c-.993,2.979-10.093,9.1-19.029,8.439-2.979-8.108-5.461-11.583-5.461-11.583S725.773,427.357,737.853,423.221Z" transform="translate(-652.459 -410.458)" fill="#294b9a"/>
        <g id="Group_457" data-name="Group 457" transform="translate(73.97 26.702)" opacity="0.2">
          <path id="Path_1194" data-name="Path 1194" d="M727.685,438.093a48.829,48.829,0,0,0-1.25,11.378s2.483,3.475,5.461,11.584a20.911,20.911,0,0,0,6.331-.562C732.82,445.779,728.259,438.925,727.685,438.093Z" transform="translate(-726.429 -438.093)" fill="#00394f"/>
        </g>
        <g id="Group_458" data-name="Group 458" transform="translate(12.672 26.67)" opacity="0.1">
          <path id="Path_1195" data-name="Path 1195" d="M671.589,438.059c-.419.6-5.046,7.418-10.561,22.426a20.933,20.933,0,0,0,6.359.568c2.979-8.108,5.461-11.584,5.461-11.584A48.8,48.8,0,0,0,671.589,438.059Z" transform="translate(-661.028 -438.059)" fill="#00394f"/>
        </g>
        <path id="Path_1196" data-name="Path 1196" d="M720.208,415.417c-7.116-2.648-10.922-5.791-12.245-5.791,0,0,.474,8.307-10.346,16.356-10.82-8.049-10.346-16.356-10.346-16.356-1.323,0-5.13,3.144-12.245,5.791s-11.75,4.3-13.57,6.95c2.482,1.986,10.425,6.454,10.425,26.808v60.4a99.147,99.147,0,0,0,25.649,3.31c15.39,0,25.822-3.31,25.822-3.31v-60.4c0-20.354,7.942-24.822,10.425-26.808C731.957,419.72,727.324,418.065,720.208,415.417Z" transform="translate(-648.383 -409.605)" fill="#294b9a"/>
        <path id="Path_1197" data-name="Path 1197" d="M647.877,452.372a8.348,8.348,0,0,0-.369,1.14c.993,2.979,10.094,9.1,19.03,8.439.441-1.2.028-.2.441-1.2C659.618,461.016,650.494,455.69,647.877,452.372Z" transform="translate(-647.508 -412.287)" fill="#fff"/>
        <path id="Path_1198" data-name="Path 1198" d="M750.914,452.372c-5.1,6.127-10.59,8.539-19.122,8.383.412,1,0,0,.441,1.2,8.936.663,17.474-4.979,19.029-8.439A8.831,8.831,0,0,0,750.914,452.372Z" transform="translate(-652.795 -412.287)" fill="#fff"/>
        <g id="Group_459" data-name="Group 459" transform="translate(62.355 22.647)" opacity="0.1">
          <path id="Path_1199" data-name="Path 1199" d="M715.885,459.928c-.571,16.551-1.428,41.457-1.849,53.651a78.23,78.23,0,0,0,12.614-2.489v-60.4c0-7.646,1.122-13.05,2.653-16.922C722.825,438.7,716.345,446.617,715.885,459.928Z" transform="translate(-714.036 -433.767)"/>
        </g>
        <g id="Group_460" data-name="Group 460" transform="translate(20.846 22.647)" opacity="0.1">
          <path id="Path_1200" data-name="Path 1200" d="M685.015,513.548c-.421-12.206-1.278-37.083-1.848-53.62-.459-13.311-6.939-21.227-13.418-26.161,1.531,3.873,2.652,9.276,2.652,16.922v60.4A88.35,88.35,0,0,0,685.015,513.548Z" transform="translate(-669.749 -433.767)"/>
        </g>
        <path id="Path_1201" data-name="Path 1201" d="M658.378,431.762c2.263-4.623,4.007-7.852,4.007-7.852,1.76-2.648,6.238-4.3,13.116-6.95,6.554-2.524,10.177-5.466,11.613-5.74a9.071,9.071,0,0,1-.124-1.594c-1.324,0-5.13,3.144-12.245,5.791s-11.75,4.3-13.57,6.95c0,0-1.837,3.288-4.21,7.981Z" transform="translate(-648.101 -409.605)" fill="#79adde"/>
        <path id="Path_1202" data-name="Path 1202" d="M722.556,416.96c6.878,2.648,11.356,4.3,13.115,6.95,0,0,1.66,3.07,3.84,7.509l1.412-1.411c-2.293-4.518-4.042-7.641-4.042-7.641-1.82-2.647-6.453-4.3-13.569-6.95s-10.922-5.791-12.245-5.791a9.091,9.091,0,0,1-.124,1.594C712.379,411.494,716,414.436,722.556,416.96Z" transform="translate(-651.487 -409.605)" fill="#79adde"/>
        <path id="Path_1203" data-name="Path 1203" d="M697.444,428.321l1.739,1.353,1.744-1.353c8.507-7.156,10.508-14.224,10.966-17.5a7.581,7.581,0,0,0-2.614-1.19s.463,8.307-10.092,16.356c-10.556-8.049-10.093-16.356-10.093-16.356a7.583,7.583,0,0,0-2.615,1.19C686.937,414.1,688.937,421.164,697.444,428.321Z" transform="translate(-649.953 -409.605)" fill="#e42321"/>
        <path id="Path_1204" data-name="Path 1204" d="M697.444,428.321l1.739,1.353,1.744-1.353c8.507-7.156,10.508-14.224,10.966-17.5a7.581,7.581,0,0,0-2.614-1.19s.463,8.307-10.092,16.356c-10.556-8.049-10.093-16.356-10.093-16.356a7.583,7.583,0,0,0-2.615,1.19C686.937,414.1,688.937,421.164,697.444,428.321Z" transform="translate(-649.953 -409.605)" fill="#fff" stroke="#fff" stroke-miterlimit="10" stroke-width="0.5"/>
        <g id="Group_461" data-name="Group 461" transform="translate(20.846 22.662)">
          <path id="Path_1205" data-name="Path 1205" d="M675.394,511.866c-.421-12.206.285-35.594-.285-52.13-.459-13.311.285-19.923-5.36-25.953,1.531,3.874,2.652,9.277,2.652,16.923v60.4A5.193,5.193,0,0,0,675.394,511.866Z" transform="translate(-669.749 -433.783)" fill="#20234b"/>
        </g>
        <g id="Group_462" data-name="Group 462" transform="translate(71.977 22.662)">
          <path id="Path_1206" data-name="Path 1206" d="M724.3,511.866c.421-12.206-.285-35.594.285-52.13.458-13.311-.285-19.923,5.36-25.953-1.531,3.874-2.653,9.277-2.653,16.923v60.4A5.192,5.192,0,0,1,724.3,511.866Z" transform="translate(-724.302 -433.783)" fill="#20234b"/>
        </g>
      </g>
    </g>
  </g>
</svg>
