<svg xmlns="http://www.w3.org/2000/svg" xmlns:xlink="http://www.w3.org/1999/xlink" width="115.728" height="124.156" viewBox="0 0 115.728 124.156">
  <defs>
    <filter id="Path_1212" x="0" y="0" width="115.728" height="120.507" filterUnits="userSpaceOnUse">
      <feOffset dy="3" input="SourceAlpha"/>
      <feGaussianBlur stdDeviation="3" result="blur"/>
      <feFlood flood-opacity="0.161"/>
      <feComposite operator="in" in2="blur"/>
      <feComposite in="SourceGraphic"/>
    </filter>
  </defs>
  <g id="Group_474" data-name="Group 474" transform="translate(-2418.665 165.156)">
    <g transform="matrix(1, 0, 0, 1, 2418.66, -165.16)" filter="url(#Path_1212)">
      <path id="Path_1212-2" data-name="Path 1212" d="M166.9-118.819a7.766,7.766,0,0,0-.324-1.046l-.019.02c-4.1-12.012-12.631-27.218-12.631-27.218h0c-1.58-2.3-5.3-3.844-10.935-5.954q-1.208-.452-2.532-.943-.663-.247-1.287-.5c-.6-.242-1.166-.485-1.714-.728a72.492,72.492,0,0,1-6.494-3.341v-.016a8.8,8.8,0,0,0-2.555-1.162v-.026H107.7v.02a8.438,8.438,0,0,0-2.592,1.168l0,.015a69.754,69.754,0,0,1-7,3.567c-.782.337-1.614.673-2.5,1-2.207.821-4.173,1.546-5.888,2.235-3.088,1.24-5.366,2.363-6.771,3.719a6.23,6.23,0,0,0-.807.943l-.02.034c-.383.687-8.568,15.379-12.581,27.095l-.007-.009a8.155,8.155,0,0,0-.364,1.12l0,.009c.807,2.422,7.022,6.936,14.12,8.126l.024,0c.509.085,1.02.154,1.536.2.13.013.261.013.392.023.384.029.767.061,1.153.067.015,0,.03,0,.045,0,.539.008,1.079-.006,1.619-.046.866-2.357,1.687-4.31,2.42-5.907.8-1.756,1.5-3.074,2.015-3.984v59.82a98.4,98.4,0,0,0,25.457,3.285c15.274,0,25.627-3.285,25.627-3.285v-59.82a60.174,60.174,0,0,1,3.353,7.087q.526,1.3,1.082,2.8c.539.04,1.077.054,1.614.046.393-.006.785-.035,1.177-.064.135-.01.271-.011.406-.024.511-.047,1.019-.117,1.523-.2l.028,0c.068-.011.138-.016.2-.028,7.022-1.236,13.135-5.7,13.936-8.1Z" transform="translate(-60.17 165.73)" fill="#fff"/>
    </g>
    <ellipse id="Ellipse_37" data-name="Ellipse 37" cx="26" cy="4" rx="26" ry="4" transform="translate(2450 -49)" fill="#ddd"/>
    <g id="Group_440" data-name="Group 440" transform="translate(2352.651 -566.436)">
      <rect id="Rectangle_421" data-name="Rectangle 421" width="20.38" height="19.816" transform="translate(113.46 408.037)" fill="#bfd4db"/>
      <rect id="Rectangle_422" data-name="Rectangle 422" width="8.163" height="19.816" transform="translate(119.274 408.037)" fill="#2a4b9a"/>
      <path id="Path_1135" data-name="Path 1135" d="M88.334,421.653S79.461,437.462,75.59,449.4c.968,2.9,9.84,8.871,18.551,8.226,2.9-7.9,5.323-11.292,5.323-11.292S100.109,425.686,88.334,421.653Z" transform="translate(0 -1.176)" fill="#2a4b9a"/>
      <path id="Path_1136" data-name="Path 1136" d="M165.646,421.653s8.872,15.809,12.744,27.746c-.968,2.9-9.84,8.871-18.551,8.226-2.9-7.9-5.323-11.292-5.323-11.292S153.87,425.686,165.646,421.653Z" transform="translate(-6.815 -1.176)" fill="#2a4b9a"/>
      <path id="Path_1137" data-name="Path 1137" d="M155.735,436.525a47.545,47.545,0,0,0-1.219,11.093s2.419,3.388,5.323,11.292a20.407,20.407,0,0,0,6.172-.548C160.74,444.017,156.294,437.337,155.735,436.525Z" transform="translate(-6.815 -2.46)" fill="#2a4b9a"/>
      <path id="Path_1138" data-name="Path 1138" d="M99.4,436.492c-.408.587-4.918,7.231-10.295,21.86a20.386,20.386,0,0,0,6.2.555c2.9-7.9,5.323-11.292,5.323-11.292A47.6,47.6,0,0,0,99.4,436.492Z" transform="translate(-1.167 -2.457)" fill="#2a4b9a"/>
      <path id="Path_1139" data-name="Path 1139" d="M146.808,413.7c-6.935-2.581-10.646-5.646-11.937-5.646,0,0,.462,8.1-10.085,15.944-10.546-7.846-10.085-15.944-10.085-15.944-1.29,0-5,3.065-11.937,5.646s-11.453,4.194-13.227,6.775c2.419,1.936,10.162,6.291,10.162,26.132v58.878a96.647,96.647,0,0,0,25,3.226c15,0,25.17-3.226,25.17-3.226V446.611c0-19.841,7.743-24.2,10.162-26.132C158.261,417.9,153.744,416.285,146.808,413.7Z" transform="translate(-1.204 -0.002)" fill="#ecf6f7"/>
      <path id="Path_1140" data-name="Path 1140" d="M104.809,506.723a42.862,42.862,0,0,0,4.957.947V411.5c-1.032,1.039-2.649.569-4.957,2.213Z" transform="translate(-2.523 -0.299)" fill="#2a4b9a"/>
      <path id="Path_1141" data-name="Path 1141" d="M76.8,448.281c-.435,1.159-.848,2.308-1.208,3.417.968,2.9,9.84,8.871,18.551,8.226.428-1.167.841-2.206,1.242-3.179C88.207,457,79.349,451.515,76.8,448.281Z" transform="translate(0 -3.475)" fill="#2a4b9a"/>
      <path id="Path_1142" data-name="Path 1142" d="M143.984,457.8c-.556,16.134-1.392,40.411-1.8,52.3a76.4,76.4,0,0,0,12.3-2.427V448.8c0-7.453,1.093-12.722,2.586-16.5C150.748,437.109,144.431,444.827,143.984,457.8Z" transform="translate(-5.75 -2.095)" fill="#00394f" opacity="0.1"/>
      <path id="Path_1143" data-name="Path 1143" d="M112.775,510.07c-.41-11.9-1.246-36.148-1.8-52.268-.448-12.976-6.765-20.693-13.08-25.5,1.493,3.776,2.586,9.042,2.586,16.5v58.878A86.061,86.061,0,0,0,112.775,510.07Z" transform="translate(-1.926 -2.095)" fill="#00394f" opacity="0.1"/>
      <path id="Path_1144" data-name="Path 1144" d="M86.424,429.636c2.206-4.506,3.906-7.653,3.906-7.653,1.715-2.581,6.08-4.195,12.785-6.775,6.39-2.46,9.921-5.328,11.32-5.6a8.863,8.863,0,0,1-.121-1.555c-1.29,0-5,3.065-11.937,5.646S90.924,417.9,89.15,420.479c0,0-1.792,3.205-4.1,7.78Z" transform="translate(-0.817 -0.002)" fill="#2a4b9a"/>
      <path id="Path_1145" data-name="Path 1145" d="M150.345,415.208c6.7,2.58,11.07,4.194,12.785,6.775,0,0,1.617,2.993,3.742,7.32l1.376-1.376c-2.235-4.4-3.939-7.448-3.939-7.448-1.774-2.581-6.291-4.194-13.228-6.775s-10.646-5.646-11.937-5.646a8.751,8.751,0,0,1-.121,1.555C140.424,409.88,143.955,412.748,150.345,415.208Z" transform="translate(-5.478 -0.002)" fill="#2a4b9a"/>
      <path id="Path_1146" data-name="Path 1146" d="M115.164,508.414a29.591,29.591,0,0,0,4.957.467l-.886-91.145c-1.032,1.075-1.592-1.577-4.07-4.978Z" transform="translate(-3.417 -0.408)" fill="#2a4b9a"/>
      <path id="Path_1147" data-name="Path 1147" d="M125.48,510.246a49.282,49.282,0,0,0,4.957,0l-.876-83.771c-1.031,1.038-1.772-1.815-4.08-.171Z" transform="translate(-4.308 -1.532)" fill="#2a4b9a"/>
      <path id="Path_1148" data-name="Path 1148" d="M150.427,506.865a42.864,42.864,0,0,1-4.957.92V411.5c1.031,1.039,2.649.569,4.957,2.213Z" transform="translate(-6.035 -0.299)" fill="#2a4b9a"/>
      <path id="Path_1149" data-name="Path 1149" d="M140.072,508.494a45.034,45.034,0,0,1-4.956.427L136,417.735c1.032,1.075,1.592-1.577,4.07-4.978Z" transform="translate(-5.14 -0.408)" fill="#2a4b9a"/>
      <path id="Path_1150" data-name="Path 1150" d="M125.249,426.282l1.7,1.318,1.7-1.318c8.292-6.975,10.243-13.865,10.69-17.062a7.4,7.4,0,0,0-2.549-1.161s.451,8.1-9.838,15.944c-10.289-7.846-9.838-15.944-9.838-15.944a7.408,7.408,0,0,0-2.548,1.16C115.008,412.417,116.957,419.306,125.249,426.282Z" transform="translate(-3.365 -0.002)" fill="#2a4b9a" stroke="#1c3661" stroke-miterlimit="10" stroke-width="1"/>
    </g>
  </g>
</svg>
