<svg xmlns="http://www.w3.org/2000/svg" xmlns:xlink="http://www.w3.org/1999/xlink" width="115.728" height="124.156" viewBox="0 0 115.728 124.156">
  <defs>
    <filter id="Path_1217" x="0" y="0" width="115.728" height="120.507" filterUnits="userSpaceOnUse">
      <feOffset dy="3" input="SourceAlpha"/>
      <feGaussianBlur stdDeviation="3" result="blur"/>
      <feFlood flood-opacity="0.161"/>
      <feComposite operator="in" in2="blur"/>
      <feComposite in="SourceGraphic"/>
    </filter>
  </defs>
  <g id="Group_469" data-name="Group 469" transform="translate(-1808.665 165.156)">
    <g transform="matrix(1, 0, 0, 1, 1808.66, -165.16)" filter="url(#Path_1217)">
      <path id="Path_1217-2" data-name="Path 1217" d="M166.9-118.819a7.766,7.766,0,0,0-.324-1.046l-.019.02c-4.1-12.012-12.631-27.218-12.631-27.218h0c-1.58-2.3-5.3-3.844-10.935-5.954q-1.208-.452-2.532-.943-.663-.247-1.287-.5c-.6-.242-1.166-.485-1.714-.728a72.492,72.492,0,0,1-6.494-3.341v-.016a8.8,8.8,0,0,0-2.555-1.162v-.026H107.7v.02a8.438,8.438,0,0,0-2.592,1.168l0,.015a69.754,69.754,0,0,1-7,3.567c-.782.337-1.614.673-2.5,1-2.207.821-4.173,1.546-5.888,2.235-3.088,1.24-5.366,2.363-6.771,3.719a6.23,6.23,0,0,0-.807.943l-.02.034c-.383.687-8.568,15.379-12.581,27.095l-.007-.009a8.155,8.155,0,0,0-.364,1.12l0,.009c.807,2.422,7.022,6.936,14.12,8.126l.024,0c.509.085,1.02.154,1.536.2.13.013.261.013.392.023.384.029.767.061,1.153.067.015,0,.03,0,.045,0,.539.008,1.079-.006,1.619-.046.866-2.357,1.687-4.31,2.42-5.907.8-1.756,1.5-3.074,2.015-3.984v59.82a98.4,98.4,0,0,0,25.457,3.285c15.274,0,25.627-3.285,25.627-3.285v-59.82a60.174,60.174,0,0,1,3.353,7.087q.526,1.3,1.082,2.8c.539.04,1.077.054,1.614.046.393-.006.785-.035,1.177-.064.135-.01.271-.011.406-.024.511-.047,1.019-.117,1.523-.2l.028,0c.068-.011.138-.016.2-.028,7.022-1.236,13.135-5.7,13.936-8.1Z" transform="translate(-60.17 165.73)" fill="#fff"/>
    </g>
    <ellipse id="Ellipse_32" data-name="Ellipse 32" cx="26" cy="4" rx="26" ry="4" transform="translate(1841 -49)" fill="#ddd"/>
    <g id="Group_408" data-name="Group 408" transform="translate(28.299 152.46)">
      <g id="Group_407" data-name="Group 407" transform="translate(1789 -312)">
        <rect id="Rectangle_406" data-name="Rectangle 406" width="20.905" height="19.445" transform="translate(38.847 0.868)" fill="#f9b513"/>
        <rect id="Rectangle_407" data-name="Rectangle 407" width="20.864" height="3.162" transform="translate(38.816 0)" fill="#941914"/>
        <path id="Path_1053" data-name="Path 1053" d="M660.58,78.951s-9.1,16.216-13.072,28.461c.993,2.978,10.094,9.1,19.029,8.438,2.978-8.108,5.461-11.583,5.461-11.583S672.659,83.088,660.58,78.951Z" transform="translate(-647.508 -66.187)" fill="#f9b513"/>
        <path id="Path_1054" data-name="Path 1054" d="M737.852,78.951s9.1,16.216,13.071,28.461c-.992,2.978-10.093,9.1-19.028,8.438-2.978-8.108-5.461-11.583-5.461-11.583S725.773,83.088,737.852,78.951Z" transform="translate(-652.464 -66.187)" fill="#f9b513"/>
        <path id="Path_1055" data-name="Path 1055" d="M720.2,71.148c-7.115-2.648-10.921-5.792-12.245-5.792,0,0,2.775,7.534-10.331,10.169-13.135-3.491-10.359-10.169-10.359-10.169-1.323,0-5.129,3.144-12.245,5.792s-11.749,4.3-13.569,6.949c2.482,1.986,10.424,6.454,10.424,26.806v60.4a99.14,99.14,0,0,0,25.647,3.309c15.389,0,25.82-3.309,25.82-3.309V104.9c0-20.352,7.942-24.82,10.424-26.806C731.952,75.45,727.318,73.8,720.2,71.148Z" transform="translate(-648.384 -65.333)" fill="#f9b513"/>
        <g id="Group_400" data-name="Group 400" transform="translate(0 37.719)">
          <path id="Path_1056" data-name="Path 1056" d="M648.748,105.579c-.446,1.189-.871,2.367-1.24,3.505.993,2.978,10.094,9.1,19.029,8.438.44-1.2.863-2.262,1.275-3.26C660.451,114.523,651.365,108.9,648.748,105.579Z" transform="translate(-647.508 -105.579)" fill="#f9b513"/>
        </g>
        <g id="Group_401" data-name="Group 401" transform="translate(78.157 37.927)">
          <path id="Path_1057" data-name="Path 1057" d="M750.044,105.8c-2.59,3.271-11.753,8.748-19.142,8.476.411,1,.834,2.063,1.275,3.26,8.935.662,18.035-5.46,19.028-8.439C750.858,108.027,750.46,106.919,750.044,105.8Z" transform="translate(-730.902 -105.801)" fill="#f9b513"/>
        </g>
        <path id="Path_1058" data-name="Path 1058" d="M658.377,87.49c2.262-4.622,4.007-7.85,4.007-7.85,1.76-2.648,6.238-4.3,13.115-6.95,6.554-2.523,10.176-5.465,11.612-5.738a9.094,9.094,0,0,1-.124-1.6c-1.324,0-5.129,3.144-12.244,5.792s-11.749,4.3-13.569,6.949c0,0-1.837,3.288-4.21,7.979Z" transform="translate(-648.102 -65.333)" fill="#f9b513"/>
        <path id="Path_1059" data-name="Path 1059" d="M722.555,72.69c6.877,2.648,11.355,4.3,13.114,6.95,0,0,1.66,3.07,3.84,7.509l1.411-1.411c-2.292-4.518-4.041-7.64-4.041-7.64-1.82-2.648-6.453-4.3-13.568-6.949s-10.921-5.792-12.245-5.792a9.083,9.083,0,0,1-.124,1.6C712.379,67.225,716,70.167,722.555,72.69Z" transform="translate(-651.492 -65.333)" fill="#f9b513"/>
        <path id="Path_1060" data-name="Path 1060" d="M699.178,75.524c11.494,0,13.01-8,13.01-8.994a7.876,7.876,0,0,0-2.68-1.19s1.312,7.237-10.345,7.237c-10.833,0-10.345-7.237-10.345-7.237a7.867,7.867,0,0,0-2.679,1.19S687.784,75.524,699.178,75.524Z" transform="translate(-649.934 -65.332)" fill="#941914"/>
        <rect id="Rectangle_408" data-name="Rectangle 408" width="52.559" height="19.404" transform="translate(22.95 34.118)" fill="#941914"/>
        <g id="Group_404" data-name="Group 404" transform="translate(20.844 22.647)" opacity="0.1">
          <g id="Group_402" data-name="Group 402" transform="translate(41.506)">
            <path id="Path_1061" data-name="Path 1061" d="M715.885,115.657c-.571,16.55-1.428,41.453-1.849,53.647a78.341,78.341,0,0,0,12.613-2.489v-60.4c0-7.646,1.122-13.05,2.653-16.922C722.824,94.43,716.344,102.347,715.885,115.657Z" transform="translate(-714.036 -89.497)" fill="#00394f"/>
          </g>
          <g id="Group_403" data-name="Group 403">
            <path id="Path_1062" data-name="Path 1062" d="M685.014,169.272c-.421-12.2-1.278-37.08-1.848-53.615-.459-13.31-6.939-21.227-13.417-26.16,1.531,3.873,2.652,9.275,2.652,16.922v60.4A88.272,88.272,0,0,0,685.014,169.272Z" transform="translate(-669.749 -89.497)" fill="#00394f"/>
          </g>
        </g>
        <g id="Group_405" data-name="Group 405" transform="translate(73.964 26.702)" opacity="0.2">
          <path id="Path_1063" data-name="Path 1063" d="M727.685,93.823a48.834,48.834,0,0,0-1.25,11.379s2.483,3.475,5.461,11.583a20.938,20.938,0,0,0,6.331-.562C732.82,101.508,728.258,94.656,727.685,93.823Z" transform="translate(-726.429 -93.823)" fill="#00394f"/>
        </g>
        <g id="Group_406" data-name="Group 406" transform="translate(12.671 26.671)" opacity="0.1">
          <path id="Path_1064" data-name="Path 1064" d="M671.588,93.79c-.419.6-5.046,7.417-10.56,22.423a20.9,20.9,0,0,0,6.358.569c2.978-8.108,5.46-11.583,5.46-11.583A48.788,48.788,0,0,0,671.588,93.79Z" transform="translate(-661.028 -93.79)" fill="#00394f"/>
        </g>
      </g>
    </g>
  </g>
</svg>
