<svg xmlns="http://www.w3.org/2000/svg" xmlns:xlink="http://www.w3.org/1999/xlink" width="115.728" height="125.156" viewBox="0 0 115.728 125.156">
  <defs>
    <filter id="Path_1219" x="0" y="0" width="115.728" height="120.507" filterUnits="userSpaceOnUse">
      <feOffset dy="3" input="SourceAlpha"/>
      <feGaussianBlur stdDeviation="3" result="blur"/>
      <feFlood flood-opacity="0.161"/>
      <feComposite operator="in" in2="blur"/>
      <feComposite in="SourceGraphic"/>
    </filter>
  </defs>
  <g id="Group_467" data-name="Group 467" transform="translate(-1571.665 166.156)">
    <g transform="matrix(1, 0, 0, 1, 1571.66, -166.16)" filter="url(#Path_1219)">
      <path id="Path_1219-2" data-name="Path 1219" d="M166.9-118.819a7.766,7.766,0,0,0-.324-1.046l-.019.02c-4.1-12.012-12.631-27.218-12.631-27.218h0c-1.58-2.3-5.3-3.844-10.935-5.954q-1.208-.452-2.532-.943-.663-.247-1.287-.5c-.6-.242-1.166-.485-1.714-.728a72.492,72.492,0,0,1-6.494-3.341v-.016a8.8,8.8,0,0,0-2.555-1.162v-.026H107.7v.02a8.438,8.438,0,0,0-2.592,1.168l0,.015a69.754,69.754,0,0,1-7,3.567c-.782.337-1.614.673-2.5,1-2.207.821-4.173,1.546-5.888,2.235-3.088,1.24-5.366,2.363-6.771,3.719a6.23,6.23,0,0,0-.807.943l-.02.034c-.383.687-8.568,15.379-12.581,27.095l-.007-.009a8.155,8.155,0,0,0-.364,1.12l0,.009c.807,2.422,7.022,6.936,14.12,8.126l.024,0c.509.085,1.02.154,1.536.2.13.013.261.013.392.023.384.029.767.061,1.153.067.015,0,.03,0,.045,0,.539.008,1.079-.006,1.619-.046.866-2.357,1.687-4.31,2.42-5.907.8-1.756,1.5-3.074,2.015-3.984v59.82a98.4,98.4,0,0,0,25.457,3.285c15.274,0,25.627-3.285,25.627-3.285v-59.82a60.174,60.174,0,0,1,3.353,7.087q.526,1.3,1.082,2.8c.539.04,1.077.054,1.614.046.393-.006.785-.035,1.177-.064.135-.01.271-.011.406-.024.511-.047,1.019-.117,1.523-.2l.028,0c.068-.011.138-.016.2-.028,7.022-1.236,13.135-5.7,13.936-8.1Z" transform="translate(-60.17 165.73)" fill="#fff"/>
    </g>
    <ellipse id="Ellipse_30" data-name="Ellipse 30" cx="26" cy="4" rx="26" ry="4" transform="translate(1603 -49)" fill="#ddd"/>
    <g id="Group_391" data-name="Group 391" transform="translate(1321.847 -224.232)">
      <rect id="Rectangle_402" data-name="Rectangle 402" width="20.905" height="19.445" transform="translate(296.299 65.56)" fill="#00394f"/>
      <rect id="Rectangle_403" data-name="Rectangle 403" width="20.864" height="3.162" transform="translate(296.268 64.693)" fill="#bd1622"/>
      <path id="Path_1025" data-name="Path 1025" d="M270.524,78.312s-9.1,16.215-13.072,28.46c.993,2.978,10.094,9.1,19.029,8.439,2.978-8.108,5.461-11.583,5.461-11.583S282.6,82.449,270.524,78.312Z" transform="translate(0 -0.855)" fill="blue"/>
      <path id="Path_1026" data-name="Path 1026" d="M347.8,78.312s9.1,16.215,13.072,28.46c-.993,2.978-10.094,9.1-19.029,8.439-2.978-8.108-5.461-11.583-5.461-11.583S335.717,82.449,347.8,78.312Z" transform="translate(-4.957 -0.855)" fill="blue"/>
      <g id="Group_384" data-name="Group 384" transform="translate(331.416 91.395)" opacity="0.2">
        <path id="Path_1027" data-name="Path 1027" d="M337.63,93.184a48.8,48.8,0,0,0-1.251,11.378s2.483,3.475,5.461,11.583a20.908,20.908,0,0,0,6.331-.563C342.764,100.869,338.2,94.017,337.63,93.184Z" transform="translate(-336.373 -93.184)" fill="#00394f"/>
      </g>
      <g id="Group_385" data-name="Group 385" transform="translate(270.123 91.364)" opacity="0.1">
        <path id="Path_1028" data-name="Path 1028" d="M281.532,93.151c-.419.6-5.046,7.417-10.56,22.423a20.931,20.931,0,0,0,6.358.569c2.978-8.108,5.461-11.583,5.461-11.583A48.822,48.822,0,0,0,281.532,93.151Z" transform="translate(-270.972 -93.151)" fill="#00394f"/>
      </g>
      <path id="Path_1029" data-name="Path 1029" d="M330.147,70.509c-7.115-2.648-10.92-5.792-12.244-5.792,0,0,2.775,7.534-10.331,10.169-13.135-3.491-10.359-10.169-10.359-10.169-1.323,0-5.129,3.144-12.244,5.792s-11.749,4.3-13.569,6.949c2.483,1.986,10.424,6.454,10.424,26.806v60.4a99.148,99.148,0,0,0,25.647,3.309c15.389,0,25.82-3.309,25.82-3.309v-60.4c0-20.352,7.942-24.82,10.424-26.806C341.9,74.811,337.262,73.155,330.147,70.509Z" transform="translate(-0.876 -0.002)" fill="blue"/>
      <g id="Group_386" data-name="Group 386" transform="translate(257.452 104.78)">
        <path id="Path_1030" data-name="Path 1030" d="M257.821,107.466a8.366,8.366,0,0,0-.369,1.137c.993,2.978,10.094,9.1,19.029,8.439.44-1.2.039-.264.451-1.263C269.572,116.04,260.438,110.784,257.821,107.466Z" transform="translate(-257.452 -107.466)" fill="#fff"/>
      </g>
      <g id="Group_387" data-name="Group 387" transform="translate(336.442 104.856)">
        <path id="Path_1031" data-name="Path 1031" d="M360.876,107.548c-2.589,3.271-11.751,8.574-19.14,8.3.412,1,0,0,.44,1.2,8.935.662,18.035-5.461,19.028-8.439A7.911,7.911,0,0,0,360.876,107.548Z" transform="translate(-341.736 -107.548)" fill="#fff"/>
      </g>
      <g id="Group_390" data-name="Group 390" transform="translate(278.296 87.34)" opacity="0.1">
        <g id="Group_388" data-name="Group 388" transform="translate(41.505)">
          <path id="Path_1032" data-name="Path 1032" d="M325.829,115.018c-.571,16.549-1.428,41.453-1.849,53.647a78.372,78.372,0,0,0,12.614-2.489v-60.4c0-7.647,1.121-13.049,2.652-16.922C332.768,93.791,326.288,101.708,325.829,115.018Z" transform="translate(-323.98 -88.858)" fill="#00394f"/>
        </g>
        <g id="Group_389" data-name="Group 389" transform="translate(0)">
          <path id="Path_1033" data-name="Path 1033" d="M294.958,168.633c-.421-12.205-1.278-37.08-1.848-53.615-.459-13.311-6.939-21.226-13.417-26.16,1.531,3.872,2.652,9.275,2.652,16.922v60.4A88.274,88.274,0,0,0,294.958,168.633Z" transform="translate(-279.693 -88.858)" fill="#00394f"/>
        </g>
      </g>
      <path id="Path_1034" data-name="Path 1034" d="M268.322,86.851c2.261-4.622,4.006-7.85,4.006-7.85,1.759-2.648,6.237-4.3,13.114-6.95,6.555-2.523,10.177-5.466,11.612-5.738a9.1,9.1,0,0,1-.124-1.6c-1.324,0-5.129,3.144-12.244,5.792s-11.749,4.3-13.569,6.949c0,0-1.837,3.288-4.21,7.979Z" transform="translate(-0.594 -0.002)" fill="blue"/>
      <path id="Path_1035" data-name="Path 1035" d="M332.5,72.051c6.877,2.648,11.355,4.3,13.114,6.95,0,0,1.66,3.07,3.84,7.508l1.411-1.41c-2.292-4.518-4.041-7.64-4.041-7.64-1.82-2.648-6.453-4.3-13.568-6.949s-10.921-5.792-12.244-5.792a9.1,9.1,0,0,1-.124,1.6C322.323,66.586,325.944,69.528,332.5,72.051Z" transform="translate(-3.984 -0.002)" fill="blue"/>
      <path id="Path_1036" data-name="Path 1036" d="M309.122,74.884c11.494,0,13.01-8,13.01-8.994a7.884,7.884,0,0,0-2.679-1.191s1.312,7.238-10.345,7.238c-10.833,0-10.345-7.238-10.345-7.238a7.887,7.887,0,0,0-2.679,1.19S297.728,74.884,309.122,74.884Z" transform="translate(-2.426 0)" fill="#e42321"/>
    </g>
  </g>
</svg>
