<svg xmlns="http://www.w3.org/2000/svg" xmlns:xlink="http://www.w3.org/1999/xlink" width="115.728" height="124.156" viewBox="0 0 115.728 124.156">
  <defs>
    <filter id="Path_1213" x="0" y="0" width="115.728" height="120.507" filterUnits="userSpaceOnUse">
      <feOffset dy="3" input="SourceAlpha"/>
      <feGaussianBlur stdDeviation="3" result="blur"/>
      <feFlood flood-opacity="0.161"/>
      <feComposite operator="in" in2="blur"/>
      <feComposite in="SourceGraphic"/>
    </filter>
  </defs>
  <g id="Group_473" data-name="Group 473" transform="translate(-2298.665 165.156)">
    <g transform="matrix(1, 0, 0, 1, 2298.66, -165.16)" filter="url(#Path_1213)">
      <path id="Path_1213-2" data-name="Path 1213" d="M166.9-118.819a7.766,7.766,0,0,0-.324-1.046l-.019.02c-4.1-12.012-12.631-27.218-12.631-27.218h0c-1.58-2.3-5.3-3.844-10.935-5.954q-1.208-.452-2.532-.943-.663-.247-1.287-.5c-.6-.242-1.166-.485-1.714-.728a72.492,72.492,0,0,1-6.494-3.341v-.016a8.8,8.8,0,0,0-2.555-1.162v-.026H107.7v.02a8.438,8.438,0,0,0-2.592,1.168l0,.015a69.754,69.754,0,0,1-7,3.567c-.782.337-1.614.673-2.5,1-2.207.821-4.173,1.546-5.888,2.235-3.088,1.24-5.366,2.363-6.771,3.719a6.23,6.23,0,0,0-.807.943l-.02.034c-.383.687-8.568,15.379-12.581,27.095l-.007-.009a8.155,8.155,0,0,0-.364,1.12l0,.009c.807,2.422,7.022,6.936,14.12,8.126l.024,0c.509.085,1.02.154,1.536.2.13.013.261.013.392.023.384.029.767.061,1.153.067.015,0,.03,0,.045,0,.539.008,1.079-.006,1.619-.046.866-2.357,1.687-4.31,2.42-5.907.8-1.756,1.5-3.074,2.015-3.984v59.82a98.4,98.4,0,0,0,25.457,3.285c15.274,0,25.627-3.285,25.627-3.285v-59.82a60.174,60.174,0,0,1,3.353,7.087q.526,1.3,1.082,2.8c.539.04,1.077.054,1.614.046.393-.006.785-.035,1.177-.064.135-.01.271-.011.406-.024.511-.047,1.019-.117,1.523-.2l.028,0c.068-.011.138-.016.2-.028,7.022-1.236,13.135-5.7,13.936-8.1Z" transform="translate(-60.17 165.73)" fill="#fff"/>
    </g>
    <ellipse id="Ellipse_36" data-name="Ellipse 36" cx="26" cy="4" rx="26" ry="4" transform="translate(2331 -49)" fill="#ddd"/>
    <g id="Group_439" data-name="Group 439" transform="translate(1660.263 -390.469)">
      <rect id="Rectangle_416" data-name="Rectangle 416" width="20.505" height="19.073" transform="translate(686.081 232.763)" fill="#fff"/>
      <rect id="Rectangle_417" data-name="Rectangle 417" width="20.464" height="2.792" transform="translate(686.033 231.918)" fill="#fff"/>
      <rect id="Rectangle_418" data-name="Rectangle 418" width="20.505" height="19.073" transform="translate(686.081 232.763)" fill="#00394f" opacity="0.1"/>
      <rect id="Rectangle_419" data-name="Rectangle 419" width="20.464" height="2.792" transform="translate(686.033 231.918)" fill="#030404"/>
      <path id="Path_1123" data-name="Path 1123" d="M660.8,245.53s-8.927,15.906-12.822,27.916c.973,2.921,9.9,8.926,18.664,8.277,2.921-7.952,5.356-11.361,5.356-11.361S672.647,249.588,660.8,245.53Z" transform="translate(0 -1.099)" fill="#030404"/>
      <path id="Path_1124" data-name="Path 1124" d="M738.1,245.53s8.927,15.906,12.822,27.916c-.973,2.921-9.9,8.926-18.664,8.277-2.921-7.952-5.356-11.361-5.356-11.361S726.255,249.588,738.1,245.53Z" transform="translate(-6.373 -1.099)" fill="#030404"/>
      <path id="Path_1125" data-name="Path 1125" d="M719.548,237.616c-6.979-2.6-10.712-5.681-12.01-5.681,0,0,2.722,7.39-10.133,9.974-12.884-3.424-10.16-9.974-10.16-9.974-1.3,0-5.032,3.084-12.01,5.681s-11.524,4.219-13.309,6.816c2.434,1.948,10.225,6.33,10.225,26.292v59.239a97.243,97.243,0,0,0,25.156,3.246c15.094,0,25.324-3.246,25.324-3.246V270.725c0-19.962,7.791-24.345,10.225-26.292C731.071,241.835,726.527,240.213,719.548,237.616Z" transform="translate(-1.126 -0.001)" fill="#fff"/>
      <g id="Group_432" data-name="Group 432" transform="translate(647.978 271.231)">
        <path id="Path_1126" data-name="Path 1126" d="M648.34,274.684a8.214,8.214,0,0,0-.362,1.116c.973,2.921,9.9,8.926,18.664,8.277.431-1.174.028-.194.431-1.174C659.855,283.159,650.907,277.939,648.34,274.684Z" transform="translate(-647.978 -274.684)" fill="#e42321"/>
      </g>
      <g id="Group_433" data-name="Group 433" transform="translate(725.456 271.296)">
        <path id="Path_1127" data-name="Path 1127" d="M751.017,274.755c-2.54,3.208-11.508,8.42-18.755,8.154.4.98,0,0,.431,1.174,8.764.649,17.691-5.356,18.664-8.277A8.041,8.041,0,0,0,751.017,274.755Z" transform="translate(-732.262 -274.755)" fill="#e42321"/>
      </g>
      <rect id="Rectangle_420" data-name="Rectangle 420" width="94.177" height="14.529" transform="translate(703.598 239.017) rotate(90)" fill="#030404"/>
      <g id="Group_436" data-name="Group 436" transform="translate(668.422 254.125)" opacity="0.1">
        <g id="Group_434" data-name="Group 434" transform="translate(40.712)">
          <path id="Path_1128" data-name="Path 1128" d="M716.32,281.735c-.56,16.233-1.4,40.659-1.814,52.62a76.833,76.833,0,0,0,12.371-2.441V272.674c0-7.5,1.1-12.8,2.6-16.6C723.126,260.916,716.769,268.68,716.32,281.735Z" transform="translate(-714.506 -256.076)" fill="#00394f"/>
        </g>
        <g id="Group_435" data-name="Group 435">
          <path id="Path_1129" data-name="Path 1129" d="M685.191,334.325c-.413-11.971-1.253-36.371-1.812-52.589-.451-13.055-6.807-20.819-13.161-25.659,1.5,3.8,2.6,9.1,2.6,16.6v59.239A86.656,86.656,0,0,0,685.191,334.325Z" transform="translate(-670.218 -256.076)" fill="#00394f"/>
        </g>
      </g>
      <g id="Group_437" data-name="Group 437" transform="translate(720.526 258.102)" opacity="0.2">
        <path id="Path_1130" data-name="Path 1130" d="M728.131,260.4a47.9,47.9,0,0,0-1.226,11.161s2.434,3.409,5.356,11.361a20.536,20.536,0,0,0,6.209-.552C733.166,267.94,728.693,261.219,728.131,260.4Z" transform="translate(-726.899 -260.402)" fill="#00394f"/>
      </g>
      <g id="Group_438" data-name="Group 438" transform="translate(660.405 258.072)" opacity="0.1">
        <path id="Path_1131" data-name="Path 1131" d="M671.855,260.369c-.41.59-4.948,7.275-10.358,21.994a20.511,20.511,0,0,0,6.237.558c2.921-7.952,5.356-11.361,5.356-11.361A47.886,47.886,0,0,0,671.855,260.369Z" transform="translate(-661.497 -260.369)" fill="#00394f"/>
      </g>
      <path id="Path_1132" data-name="Path 1132" d="M658.82,253.645c2.219-4.534,3.93-7.7,3.93-7.7,1.726-2.6,6.118-4.22,12.863-6.817,6.429-2.475,9.982-5.36,11.391-5.629a8.92,8.92,0,0,1-.121-1.565c-1.3,0-5.032,3.084-12.01,5.681s-11.524,4.219-13.309,6.816c0,0-1.8,3.225-4.129,7.827Z" transform="translate(-0.764 -0.001)" fill="#030404"/>
      <path id="Path_1133" data-name="Path 1133" d="M722.8,239.128c6.745,2.6,11.138,4.22,12.863,6.817,0,0,1.627,3.011,3.765,7.365l1.384-1.384c-2.247-4.432-3.963-7.494-3.963-7.494-1.785-2.6-6.329-4.219-13.308-6.816s-10.712-5.681-12.01-5.681a8.925,8.925,0,0,1-.121,1.565C712.82,233.768,716.373,236.654,722.8,239.128Z" transform="translate(-5.122 -0.001)" fill="#030404"/>
      <path id="Path_1134" data-name="Path 1134" d="M699.4,241.908c11.273,0,12.761-7.842,12.761-8.822a7.724,7.724,0,0,0-2.628-1.167s1.287,7.1-10.147,7.1c-10.626,0-10.147-7.1-10.147-7.1a7.719,7.719,0,0,0-2.629,1.167S688.222,241.908,699.4,241.908Z" transform="translate(-3.119 0)" fill="#030404"/>
    </g>
  </g>
</svg>
