<svg xmlns="http://www.w3.org/2000/svg" width="20.294" height="20.293" viewBox="0 0 20.294 20.293">
  <path id="Path_1023" data-name="Path 1023" d="M100.448,510.781a10.146,10.146,0,1,0,10.147,10.147A10.147,10.147,0,0,0,100.448,510.781Zm-1.692,3.652h2.924v4.916a12.461,12.461,0,0,1-.091,1.512c-.06.5-.14,1-.237,1.512l-.045.235H99.129l-.045-.235c-.1-.513-.179-1.022-.237-1.512a12.5,12.5,0,0,1-.091-1.512Zm3.018,11.465a1.614,1.614,0,0,1-.37.536,1.7,1.7,0,0,1-.543.35,1.774,1.774,0,0,1-.667.127,1.8,1.8,0,0,1-.674-.126,1.653,1.653,0,0,1-1.038-1.546,1.641,1.641,0,0,1,.133-.658,1.678,1.678,0,0,1,.361-.527,1.717,1.717,0,0,1,.54-.356,1.8,1.8,0,0,1,1.349,0,1.776,1.776,0,0,1,.54.354,1.63,1.63,0,0,1,.5,1.187A1.67,1.67,0,0,1,101.773,525.9Z" transform="translate(-90.301 -510.781)" fill="#fff"/>
</svg>
