<svg xmlns="http://www.w3.org/2000/svg" width="19.212" height="19.211" viewBox="0 0 19.212 19.211">
  <path id="Path_779" data-name="Path 779" d="M99.907,510.781a9.606,9.606,0,1,0,9.606,9.606A9.606,9.606,0,0,0,99.907,510.781Zm-1.6,3.458h2.768v4.654a11.8,11.8,0,0,1-.086,1.431c-.057.469-.132.95-.224,1.431l-.043.222H98.659l-.043-.222c-.093-.486-.169-.968-.225-1.431a11.835,11.835,0,0,1-.086-1.431Zm2.857,10.854a1.528,1.528,0,0,1-.35.507,1.61,1.61,0,0,1-.514.332,1.68,1.68,0,0,1-.632.12,1.7,1.7,0,0,1-.638-.119,1.565,1.565,0,0,1-.983-1.464,1.554,1.554,0,0,1,.126-.622,1.589,1.589,0,0,1,.342-.5,1.626,1.626,0,0,1,.511-.337,1.7,1.7,0,0,1,1.277,0,1.682,1.682,0,0,1,.511.335,1.543,1.543,0,0,1,.475,1.124A1.581,1.581,0,0,1,101.162,525.092Z" transform="translate(-90.301 -510.781)" fill="#fff"/>
</svg>
