<?xml version="1.0" encoding="utf-8"?>
<!-- Generator: Adobe Illustrator 16.0.0, SVG Export Plug-In . SVG Version: 6.00 Build 0)  -->
<!DOCTYPE svg PUBLIC "-//W3C//DTD SVG 1.1//EN" "http://www.w3.org/Graphics/SVG/1.1/DTD/svg11.dtd">
<svg version="1.1" id="Layer_1" xmlns="http://www.w3.org/2000/svg" xmlns:xlink="http://www.w3.org/1999/xlink" x="0px" y="0px"
	 width="26.333px" height="24.796px" viewBox="1.708 -4.631 26.333 24.796" enable-background="new 1.708 -4.631 26.333 24.796"
	 xml:space="preserve">
<path id="svg2" display="none" fill="#A4A3A3" d="M12.5,0C6.661,0,1.868,4.558,1.49,10.303H0v7.324h4.428
	C4.8,21.754,8.278,25,12.5,25c4.223,0,7.7-3.246,8.072-7.373H25v-7.324h-1.49C23.132,4.558,18.338,0,12.5,0z M4.395,16.162h-2.93
	v-4.395h2.93V16.162z M19.141,16.895c0,0.787-0.139,1.543-0.391,2.242h-3.689c-0.303-0.853-1.117-1.466-2.073-1.466H12.01
	c-1.212,0-2.198,0.986-2.198,2.198s0.986,2.199,2.198,2.199h0.978c0.956,0,1.77-0.613,2.073-1.467h2.945
	c-1.193,1.77-3.217,2.935-5.507,2.935c-3.662,0-6.641-2.979-6.641-6.64v-5.86c0-0.028,0.001-0.056,0.001-0.084
	c0.919,0.333,1.899,0.507,2.882,0.507c2.033,0,3.963-0.717,5.493-2.03c1.246,0.69,2.646,1.053,4.086,1.053
	c0.265,0,0.529-0.013,0.791-0.037c0.018,0.195,0.027,0.392,0.027,0.592L19.141,16.895L19.141,16.895z M13.723,19.869
	c0,0.404-0.33,0.734-0.733,0.734h-0.979c-0.404,0-0.733-0.33-0.733-0.734s0.329-0.733,0.733-0.733h0.979
	C13.393,19.136,13.723,19.465,13.723,19.869z M6.05,9.455c0.711-2.901,3.333-5.06,6.45-5.06c2.951,0,5.458,1.936,6.32,4.603
	c-0.166,0.012-0.334,0.018-0.5,0.018c-1.346,0-2.654-0.385-3.78-1.112l-0.492-0.318l-0.418,0.41
	c-1.313,1.288-3.049,1.997-4.887,1.997C7.804,9.993,6.9,9.812,6.05,9.455z M12.5,2.93c-4.222,0-7.7,3.246-8.072,7.373h-1.47
	C3.333,5.366,7.469,1.465,12.5,1.465s9.167,3.901,9.542,8.838H20.57C20.2,6.175,16.723,2.93,12.5,2.93z M23.535,16.162h-2.93v-4.395
	h2.93V16.162z"/>
<g id="svg3" display="none">
	<g display="inline">
		<path fill="#A3A3A3" d="M11.581,10.478c0,1.42,0.727,2.678,1.835,3.422l0.005-0.969v-2.443c0-0.034,0-0.068,0.005-0.098
			c0.069-1.244,1.098-2.208,2.364-2.208c1.281,0,2.325,1.008,2.369,2.267l0.376,3.114c0.86-0.758,1.405-1.86,1.405-3.084
			c0-2.281-1.875-4.137-4.18-4.137c-0.871,0-1.678,0.264-2.345,0.715L8.049,3.154c0.148-0.421,0.232-0.876,0.232-1.346
			c0-2.287-1.87-4.137-4.18-4.137s-4.18,1.851-4.18,4.137c0,2.286,1.87,4.137,4.18,4.137c0.93,0,1.781-0.303,2.473-0.808
			l5.293,3.848C11.685,9.45,11.581,9.954,11.581,10.478z M4.102,3.805c-1.113,0-2.018-0.891-2.018-1.997
			c0-1.102,0.905-1.998,2.018-1.998S6.12,0.706,6.12,1.808C6.12,2.909,5.214,3.805,4.102,3.805z M23.853,18.043
			c-0.05-0.436-0.307-0.818-0.688-1.043c-2.483-1.445-5.604-1.959-5.604-1.959l-0.549-4.519c0-0.671-0.549-1.209-1.222-1.209
			c-0.663,0-1.202,0.524-1.222,1.175v2.453l-0.05,6.952l-1.444-1.102c0,0-1.449-1.268-2.849-0.4
			c-0.326,0.199-0.405,0.637-0.168,0.934c0.425,0.525,2.875,3.416,3.865,4.346c0,0,1.585,2.842,3.493,2.65
			c2.885-0.287,6.507-3.65,6.507-3.65C24.269,21.299,23.946,18.859,23.853,18.043z"/>
	</g>
</g>
<g id="svg2_1_" display="none">
	<path display="inline" fill="#A3A3A3" d="M0.089,4.084L0.09,23.087l14.999-0.004v-17l-2-2H0.089z M14.089,22.083h-13v-17
		l10.998-0.055v2.043l2.002,0.012V22.083L14.089,22.083z"/>
	<path display="inline" fill="#A3A3A3" d="M3.089,1.084v3h1l-0.016-2.02l11.016,0.02v2h2v14.999h-1v1h2V3.084l-2-2H3.089z"/>
	<path display="inline" fill="#A3A3A3" d="M18.184-1.919L5.089-1.916v2h2v-1h10v2h3v14.999l-0.949,0.055l-0.051,0.945h2L21.08,0.765
		L18.184-1.919z"/>
</g>
<g id="svg4" display="none">
	<g display="inline">
		<path fill="#9E9E9E" d="M22.276,0.867H3.39c-1.686,0-3.057,1.369-3.057,3.053v12.894c0,1.684,1.371,3.053,3.057,3.053h18.882
			c1.686,0,3.057-1.369,3.057-3.053V3.925C25.333,2.241,23.963,0.867,22.276,0.867z M22.276,18.473H3.39
			c-0.915,0-1.66-0.744-1.66-1.658V3.925c0-0.914,0.745-1.658,1.66-1.658h18.882c0.916,0,1.66,0.744,1.66,1.658v12.889h0.005
			C23.937,17.729,23.192,18.473,22.276,18.473z M16.097,10.207l6.113-5.476c0.284-0.258,0.31-0.698,0.052-0.987
			c-0.259-0.284-0.698-0.31-0.988-0.052l-8.43,7.557l-1.645-1.467c-0.006-0.005-0.011-0.01-0.011-0.016
			c-0.036-0.035-0.072-0.066-0.113-0.098L4.383,3.688c-0.29-0.259-0.729-0.232-0.988,0.057C3.137,4.034,3.162,4.473,3.452,4.731
			l6.185,5.522l-6.159,5.76C3.198,16.277,3.183,16.716,3.446,17c0.14,0.145,0.326,0.223,0.513,0.223c0.17,0,0.341-0.063,0.476-0.187
			l6.252-5.843l1.696,1.514c0.135,0.119,0.301,0.176,0.466,0.176c0.166,0,0.336-0.063,0.466-0.181l1.742-1.56l6.217,5.898
			c0.135,0.129,0.311,0.191,0.48,0.191c0.187,0,0.367-0.072,0.508-0.217c0.264-0.279,0.253-0.723-0.026-0.986L16.097,10.207z"/>
	</g>
</g>
<g display="none">
	<g display="inline">
		<path fill="#9E9E9E" d="M25.429,19.061V2.028c0-0.641-0.524-1.161-1.172-1.161H1.601c-0.647,0-1.172,0.52-1.172,1.161v17.032
			c0,0.214-0.216,0.807,0,0.807h9v3l-1.188-0.322c-0.216,0-0.391,0.173-0.391,0.387v1.161H7.069v0.774h11.719v-0.774h-0.781v-1.161
			c0-0.214-0.175-0.387-0.391-0.387l-1.188,0.322v-3c0,0,8.609-0.42,8.733-0.027C25.477,20.15,25.447,19.334,25.429,19.061z
			 M17.226,23.318v0.774H8.632v-0.774H17.226z M10.429,22.867v-3h5v3H10.429z M24.429,18.867h-23v-4h23V18.867z M19.429,4.867h-4
			c0.034,0.063,0,0.786,0,1l0.234,2.355h0.781l-0.016-2.355h2v1h-1v1h1v2h-1v1h1v1h-1v1h1v1h-2v-2h-1v2h-1v-1
			c0-1.58,1.607-2.314,1.689-2.328c0.048-0.008,0.094-0.025,0.136-0.05c0.186-0.109,0.245-0.347,0.135-0.531l-2.96-6.091h9v10h-3v-8
			C19.429,5.653,19.426,5.336,19.429,4.867z M15.449,9.912c-0.852,0.283-1.833,0.725-2.021,1.956h-2c-0.188-1.231-0.149-1.716-1-2
			l2-4v4h1v-4L15.449,9.912z M13.429,13.867h-2v-1h1.891L13.429,13.867z M8.688,9.958C8.663,10,8.646,10.045,8.638,10.093
			c-0.036,0.211,0.106,0.411,0.319,0.446c0.083,0.014,1.472,0.749,1.472,2.328v1h-1v-2h-1v-4h1L9.413,7.061
			C9.101,7.008,9.449,6.915,9.429,6.867L8.21,4.198C8.17,4.107,8.097,4.035,8.005,3.995C7.806,3.911,7.576,4.002,7.491,4.198
			l-1.172,2.71C6.299,6.956,6.429,6.814,6.429,6.867v7h-3v-10h9L8.688,9.958z M7.429,6.867l0.422-1.535l0.578,1.535H7.429z
			 M24.647,2.028l-0.219,11.839h-1l0.047-10.678c0-0.213,0.169-0.322-0.047-0.322h-21c-0.216,0-0.047,0.109-0.047,0.322
			l0.047,10.678h-1v-12h23c0.116,0.084,0.185,0.117,0.224,0.128C24.65,2.005,24.647,2.012,24.647,2.028z M12.929,17.899
			c0.647,0,1.172-0.521,1.172-1.161c0-0.642-0.524-1.162-1.172-1.162s-1.172,0.521-1.172,1.162
			C11.757,17.379,12.281,17.899,12.929,17.899z M12.929,16.352c0.216,0,0.391,0.173,0.391,0.387s-0.175,0.387-0.391,0.387
			s-0.391-0.173-0.391-0.387S12.713,16.352,12.929,16.352z"/>
	</g>
</g>
<g id="clipboard" display="none">
	<g display="inline">
		<path fill="#A4A4A4" d="M18.779,0.9H5.641c-0.96,0-2.12,0.026-2.12,1v3L2.262,4.786c-0.96,0-1.741,0.792-1.741,1.766v17.582
			c0,0.975,0.781,1.766,1.741,1.766h14.259c0.96,0,1-1.025,1-2v-2l1.259,0.115c0.96,0,1.741-0.793,1.741-1.766V2.666
			C20.521,1.692,19.739,0.9,18.779,0.9z M15.521,23.898h-13V6.9h13V23.898z M18.521,19.898h-1V6.9c0-0.974-1.04-2-2-2h-10v-2h13
			V19.898z M4.586,10.196h8.489c0.412,0,0.746-0.339,0.746-0.757s-0.334-0.757-0.746-0.757H4.586c-0.412,0-0.746,0.339-0.746,0.757
			S4.174,10.196,4.586,10.196z M4.586,13.604h8.489c0.412,0,0.746-0.34,0.746-0.757s-0.334-0.756-0.746-0.756H4.586
			c-0.412,0-0.746,0.338-0.746,0.756S4.174,13.604,4.586,13.604z M4.586,17.012h8.489c0.412,0,0.746-0.338,0.746-0.758
			c0-0.418-0.334-0.756-0.746-0.756H4.586c-0.412,0-0.746,0.338-0.746,0.756C3.84,16.674,4.174,17.012,4.586,17.012z M4.586,20.42
			h8.489c0.412,0,0.746-0.338,0.746-0.756s-0.334-0.758-0.746-0.758H4.586c-0.412,0-0.746,0.34-0.746,0.758S4.174,20.42,4.586,20.42
			z"/>
	</g>
</g>
<g id="panda_url" display="none">
	<g display="inline">
		<path fill="#A4A4A4" d="M16.297,21.32c0,0.873-0.712,1.584-1.587,1.584H5.188c-0.876,0-1.587-0.711-1.587-1.584v-9.513
			c0-0.875,0.711-1.586,1.587-1.586H8.09l2.54-2.537H5.188c-2.279,0-4.127,1.846-4.127,4.123v9.513c0,2.277,1.848,4.121,4.127,4.121
			h9.522c2.279,0,4.127-1.844,4.127-4.121v-5.385l-2.54,2.537V21.32z M20.175,3.456h-8.684c-1.597,0.002-1.486,0.431-0.644,1.271
			l2.726,2.724l-4.672,4.667c-0.97,0.966-0.969,2.535,0,3.501l2.039,2.039c0.969,0.965,2.536,0.965,3.505-0.002l4.673-4.667
			l2.675,2.671c0.932,0.932,1.276,0.955,1.276-0.639V6.347C23.068,3.441,23.089,3.455,20.175,3.456z"/>
	</g>
</g>
<g id="help" display="none">
	<g display="inline">
		<path fill="#A4A4A4" d="M18.301,7.856c-1.093-2.613-3.827-4.4-6.971-4.4c-5.195,0-7.245,4.4-7.52,6.737l4.102,0.55
			c0-0.55,0.547-3.162,3.418-3.162c1.776,0,2.733,0.963,3.144,1.925c0.138,0.275,0.41,1.237-0.273,1.925
			c-0.272,0.275-0.684,0.551-1.229,0.825c-1.504,0.825-3.691,2.2-3.691,6.325h4.102c0-1.375,0.409-2.063,1.641-2.75
			c0.684-0.412,1.503-0.825,2.187-1.513C18.849,12.669,19.259,10.193,18.301,7.856z M11.33,19.956c-1.511,0-2.734,1.229-2.734,2.75
			s1.224,2.75,2.734,2.75s2.733-1.229,2.733-2.75S12.841,19.956,11.33,19.956z"/>
	</g>
</g>
<g id="tick" display="none">
	<g display="inline">
		<path fill="#733CA6" d="M26.531,7.836c-0.691,0-1.25,0.567-1.25,1.267v1.276c-0.002,3.331-1.285,6.459-3.609,8.813
			c-2.324,2.352-5.412,3.645-8.697,3.645h-0.008C6.182,22.835,0.666,17.239,0.669,10.365c0.001-3.33,1.283-6.459,3.608-8.812
			c2.324-2.352,5.412-3.646,8.697-3.646h0.007c1.735,0.001,3.417,0.364,5,1.079c0.633,0.285,1.371-0.002,1.652-0.642
			c0.281-0.639-0.002-1.388-0.633-1.673c-1.906-0.861-3.932-1.298-6.019-1.299h-0.008c-3.952,0-7.669,1.558-10.465,4.388
			c-2.799,2.831-4.341,6.597-4.344,10.604c-0.002,4.006,1.536,7.774,4.331,10.61c2.796,2.834,6.514,4.396,10.469,4.398h0.009
			c3.951,0,7.667-1.557,10.464-4.387c2.799-2.832,4.342-6.598,4.344-10.605V9.103C27.783,8.403,27.223,7.836,26.531,7.836z
			 M28.771-2.875c-0.488-0.495-1.281-0.495-1.77,0L12.975,11.334L9.792,8.111c-0.488-0.495-1.281-0.495-1.77,0s-0.488,1.297,0,1.792
			l4.067,4.119c0.244,0.248,0.564,0.371,0.885,0.371c0.32,0,0.64-0.123,0.884-0.371L28.771-1.083
			C29.26-1.578,29.26-2.38,28.771-2.875z"/>
	</g>
</g>
<g id="setting" display="none">
	<g display="inline">
		<path fill="#8C8C8C" d="M22.476,18.202c0-0.627-0.514-1.138-1.145-1.138s-1.145,0.511-1.145,1.138s0.514,1.137,1.145,1.137
			S22.476,18.829,22.476,18.202z M20.864,18.202c0-0.256,0.21-0.464,0.467-0.464c0.258,0,0.467,0.208,0.467,0.464
			s-0.209,0.463-0.467,0.463C21.074,18.665,20.864,18.458,20.864,18.202z M23.417,15.985l-6.832-6.121l6.041-6.002
			c0.039-0.012,0.078-0.026,0.117-0.046l1.308-0.686c0.181-0.095,0.302-0.265,0.332-0.465s-0.034-0.398-0.179-0.542L22.731,0.66
			c-0.145-0.144-0.344-0.208-0.546-0.178s-0.372,0.15-0.468,0.33l-0.691,1.3c-0.02,0.038-0.035,0.077-0.047,0.117l-2.852,2.833
			c-0.133,0.131-0.133,0.345,0,0.477s0.348,0.132,0.48,0l2.616-2.599L21.91,3.62l-6.69,6.647l-0.686-0.681l2.92-2.902
			c0.133-0.131,0.133-0.345,0-0.477c-0.133-0.131-0.348-0.131-0.48,0l-2.119,2.105l-2.306-2.067c0.653-1.87,0.181-3.95-1.237-5.359
			C9.858-0.557,7.679-1.017,5.758-0.285C5.651-0.244,5.572-0.152,5.548-0.04S5.559,0.188,5.64,0.269l2.664,2.646
			c0.079,0.079,0.123,0.183,0.123,0.293c0,0.11-0.043,0.215-0.123,0.293L6.574,5.22C6.495,5.298,6.39,5.342,6.279,5.342
			c-0.112,0-0.216-0.043-0.295-0.122L3.32,2.574C3.238,2.493,3.122,2.458,3.009,2.482C2.896,2.506,2.804,2.584,2.763,2.691
			c-0.736,1.908-0.273,4.074,1.18,5.517c1.384,1.375,3.437,1.859,5.29,1.264l1.783,1.938c-0.086,0.166-0.197,0.322-0.334,0.458
			c-0.514,0.511-1.285,0.672-1.963,0.41c-0.125-0.048-0.268-0.019-0.363,0.075L4.2,16.481c-1.125,1.117-1.125,2.936,0,4.053
			c0.545,0.541,1.27,0.84,2.04,0.84s1.495-0.299,2.04-0.84l4.155-4.128c0.096-0.095,0.125-0.235,0.076-0.36
			c-0.264-0.674-0.102-1.439,0.412-1.95c0.515-0.511,1.285-0.671,1.963-0.409c0.126,0.048,0.268,0.018,0.363-0.076l0.783-0.779
			c0.236-0.234,0.367-0.546,0.367-0.877c0-0.332-0.131-0.645-0.367-0.879l-0.333-0.33l0.405-0.404l6.857,6.146
			c0.484,0.433,0.76,1.028,0.775,1.674c0.018,0.646-0.227,1.254-0.688,1.712c-0.457,0.455-1.067,0.697-1.714,0.683
			c-0.647-0.015-1.245-0.284-1.682-0.759l-5.099-5.539c-0.127-0.138-0.342-0.147-0.48-0.021c-0.138,0.125-0.146,0.339-0.021,0.477
			l5.099,5.539c0.563,0.612,1.333,0.959,2.168,0.979h0.069c0.809,0,1.565-0.312,2.14-0.881c0.593-0.59,0.908-1.373,0.887-2.205
			C24.395,17.31,24.04,16.544,23.417,15.985z M21.642,2.399l0.649-1.223l1.393,1.383l-1.23,0.646L21.642,2.399z M9.582,8.853
			C9.489,8.752,9.343,8.717,9.213,8.765C7.554,9.38,5.673,8.974,4.422,7.731c-1.136-1.128-1.576-2.765-1.188-4.29l2.27,2.255
			c0.207,0.206,0.482,0.319,0.775,0.319c0.292,0,0.568-0.113,0.775-0.319l1.73-1.719C8.991,3.772,9.104,3.5,9.104,3.208
			s-0.114-0.564-0.321-0.77l-2.27-2.255c1.534-0.385,3.181,0.052,4.317,1.181c1.283,1.274,1.677,3.18,1.004,4.855
			C11.782,6.35,11.817,6.5,11.923,6.594l2.451,2.197l-0.32,0.32L13.72,8.778c-0.236-0.234-0.549-0.364-0.883-0.364
			s-0.648,0.129-0.884,0.364l-0.784,0.779c-0.094,0.094-0.125,0.234-0.076,0.359c0.091,0.231,0.13,0.473,0.123,0.711L9.582,8.853z
			 M15.553,12.354l-0.635,0.631c-0.874-0.25-1.823-0.013-2.474,0.634c-0.651,0.646-0.891,1.591-0.639,2.458L7.8,20.058
			c-0.417,0.414-0.971,0.642-1.56,0.642s-1.143-0.228-1.56-0.642c-0.86-0.855-0.86-2.246,0-3.1l4.006-3.98
			c0.873,0.25,1.823,0.013,2.475-0.633c0.65-0.646,0.889-1.592,0.637-2.459l0.635-0.631c0.223-0.221,0.586-0.221,0.808,0l0.573,0.57
			l1.166,1.158l0.573,0.569C15.775,11.774,15.775,12.134,15.553,12.354z M9.366,14.251c-0.132-0.132-0.347-0.132-0.48,0
			l-3.214,3.193c-0.132,0.132-0.132,0.346,0,0.477c0.066,0.066,0.153,0.1,0.24,0.1s0.174-0.033,0.24-0.1l3.214-3.193
			C9.499,14.597,9.499,14.382,9.366,14.251z M10.073,15.431l-3.214,3.193c-0.132,0.133-0.132,0.346,0,0.477
			c0.066,0.066,0.153,0.1,0.24,0.1s0.174-0.033,0.24-0.1l3.214-3.193c0.133-0.131,0.133-0.345,0-0.477
			C10.421,15.3,10.206,15.3,10.073,15.431z"/>
	</g>
</g>
<g id="domain" display="none">
	<g display="inline">
		<path fill="#7AB428" d="M28.014,14.008c-0.375,0-0.624,0.246-0.624,0.615v3.682c0,0.98-0.874,1.84-1.873,1.84H5.539
			c-0.999,0-1.873-0.859-1.873-1.84V0.509H27.39v4.295c0,0.368,0.249,0.614,0.624,0.614s0.625-0.246,0.625-0.614v-7.363
			c0-1.718-1.374-3.068-3.122-3.068H5.539c-1.748,0-3.121,1.35-3.121,3.068v20.864c0,1.719,1.374,3.068,3.121,3.068h19.978
			c1.748,0,3.122-1.352,3.122-3.068v-3.682C28.639,14.254,28.389,14.008,28.014,14.008z M10.533-3.173
			c0.375,0,0.625,0.246,0.625,0.614s-0.25,0.613-0.625,0.613c-0.375,0-0.624-0.245-0.624-0.613S10.159-3.173,10.533-3.173z
			 M8.036-3.173c0.375,0,0.625,0.246,0.625,0.614s-0.25,0.613-0.625,0.613S7.412-2.191,7.412-2.559S7.662-3.173,8.036-3.173z
			 M5.539-3.173c0.375,0,0.625,0.246,0.625,0.614s-0.25,0.613-0.625,0.613c-0.375,0-0.624-0.245-0.624-0.613
			S5.165-3.173,5.539-3.173z M26.766,7.873c-0.375,0-0.625,0.246-0.625,0.614S26.391,9.1,26.766,9.1
			c0.374,0,0.624-0.246,0.624-0.614S27.14,7.873,26.766,7.873z M29.387,6.645c-0.374-0.123-0.623,0.123-0.748,0.491l-1.249,4.909
			c-0.125,0.368,0.125,0.613,0.499,0.736h0.125c0.25,0,0.5-0.246,0.625-0.491l1.248-4.909C30.012,7.014,29.762,6.768,29.387,6.645z
			 M31.885,6.645c-0.375-0.123-0.625,0.123-0.75,0.491l-1.248,4.909c-0.125,0.368,0.125,0.613,0.5,0.736h0.125
			c0.249,0,0.498-0.246,0.623-0.491l1.25-4.909C32.509,7.014,32.26,6.768,31.885,6.645z M26.766,10.327
			c-0.375,0-0.625,0.246-0.625,0.614s0.25,0.613,0.625,0.613c0.374,0,0.624-0.245,0.624-0.613S27.14,10.327,26.766,10.327z
			 M13.031,12.782c0.374,0,0.623-0.246,0.623-0.614V7.873h0.625c0.375,0,0.624-0.246,0.624-0.614s-0.249-0.614-0.624-0.614h-2.498
			c-0.375,0-0.624,0.246-0.624,0.614s0.25,0.614,0.624,0.614h0.625v4.295C12.406,12.536,12.656,12.782,13.031,12.782z M21.771,6.645
			c-0.375,0-0.625,0.246-0.625,0.614v4.909c0,0.368,0.25,0.614,0.625,0.614c0.374,0,0.623-0.246,0.623-0.614v-1.841h0.625
			c0.998,0,1.873-0.859,1.873-1.841c0-0.982-0.875-1.841-1.873-1.841H21.771z M23.645,8.486c0,0.368-0.25,0.614-0.625,0.614h-0.625
			V7.873h0.625C23.395,7.873,23.645,8.118,23.645,8.486z M18.025,12.782c0.374,0,0.624-0.246,0.624-0.614V7.873h0.624
			c0.375,0,0.625-0.246,0.625-0.614s-0.25-0.614-0.625-0.614h-2.497c-0.374,0-0.624,0.246-0.624,0.614s0.25,0.614,0.624,0.614H17.4
			v4.295C17.4,12.536,17.65,12.782,18.025,12.782z M9.285,12.782c0.375,0,0.625-0.246,0.625-0.614V7.259
			c0-0.368-0.25-0.614-0.625-0.614S8.661,6.891,8.661,7.259V9.1H6.163V7.259c0-0.368-0.25-0.614-0.625-0.614
			c-0.375,0-0.624,0.246-0.624,0.614v4.909c0,0.368,0.25,0.614,0.624,0.614c0.375,0,0.625-0.246,0.625-0.614v-1.841h2.498v1.841
			C8.661,12.536,8.91,12.782,9.285,12.782z"/>
	</g>
</g>
<g id="rename-site" display="none">
	<g display="inline">
		<path fill="#7AB428" d="M22.496-4.294l-1.119-0.31c-0.145-0.048-0.286-0.033-0.424,0.045c-0.139,0.079-0.232,0.197-0.28,0.355
			L13.942,19.3c-0.048,0.157-0.033,0.306,0.045,0.446c0.079,0.139,0.195,0.233,0.353,0.281l1.118,0.311
			c0.145,0.049,0.286,0.033,0.425-0.046c0.138-0.079,0.23-0.197,0.279-0.354l6.73-23.503c0.048-0.158,0.033-0.307-0.045-0.446
			S22.652-4.246,22.496-4.294z M12.409,0.294c0-0.158-0.061-0.297-0.181-0.419l-0.902-0.91c-0.12-0.121-0.259-0.182-0.415-0.182
			s-0.295,0.061-0.415,0.182L2.087,7.448C1.967,7.57,1.907,7.709,1.907,7.867c0,0.158,0.061,0.297,0.181,0.418l8.409,8.484
			c0.12,0.121,0.258,0.182,0.415,0.182s0.295-0.061,0.415-0.182l0.902-0.91c0.12-0.121,0.181-0.262,0.181-0.42
			c0-0.156-0.061-0.297-0.181-0.418L5.137,7.867l7.091-7.155C12.349,0.591,12.409,0.452,12.409,0.294z M34.748,7.448l-8.409-8.483
			c-0.12-0.122-0.259-0.182-0.415-0.182s-0.295,0.061-0.415,0.182l-0.901,0.91c-0.121,0.121-0.182,0.261-0.182,0.418
			c0,0.158,0.061,0.298,0.182,0.419l7.091,7.155l-7.091,7.154c-0.121,0.121-0.182,0.262-0.182,0.418c0,0.158,0.061,0.299,0.182,0.42
			l0.901,0.91c0.12,0.121,0.259,0.182,0.415,0.182s0.295-0.061,0.415-0.182l8.409-8.484c0.12-0.121,0.18-0.261,0.18-0.419
			S34.868,7.569,34.748,7.448z"/>
	</g>
</g>
<path fill="#7AB428" d="M21.926-4.13H8.716c-1.083,0-1.963,0.861-1.963,1.92v1.591H3.671c-1.083,0-1.963,0.861-1.963,1.92v16.642
	c0,1.061,0.88,1.92,1.963,1.92h17.017c1.083,0,1.963-0.859,1.963-1.92v-1.59h3.081c1.082,0,1.963-0.861,1.963-1.922V1.22
	L21.926-4.13z M10.172,14.117c-0.156,0.152-0.361,0.229-0.566,0.229c-0.205,0-0.41-0.078-0.566-0.229
	c-0.313-0.307-0.313-0.803,0-1.109l5.311-5.191h-3.176c-0.443,0-0.801-0.351-0.801-0.784c0-0.434,0.357-0.784,0.801-0.784h5.109
	c0.104,0,0.209,0.021,0.307,0.062c0.195,0.079,0.352,0.231,0.433,0.423c0.041,0.096,0.062,0.197,0.062,0.299v4.997
	c0,0.434-0.357,0.784-0.801,0.784s-0.801-0.351-0.801-0.784V8.923L10.172,14.117z M22.234-3.43l4.689,4.349h-3.033
	c-0.913,0-1.656-0.727-1.656-1.619V-3.43z M21.344,17.943c0,0.354-0.294,0.641-0.654,0.641H3.672c-0.361,0-0.654-0.287-0.654-0.641
	V1.301c0-0.354,0.293-0.64,0.654-0.64h3.081v13.771c0,1.061,0.88,1.922,1.963,1.922h12.628L21.344,17.943L21.344,17.943z"/>
</svg>
