<?xml version="1.0" encoding="utf-8"?>
<!-- Generator: Adobe Illustrator 16.0.0, SVG Export Plug-In . SVG Version: 6.00 Build 0)  -->
<!DOCTYPE svg PUBLIC "-//W3C//DTD SVG 1.1//EN" "http://www.w3.org/Graphics/SVG/1.1/DTD/svg11.dtd">
<svg version="1.1" id="Layer_1" xmlns="http://www.w3.org/2000/svg" xmlns:xlink="http://www.w3.org/1999/xlink" x="0px" y="0px"
	 width="25px" height="25px" viewBox="0 0 25 25" enable-background="new 0 0 25 25" xml:space="preserve">
<path fill="#A4A3A3" d="M12.5,0C6.661,0,1.868,4.558,1.49,10.303H0v7.324h4.428C4.8,21.754,8.278,25,12.5,25s7.7-3.246,8.072-7.373
	H25v-7.324h-1.49C23.132,4.558,18.338,0,12.5,0z M4.395,16.162h-2.93v-4.395h2.93V16.162z M19.14,16.895
	c0,0.787-0.138,1.542-0.39,2.242h-3.689c-0.303-0.853-1.117-1.466-2.073-1.466h-0.978c-1.212,0-2.198,0.986-2.198,2.198
	c0,1.212,0.986,2.199,2.198,2.199h0.978c0.956,0,1.77-0.613,2.073-1.466h2.945c-1.194,1.769-3.217,2.934-5.507,2.934
	c-3.662,0-6.641-2.979-6.641-6.64v-5.86c0-0.028,0.001-0.056,0.001-0.084c0.919,0.333,1.899,0.507,2.882,0.507
	c2.033,0,3.963-0.717,5.493-2.03c1.247,0.69,2.647,1.053,4.086,1.053c0.265,0,0.529-0.013,0.792-0.037
	c0.017,0.195,0.027,0.392,0.027,0.592L19.14,16.895L19.14,16.895z M13.722,19.869c0,0.405-0.329,0.734-0.733,0.734h-0.978
	c-0.404,0-0.733-0.329-0.733-0.734c0-0.404,0.329-0.733,0.733-0.733h0.978C13.393,19.136,13.722,19.465,13.722,19.869z M6.05,9.455
	c0.711-2.901,3.333-5.06,6.45-5.06c2.951,0,5.458,1.936,6.32,4.603c-0.166,0.012-0.333,0.018-0.499,0.018
	c-1.347,0-2.655-0.385-3.781-1.112l-0.492-0.318l-0.418,0.41c-1.313,1.288-3.049,1.997-4.887,1.997
	C7.804,9.993,6.9,9.812,6.05,9.455z M12.5,2.93c-4.222,0-7.7,3.246-8.072,7.373H2.958C3.333,5.366,7.469,1.465,12.5,1.465
	s9.167,3.901,9.542,8.838h-1.471C20.2,6.175,16.722,2.93,12.5,2.93z M23.535,16.162h-2.93v-4.395h2.93V16.162z"/>
</svg>
