<svg xmlns="http://www.w3.org/2000/svg" width="278" height="67.187" viewBox="0 0 278 67.187">
  <g id="Group_302" data-name="Group 302" transform="translate(-382 284)">
    <g id="Group_301" data-name="Group 301" transform="translate(382 -284)">
      <path id="Path_843" data-name="Path 843" d="M-692.945,831.986a13.234,13.234,0,0,1-4.118-2.992,11.7,11.7,0,0,1-2.628-5.3,16.028,16.028,0,0,1,2.256-11.074,39.748,39.748,0,0,1,7.837-9.109,20.142,20.142,0,0,0-2.552,6.72c4.966-6.146,11.762-10.156,19.058-14.07-4.607-5.388-9.616-12.012-14.223-17.4l3.044-2.927a45.854,45.854,0,0,0-16.882,9.292A35.979,35.979,0,0,1-693.528,782c-7.814,4.215-16.089,10.745-20.08,19.053a27.455,27.455,0,0,0,.394,23.81,18.09,18.09,0,0,1,.441-7.538,19.566,19.566,0,0,0,7.636,15,24.174,24.174,0,0,0,17,5.279,19.013,19.013,0,0,0,8.748-2.891,15.636,15.636,0,0,0,5.469-6.829A15.208,15.208,0,0,1-692.945,831.986Z" transform="translate(716.134 -772.254)" fill="#1a6ab4"/>
      <circle id="Ellipse_24" data-name="Ellipse 24" cx="13.062" cy="13.062" r="13.062" transform="translate(24.217 0)" fill="#0f265a"/>
      <path id="Path_844" data-name="Path 844" d="M-635.754,784.884l-4.092-2.75,1.773-5.163a11.571,11.571,0,0,0-4.873-3.72l-4.211,3.166-4.444-3.147a11.567,11.567,0,0,0-4.867,3.748l1.743,4.764-4.022,3.152a11.471,11.471,0,0,0,2.177,5.824l4.479-.164,1.626,4.445a11.535,11.535,0,0,0,3.4.452,11.562,11.562,0,0,0,2.964-.436l1.21-4.245,5.053-.185A11.472,11.472,0,0,0-635.754,784.884Zm-8.686,3.053-5.231.084-1.7-4.949,4.182-3.143,4.282,3.007Z" transform="translate(684.546 -770.833)" fill="#fff"/>
      <path id="Path_845" data-name="Path 845" d="M-703.215,806.253l-4.916,2.677,2.888,4.778-3.768-4.274-5.42,1.8,4.916-2.677-3.415-5.508,4.3,5Z" transform="translate(715.196 -787.234)" fill="#fff"/>
      <path id="Path_846" data-name="Path 846" d="M-707.364,832.635l-1.924.686.769,1.886-1.115-1.755-2.055.339,1.924-.685-.769-1.886,1.115,1.754Z" transform="translate(713.687 -802.742)" fill="#fff"/>
      <path id="Path_847" data-name="Path 847" d="M-663.288,900.362l-1.768,2.469,2.386,1.549-2.7-1.1-2.194,2.177,1.768-2.469-2.386-1.55,2.7,1.1Z" transform="translate(689.738 -840.8)" fill="#fff"/>
      <path id="Path_848" data-name="Path 848" d="M-693.987,885.795l-2.955,3.316,3.677,1.95-4.09-1.348-3.3,2.928,2.751-3.3-3.473-1.963,3.887,1.361Z" transform="translate(708.011 -832.782)" fill="#fff"/>
      <path id="Path_849" data-name="Path 849" d="M-676.575,907.408l-1.612,1.312,1.3,1.453-1.583-1.209-1.84,1.042,1.612-1.312-1.3-1.453,1.583,1.209Z" transform="translate(696.418 -844.586)" fill="#fff"/>
      <path id="Path_850" data-name="Path 850" d="M-671.478,819.026l-1.694.865.938,1.649-1.242-1.486-1.857.562,1.694-.865-.938-1.649,1.242,1.486Z" transform="translate(693.676 -795.521)" fill="#edeeef"/>
      <path id="Path_851" data-name="Path 851" d="M-674.895,804.685l-2.78,1.488,1.608,2.7-2.106-2.423-3.06.991,2.78-1.488-1.608-2.7,2.106,2.423Z" transform="translate(696.923 -787.348)" fill="#edeeef"/>
      <g id="Group_298" data-name="Group 298" transform="translate(22.481 29.973)">
        <path id="Path_852" data-name="Path 852" d="M-662.078,838.067v4.4h5.933v3.109h-5.933v6.755h-4.05V834.97h11.175v3.1Z" transform="translate(666.128 -834.779)" fill="#fff"/>
        <path id="Path_853" data-name="Path 853" d="M-622.756,852.328h-3.122a1.366,1.366,0,0,1-.846-.244,1.556,1.556,0,0,1-.489-.625l-1.025-3.026h-6.6l-1.025,3.026a1.446,1.446,0,0,1-.471.6,1.314,1.314,0,0,1-.84.268h-3.145l6.719-17.358h4.122Zm-6.4-6.636-1.608-4.753q-.179-.453-.382-1.066t-.4-1.328q-.179.727-.382,1.346t-.381,1.072l-1.6,4.729Z" transform="translate(651.921 -834.779)" fill="#fff"/>
        <path id="Path_854" data-name="Path 854" d="M-579.61,834.97v17.358h-2.1a1.822,1.822,0,0,1-.78-.149,1.9,1.9,0,0,1-.625-.518l-8.184-10.353q.047.465.065.9t.018.816v9.3h-3.55V834.97h2.121a3.476,3.476,0,0,1,.441.023,1.172,1.172,0,0,1,.322.09,1.066,1.066,0,0,1,.274.185,3.127,3.127,0,0,1,.3.322l8.256,10.424q-.06-.5-.084-.971t-.024-.888V834.97Z" transform="translate(626.847 -834.779)" fill="#fff"/>
        <path id="Path_855" data-name="Path 855" d="M-539.284,838.163h-4.885v14.165H-548.2V838.163h-4.885V834.97h13.8Z" transform="translate(603.903 -834.779)" fill="#fff"/>
        <path id="Path_856" data-name="Path 856" d="M-505.044,852.328h-3.122a1.366,1.366,0,0,1-.846-.244,1.55,1.55,0,0,1-.489-.625l-1.025-3.026h-6.6l-1.025,3.026a1.447,1.447,0,0,1-.471.6,1.315,1.315,0,0,1-.84.268H-522.6l6.719-17.358h4.122Zm-6.4-6.636-1.608-4.753q-.179-.453-.382-1.066t-.4-1.328q-.18.727-.382,1.346t-.381,1.072l-1.6,4.729Z" transform="translate(587.128 -834.779)" fill="#fff"/>
        <path id="Path_857" data-name="Path 857" d="M-469.109,838.262a1.522,1.522,0,0,1-.375.429.844.844,0,0,1-.506.143,1.24,1.24,0,0,1-.59-.173q-.315-.172-.715-.387a5.858,5.858,0,0,0-.911-.387,3.648,3.648,0,0,0-1.168-.173,2.513,2.513,0,0,0-1.686.482,1.642,1.642,0,0,0-.554,1.3,1.2,1.2,0,0,0,.334.87,2.865,2.865,0,0,0,.876.6,9.371,9.371,0,0,0,1.239.459q.7.208,1.424.465a12.745,12.745,0,0,1,1.423.6,4.743,4.743,0,0,1,1.239.882,4.115,4.115,0,0,1,.876,1.3,4.636,4.636,0,0,1,.334,1.853,6.038,6.038,0,0,1-.417,2.251,5.266,5.266,0,0,1-1.209,1.829,5.61,5.61,0,0,1-1.954,1.227,7.3,7.3,0,0,1-2.638.447,8.438,8.438,0,0,1-1.65-.167,9.774,9.774,0,0,1-1.626-.471,9.339,9.339,0,0,1-1.477-.721,6.214,6.214,0,0,1-1.2-.929l1.191-1.882a1.2,1.2,0,0,1,.375-.34.982.982,0,0,1,.506-.137,1.362,1.362,0,0,1,.721.226q.364.227.823.5a6.594,6.594,0,0,0,1.054.5,3.95,3.95,0,0,0,1.406.227,2.674,2.674,0,0,0,1.7-.483,1.836,1.836,0,0,0,.608-1.53,1.446,1.446,0,0,0-.334-.989,2.57,2.57,0,0,0-.876-.632,8.1,8.1,0,0,0-1.233-.441q-.691-.19-1.418-.423a10.378,10.378,0,0,1-1.418-.572,4.473,4.473,0,0,1-1.233-.894,4.173,4.173,0,0,1-.876-1.382,5.49,5.49,0,0,1-.334-2.043,4.849,4.849,0,0,1,.393-1.906,4.913,4.913,0,0,1,1.155-1.656,5.694,5.694,0,0,1,1.87-1.162,6.91,6.91,0,0,1,2.538-.435,9.549,9.549,0,0,1,1.555.125,8.155,8.155,0,0,1,1.435.37,7.889,7.889,0,0,1,1.269.583,5.855,5.855,0,0,1,1.054.769Z" transform="translate(563.702 -834.545)" fill="#fff"/>
        <path id="Path_858" data-name="Path 858" d="M-439.361,845.727v6.6h-4.027v-6.6l-6.29-10.757h3.55a1.283,1.283,0,0,1,.828.244,1.989,1.989,0,0,1,.506.625l2.454,5.052q.31.595.56,1.113t.441,1.019q.178-.513.411-1.031t.542-1.1l2.43-5.052a2.322,2.322,0,0,1,.2-.31,1.573,1.573,0,0,1,.28-.28,1.376,1.376,0,0,1,.369-.2,1.309,1.309,0,0,1,.459-.077h3.574Z" transform="translate(546.987 -834.779)" fill="#fff"/>
        <path id="Path_859" data-name="Path 859" d="M-388.786,838.067v4.4h5.933v3.109h-5.933v6.755h-4.05V834.97h11.175v3.1Z" transform="translate(515.699 -834.779)" fill="#fff"/>
        <path id="Path_860" data-name="Path 860" d="M-343.9,843.409a9.328,9.328,0,0,1-.649,3.5,8.445,8.445,0,0,1-1.829,2.818,8.389,8.389,0,0,1-2.841,1.876,9.669,9.669,0,0,1-3.687.679,9.714,9.714,0,0,1-3.693-.679,8.437,8.437,0,0,1-2.853-1.876,8.389,8.389,0,0,1-1.835-2.818,9.319,9.319,0,0,1-.649-3.5,9.316,9.316,0,0,1,.649-3.5,8.319,8.319,0,0,1,1.835-2.812,8.466,8.466,0,0,1,2.853-1.87,9.7,9.7,0,0,1,3.693-.68,9.594,9.594,0,0,1,3.687.685,8.515,8.515,0,0,1,2.841,1.876,8.384,8.384,0,0,1,1.829,2.812A9.3,9.3,0,0,1-343.9,843.409Zm-4.122,0a7.516,7.516,0,0,0-.334-2.317,4.911,4.911,0,0,0-.959-1.745,4.134,4.134,0,0,0-1.531-1.1,5.272,5.272,0,0,0-2.061-.381,5.346,5.346,0,0,0-2.079.381,4.127,4.127,0,0,0-1.537,1.1,4.9,4.9,0,0,0-.959,1.745,7.507,7.507,0,0,0-.333,2.317,7.544,7.544,0,0,0,.333,2.329,4.893,4.893,0,0,0,.959,1.745,4.066,4.066,0,0,0,1.537,1.091,5.424,5.424,0,0,0,2.079.375,5.349,5.349,0,0,0,2.061-.375,4.072,4.072,0,0,0,1.531-1.091,4.9,4.9,0,0,0,.959-1.745A7.553,7.553,0,0,0-348.021,843.409Z" transform="translate(498.69 -834.545)" fill="#fff"/>
        <path id="Path_861" data-name="Path 861" d="M-297.286,843.409a9.327,9.327,0,0,1-.649,3.5,8.444,8.444,0,0,1-1.829,2.818,8.391,8.391,0,0,1-2.842,1.876,9.669,9.669,0,0,1-3.687.679,9.715,9.715,0,0,1-3.693-.679,8.436,8.436,0,0,1-2.853-1.876,8.376,8.376,0,0,1-1.835-2.818,9.318,9.318,0,0,1-.65-3.5,9.315,9.315,0,0,1,.65-3.5,8.307,8.307,0,0,1,1.835-2.812,8.465,8.465,0,0,1,2.853-1.87,9.7,9.7,0,0,1,3.693-.68,9.594,9.594,0,0,1,3.687.685,8.517,8.517,0,0,1,2.842,1.876,8.383,8.383,0,0,1,1.829,2.812A9.294,9.294,0,0,1-297.286,843.409Zm-4.122,0a7.519,7.519,0,0,0-.334-2.317,4.912,4.912,0,0,0-.959-1.745,4.13,4.13,0,0,0-1.531-1.1,5.272,5.272,0,0,0-2.061-.381,5.349,5.349,0,0,0-2.079.381,4.131,4.131,0,0,0-1.537,1.1,4.91,4.91,0,0,0-.959,1.745,7.5,7.5,0,0,0-.334,2.317,7.541,7.541,0,0,0,.334,2.329,4.9,4.9,0,0,0,.959,1.745,4.069,4.069,0,0,0,1.537,1.091,5.428,5.428,0,0,0,2.079.375,5.349,5.349,0,0,0,2.061-.375,4.069,4.069,0,0,0,1.531-1.091,4.9,4.9,0,0,0,.959-1.745A7.556,7.556,0,0,0-301.408,843.409Z" transform="translate(473.033 -834.545)" fill="#fff"/>
        <path id="Path_862" data-name="Path 862" d="M-256.557,838.163h-4.885v14.165h-4.027V838.163h-4.885V834.97h13.8Z" transform="translate(448.28 -834.779)" fill="#fff"/>
        <path id="Path_863" data-name="Path 863" d="M-225.3,834.97a12.157,12.157,0,0,1,3.062.333,5.851,5.851,0,0,1,2.061.941,3.573,3.573,0,0,1,1.161,1.478,4.987,4.987,0,0,1,.363,1.941,3.813,3.813,0,0,1-.167,1.126,3.239,3.239,0,0,1-.524,1.013,4.084,4.084,0,0,1-.917.863,5.752,5.752,0,0,1-1.346.68,4.8,4.8,0,0,1,2.538,1.346,3.5,3.5,0,0,1,.822,2.406,4.97,4.97,0,0,1-.429,2.061,4.732,4.732,0,0,1-1.257,1.663,5.971,5.971,0,0,1-2.043,1.107,8.875,8.875,0,0,1-2.776.4h-6.934V834.97Zm-2.359,3.014v4.289h2.1a6.884,6.884,0,0,0,1.2-.1,2.5,2.5,0,0,0,.911-.334,1.528,1.528,0,0,0,.572-.655,2.454,2.454,0,0,0,.2-1.048,2.96,2.96,0,0,0-.155-1.031,1.477,1.477,0,0,0-.477-.661,2.012,2.012,0,0,0-.816-.357,5.639,5.639,0,0,0-1.174-.107Zm2.836,11.306a3.552,3.552,0,0,0,1.3-.2,2.054,2.054,0,0,0,.792-.524,1.755,1.755,0,0,0,.393-.726,3.2,3.2,0,0,0,.107-.822,2.746,2.746,0,0,0-.125-.858,1.418,1.418,0,0,0-.429-.644,2.09,2.09,0,0,0-.8-.405,4.69,4.69,0,0,0-1.263-.143h-2.812v4.324Z" transform="translate(426.999 -834.779)" fill="#fff"/>
        <path id="Path_864" data-name="Path 864" d="M-180.29,852.328h-3.121a1.366,1.366,0,0,1-.846-.244,1.551,1.551,0,0,1-.489-.625l-1.025-3.026h-6.6l-1.025,3.026a1.446,1.446,0,0,1-.471.6,1.315,1.315,0,0,1-.84.268h-3.145l6.719-17.358h4.122Zm-6.4-6.636-1.608-4.753q-.179-.453-.382-1.066t-.4-1.328q-.179.727-.382,1.346t-.381,1.072l-1.6,4.729Z" transform="translate(408.372 -834.779)" fill="#fff"/>
        <path id="Path_865" data-name="Path 865" d="M-141.836,849.111v3.216H-152.3V834.97h4.027v14.141Z" transform="translate(383.297 -834.779)" fill="#fff"/>
        <path id="Path_866" data-name="Path 866" d="M-110.568,849.111v3.216h-10.46V834.97H-117v14.141Z" transform="translate(366.086 -834.779)" fill="#fff"/>
      </g>
      <g id="Group_300" data-name="Group 300" transform="translate(178.341 54.469)">
        <g id="Group_299" data-name="Group 299">
          <path id="Path_867" data-name="Path 867" d="M-311.6,891.7a1.084,1.084,0,0,1-.269.307.6.6,0,0,1-.363.1.891.891,0,0,1-.423-.124l-.512-.278a4.332,4.332,0,0,0-.654-.277,2.619,2.619,0,0,0-.837-.124,1.8,1.8,0,0,0-1.208.346,1.178,1.178,0,0,0-.4.936.864.864,0,0,0,.239.624,2.057,2.057,0,0,0,.628.427,6.643,6.643,0,0,0,.888.329q.5.15,1.021.333a9.221,9.221,0,0,1,1.021.432,3.408,3.408,0,0,1,.888.632,2.951,2.951,0,0,1,.628.936,3.321,3.321,0,0,1,.239,1.328,4.317,4.317,0,0,1-.3,1.614,3.771,3.771,0,0,1-.867,1.311,4.022,4.022,0,0,1-1.4.88,5.245,5.245,0,0,1-1.892.32,6.073,6.073,0,0,1-1.183-.12,7.066,7.066,0,0,1-1.166-.337,6.792,6.792,0,0,1-1.059-.517,4.467,4.467,0,0,1-.863-.666l.854-1.35a.857.857,0,0,1,.269-.244.7.7,0,0,1,.363-.1.977.977,0,0,1,.517.162c.174.109.37.228.589.359a4.778,4.778,0,0,0,.756.359,2.841,2.841,0,0,0,1.007.162,1.918,1.918,0,0,0,1.222-.346,1.318,1.318,0,0,0,.435-1.1,1.039,1.039,0,0,0-.239-.709,1.849,1.849,0,0,0-.628-.452,5.86,5.86,0,0,0-.884-.317q-.495-.136-1.016-.3a7.444,7.444,0,0,1-1.016-.411,3.2,3.2,0,0,1-.884-.64,3.012,3.012,0,0,1-.628-.991,3.943,3.943,0,0,1-.239-1.465,3.476,3.476,0,0,1,.282-1.367,3.518,3.518,0,0,1,.829-1.187,4.061,4.061,0,0,1,1.341-.832,4.944,4.944,0,0,1,1.819-.312,6.869,6.869,0,0,1,1.114.089,5.876,5.876,0,0,1,1.03.265,5.722,5.722,0,0,1,.909.419,4.194,4.194,0,0,1,.756.551Z" transform="translate(319.438 -889.033)" fill="#1a6ab4"/>
          <path id="Path_868" data-name="Path 868" d="M-286.229,898.394a.59.59,0,0,1,.2.039.564.564,0,0,1,.2.132l1.145,1.2a4.756,4.756,0,0,1-1.883,1.482,6.594,6.594,0,0,1-2.678.5,6.374,6.374,0,0,1-2.541-.483,5.49,5.49,0,0,1-1.9-1.332,5.864,5.864,0,0,1-1.2-2.016,7.445,7.445,0,0,1-.419-2.533,7,7,0,0,1,.453-2.558,5.936,5.936,0,0,1,1.272-2.012,5.732,5.732,0,0,1,1.965-1.315,6.574,6.574,0,0,1,2.52-.47,6.7,6.7,0,0,1,1.319.124,6.428,6.428,0,0,1,1.158.341,5.367,5.367,0,0,1,.991.525,5.209,5.209,0,0,1,.8.667L-285.8,892a1.222,1.222,0,0,1-.222.218.578.578,0,0,1-.359.1.645.645,0,0,1-.291-.068,3.3,3.3,0,0,1-.29-.166l-.338-.214a2.6,2.6,0,0,0-.436-.214,3.655,3.655,0,0,0-.589-.167,4.079,4.079,0,0,0-.79-.068,3.184,3.184,0,0,0-1.311.265,2.852,2.852,0,0,0-1.025.773,3.576,3.576,0,0,0-.667,1.247,5.56,5.56,0,0,0-.235,1.687,5.117,5.117,0,0,0,.261,1.7,3.723,3.723,0,0,0,.708,1.251,3,3,0,0,0,1.047.773,3.125,3.125,0,0,0,1.281.265,6.038,6.038,0,0,0,.717-.039,3.222,3.222,0,0,0,.607-.128,2.491,2.491,0,0,0,.53-.239,3.379,3.379,0,0,0,.5-.38,1.008,1.008,0,0,1,.222-.141A.584.584,0,0,1-286.229,898.394Z" transform="translate(306.157 -889.033)" fill="#1a6ab4"/>
          <path id="Path_869" data-name="Path 869" d="M-255.7,895.388a6.692,6.692,0,0,1-.465,2.511,6.048,6.048,0,0,1-1.311,2.02,6.017,6.017,0,0,1-2.038,1.346,6.923,6.923,0,0,1-2.643.487,6.959,6.959,0,0,1-2.648-.487,6.045,6.045,0,0,1-2.046-1.346,6.013,6.013,0,0,1-1.316-2.02,6.692,6.692,0,0,1-.465-2.511,6.693,6.693,0,0,1,.465-2.511,5.971,5.971,0,0,1,1.316-2.016,6.072,6.072,0,0,1,2.046-1.341,6.955,6.955,0,0,1,2.648-.487,6.871,6.871,0,0,1,2.643.491,6.107,6.107,0,0,1,2.038,1.345,6.011,6.011,0,0,1,1.311,2.016A6.668,6.668,0,0,1-255.7,895.388Zm-2.955,0a5.371,5.371,0,0,0-.24-1.661,3.519,3.519,0,0,0-.687-1.252,2.98,2.98,0,0,0-1.1-.786,3.783,3.783,0,0,0-1.478-.273,3.836,3.836,0,0,0-1.491.273,2.968,2.968,0,0,0-1.1.786,3.52,3.52,0,0,0-.687,1.252,5.359,5.359,0,0,0-.24,1.661,5.388,5.388,0,0,0,.24,1.67,3.515,3.515,0,0,0,.687,1.252,2.914,2.914,0,0,0,1.1.781,3.875,3.875,0,0,0,1.491.269,3.821,3.821,0,0,0,1.478-.269,2.925,2.925,0,0,0,1.1-.781,3.515,3.515,0,0,0,.687-1.252A5.4,5.4,0,0,0-258.655,895.388Z" transform="translate(291.473 -889.033)" fill="#1a6ab4"/>
          <path id="Path_870" data-name="Path 870" d="M-226.5,891.626H-230v10.156h-2.887V891.626h-3.5v-2.289h9.891Z" transform="translate(273.725 -889.2)" fill="#1a6ab4"/>
          <path id="Path_871" data-name="Path 871" d="M-201.169,899.476v2.306h-7.5V889.337h2.887v10.139Z" transform="translate(258.467 -889.2)" fill="#1a6ab4"/>
          <path id="Path_872" data-name="Path 872" d="M-176.831,901.782h-2.238a.977.977,0,0,1-.606-.175,1.1,1.1,0,0,1-.35-.448l-.735-2.169h-4.733l-.734,2.169a1.041,1.041,0,0,1-.338.431.942.942,0,0,1-.6.192h-2.255l4.818-12.445h2.955Zm-4.587-4.758-1.153-3.409q-.128-.324-.273-.764t-.29-.952q-.128.521-.273.965t-.273.769l-1.145,3.391Z" transform="translate(247.873 -889.2)" fill="#1a6ab4"/>
          <path id="Path_873" data-name="Path 873" d="M-145.9,889.337v12.445h-1.5a1.309,1.309,0,0,1-.559-.107,1.363,1.363,0,0,1-.449-.371l-5.868-7.423c.022.222.038.438.047.645s.013.4.013.585v6.671h-2.545V889.337h1.52a2.475,2.475,0,0,1,.316.017.8.8,0,0,1,.231.064.773.773,0,0,1,.2.132,2.205,2.205,0,0,1,.214.231l5.919,7.474c-.029-.239-.049-.472-.06-.7s-.017-.437-.017-.637v-6.585Z" transform="translate(229.895 -889.2)" fill="#1a6ab4"/>
          <path id="Path_874" data-name="Path 874" d="M-113.473,895.555a6.518,6.518,0,0,1-.466,2.49,5.831,5.831,0,0,1-1.311,1.974,5.948,5.948,0,0,1-2.037,1.3,7.2,7.2,0,0,1-2.644.466h-4.835V889.337h4.835a7.156,7.156,0,0,1,2.644.47,6.028,6.028,0,0,1,2.037,1.3,5.78,5.78,0,0,1,1.311,1.969A6.5,6.5,0,0,1-113.473,895.555Zm-2.956,0a5.416,5.416,0,0,0-.239-1.666,3.562,3.562,0,0,0-.688-1.26,2.988,2.988,0,0,0-1.1-.794,3.716,3.716,0,0,0-1.478-.278h-1.93v8h1.93a3.725,3.725,0,0,0,1.478-.278,2.981,2.981,0,0,0,1.1-.794,3.558,3.558,0,0,0,.688-1.26A5.447,5.447,0,0,0-116.429,895.555Z" transform="translate(212.284 -889.2)" fill="#1a6ab4"/>
        </g>
      </g>
    </g>
  </g>
</svg>
