<?xml version="1.0" encoding="utf-8"?>
<!-- Generator: Adobe Illustrator 16.0.0, SVG Export Plug-In . SVG Version: 6.00 Build 0)  -->
<!DOCTYPE svg PUBLIC "-//W3C//DTD SVG 1.1//EN" "http://www.w3.org/Graphics/SVG/1.1/DTD/svg11.dtd">
<svg version="1.1" id="Layer_1" xmlns="http://www.w3.org/2000/svg" xmlns:xlink="http://www.w3.org/1999/xlink" x="0px" y="0px"
	 width="27.292px" height="28px" viewBox="5.125 -6.417 27.292 28" enable-background="new 5.125 -6.417 27.292 28"
	 xml:space="preserve">
<path id="svg2" display="none" fill="#A4A3A3" d="M12.5,0C6.661,0,1.868,4.558,1.49,10.303H0v7.324h4.428
	C4.8,21.754,8.278,25,12.5,25c4.223,0,7.7-3.246,8.072-7.373H25v-7.324h-1.49C23.132,4.558,18.338,0,12.5,0z M4.395,16.162h-2.93
	v-4.395h2.93V16.162z M19.141,16.895c0,0.787-0.139,1.543-0.391,2.242h-3.689c-0.303-0.853-1.117-1.466-2.073-1.466H12.01
	c-1.212,0-2.198,0.986-2.198,2.198s0.986,2.199,2.198,2.199h0.978c0.956,0,1.77-0.613,2.073-1.467h2.945
	c-1.193,1.77-3.217,2.935-5.507,2.935c-3.662,0-6.641-2.979-6.641-6.64v-5.86c0-0.028,0.001-0.056,0.001-0.084
	c0.919,0.333,1.899,0.507,2.882,0.507c2.033,0,3.963-0.717,5.493-2.03c1.246,0.69,2.646,1.053,4.086,1.053
	c0.265,0,0.529-0.013,0.791-0.037c0.018,0.195,0.027,0.392,0.027,0.592L19.141,16.895L19.141,16.895z M13.723,19.869
	c0,0.404-0.33,0.734-0.733,0.734h-0.979c-0.404,0-0.733-0.33-0.733-0.734s0.329-0.733,0.733-0.733h0.979
	C13.393,19.136,13.723,19.465,13.723,19.869z M6.05,9.455c0.711-2.901,3.333-5.06,6.45-5.06c2.951,0,5.458,1.936,6.32,4.603
	c-0.166,0.012-0.334,0.018-0.5,0.018c-1.346,0-2.654-0.385-3.78-1.112l-0.492-0.318l-0.418,0.41
	c-1.313,1.288-3.049,1.997-4.887,1.997C7.804,9.993,6.9,9.812,6.05,9.455z M12.5,2.93c-4.222,0-7.7,3.246-8.072,7.373h-1.47
	C3.333,5.366,7.469,1.465,12.5,1.465s9.167,3.901,9.542,8.838H20.57C20.2,6.175,16.723,2.93,12.5,2.93z M23.535,16.162h-2.93v-4.395
	h2.93V16.162z"/>
<g id="svg3" display="none">
	<g display="inline">
		<path fill="#A3A3A3" d="M11.581,10.478c0,1.42,0.727,2.678,1.835,3.422l0.005-0.969v-2.443c0-0.034,0-0.068,0.005-0.098
			c0.069-1.244,1.098-2.208,2.364-2.208c1.281,0,2.325,1.008,2.369,2.267l0.376,3.114c0.86-0.758,1.405-1.86,1.405-3.084
			c0-2.281-1.875-4.137-4.18-4.137c-0.871,0-1.678,0.264-2.345,0.715L8.049,3.154c0.148-0.421,0.232-0.876,0.232-1.346
			c0-2.287-1.87-4.137-4.18-4.137s-4.18,1.851-4.18,4.137c0,2.286,1.87,4.137,4.18,4.137c0.93,0,1.781-0.303,2.473-0.808
			l5.293,3.848C11.685,9.45,11.581,9.954,11.581,10.478z M4.102,3.805c-1.113,0-2.018-0.891-2.018-1.997
			c0-1.102,0.905-1.998,2.018-1.998S6.12,0.706,6.12,1.808C6.12,2.909,5.214,3.805,4.102,3.805z M23.853,18.043
			c-0.05-0.436-0.307-0.818-0.688-1.043c-2.483-1.445-5.604-1.959-5.604-1.959l-0.549-4.519c0-0.671-0.549-1.209-1.222-1.209
			c-0.663,0-1.202,0.524-1.222,1.175v2.453l-0.05,6.952l-1.444-1.102c0,0-1.449-1.268-2.849-0.4
			c-0.326,0.199-0.405,0.637-0.168,0.934c0.425,0.525,2.875,3.416,3.865,4.346c0,0,1.585,2.842,3.493,2.65
			c2.885-0.287,6.507-3.65,6.507-3.65C24.269,21.299,23.946,18.859,23.853,18.043z"/>
	</g>
</g>
<g id="svg2_1_" display="none">
	<path display="inline" fill="#A3A3A3" d="M0.089,4.084L0.09,23.087l14.999-0.004v-17l-2-2H0.089z M14.089,22.083h-13v-17
		l10.998-0.055v2.043l2.002,0.012V22.083L14.089,22.083z"/>
	<path display="inline" fill="#A3A3A3" d="M3.089,1.084v3h1l-0.016-2.02l11.016,0.02v2h2v14.999h-1v1h2V3.084l-2-2H3.089z"/>
	<path display="inline" fill="#A3A3A3" d="M18.184-1.919L5.089-1.916v2h2v-1h10v2h3v14.999l-0.949,0.055l-0.051,0.945h2L21.08,0.765
		L18.184-1.919z"/>
</g>
<g id="svg4" display="none">
	<g display="inline">
		<path fill="#9E9E9E" d="M22.276,0.867H3.39c-1.686,0-3.057,1.369-3.057,3.053v12.894c0,1.684,1.371,3.053,3.057,3.053h18.882
			c1.686,0,3.057-1.369,3.057-3.053V3.925C25.333,2.241,23.963,0.867,22.276,0.867z M22.276,18.473H3.39
			c-0.915,0-1.66-0.744-1.66-1.658V3.925c0-0.914,0.745-1.658,1.66-1.658h18.882c0.916,0,1.66,0.744,1.66,1.658v12.889h0.005
			C23.937,17.729,23.192,18.473,22.276,18.473z M16.097,10.207l6.113-5.476c0.284-0.258,0.31-0.698,0.052-0.987
			c-0.259-0.284-0.698-0.31-0.988-0.052l-8.43,7.557l-1.645-1.467c-0.006-0.005-0.011-0.01-0.011-0.016
			c-0.036-0.035-0.072-0.066-0.113-0.098L4.383,3.688c-0.29-0.259-0.729-0.232-0.988,0.057C3.137,4.034,3.162,4.473,3.452,4.731
			l6.185,5.522l-6.159,5.76C3.198,16.277,3.183,16.716,3.446,17c0.14,0.145,0.326,0.223,0.513,0.223c0.17,0,0.341-0.063,0.476-0.187
			l6.252-5.843l1.696,1.514c0.135,0.119,0.301,0.176,0.466,0.176c0.166,0,0.336-0.063,0.466-0.181l1.742-1.56l6.217,5.898
			c0.135,0.129,0.311,0.191,0.48,0.191c0.187,0,0.367-0.072,0.508-0.217c0.264-0.279,0.253-0.723-0.026-0.986L16.097,10.207z"/>
	</g>
</g>
<g display="none">
	<g display="inline">
		<path fill="#9E9E9E" d="M25.429,19.061V2.028c0-0.641-0.524-1.161-1.172-1.161H1.601c-0.647,0-1.172,0.52-1.172,1.161v17.032
			c0,0.214-0.216,0.807,0,0.807h9v3l-1.188-0.322c-0.216,0-0.391,0.173-0.391,0.387v1.161H7.069v0.774h11.719v-0.774h-0.781v-1.161
			c0-0.214-0.175-0.387-0.391-0.387l-1.188,0.322v-3c0,0,8.609-0.42,8.733-0.027C25.477,20.15,25.447,19.334,25.429,19.061z
			 M17.226,23.318v0.774H8.632v-0.774H17.226z M10.429,22.867v-3h5v3H10.429z M24.429,18.867h-23v-4h23V18.867z M19.429,4.867h-4
			c0.034,0.063,0,0.786,0,1l0.234,2.355h0.781l-0.016-2.355h2v1h-1v1h1v2h-1v1h1v1h-1v1h1v1h-2v-2h-1v2h-1v-1
			c0-1.58,1.607-2.314,1.689-2.328c0.048-0.008,0.094-0.025,0.136-0.05c0.186-0.109,0.245-0.347,0.135-0.531l-2.96-6.091h9v10h-3v-8
			C19.429,5.653,19.426,5.336,19.429,4.867z M15.449,9.912c-0.852,0.283-1.833,0.725-2.021,1.956h-2c-0.188-1.231-0.149-1.716-1-2
			l2-4v4h1v-4L15.449,9.912z M13.429,13.867h-2v-1h1.891L13.429,13.867z M8.688,9.958C8.663,10,8.646,10.045,8.638,10.093
			c-0.036,0.211,0.106,0.411,0.319,0.446c0.083,0.014,1.472,0.749,1.472,2.328v1h-1v-2h-1v-4h1L9.413,7.061
			C9.101,7.008,9.449,6.915,9.429,6.867L8.21,4.198C8.17,4.107,8.097,4.035,8.005,3.995C7.806,3.911,7.576,4.002,7.491,4.198
			l-1.172,2.71C6.299,6.956,6.429,6.814,6.429,6.867v7h-3v-10h9L8.688,9.958z M7.429,6.867l0.422-1.535l0.578,1.535H7.429z
			 M24.647,2.028l-0.219,11.839h-1l0.047-10.678c0-0.213,0.169-0.322-0.047-0.322h-21c-0.216,0-0.047,0.109-0.047,0.322
			l0.047,10.678h-1v-12h23c0.116,0.084,0.185,0.117,0.224,0.128C24.65,2.005,24.647,2.012,24.647,2.028z M12.929,17.899
			c0.647,0,1.172-0.521,1.172-1.161c0-0.642-0.524-1.162-1.172-1.162s-1.172,0.521-1.172,1.162
			C11.757,17.379,12.281,17.899,12.929,17.899z M12.929,16.352c0.216,0,0.391,0.173,0.391,0.387s-0.175,0.387-0.391,0.387
			s-0.391-0.173-0.391-0.387S12.713,16.352,12.929,16.352z"/>
	</g>
</g>
<g id="clipboard" display="none">
	<g display="inline">
		<path fill="#A4A4A4" d="M18.779,0.9H5.641c-0.96,0-2.12,0.026-2.12,1v3L2.262,4.786c-0.96,0-1.741,0.792-1.741,1.766v17.582
			c0,0.975,0.781,1.766,1.741,1.766h14.259c0.96,0,1-1.025,1-2v-2l1.259,0.115c0.96,0,1.741-0.793,1.741-1.766V2.666
			C20.521,1.692,19.739,0.9,18.779,0.9z M15.521,23.898h-13V6.9h13V23.898z M18.521,19.898h-1V6.9c0-0.974-1.04-2-2-2h-10v-2h13
			V19.898z M4.586,10.196h8.489c0.412,0,0.746-0.339,0.746-0.757s-0.334-0.757-0.746-0.757H4.586c-0.412,0-0.746,0.339-0.746,0.757
			S4.174,10.196,4.586,10.196z M4.586,13.604h8.489c0.412,0,0.746-0.34,0.746-0.757s-0.334-0.756-0.746-0.756H4.586
			c-0.412,0-0.746,0.338-0.746,0.756S4.174,13.604,4.586,13.604z M4.586,17.012h8.489c0.412,0,0.746-0.338,0.746-0.758
			c0-0.418-0.334-0.756-0.746-0.756H4.586c-0.412,0-0.746,0.338-0.746,0.756C3.84,16.674,4.174,17.012,4.586,17.012z M4.586,20.42
			h8.489c0.412,0,0.746-0.338,0.746-0.756s-0.334-0.758-0.746-0.758H4.586c-0.412,0-0.746,0.34-0.746,0.758S4.174,20.42,4.586,20.42
			z"/>
	</g>
</g>
<g id="panda_url" display="none">
	<g display="inline">
		<path fill="#A4A4A4" d="M16.297,21.32c0,0.873-0.712,1.584-1.587,1.584H5.188c-0.876,0-1.587-0.711-1.587-1.584v-9.513
			c0-0.875,0.711-1.586,1.587-1.586H8.09l2.54-2.537H5.188c-2.279,0-4.127,1.846-4.127,4.123v9.513c0,2.277,1.848,4.121,4.127,4.121
			h9.522c2.279,0,4.127-1.844,4.127-4.121v-5.385l-2.54,2.537V21.32z M20.175,3.456h-8.684c-1.597,0.002-1.486,0.431-0.644,1.271
			l2.726,2.724l-4.672,4.667c-0.97,0.966-0.969,2.535,0,3.501l2.039,2.039c0.969,0.965,2.536,0.965,3.505-0.002l4.673-4.667
			l2.675,2.671c0.932,0.932,1.276,0.955,1.276-0.639V6.347C23.068,3.441,23.089,3.455,20.175,3.456z"/>
	</g>
</g>
<g id="help" display="none">
	<g display="inline">
		<path fill="#A4A4A4" d="M18.301,7.856c-1.093-2.613-3.827-4.4-6.971-4.4c-5.195,0-7.245,4.4-7.52,6.737l4.102,0.55
			c0-0.55,0.547-3.162,3.418-3.162c1.776,0,2.733,0.963,3.144,1.925c0.138,0.275,0.41,1.237-0.273,1.925
			c-0.272,0.275-0.684,0.551-1.229,0.825c-1.504,0.825-3.691,2.2-3.691,6.325h4.102c0-1.375,0.409-2.063,1.641-2.75
			c0.684-0.412,1.503-0.825,2.187-1.513C18.849,12.669,19.259,10.193,18.301,7.856z M11.33,19.956c-1.511,0-2.734,1.229-2.734,2.75
			s1.224,2.75,2.734,2.75s2.733-1.229,2.733-2.75S12.841,19.956,11.33,19.956z"/>
	</g>
</g>
<g id="tick" display="none">
	<g display="inline">
		<path fill="#733CA6" d="M26.531,7.836c-0.691,0-1.25,0.567-1.25,1.267v1.276c-0.002,3.331-1.285,6.459-3.609,8.813
			c-2.324,2.352-5.412,3.645-8.697,3.645h-0.008C6.182,22.835,0.666,17.239,0.669,10.365c0.001-3.33,1.283-6.459,3.608-8.812
			c2.324-2.352,5.412-3.646,8.697-3.646h0.007c1.735,0.001,3.417,0.364,5,1.079c0.633,0.285,1.371-0.002,1.652-0.642
			c0.281-0.639-0.002-1.388-0.633-1.673c-1.906-0.861-3.932-1.298-6.019-1.299h-0.008c-3.952,0-7.669,1.558-10.465,4.388
			c-2.799,2.831-4.341,6.597-4.344,10.604c-0.002,4.006,1.536,7.774,4.331,10.61c2.796,2.834,6.514,4.396,10.469,4.398h0.009
			c3.951,0,7.667-1.557,10.464-4.387c2.799-2.832,4.342-6.598,4.344-10.605V9.103C27.783,8.403,27.223,7.836,26.531,7.836z
			 M28.771-2.875c-0.488-0.495-1.281-0.495-1.77,0L12.975,11.334L9.792,8.111c-0.488-0.495-1.281-0.495-1.77,0s-0.488,1.297,0,1.792
			l4.067,4.119c0.244,0.248,0.564,0.371,0.885,0.371c0.32,0,0.64-0.123,0.884-0.371L28.771-1.083
			C29.26-1.578,29.26-2.38,28.771-2.875z"/>
	</g>
</g>
<g id="setting" display="none">
	<g display="inline">
		<path fill="#8C8C8C" d="M22.476,18.202c0-0.627-0.514-1.138-1.145-1.138s-1.145,0.511-1.145,1.138s0.514,1.137,1.145,1.137
			S22.476,18.829,22.476,18.202z M20.864,18.202c0-0.256,0.21-0.464,0.467-0.464c0.258,0,0.467,0.208,0.467,0.464
			s-0.209,0.463-0.467,0.463C21.074,18.665,20.864,18.458,20.864,18.202z M23.417,15.985l-6.832-6.121l6.041-6.002
			c0.039-0.012,0.078-0.026,0.117-0.046l1.308-0.686c0.181-0.095,0.302-0.265,0.332-0.465s-0.034-0.398-0.179-0.542L22.731,0.66
			c-0.145-0.144-0.344-0.208-0.546-0.178s-0.372,0.15-0.468,0.33l-0.691,1.3c-0.02,0.038-0.035,0.077-0.047,0.117l-2.852,2.833
			c-0.133,0.131-0.133,0.345,0,0.477s0.348,0.132,0.48,0l2.616-2.599L21.91,3.62l-6.69,6.647l-0.686-0.681l2.92-2.902
			c0.133-0.131,0.133-0.345,0-0.477c-0.133-0.131-0.348-0.131-0.48,0l-2.119,2.105l-2.306-2.067c0.653-1.87,0.181-3.95-1.237-5.359
			C9.858-0.557,7.679-1.017,5.758-0.285C5.651-0.244,5.572-0.152,5.548-0.04S5.559,0.188,5.64,0.269l2.664,2.646
			c0.079,0.079,0.123,0.183,0.123,0.293c0,0.11-0.043,0.215-0.123,0.293L6.574,5.22C6.495,5.298,6.39,5.342,6.279,5.342
			c-0.112,0-0.216-0.043-0.295-0.122L3.32,2.574C3.238,2.493,3.122,2.458,3.009,2.482C2.896,2.506,2.804,2.584,2.763,2.691
			c-0.736,1.908-0.273,4.074,1.18,5.517c1.384,1.375,3.437,1.859,5.29,1.264l1.783,1.938c-0.086,0.166-0.197,0.322-0.334,0.458
			c-0.514,0.511-1.285,0.672-1.963,0.41c-0.125-0.048-0.268-0.019-0.363,0.075L4.2,16.481c-1.125,1.117-1.125,2.936,0,4.053
			c0.545,0.541,1.27,0.84,2.04,0.84s1.495-0.299,2.04-0.84l4.155-4.128c0.096-0.095,0.125-0.235,0.076-0.36
			c-0.264-0.674-0.102-1.439,0.412-1.95c0.515-0.511,1.285-0.671,1.963-0.409c0.126,0.048,0.268,0.018,0.363-0.076l0.783-0.779
			c0.236-0.234,0.367-0.546,0.367-0.877c0-0.332-0.131-0.645-0.367-0.879l-0.333-0.33l0.405-0.404l6.857,6.146
			c0.484,0.433,0.76,1.028,0.775,1.674c0.018,0.646-0.227,1.254-0.688,1.712c-0.457,0.455-1.067,0.697-1.714,0.683
			c-0.647-0.015-1.245-0.284-1.682-0.759l-5.099-5.539c-0.127-0.138-0.342-0.147-0.48-0.021c-0.138,0.125-0.146,0.339-0.021,0.477
			l5.099,5.539c0.563,0.612,1.333,0.959,2.168,0.979h0.069c0.809,0,1.565-0.312,2.14-0.881c0.593-0.59,0.908-1.373,0.887-2.205
			C24.395,17.31,24.04,16.544,23.417,15.985z M21.642,2.399l0.649-1.223l1.393,1.383l-1.23,0.646L21.642,2.399z M9.582,8.853
			C9.489,8.752,9.343,8.717,9.213,8.765C7.554,9.38,5.673,8.974,4.422,7.731c-1.136-1.128-1.576-2.765-1.188-4.29l2.27,2.255
			c0.207,0.206,0.482,0.319,0.775,0.319c0.292,0,0.568-0.113,0.775-0.319l1.73-1.719C8.991,3.772,9.104,3.5,9.104,3.208
			s-0.114-0.564-0.321-0.77l-2.27-2.255c1.534-0.385,3.181,0.052,4.317,1.181c1.283,1.274,1.677,3.18,1.004,4.855
			C11.782,6.35,11.817,6.5,11.923,6.594l2.451,2.197l-0.32,0.32L13.72,8.778c-0.236-0.234-0.549-0.364-0.883-0.364
			s-0.648,0.129-0.884,0.364l-0.784,0.779c-0.094,0.094-0.125,0.234-0.076,0.359c0.091,0.231,0.13,0.473,0.123,0.711L9.582,8.853z
			 M15.553,12.354l-0.635,0.631c-0.874-0.25-1.823-0.013-2.474,0.634c-0.651,0.646-0.891,1.591-0.639,2.458L7.8,20.058
			c-0.417,0.414-0.971,0.642-1.56,0.642s-1.143-0.228-1.56-0.642c-0.86-0.855-0.86-2.246,0-3.1l4.006-3.98
			c0.873,0.25,1.823,0.013,2.475-0.633c0.65-0.646,0.889-1.592,0.637-2.459l0.635-0.631c0.223-0.221,0.586-0.221,0.808,0l0.573,0.57
			l1.166,1.158l0.573,0.569C15.775,11.774,15.775,12.134,15.553,12.354z M9.366,14.251c-0.132-0.132-0.347-0.132-0.48,0
			l-3.214,3.193c-0.132,0.132-0.132,0.346,0,0.477c0.066,0.066,0.153,0.1,0.24,0.1s0.174-0.033,0.24-0.1l3.214-3.193
			C9.499,14.597,9.499,14.382,9.366,14.251z M10.073,15.431l-3.214,3.193c-0.132,0.133-0.132,0.346,0,0.477
			c0.066,0.066,0.153,0.1,0.24,0.1s0.174-0.033,0.24-0.1l3.214-3.193c0.133-0.131,0.133-0.345,0-0.477
			C10.421,15.3,10.206,15.3,10.073,15.431z"/>
	</g>
</g>
<g id="domain" display="none">
	<g display="inline">
		<path fill="#7AB428" d="M28.014,14.008c-0.375,0-0.624,0.246-0.624,0.615v3.682c0,0.98-0.874,1.84-1.873,1.84H5.539
			c-0.999,0-1.873-0.859-1.873-1.84V0.509H27.39v4.295c0,0.368,0.249,0.614,0.624,0.614s0.625-0.246,0.625-0.614v-7.363
			c0-1.718-1.374-3.068-3.122-3.068H5.539c-1.748,0-3.121,1.35-3.121,3.068v20.864c0,1.719,1.374,3.068,3.121,3.068h19.978
			c1.748,0,3.122-1.352,3.122-3.068v-3.682C28.639,14.254,28.389,14.008,28.014,14.008z M10.533-3.173
			c0.375,0,0.625,0.246,0.625,0.614s-0.25,0.613-0.625,0.613c-0.375,0-0.624-0.245-0.624-0.613S10.159-3.173,10.533-3.173z
			 M8.036-3.173c0.375,0,0.625,0.246,0.625,0.614s-0.25,0.613-0.625,0.613S7.412-2.191,7.412-2.559S7.662-3.173,8.036-3.173z
			 M5.539-3.173c0.375,0,0.625,0.246,0.625,0.614s-0.25,0.613-0.625,0.613c-0.375,0-0.624-0.245-0.624-0.613
			S5.165-3.173,5.539-3.173z M26.766,7.873c-0.375,0-0.625,0.246-0.625,0.614S26.391,9.1,26.766,9.1
			c0.374,0,0.624-0.246,0.624-0.614S27.14,7.873,26.766,7.873z M29.387,6.645c-0.374-0.123-0.623,0.123-0.748,0.491l-1.249,4.909
			c-0.125,0.368,0.125,0.613,0.499,0.736h0.125c0.25,0,0.5-0.246,0.625-0.491l1.248-4.909C30.012,7.014,29.762,6.768,29.387,6.645z
			 M31.885,6.645c-0.375-0.123-0.625,0.123-0.75,0.491l-1.248,4.909c-0.125,0.368,0.125,0.613,0.5,0.736h0.125
			c0.249,0,0.498-0.246,0.623-0.491l1.25-4.909C32.509,7.014,32.26,6.768,31.885,6.645z M26.766,10.327
			c-0.375,0-0.625,0.246-0.625,0.614s0.25,0.613,0.625,0.613c0.374,0,0.624-0.245,0.624-0.613S27.14,10.327,26.766,10.327z
			 M13.031,12.782c0.374,0,0.623-0.246,0.623-0.614V7.873h0.625c0.375,0,0.624-0.246,0.624-0.614s-0.249-0.614-0.624-0.614h-2.498
			c-0.375,0-0.624,0.246-0.624,0.614s0.25,0.614,0.624,0.614h0.625v4.295C12.406,12.536,12.656,12.782,13.031,12.782z M21.771,6.645
			c-0.375,0-0.625,0.246-0.625,0.614v4.909c0,0.368,0.25,0.614,0.625,0.614c0.374,0,0.623-0.246,0.623-0.614v-1.841h0.625
			c0.998,0,1.873-0.859,1.873-1.841c0-0.982-0.875-1.841-1.873-1.841H21.771z M23.645,8.486c0,0.368-0.25,0.614-0.625,0.614h-0.625
			V7.873h0.625C23.395,7.873,23.645,8.118,23.645,8.486z M18.025,12.782c0.374,0,0.624-0.246,0.624-0.614V7.873h0.624
			c0.375,0,0.625-0.246,0.625-0.614s-0.25-0.614-0.625-0.614h-2.497c-0.374,0-0.624,0.246-0.624,0.614s0.25,0.614,0.624,0.614H17.4
			v4.295C17.4,12.536,17.65,12.782,18.025,12.782z M9.285,12.782c0.375,0,0.625-0.246,0.625-0.614V7.259
			c0-0.368-0.25-0.614-0.625-0.614S8.661,6.891,8.661,7.259V9.1H6.163V7.259c0-0.368-0.25-0.614-0.625-0.614
			c-0.375,0-0.624,0.246-0.624,0.614v4.909c0,0.368,0.25,0.614,0.624,0.614c0.375,0,0.625-0.246,0.625-0.614v-1.841h2.498v1.841
			C8.661,12.536,8.91,12.782,9.285,12.782z"/>
	</g>
</g>
<g id="rename-site" display="none">
	<g display="inline">
		<path fill="#7AB428" d="M22.496-4.294l-1.119-0.31c-0.145-0.048-0.286-0.033-0.424,0.045c-0.139,0.079-0.232,0.197-0.28,0.355
			L13.942,19.3c-0.048,0.157-0.033,0.306,0.045,0.446c0.079,0.139,0.195,0.233,0.353,0.281l1.118,0.311
			c0.145,0.049,0.286,0.033,0.425-0.046c0.138-0.079,0.23-0.197,0.279-0.354l6.73-23.503c0.048-0.158,0.033-0.307-0.045-0.446
			S22.652-4.246,22.496-4.294z M12.409,0.294c0-0.158-0.061-0.297-0.181-0.419l-0.902-0.91c-0.12-0.121-0.259-0.182-0.415-0.182
			s-0.295,0.061-0.415,0.182L2.087,7.448C1.967,7.57,1.907,7.709,1.907,7.867c0,0.158,0.061,0.297,0.181,0.418l8.409,8.484
			c0.12,0.121,0.258,0.182,0.415,0.182s0.295-0.061,0.415-0.182l0.902-0.91c0.12-0.121,0.181-0.262,0.181-0.42
			c0-0.156-0.061-0.297-0.181-0.418L5.137,7.867l7.091-7.155C12.349,0.591,12.409,0.452,12.409,0.294z M34.748,7.448l-8.409-8.483
			c-0.12-0.122-0.259-0.182-0.415-0.182s-0.295,0.061-0.415,0.182l-0.901,0.91c-0.121,0.121-0.182,0.261-0.182,0.418
			c0,0.158,0.061,0.298,0.182,0.419l7.091,7.155l-7.091,7.154c-0.121,0.121-0.182,0.262-0.182,0.418c0,0.158,0.061,0.299,0.182,0.42
			l0.901,0.91c0.12,0.121,0.259,0.182,0.415,0.182s0.295-0.061,0.415-0.182l8.409-8.484c0.12-0.121,0.18-0.261,0.18-0.419
			S34.868,7.569,34.748,7.448z"/>
	</g>
</g>
<path id="duplicate-site" display="none" fill="#7AB428" d="M21.926-4.13H8.716c-1.083,0-1.963,0.861-1.963,1.92v1.591H3.671
	c-1.083,0-1.963,0.861-1.963,1.92v16.642c0,1.061,0.88,1.92,1.963,1.92h17.017c1.083,0,1.963-0.859,1.963-1.92v-1.59h3.081
	c1.082,0,1.963-0.861,1.963-1.922V1.22L21.926-4.13z M10.172,14.117c-0.156,0.152-0.361,0.229-0.566,0.229
	c-0.205,0-0.41-0.078-0.566-0.229c-0.313-0.307-0.313-0.803,0-1.109l5.311-5.191h-3.176c-0.443,0-0.801-0.351-0.801-0.784
	c0-0.434,0.357-0.784,0.801-0.784h5.109c0.104,0,0.209,0.021,0.307,0.062c0.195,0.079,0.352,0.231,0.433,0.423
	c0.041,0.096,0.062,0.197,0.062,0.299v4.997c0,0.434-0.357,0.784-0.801,0.784s-0.801-0.351-0.801-0.784V8.923L10.172,14.117z
	 M22.234-3.43l4.689,4.349h-3.033c-0.913,0-1.656-0.727-1.656-1.619V-3.43z M21.344,17.943c0,0.354-0.294,0.641-0.654,0.641H3.672
	c-0.361,0-0.654-0.287-0.654-0.641V1.301c0-0.354,0.293-0.64,0.654-0.64h3.081v13.771c0,1.061,0.88,1.922,1.963,1.922h12.628
	L21.344,17.943L21.344,17.943z"/>
<g id="statistics" display="none">
	<g display="inline">
		<path fill="#9E9E9E" d="M10.144,12.888l-1.588,1.629c-0.226,0.229-0.407,0.68-0.407,1.006v4.24h2.404v-6.701
			C10.552,12.735,10.37,12.657,10.144,12.888z M20.702,8.869l-1.589,1.63c-0.225,0.23-0.407,0.681-0.407,1.007v8.257h2.404V9.041
			C21.11,8.715,20.928,8.638,20.702,8.869z M24.052,5.438l-1.42,1.451c-0.225,0.23-0.408,0.681-0.408,1.006v11.867h2.235V5.611
			C24.459,5.286,24.276,5.208,24.052,5.438z M17.183,12.476l-1.518,1.552c0,0-0.107,0.111-0.24,0.247
			c-0.131,0.136-0.238,0.511-0.238,0.835v4.652h2.403v-7.114C17.59,12.324,17.407,12.246,17.183,12.476z M13.298,14.03l-1.223-1.252
			c-0.226-0.229-0.408-0.152-0.408,0.173v6.812h2.404v-4.355c0-0.326-0.174-0.766-0.387-0.983L13.298,14.03z M6.623,16.494
			L5.53,17.616l-0.776,0.795c-0.225,0.23-0.406,0.627-0.406,0.885v0.467H7.03v-3.096C7.03,16.341,6.848,16.263,6.623,16.494z
			 M26.614-4.228h-8.181c-0.317,0-0.395,0.187-0.169,0.417l2.91,2.982l-1.188,1.21l-5.504,5.643l-2.912-2.981
			c-0.225-0.23-0.59-0.23-0.814,0L2.66,11.341c-0.899,0.922-0.899,2.416,0.001,3.336l0.056,0.058c0.899,0.922,2.358,0.922,3.257,0
			l5.188-5.317l2.912,2.979c0.226,0.229,0.59,0.229,0.814,0l9.6-9.831l2.868,2.937c0.224,0.231,0.407,0.153,0.407-0.172v-8.427
			C27.765-3.7,27.2-4.228,26.614-4.228z"/>
	</g>
</g>
<g display="none">
	<g display="inline">
		<path fill="#7AB428" d="M25.187,4.969c2.595,0,4.706-2.153,4.706-4.8s-2.111-4.8-4.706-4.8s-4.706,2.153-4.706,4.8
			S22.592,4.969,25.187,4.969z M25.187-3.154c1.796,0,3.259,1.491,3.259,3.323s-1.463,3.323-3.259,3.323s-3.258-1.491-3.258-3.323
			S23.391-3.154,25.187-3.154z M25.187,6.741c-2.489,0-4.863,1.092-6.513,2.997c-0.265,0.306-0.236,0.772,0.063,1.042
			c0.3,0.27,0.757,0.241,1.021-0.064c1.214-1.401,2.898-2.274,4.704-2.459v0.729c0,0.408,0.324,0.738,0.724,0.738
			s0.724-0.331,0.724-0.738v-0.73c3.654,0.372,6.516,3.525,6.516,7.347c0,0.408,0.324,0.738,0.725,0.738s0.725-0.33,0.725-0.738
			C33.875,10.716,29.977,6.741,25.187,6.741z M10.562,4.969c2.594,0,4.706-2.153,4.706-4.8s-2.111-4.8-4.706-4.8
			c-2.595,0-4.706,2.153-4.706,4.8S7.967,4.969,10.562,4.969z M10.562-3.154c1.796,0,3.258,1.491,3.258,3.323
			s-1.462,3.323-3.258,3.323S7.304,2.001,7.304,0.169S8.766-3.154,10.562-3.154z M10.562,6.741c-4.79,0-8.688,3.975-8.688,8.861
			c0,0.408,0.324,0.738,0.724,0.738c0.4,0,0.724-0.33,0.724-0.738c0-3.822,2.863-6.976,6.516-7.347v0.73
			c0,0.408,0.324,0.739,0.724,0.739s0.724-0.331,0.724-0.739v-0.73c3.653,0.372,6.517,3.525,6.517,7.347
			c0,0.408,0.324,0.738,0.723,0.738c0.4,0,0.725-0.33,0.725-0.738C19.25,10.716,15.353,6.741,10.562,6.741z M10.562,10.462
			c-0.4,0-0.724,0.331-0.724,0.738v4.431c0,0.408,0.324,0.738,0.724,0.738s0.724-0.33,0.724-0.738V11.2
			C11.286,10.792,10.962,10.462,10.562,10.462z M25.187,10.462c-0.399,0-0.724,0.331-0.724,0.738v4.431
			c0,0.408,0.324,0.738,0.724,0.738s0.724-0.33,0.724-0.738V11.2C25.91,10.792,25.586,10.462,25.187,10.462z"/>
	</g>
</g>
<g id="setting_1_" display="none">
	<g display="inline">
		<path fill="#7AB428" d="M18.571,8.529V-3.872c0-0.421-0.334-0.759-0.752-0.759s-0.752,0.337-0.752,0.759V8.529
			c-1.744,0.354-3.064,1.912-3.064,3.778s1.32,3.424,3.064,3.777v5.521c0,0.422,0.334,0.759,0.752,0.759s0.752-0.337,0.752-0.759
			v-5.521c1.744-0.354,3.064-1.911,3.064-3.777C21.636,10.446,20.321,8.883,18.571,8.529z M17.819,14.64
			c-1.276,0-2.313-1.046-2.313-2.333s1.036-2.333,2.313-2.333c1.275,0,2.313,1.046,2.313,2.333S19.095,14.64,17.819,14.64z
			 M9.361,2.166v-6.038c0-0.421-0.334-0.759-0.752-0.759S7.856-4.293,7.856-3.872v6.038C6.112,2.52,4.792,4.077,4.792,5.943
			c0,1.866,1.32,3.423,3.064,3.777v11.884c0,0.422,0.334,0.759,0.752,0.759s0.752-0.337,0.752-0.759V9.715
			c1.744-0.354,3.064-1.912,3.064-3.778S11.105,2.52,9.361,2.166z M8.608,8.276c-1.276,0-2.313-1.045-2.313-2.333
			c0-1.288,1.037-2.333,2.313-2.333s2.313,1.045,2.313,2.333C10.921,7.23,9.879,8.276,8.608,8.276z M27.727,2.166v-6.038
			c0-0.421-0.335-0.759-0.752-0.759c-0.418,0-0.753,0.337-0.753,0.759v6.038c-1.744,0.354-3.064,1.911-3.064,3.778
			c0,1.866,1.32,3.423,3.064,3.777v11.89c0,0.421,0.335,0.759,0.753,0.759c0.417,0,0.752-0.338,0.752-0.759V9.715
			c1.744-0.354,3.065-1.912,3.065-3.778S29.477,2.52,27.727,2.166z M26.975,8.276c-1.276,0-2.313-1.045-2.313-2.333
			c0-1.288,1.036-2.333,2.313-2.333s2.312,1.045,2.312,2.333C29.286,7.23,28.251,8.276,26.975,8.276z"/>
	</g>
</g>
<g display="none">
	<g display="inline">
		<path fill="#7AB428" d="M17.729,1.981c-4.345,0-7.896,3.551-7.896,7.897c0,2.272,0.994,4.459,2.67,5.938
			c1.249,1.25,1.136,3.92,1.107,3.949c0,0.141,0.028,0.254,0.142,0.369c0.087,0.084,0.229,0.141,0.342,0.141h7.242
			c0.143,0,0.256-0.057,0.342-0.141c0.084-0.086,0.141-0.229,0.141-0.369c0-0.029-0.141-2.699,1.108-3.949
			c0.028-0.029,0.057-0.057,0.085-0.086c1.647-1.506,2.614-3.636,2.614-5.852C25.627,5.533,22.076,1.981,17.729,1.981z
			 M22.274,15.076c-0.028,0.029-0.085,0.086-0.085,0.115c-1.107,1.191-1.306,3.152-1.336,4.09h-6.276
			c-0.028-0.938-0.227-2.982-1.42-4.205c-1.505-1.307-2.386-3.209-2.386-5.226c0-3.835,3.097-6.932,6.93-6.932
			c3.835,0,6.931,3.097,6.931,6.932C24.632,11.867,23.779,13.77,22.274,15.076z M17.701,3.999c-0.255,0-0.483,0.227-0.483,0.482
			s0.229,0.483,0.483,0.483c2.869,0,5.17,2.329,5.17,5.17c0,0.256,0.227,0.483,0.483,0.483c0.255,0,0.482-0.227,0.482-0.483
			C23.866,6.754,21.11,3.999,17.701,3.999z M20.854,20.814h-6.305c-0.652,0-1.192,0.541-1.192,1.195c0,0.652,0.54,1.191,1.192,1.191
			h6.276c0.684-0.027,1.221-0.539,1.221-1.191C22.046,21.355,21.509,20.814,20.854,20.814z M20.854,22.207h-6.305
			c-0.113,0-0.228-0.084-0.228-0.227s0.086-0.229,0.228-0.229h6.276c0.115,0,0.229,0.086,0.229,0.229S20.969,22.207,20.854,22.207z
			 M19.917,23.686h-4.432c-0.652,0-1.192,0.539-1.192,1.191c0,0.654,0.54,1.193,1.192,1.193h4.432c0.653,0,1.193-0.539,1.193-1.193
			C21.11,24.197,20.57,23.686,19.917,23.686z M19.917,25.076h-4.432c-0.113,0-0.227-0.086-0.227-0.227
			c0-0.143,0.085-0.227,0.227-0.227h4.432c0.113,0,0.227,0.084,0.227,0.227C20.144,24.99,20.03,25.076,19.917,25.076z M17.701-0.376
			c0.285,0,0.483-0.228,0.483-0.483v-3.295c0-0.256-0.227-0.483-0.483-0.483c-0.255,0-0.483,0.227-0.483,0.483v3.295
			C17.218-0.604,17.446-0.376,17.701-0.376z M25.74-2.194c-0.229-0.17-0.512-0.085-0.653,0.114L23.27,0.646
			c-0.172,0.227-0.115,0.54,0.113,0.682c0.085,0.057,0.17,0.085,0.255,0.085c0.17,0,0.313-0.085,0.398-0.227l1.817-2.728
			C26.023-1.74,25.967-2.052,25.74-2.194z M11.936,1.3c0.086,0,0.171-0.028,0.256-0.085c0.228-0.142,0.284-0.455,0.143-0.682
			l-1.761-2.756c-0.143-0.227-0.455-0.284-0.682-0.142C9.664-2.223,9.606-1.91,9.749-1.683l1.761,2.755
			C11.623,1.243,11.766,1.3,11.936,1.3z M8.5,4.311L5.63,2.749C5.403,2.635,5.091,2.72,4.978,2.947
			c-0.143,0.228-0.057,0.54,0.199,0.654l2.868,1.562C8.13,5.191,8.187,5.22,8.272,5.22c0.17,0,0.341-0.085,0.426-0.255
			C8.812,4.737,8.727,4.425,8.5,4.311z M30.455,2.947c-0.113-0.227-0.427-0.312-0.653-0.198l-2.897,1.562
			c-0.228,0.114-0.313,0.426-0.199,0.654c0.086,0.17,0.256,0.255,0.426,0.255c0.085,0,0.17-0.028,0.227-0.057l2.897-1.562
			C30.483,3.487,30.568,3.175,30.455,2.947z"/>
	</g>
</g>
<g display="none">
	<g display="inline">
		<path fill="#ADADAD" d="M25.291,1.733c-0.621,0-1.125,0.488-1.125,1.091s0.504,1.091,1.125,1.091s1.125-0.488,1.125-1.091
			S25.912,1.733,25.291,1.733z M24.729-0.449c-1.564,0-2.908,0.896-3.542,2.182h-10.52c-1.241,0-2.25,0.979-2.25,2.182v2.182
			c0,1.203,1.009,2.182,2.25,2.182h6.75v1.636c0,0.302,0.252,0.546,0.563,0.546h1.688c0.15,0,0.293-0.058,0.398-0.16l3.418-3.313
			c0.404,0.134,0.823,0.201,1.246,0.201c2.172,0,3.938-1.713,3.938-3.818C28.666,1.264,26.9-0.449,24.729-0.449z M10.667,7.188
			c-0.62,0-1.125-0.49-1.125-1.091V3.915c0-0.602,0.505-1.091,1.125-1.091h10.181c-0.026,0.18-0.057,0.358-0.057,0.545
			c0,0.411,0.07,0.816,0.208,1.209l-2.69,2.609H10.667z M24.729,6.097c-0.393,0-0.78-0.083-1.152-0.246
			c-0.212-0.092-0.463-0.049-0.629,0.111l-3.514,3.407h-0.893V8.504l3.514-3.407c0.166-0.16,0.211-0.403,0.115-0.609
			c-0.168-0.361-0.254-0.738-0.254-1.118c0-1.504,1.262-2.728,2.813-2.728s2.813,1.224,2.813,2.728S26.279,6.097,24.729,6.097z
			 M29.791-2.631h-22.5c-1.241,0-2.25,0.979-2.25,2.182v15.272c0,1.204,1.009,2.183,2.25,2.183h7.876
			c-0.024,0.871-0.197,2.266-0.838,2.92c-0.236,0.24-0.507,0.353-0.852,0.353c-0.311,0-0.563,0.244-0.563,0.545
			c0,0.302,0.252,0.546,0.563,0.546h10.125c0.312,0,0.563-0.244,0.563-0.546c0-0.301-0.251-0.545-0.563-0.545
			c-0.344,0-0.615-0.112-0.851-0.353c-0.642-0.654-0.813-2.049-0.838-2.92h7.876c1.241,0,2.25-0.979,2.25-2.183V-0.449
			C32.041-1.652,31.032-2.631,29.791-2.631z M15.469,20.278c0.68-1.01,0.811-2.464,0.828-3.272h4.49
			c0.017,0.809,0.148,2.263,0.827,3.272H15.469z M30.916,14.823c0,0.602-0.504,1.091-1.125,1.091h-22.5
			c-0.62,0-1.125-0.489-1.125-1.091v-2.182h24.75V14.823z M30.916,11.551H6.167v-12c0-0.601,0.505-1.091,1.125-1.091h22.5
			c0.621,0,1.125,0.49,1.125,1.091V11.551z M18.541,15.369c0.621,0,1.125-0.488,1.125-1.091s-0.504-1.091-1.125-1.091
			s-1.125,0.488-1.125,1.091S17.92,15.369,18.541,15.369z"/>
	</g>
</g>
<path id="user" fill="#949494" d="M30.066,14.712l-0.101-0.027c-1.462-0.391-1.956-0.763-2.606-1.008
	c-2.307-0.871-2.908-1.498-3.061-1.795c-0.006-0.01-0.01-0.022-0.016-0.033L24.27,9.851c1.234-1.637,2.116-3.679,2.116-5.795
	c0,0,0.833-3.518-1.159-6.828l-0.001-0.015c-0.002,0-0.005,0-0.008,0.001c-0.431-0.715-0.995-1.419-1.728-2.077
	c-0.768-0.687-2.659-1.553-4.941-1.553c-1.562,0-3.307,0.406-4.998,1.553C10.269-2.637,10.6,2.978,10.6,2.978
	s0.229,0.058,0.643,0.111c-0.03,0.314-0.045,0.637-0.045,0.966c0,2.116,0.882,4.159,2.117,5.795l-0.016,1.998
	c-0.004,0.011-0.009,0.023-0.014,0.033c-0.154,0.297-0.754,0.924-3.062,1.795c-0.65,0.246-1.145,0.617-2.606,1.008l-0.101,0.027
	c-1.33,0.437-2.225,1.658-2.225,3.037v3.834h10.6h2.9h2.987h0.59h5.889h4.033v-3.834C32.291,16.37,31.396,15.148,30.066,14.712z
	 M24.66-1.32c0.324,0.731,0.542,1.524,0.647,2.36c0.017,0.131,0.03,0.258,0.04,0.383c-0.189-0.352-0.397-0.651-0.631-0.913
	c-0.258-0.29-0.547-0.527-0.862-0.71C24.093-0.771,24.393-1.114,24.66-1.32z M12.011,0.064c0.171-0.86,0.425-1.619,0.756-2.257
	c0.383-0.741,0.871-1.315,1.448-1.708c1.32-0.896,2.779-1.349,4.334-1.349c2.008,0,3.611,0.768,4.15,1.251
	c0.549,0.492,1.018,1.042,1.402,1.641c-0.468,0.31-0.985,0.843-1.355,1.758c-0.193-0.033-0.393-0.05-0.596-0.05
	c-0.879,0-1.826,0.294-2.896,0.9c-2.576,1.458-4.96,1.765-6.506,1.765c-0.37,0-0.695-0.018-0.965-0.042
	C11.806,1.463,11.867,0.789,12.011,0.064z M16.043,20.416H6.469v-2.667c0-0.869,0.562-1.639,1.398-1.922l0.066-0.02
	c1.102-0.293,1.709-0.582,2.199-0.814c0.189-0.088,0.352-0.167,0.511-0.227c0.87-0.328,1.955-0.781,2.752-1.357l2.502,1.295
	l0.432-0.361l0.305,1.507L16.043,20.416z M14.26,12.54c0.025-0.041,0.051-0.084,0.073-0.126c0.021-0.04,0.036-0.075,0.044-0.095
	l0.098-0.216l0.002-0.247l0.006-0.674c0.635,0.622,1.311,1.141,1.977,1.521l-0.719,0.603L14.26,12.54z M18.792,20.416h-1.563
	l0.528-4.083h2.066l0.596,4.083H18.792z M17.355,13.481l0.287-0.241c0.402,0.132,0.789,0.202,1.149,0.202
	c0.378,0,0.788-0.079,1.214-0.224l0.234,0.198l-0.354,1.749h-2.191L17.355,13.481z M18.792,12.274c-0.488,0-1.13-0.219-1.806-0.615
	c-0.756-0.446-1.514-1.083-2.189-1.847c-1.539-1.737-2.422-3.835-2.422-5.756c0-0.298,0.015-0.591,0.043-0.877
	c0.107,0.003,0.216,0.004,0.33,0.004c1.724,0,4.308-0.343,7.09-1.918c0.938-0.53,1.695-0.747,2.313-0.747
	c1.482,0,2.154,1.247,2.559,2.375c0.138,0.386,0.311,0.652,0.492,0.834c0.004,0.108,0.008,0.218,0.008,0.329
	c0,1.921-0.883,4.02-2.422,5.756c-0.677,0.764-1.434,1.402-2.19,1.847C19.92,12.056,19.279,12.274,18.792,12.274z M23.346,12.575
	l-1.412,0.732l-0.756-0.635c0.648-0.379,1.305-0.885,1.923-1.49l0.005,0.674l0.002,0.247l0.098,0.216
	c0.009,0.019,0.023,0.054,0.045,0.095C23.278,12.469,23.311,12.522,23.346,12.575z M27.08,20.416h-3.533v-1.165h3.533V20.416z
	 M31.113,20.416h-2.855v-2.333h-1.766c0-0.322-0.264-0.582-0.59-0.582h-1.178c-0.324,0-0.589,0.26-0.589,0.582h-1.767v2.333h-0.76
	l-0.664-4.546l0.322-1.592l0.51,0.426l2.448-1.268c0.794,0.563,1.86,1.008,2.716,1.33c0.158,0.06,0.32,0.139,0.51,0.227
	c0.489,0.232,1.098,0.521,2.199,0.814l0.065,0.02c0.837,0.283,1.397,1.053,1.397,1.922V20.416z"/>
</svg>
