<svg xmlns="http://www.w3.org/2000/svg" width="57.74" height="60.562" viewBox="0 0 57.74 60.562">
  <g id="Group_142" data-name="Group 142" transform="translate(-569.291 -658.423)">
    <rect id="Rectangle_203" data-name="Rectangle 203" width="12.26" height="11.92" transform="translate(592.072 658.423)" fill="#e42321"/>
    <rect id="Rectangle_204" data-name="Rectangle 204" width="12.26" height="1.321" transform="translate(592.072 658.423)" fill="#941914"/>
    <path id="Path_332" data-name="Path 332" d="M576.957,665.906s-5.337,9.51-7.666,16.691c.582,1.746,5.919,5.336,11.159,4.948a31.511,31.511,0,0,1,3.2-6.792S584.04,668.332,576.957,665.906Z" fill="#e42321"/>
    <path id="Path_333" data-name="Path 333" d="M619.365,665.906s5.337,9.51,7.666,16.691c-.583,1.746-5.919,5.336-11.159,4.948a31.473,31.473,0,0,0-3.2-6.792S612.281,668.332,619.365,665.906Z" fill="#e42321"/>
    <g id="Group_138" data-name="Group 138" opacity="0.2">
      <path id="Path_334" data-name="Path 334" d="M613.4,674.08a28.58,28.58,0,0,0-.733,6.673,31.509,31.509,0,0,1,3.2,6.792,12.24,12.24,0,0,0,3.712-.33C616.414,678.587,613.739,674.569,613.4,674.08Z" fill="#00394f"/>
    </g>
    <g id="Group_139" data-name="Group 139" opacity="0.1">
      <path id="Path_335" data-name="Path 335" d="M582.914,674.062c-.245.353-2.959,4.349-6.193,13.15a12.255,12.255,0,0,0,3.729.333,31.511,31.511,0,0,1,3.2-6.792A28.64,28.64,0,0,0,582.914,674.062Z" fill="#00394f"/>
    </g>
    <path id="Path_336" data-name="Path 336" d="M611.408,661.831c-4.173-1.553-6.4-3.4-7.181-3.4,0,0,.278,4.871-6.066,9.591-6.345-4.72-6.067-9.591-6.067-9.591-.776,0-3.008,1.843-7.18,3.4s-6.89,2.523-7.957,4.075c1.455,1.165,6.113,3.785,6.113,15.72v35.418a58.126,58.126,0,0,0,15.04,1.941,54.922,54.922,0,0,0,15.142-1.941V681.626c0-11.935,4.657-14.555,6.113-15.72C618.3,664.354,615.581,663.384,611.408,661.831Z" fill="#e42321"/>
    <path id="Path_337" data-name="Path 337" d="M569.507,681.928a4.894,4.894,0,0,0-.216.669c.582,1.746,5.919,5.336,11.159,4.948.258-.7.017-.116.258-.7C576.392,687,571.042,683.874,569.507,681.928Z" fill="#00394f"/>
    <path id="Path_338" data-name="Path 338" d="M626.827,681.928c-2.992,3.593-6.21,5.008-11.213,4.916.241.585,0,0,.258.7,5.24.388,10.246-2.92,11.159-4.948A5.369,5.369,0,0,0,626.827,681.928Z" fill="#00394f"/>
    <g id="Group_140" data-name="Group 140" opacity="0.1">
      <path id="Path_339" data-name="Path 339" d="M606.939,687.043c-.334,9.706-.838,24.31-1.084,31.461a45.962,45.962,0,0,0,7.4-1.46V681.626a26.947,26.947,0,0,1,1.555-9.923A19.181,19.181,0,0,0,606.939,687.043Z"/>
    </g>
    <g id="Group_141" data-name="Group 141" opacity="0.1">
      <path id="Path_340" data-name="Path 340" d="M590.466,718.486c-.246-7.158-.749-21.746-1.083-31.443a19.181,19.181,0,0,0-7.869-15.34,26.943,26.943,0,0,1,1.556,9.923v35.418A51.867,51.867,0,0,0,590.466,718.486Z"/>
    </g>
    <path id="Path_341" data-name="Path 341" d="M575.317,671.415c1.326-2.711,2.349-4.6,2.349-4.6,1.032-1.553,3.658-2.523,7.691-4.076,3.844-1.479,5.968-3.2,6.81-3.365a5.3,5.3,0,0,1-.073-.935c-.776,0-3.008,1.843-7.18,3.4s-6.89,2.523-7.957,4.075c0,0-1.078,1.928-2.469,4.68Z" fill="#fff"/>
    <path id="Path_342" data-name="Path 342" d="M610.965,662.735c4.033,1.553,6.659,2.523,7.69,4.076,0,0,.973,1.8,2.252,4.4l.827-.827c-1.344-2.65-2.369-4.481-2.369-4.481-1.067-1.552-3.784-2.522-7.957-4.075s-6.4-3.4-7.181-3.4a5.349,5.349,0,0,1-.072.935C605,659.53,607.121,661.256,610.965,662.735Z" fill="#fff"/>
    <path id="Path_343" data-name="Path 343" d="M597.139,669.4l1.02.793,1.023-.793c4.988-4.2,6.161-8.341,6.43-10.264a4.452,4.452,0,0,0-1.533-.7s.271,4.871-5.918,9.591c-6.19-4.72-5.918-9.591-5.918-9.591a4.444,4.444,0,0,0-1.533.7C590.978,661.056,592.151,665.2,597.139,669.4Z" fill="#e42321"/>
    <path id="Path_344" data-name="Path 344" d="M597.139,669.4l1.02.793,1.023-.793c4.988-4.2,6.161-8.341,6.43-10.264a4.452,4.452,0,0,0-1.533-.7s.271,4.871-5.918,9.591c-6.19-4.72-5.918-9.591-5.918-9.591a4.444,4.444,0,0,0-1.533.7C590.978,661.056,592.151,665.2,597.139,669.4Z" opacity="0.1"/>
  </g>
</svg>
