<svg xmlns="http://www.w3.org/2000/svg" width="57.174" height="60.116" viewBox="0 0 57.174 60.116">
  <g id="Group_155" data-name="Group 155" transform="translate(-769.197 -664.383)">
    <path id="Path_373" data-name="Path 373" d="M782.21,680.754c-.135-.637-.288-1.226-.455-1.773l-5.966-2.85c-.2.4-.407.819-.625,1.264l-.821-.821q.24-.473.465-.911l0,0c-.515,1-1.093,2.154-1.688,3.391l7.909,3.779C781.519,681.908,781.923,681.22,782.21,680.754Z" fill="#0ba550"/>
    <path id="Path_374" data-name="Path 374" d="M769.2,688.467c.214-.66.461-1.344.72-2.035a17.2,17.2,0,0,0,7.438,4.5c.589-1.5,1.153-2.838,1.68-4.013l-7.809-3.73c-.77,1.786-1.483,3.6-2.029,5.282.541,1.622,5.219,4.848,10.077,4.928C774.416,693.315,769.738,690.089,769.2,688.467Z" fill="#0ba550"/>
    <path id="Path_375" data-name="Path 375" d="M781.764,689.689c.237-.51.457-.951.653-1.328h0C782.221,688.738,782,689.179,781.764,689.689Z" fill="#0ba550"/>
    <path id="Path_376" data-name="Path 376" d="M813.254,688.561h0c.379.74.833,1.7,1.331,2.913h0C814.087,690.265,813.633,689.3,813.254,688.561Z" fill="#0ba550"/>
    <path id="Path_377" data-name="Path 377" d="M824.271,683.021l-7.753,3.9c.53,1.181,1.1,2.525,1.688,4.036,3.274-.957,6.4-3.019,7.491-4.4.242.649.472,1.292.674,1.914-.486,1.459-4.325,4.218-8.629,4.814,4.3-.6,8.143-3.355,8.629-4.814C825.808,686.732,825.068,684.86,824.271,683.021Z" fill="#0ba550"/>
    <path id="Path_378" data-name="Path 378" d="M817.742,693.281q-.479.066-.963.095Q817.263,693.348,817.742,693.281Z" fill="#0ba550"/>
    <path id="Path_379" data-name="Path 379" d="M821.127,676.377l-.82.819c-.206-.418-.4-.816-.59-1.188l-5.9,2.968c-.169.554-.325,1.153-.461,1.8.287.468.687,1.149,1.173,2.06l7.846-3.946c-.6-1.234-1.173-2.379-1.683-3.37h0Q820.9,675.931,821.127,676.377Z" fill="#0ba550"/>
    <path id="Path_380" data-name="Path 380" d="M815.793,693.391c-.157,0-.314-.012-.472-.024C815.479,693.379,815.636,693.387,815.793,693.391Z" fill="#fff"/>
    <path id="Path_381" data-name="Path 381" d="M816.256,693.4h0Z" fill="#fff"/>
    <path id="Path_382" data-name="Path 382" d="M814.585,691.474a11.58,11.58,0,0,0,3.621-.518c-.591-1.511-1.158-2.855-1.688-4.036l-3.264,1.641C813.633,689.3,814.087,690.265,814.585,691.474Z" fill="#fff"/>
    <path id="Path_383" data-name="Path 383" d="M814.527,682.835c-.486-.911-.886-1.592-1.173-2.06a27.013,27.013,0,0,0-.441,2.872Z" fill="#fff"/>
    <path id="Path_384" data-name="Path 384" d="M779.387,693.394h0Z" fill="#fff"/>
    <path id="Path_385" data-name="Path 385" d="M780.247,693.367c-.158.012-.316.02-.473.024C779.931,693.387,780.089,693.379,780.247,693.367Z" fill="#fff"/>
    <path id="Path_386" data-name="Path 386" d="M780.983,691.474c.276-.668.538-1.263.781-1.785-.243.522-.505,1.117-.781,1.785Z" fill="#fff"/>
    <path id="Path_387" data-name="Path 387" d="M782.21,680.754c-.287.466-.691,1.154-1.184,2.077l1.626.777A27.187,27.187,0,0,0,782.21,680.754Z" fill="#fff"/>
    <path id="Path_388" data-name="Path 388" d="M782.4,688.361l-.063.132-3.3-1.578c-.527,1.175-1.091,2.51-1.68,4.013a11.271,11.271,0,0,0,3.628.546c.276-.668.538-1.263.781-1.785s.457-.951.653-1.328Z" fill="#fff"/>
    <path id="Path_389" data-name="Path 389" d="M782.841,701.677h29.886v-4.234H782.841Z" fill="#0ba550"/>
    <path id="Path_390" data-name="Path 390" d="M812.912,679.009H782.744l-.173.362-.052-.024a26.052,26.052,0,0,1,.783,4.471h28.964a26.168,26.168,0,0,1,.794-4.514Z" fill="#0ba550"/>
    <path id="Path_391" data-name="Path 391" d="M812.672,674.465l4.732-2.38a17.507,17.507,0,0,0-4.888-2.49v.02H801.467a10.024,10.024,0,0,1-3.873.686,9.263,9.263,0,0,1-3.68-.686H783a16.423,16.423,0,0,0-4.94,2.566l4.781,2.284Z" fill="#0ba550"/>
    <path id="Path_392" data-name="Path 392" d="M782.841,711.03h29.886v-4.809H782.841Z" fill="#0ba550"/>
    <path id="Path_393" data-name="Path 393" d="M782.841,692.9h29.886v-4.538H782.841Z" fill="#0ba550"/>
    <path id="Path_394" data-name="Path 394" d="M782.841,720.112h29.886v-4.538H782.841Z" fill="#0ba550"/>
    <path id="Path_395" data-name="Path 395" d="M818.463,671.553h0c-1.04-1.122-3.051-1.959-5.947-3.046h0C815.412,669.594,817.423,670.431,818.463,671.553Z" fill="#0ba550"/>
    <path id="Path_396" data-name="Path 396" d="M781.755,678.981c.167.547.32,1.136.455,1.773.259-.42.425-.663.477-.738a27.128,27.128,0,0,1,.612,3.8h0a26.052,26.052,0,0,0-.783-4.471Z" fill="#0ba550"/>
    <path id="Path_397" data-name="Path 397" d="M812.877,680.034c.067.1.232.345.477.741.136-.646.292-1.245.461-1.8l-.734.369-.021-.041a26.168,26.168,0,0,0-.794,4.514h0A27.13,27.13,0,0,1,812.877,680.034Z" fill="#0ba550"/>
    <path id="Path_398" data-name="Path 398" d="M812.269,683.818h.3l.34-.171a27.013,27.013,0,0,1,.441-2.872c-.245-.4-.41-.642-.477-.741A27.13,27.13,0,0,0,812.269,683.818Z" fill="#0ba550"/>
    <path id="Path_399" data-name="Path 399" d="M783.092,683.818h.207a27.128,27.128,0,0,0-.612-3.8c-.052.075-.218.318-.477.738a27.187,27.187,0,0,1,.442,2.854Z" fill="#0ba550"/>
    <path id="Path_400" data-name="Path 400" d="M779.274,693.4c.012,0,.023,0,.034,0h0C779.3,693.394,779.286,693.4,779.274,693.4Z" fill="#fff"/>
    <path id="Path_401" data-name="Path 401" d="M779.388,693.394h0c.129,0,.258,0,.387,0h0C779.645,693.4,779.516,693.4,779.388,693.394Z" fill="#fff"/>
    <path id="Path_402" data-name="Path 402" d="M780.987,691.474h0c-.237.576-.483,1.205-.736,1.893C780.5,692.672,780.748,692.054,780.987,691.474Z" fill="#fff"/>
    <path id="Path_403" data-name="Path 403" d="M776.555,693.037c.271-.738.538-1.438.8-2.109a17.2,17.2,0,0,1-7.438-4.5c-.259.691-.506,1.375-.72,2.035.541,1.622,5.219,4.848,10.077,4.928.012,0,.023,0,.034,0A12.787,12.787,0,0,1,776.555,693.037Z" fill="#fff"/>
    <path id="Path_404" data-name="Path 404" d="M779.773,693.391c-.128,0-.257,0-.385,0C779.516,693.4,779.645,693.4,779.773,693.391Z" fill="#fff"/>
    <path id="Path_405" data-name="Path 405" d="M779.308,693.4Z" fill="#fff"/>
    <path id="Path_406" data-name="Path 406" d="M780.247,693.367q-.237.018-.474.024h0c.157,0,.315-.012.473-.024.253-.688.5-1.317.736-1.893h0C780.746,692.05,780.5,692.679,780.247,693.367Z" fill="#fff"/>
    <path id="Path_407" data-name="Path 407" d="M779.308,693.4h.08c.128,0,.257,0,.385,0q.237-.006.474-.024c.253-.688.5-1.317.736-1.893a11.271,11.271,0,0,1-3.628-.546c-.262.671-.529,1.371-.8,2.109A12.787,12.787,0,0,0,779.308,693.4Z" fill="#fff"/>
    <path id="Path_408" data-name="Path 408" d="M814.585,691.474h0c.239.58.484,1.2.739,1.893q-.243-.661-.477-1.253C814.756,691.893,814.67,691.681,814.585,691.474Z" fill="#fff"/>
    <path id="Path_409" data-name="Path 409" d="M814.585,691.474h0c.085.207.171.419.259.64C814.756,691.893,814.67,691.681,814.585,691.474Z" fill="#fff"/>
    <path id="Path_410" data-name="Path 410" d="M826.371,688.467c-.2-.622-.432-1.265-.674-1.914-1.1,1.384-4.217,3.446-7.491,4.4.26.663.524,1.356.792,2.085a12.814,12.814,0,0,1-2.742.354c.175,0,.349-.008.523-.019q.484-.028.963-.095C822.046,692.685,825.885,689.926,826.371,688.467Z" fill="#fff"/>
    <path id="Path_411" data-name="Path 411" d="M816.172,693.394c-.126,0-.252,0-.379,0C815.92,693.4,816.046,693.4,816.172,693.394Z" fill="#fff"/>
    <path id="Path_412" data-name="Path 412" d="M818.206,690.956a11.58,11.58,0,0,1-3.621.518c.085.207.171.419.259.64q.234.591.477,1.253c.158.012.315.02.472.024.127,0,.253,0,.379,0h.084a12.814,12.814,0,0,0,2.742-.354C818.73,692.312,818.466,691.619,818.206,690.956Z" fill="#fff"/>
    <path id="Path_413" data-name="Path 413" d="M781.446,669.124h0c-2.134.846-3.637,1.59-4.451,2.548h0C777.809,670.714,779.312,669.97,781.446,669.124Z" fill="#0ba550"/>
    <path id="Path_414" data-name="Path 414" d="M774.343,676.574l.821.821c.218-.445.427-.868.625-1.264l-.981-.468Q774.583,676.1,774.343,676.574Z" fill="#0ba550"/>
    <path id="Path_415" data-name="Path 415" d="M783,669.615h-1.554v-.491c-2.134.846-3.637,1.59-4.451,2.548l1.065.509A16.423,16.423,0,0,1,783,669.615Z" fill="#0ba550"/>
    <path id="Path_416" data-name="Path 416" d="M820.307,677.2l.82-.819q-.227-.445-.439-.857l-.971.488C819.9,676.38,820.1,676.778,820.307,677.2Z" fill="#0ba550"/>
    <path id="Path_417" data-name="Path 417" d="M817.4,672.085l1.059-.532c-1.04-1.122-3.051-1.959-5.947-3.046v1.088A17.507,17.507,0,0,1,817.4,672.085Z" fill="#0ba550"/>
    <path id="Path_418" data-name="Path 418" d="M782.841,722.577a57.563,57.563,0,0,0,14.893,1.922,54.38,54.38,0,0,0,14.993-1.922v-2.465H782.841Z" fill="#fff"/>
    <path id="Path_419" data-name="Path 419" d="M812.937,688.361l.144.287.173-.087-.1-.2Z" fill="#fff"/>
    <path id="Path_420" data-name="Path 420" d="M824.417,682.947l-2.041-4.059h0c.63,1.3,1.281,2.708,1.9,4.132Z" fill="#fff"/>
    <path id="Path_421" data-name="Path 421" d="M816.518,686.92l7.753-3.9c-.617-1.424-1.268-2.827-1.9-4.132l-7.846,3.946C815.089,683.885,815.765,685.238,816.518,686.92Z" fill="#fff"/>
    <path id="Path_422" data-name="Path 422" d="M813.151,688.361h0l.1.2h0Z" fill="#fff"/>
    <path id="Path_423" data-name="Path 423" d="M812.913,683.647c-.006.057-.012.114-.017.171h.324v4.543h-.069l.1.2,3.264-1.641c-.753-1.682-1.429-3.035-1.991-4.085Z" fill="#fff"/>
    <path id="Path_424" data-name="Path 424" d="M812.9,683.818c.005-.057.011-.114.017-.171l-.34.171Z" fill="#fff"/>
    <path id="Path_425" data-name="Path 425" d="M781.026,682.831l-7.909-3.779c-.63,1.309-1.278,2.712-1.891,4.133l7.809,3.73C779.789,685.233,780.465,683.88,781.026,682.831Z" fill="#fff"/>
    <path id="Path_426" data-name="Path 426" d="M782.15,683.818h.523q-.01-.106-.021-.21l-1.626-.777c-.561,1.049-1.237,2.4-1.991,4.084l3.3,1.578.063-.132h-.251Z" fill="#fff"/>
    <path id="Path_427" data-name="Path 427" d="M782.652,683.608q.011.1.021.21h.419Z" fill="#fff"/>
    <path id="Path_428" data-name="Path 428" d="M782.841,715.574h29.886V711.03H782.841Z" fill="#fff"/>
    <path id="Path_429" data-name="Path 429" d="M782.841,706.221h29.886v-4.544H782.841Z" fill="#fff"/>
    <path id="Path_430" data-name="Path 430" d="M782.841,697.443h29.886V692.9H782.841Z" fill="#fff"/>
    <path id="Path_431" data-name="Path 431" d="M812.727,688.361h.21l-.21-.417Z" fill="#fff"/>
    <path id="Path_432" data-name="Path 432" d="M782.417,688.361h.424v-.781C782.716,687.8,782.574,688.06,782.417,688.361Z" fill="#fff"/>
    <path id="Path_433" data-name="Path 433" d="M782.841,687.58c-.125.22-.267.48-.424.781h0c.157-.3.3-.561.424-.781Z" fill="#fff"/>
    <path id="Path_434" data-name="Path 434" d="M782.841,687.441l-.44.92h.016c.157-.3.3-.561.424-.781v-.139Z" fill="#fff"/>
    <path id="Path_435" data-name="Path 435" d="M811.04,684.589l1.212-.61c0-.053.009-.107.014-.161H783.3l.009.1.986.47-.876,1.832c0,.268,0,.417,0,.417s-.215.3-.577.938v.781h29.886v-.417Z" fill="#fff"/>
    <path id="Path_436" data-name="Path 436" d="M783.418,686.641s-.215.3-.577.939h0c.362-.637.577-.938.577-.938s0-.149,0-.417v0C783.422,686.493,783.418,686.641,783.418,686.641Z" fill="#fff"/>
    <path id="Path_437" data-name="Path 437" d="M783.308,683.921l0,0-.009-.1h0Z" fill="#fff"/>
    <path id="Path_438" data-name="Path 438" d="M812.269,683.818h0c-.005.054-.01.108-.014.161h0C812.26,683.925,812.264,683.872,812.269,683.818Z" fill="#fff"/>
    <path id="Path_439" data-name="Path 439" d="M812.269,683.818c-.005.054-.009.107-.014.16l.318-.16Z" fill="#fff"/>
    <path id="Path_440" data-name="Path 440" d="M783.308,683.921l-.009-.1h-.207Z" fill="#fff"/>
    <path id="Path_441" data-name="Path 441" d="M783.421,686.227l-.58,1.214v.139c.362-.638.577-.939.577-.939S783.422,686.493,783.421,686.227Z" fill="#fff"/>
    <path id="Path_442" data-name="Path 442" d="M812.727,687.58v.364l.21.417h.214C812.994,688.06,812.852,687.8,812.727,687.58Z" fill="#fff"/>
    <path id="Path_443" data-name="Path 443" d="M812.727,687.58c.125.22.267.48.424.781h0c-.157-.3-.3-.561-.424-.781Z" fill="#fff"/>
    <path id="Path_444" data-name="Path 444" d="M813.22,683.818H812.9c-.109,1.118-.169,2.343-.169,3.688v.074c.125.22.267.48.424.781h.069Z" fill="#fff"/>
    <path id="Path_445" data-name="Path 445" d="M812.252,683.979l-1.212.61,1.687,3.355v-.364c-.362-.637-.576-.938-.576-.938A25.319,25.319,0,0,1,812.252,683.979Z" fill="#fff"/>
    <path id="Path_446" data-name="Path 446" d="M812.151,686.641a25.589,25.589,0,0,1,.1-2.663h0a25.319,25.319,0,0,0-.1,2.663s.214.3.576.938h0C812.365,686.942,812.151,686.641,812.151,686.641Z" fill="#fff"/>
    <path id="Path_447" data-name="Path 447" d="M812.255,683.978a25.589,25.589,0,0,0-.1,2.663s.214.3.576.939v-.074c0-1.345.06-2.57.169-3.688h-.323Z" fill="#fff"/>
    <path id="Path_448" data-name="Path 448" d="M782.673,683.818h-.523v4.543h.251l.44-.92C782.839,686.121,782.779,684.917,782.673,683.818Z" fill="#fff"/>
    <path id="Path_449" data-name="Path 449" d="M784.3,684.393l-.986-.47c.089,1.022.108,1.84.11,2.3Z" fill="#fff"/>
    <path id="Path_450" data-name="Path 450" d="M783.421,686.227v0c0-.462-.021-1.28-.11-2.3l0,0C783.4,684.945,783.418,685.765,783.421,686.227Z" fill="#fff"/>
    <path id="Path_451" data-name="Path 451" d="M782.673,683.818c.106,1.1.166,2.3.168,3.623l.58-1.214c0-.462-.023-1.282-.113-2.306l-.216-.1Z" fill="#fff"/>
    <path id="Path_452" data-name="Path 452" d="M812.672,674.465H782.841l1.688.807-1.785,3.737h30.167l-1.872-3.723Z" fill="#fff"/>
    <path id="Path_453" data-name="Path 453" d="M784.812,667.85l-.145.055-1.12.417,1.12-.417Z" fill="#fff"/>
    <path id="Path_454" data-name="Path 454" d="M812.516,668.507h0c-.512-.192-1.048-.391-1.614-.6C811.468,668.116,812,668.315,812.516,668.507Z" fill="#fff"/>
    <path id="Path_455" data-name="Path 455" d="M802.608,669.017h0a6.813,6.813,0,0,1-1.141.6h11.049v-.02c-.638-.251-1.322-.513-2.054-.794a36.474,36.474,0,0,1-5.524-2.755A5.793,5.793,0,0,1,802.608,669.017Z" fill="#fff"/>
    <path id="Path_456" data-name="Path 456" d="M790.4,666.18a35.031,35.031,0,0,1-5.291,2.621c-.752.289-1.455.558-2.106.814h10.914A6.667,6.667,0,0,1,790.4,666.18Z" fill="#fff"/>
    <path id="Path_457" data-name="Path 457" d="M790.079,665.313a36.431,36.431,0,0,1-5.267,2.537,36.431,36.431,0,0,0,5.267-2.537Z" fill="#fff"/>
    <path id="Path_458" data-name="Path 458" d="M783.547,668.322c-.757.282-1.457.547-2.1.8h0C782.09,668.869,782.79,668.6,783.547,668.322Z" fill="#fff"/>
    <path id="Path_459" data-name="Path 459" d="M783,669.615c.651-.256,1.354-.525,2.106-.814a35.031,35.031,0,0,0,5.291-2.621,6.2,6.2,0,0,1-.318-.867,36.431,36.431,0,0,1-5.267,2.537l-.145.055-1.12.417c-.757.282-1.457.547-2.1.8v.491Z" fill="#fff"/>
    <path id="Path_460" data-name="Path 460" d="M810.9,667.905a38.053,38.053,0,0,1-5.755-2.784h0A38.053,38.053,0,0,0,810.9,667.905Z" fill="#fff"/>
    <path id="Path_461" data-name="Path 461" d="M804.938,666.046a36.474,36.474,0,0,0,5.524,2.755c.732.281,1.416.543,2.054.794v-1.088c-.512-.192-1.048-.391-1.614-.6a38.053,38.053,0,0,1-5.755-2.784A3.732,3.732,0,0,1,804.938,666.046Z" fill="#fff"/>
    <path id="Path_462" data-name="Path 462" d="M797.586,668.589c3.673,0,5.128-1.238,5.691-2.37H792.058C792.7,667.352,794.171,668.589,797.586,668.589Z" fill="#fff"/>
    <path id="Path_463" data-name="Path 463" d="M802.608,669.017h0Z" fill="#fff"/>
    <path id="Path_464" data-name="Path 464" d="M791.579,664.573a.773.773,0,0,1,.2-.031s-.005.124.009.345h11.83a2.546,2.546,0,0,0-.023-.5c.018,0,.04,0,.061.006v-.01H791.538v.008c.013,0,.028,0,.04,0S791.574,664.455,791.579,664.573Z" fill="#339937"/>
    <path id="Path_465" data-name="Path 465" d="M791.777,664.542a1.372,1.372,0,0,0-.178.277c0,.022.005.044.009.068h.178c-.014-.221-.009-.345-.009-.345a.773.773,0,0,0-.2.031h0A.773.773,0,0,1,791.777,664.542Z" fill="#339937"/>
    <path id="Path_466" data-name="Path 466" d="M791.777,664.542a.773.773,0,0,0-.2.031c0,.067.009.151.02.246A1.372,1.372,0,0,1,791.777,664.542Z" fill="#339937"/>
    <path id="Path_467" data-name="Path 467" d="M791.966,666.047l-.2-.56-.025.008A3.877,3.877,0,0,0,791.966,666.047Z" fill="#339937"/>
    <path id="Path_468" data-name="Path 468" d="M803.531,665.513l-.047.178C803.5,665.631,803.517,665.571,803.531,665.513Z" fill="#339937"/>
    <path id="Path_469" data-name="Path 469" d="M791.769,665.487l-.108-.3c.021.1.049.2.083.313Z" fill="#339937"/>
    <path id="Path_470" data-name="Path 470" d="M803.6,665.072c.006-.065.01-.127.013-.185h-11.83c0,.056.008.116.014.185Z" fill="#339937"/>
    <path id="Path_471" data-name="Path 471" d="M791.638,665.072h.162c-.006-.069-.011-.129-.014-.185h-.178C791.616,664.945,791.626,665.007,791.638,665.072Z" fill="#339937"/>
    <path id="Path_472" data-name="Path 472" d="M791.769,665.487l.2.56c.029.057.059.114.092.172h11.219a3.19,3.19,0,0,0,.207-.528l.047-.178a3.358,3.358,0,0,0,.072-.441H791.8c.011.115.027.248.049.4C791.823,665.473,791.8,665.479,791.769,665.487Z" fill="#339937"/>
    <path id="Path_473" data-name="Path 473" d="M791.769,665.487c.028-.008.054-.014.08-.019-.022-.148-.038-.281-.049-.4h-.162c.007.036.014.072.023.11Z" fill="#339937"/>
    <path id="Path_474" data-name="Path 474" d="M791.538,664.584v-.193a4.971,4.971,0,0,0-1.505.681h.478A6.048,6.048,0,0,1,791.538,664.584Z" fill="#339937"/>
    <path id="Path_475" data-name="Path 475" d="M803.7,664.887l-.042.16v.025h.114a4.184,4.184,0,0,0,.023-.53h0a3.488,3.488,0,0,1,1.266.53h.081a5.24,5.24,0,0,0-1.484-.679v.494Z" fill="#339937"/>
    <path id="Path_476" data-name="Path 476" d="M795.839,669.615c.524.227,1.106.456,1.755.686a16.912,16.912,0,0,0,2.254-.686Z" fill="#339937"/>
    <path id="Path_477" data-name="Path 477" d="M797.594,670.3a10.024,10.024,0,0,0,3.873-.686h-1.619A16.912,16.912,0,0,1,797.594,670.3Z" fill="#339937"/>
    <path id="Path_478" data-name="Path 478" d="M793.914,669.615a9.263,9.263,0,0,0,3.68.686c-.649-.23-1.231-.459-1.755-.686Z" fill="#339937"/>
    <path id="Path_479" data-name="Path 479" d="M803.791,664.542Z" fill="#339937"/>
    <path id="Path_480" data-name="Path 480" d="M791.538,664.957c-.014.036-.028.074-.04.115h.04Z" fill="#339937"/>
    <path id="Path_481" data-name="Path 481" d="M791.538,664.584h0a6.048,6.048,0,0,0-1.027.488h0A6.048,6.048,0,0,1,791.538,664.584Z" fill="#339937"/>
    <path id="Path_482" data-name="Path 482" d="M791.538,664.957v-.373a6.048,6.048,0,0,0-1.027.488h.987C791.51,665.031,791.524,664.993,791.538,664.957Z" fill="#339937"/>
    <path id="Path_483" data-name="Path 483" d="M805.057,665.072a3.488,3.488,0,0,0-1.266-.53h0a3.488,3.488,0,0,1,1.266.53Z" fill="#339937"/>
    <path id="Path_484" data-name="Path 484" d="M803.791,664.542a4.184,4.184,0,0,1-.023.53h.112A2.249,2.249,0,0,0,803.791,664.542Z" fill="#339937"/>
    <path id="Path_485" data-name="Path 485" d="M805.057,665.072a3.488,3.488,0,0,0-1.266-.53h0a2.249,2.249,0,0,1,.089.53Z" fill="#339937"/>
    <path id="Path_486" data-name="Path 486" d="M803.345,666.219l-.355,1.348a3.62,3.62,0,0,0,.886-2.056,1.167,1.167,0,0,0-.157-.043c.023-.148.038-.281.049-.4h-.114v1.147Z" fill="#339937"/>
    <path id="Path_487" data-name="Path 487" d="M805.147,665.121c0-.015,0-.031,0-.043l-.011-.006h-.081Z" fill="#339937"/>
    <path id="Path_488" data-name="Path 488" d="M790.079,665.313c.154-.087.3-.167.432-.241h-.478l-.011.006S790.038,665.164,790.079,665.313Z" fill="#339937"/>
    <path id="Path_489" data-name="Path 489" d="M791.538,666.219v-.649c-.038.017-.078.034-.12.054a2.845,2.845,0,0,0,1.111,2.013l-.5-1.418Z" fill="#339937"/>
    <path id="Path_490" data-name="Path 490" d="M801.113,669.035l-6.357.073c.33.167.689.337,1.083.507h4.009A11.026,11.026,0,0,0,801.113,669.035Z" fill="#339937"/>
    <path id="Path_491" data-name="Path 491" d="M793.914,669.615h1.925c-.394-.17-.753-.34-1.083-.507l-1.7.019-.526-1.49a2.845,2.845,0,0,1-1.111-2.013c-.271.126-.61.318-1.021.556A6.667,6.667,0,0,0,793.914,669.615Z" fill="#339937"/>
    <path id="Path_492" data-name="Path 492" d="M804.938,666.046a6.949,6.949,0,0,0-1.062-.535,3.62,3.62,0,0,1-.886,2.056l-.382,1.45A5.793,5.793,0,0,0,804.938,666.046Z" fill="#339937"/>
    <path id="Path_493" data-name="Path 493" d="M801.113,669.035a11.026,11.026,0,0,1-1.265.58h1.619a6.813,6.813,0,0,0,1.141-.6Z" fill="#339937"/>
    <path id="Path_494" data-name="Path 494" d="M791.538,665.072h-.04a1.741,1.741,0,0,0-.08.552c.042-.02.082-.037.12-.054Z" fill="#339937"/>
    <path id="Path_495" data-name="Path 495" d="M790.511,665.072h0c-.135.074-.278.154-.432.241h0C790.233,665.226,790.376,665.146,790.511,665.072Z" fill="#339937"/>
    <path id="Path_496" data-name="Path 496" d="M791.5,665.072h-.987c-.135.074-.278.154-.432.241a6.2,6.2,0,0,0,.318.867c.411-.238.75-.43,1.021-.556A1.741,1.741,0,0,1,791.5,665.072Z" fill="#339937"/>
    <path id="Path_497" data-name="Path 497" d="M805.147,665.121h0l-.09-.049h0Z" fill="#339937"/>
    <path id="Path_498" data-name="Path 498" d="M803.876,665.511a3.1,3.1,0,0,0,0-.439h-.112c-.011.115-.026.248-.049.4A1.167,1.167,0,0,1,803.876,665.511Z" fill="#339937"/>
    <path id="Path_499" data-name="Path 499" d="M805.147,665.121l-.09-.049H803.88a3.1,3.1,0,0,1,0,.439,6.949,6.949,0,0,1,1.062.535A3.732,3.732,0,0,0,805.147,665.121Z" fill="#339937"/>
    <path id="Path_500" data-name="Path 500" d="M803.7,664.887h-.042v.16Z" fill="#339937"/>
    <path id="Path_501" data-name="Path 501" d="M797.586,668.589c-3.415,0-4.89-1.237-5.528-2.37h-.031l.5,1.418a9.946,9.946,0,0,0,2.227,1.471l6.357-.073a6.389,6.389,0,0,0,1.877-1.468l.355-1.348h-.068C802.714,667.351,801.259,668.589,797.586,668.589Z" fill="#339937"/>
    <path id="Path_502" data-name="Path 502" d="M793.055,669.127l1.7-.019a9.946,9.946,0,0,1-2.227-1.471Z" fill="#339937"/>
    <path id="Path_503" data-name="Path 503" d="M801.113,669.035l1.495-.017h0l.382-1.45A6.389,6.389,0,0,1,801.113,669.035Z" fill="#339937"/>
    <path id="Path_504" data-name="Path 504" d="M803.654,665.072v-.025l-.007.025Z" fill="#339937"/>
    <path id="Path_505" data-name="Path 505" d="M791.579,664.573c-.005-.118,0-.186,0-.186s-.027,0-.04,0v.193Z" fill="#339937"/>
    <path id="Path_506" data-name="Path 506" d="M803.616,664.887h.038v-.494c-.021,0-.043-.006-.061-.006A2.546,2.546,0,0,1,803.616,664.887Z" fill="#339937"/>
    <path id="Path_507" data-name="Path 507" d="M791.579,664.573h0l-.041.011h0Z" fill="#339937"/>
    <path id="Path_508" data-name="Path 508" d="M791.608,664.887c0-.024-.006-.046-.009-.068-.01.021-.021.044-.031.068Z" fill="#339937"/>
    <path id="Path_509" data-name="Path 509" d="M791.622,665.072l-.061-.171c-.008.018-.015.037-.023.056v.115Z" fill="#339937"/>
    <path id="Path_510" data-name="Path 510" d="M791.561,664.9l0-.014h.012c.01-.024.021-.047.031-.068-.011-.095-.017-.179-.02-.246l-.041.011v.373C791.546,664.938,791.553,664.919,791.561,664.9Z" fill="#339937"/>
    <path id="Path_511" data-name="Path 511" d="M791.538,665.57v.649h.489l-.061-.172a3.877,3.877,0,0,1-.222-.552A2.052,2.052,0,0,0,791.538,665.57Z" fill="#339937"/>
    <path id="Path_512" data-name="Path 512" d="M803.531,665.513c-.014.058-.029.118-.047.178l-.139.528h.309v-1.147h-.007Z" fill="#339937"/>
    <path id="Path_513" data-name="Path 513" d="M791.538,665.57a2.052,2.052,0,0,1,.206-.075c-.034-.11-.062-.215-.083-.313l-.039-.11h-.084Z" fill="#339937"/>
    <path id="Path_514" data-name="Path 514" d="M803.647,665.072l.007-.025v-.16h-.038c0,.058-.007.12-.013.185Z" fill="#339937"/>
    <path id="Path_515" data-name="Path 515" d="M791.561,664.9l.061.171h.016c-.012-.065-.022-.127-.03-.185h-.04Z" fill="#339937"/>
    <path id="Path_516" data-name="Path 516" d="M791.556,664.887l0,.014.007-.014Z" fill="#339937"/>
    <path id="Path_517" data-name="Path 517" d="M803.647,665.072H803.6a3.358,3.358,0,0,1-.072.441Z" fill="#339937"/>
    <path id="Path_518" data-name="Path 518" d="M803.345,666.219l.139-.528a3.19,3.19,0,0,1-.207.528Z" fill="#339937"/>
    <path id="Path_519" data-name="Path 519" d="M792.058,666.219c-.033-.058-.063-.115-.092-.172l.061.172Z" fill="#339937"/>
    <path id="Path_520" data-name="Path 520" d="M791.661,665.182c-.009-.038-.016-.074-.023-.11h-.016Z" fill="#339937"/>
    <path id="Path_521" data-name="Path 521" d="M776.772,671.97c-.121.216-.911,1.637-1.967,3.691l0,0C775.862,673.612,776.652,672.185,776.772,671.97Z" fill="#fff"/>
    <path id="Path_522" data-name="Path 522" d="M777.659,672.611c-.059.074-.117.148-.168.225,0,0-.705,1.3-1.7,3.295l5.966,2.85A12.139,12.139,0,0,0,777.659,672.611Z" fill="#fff"/>
    <path id="Path_523" data-name="Path 523" d="M782.841,674.465l-4.781-2.284c-.078.073-.152.147-.221.222a9.949,9.949,0,0,1,4.311,5.749v-3.687Z" fill="#fff"/>
    <path id="Path_524" data-name="Path 524" d="M782.519,679.347l.052.024.173-.362h-.32C782.457,679.121,782.488,679.234,782.519,679.347Z" fill="#fff"/>
    <path id="Path_525" data-name="Path 525" d="M782.424,679.009h-.274v-.857a9.949,9.949,0,0,0-4.311-5.749c-.063.068-.124.137-.18.208a12.139,12.139,0,0,1,4.1,6.37l.764.366C782.488,679.234,782.457,679.121,782.424,679.009Z" fill="#fff"/>
    <path id="Path_526" data-name="Path 526" d="M776.772,671.97l.016-.029h0a3.215,3.215,0,0,1,.207-.269h0a3.215,3.215,0,0,0-.207.269Z" fill="#fff"/>
    <path id="Path_527" data-name="Path 527" d="M777.659,672.611c-.347-.278-.647-.491-.871-.67h0l-.016.029c-.12.215-.91,1.642-1.964,3.693l.981.468c1-1.99,1.7-3.295,1.7-3.295C777.542,672.759,777.6,672.685,777.659,672.611Z" fill="#fff"/>
    <path id="Path_528" data-name="Path 528" d="M778.06,672.181l-1.065-.509a3.215,3.215,0,0,0-.207.269h0a6.909,6.909,0,0,1,1.051.462C777.908,672.328,777.982,672.254,778.06,672.181Z" fill="#fff"/>
    <path id="Path_529" data-name="Path 529" d="M777.839,672.4a6.909,6.909,0,0,0-1.051-.462c.224.179.524.392.871.67C777.715,672.54,777.776,672.471,777.839,672.4Z" fill="#fff"/>
    <path id="Path_530" data-name="Path 530" d="M782.841,674.465h-.691v3.687q.148.426.274.857h.32l1.786-3.737Z" fill="#fff"/>
    <path id="Path_531" data-name="Path 531" d="M782.15,679.009h.274q-.126-.43-.274-.857Z" fill="#fff"/>
    <path id="Path_532" data-name="Path 532" d="M818.78,671.941s.8,1.427,1.908,3.579h0c-1.111-2.156-1.91-3.578-1.91-3.578Z" fill="#fff"/>
    <path id="Path_533" data-name="Path 533" d="M817.909,672.611a12.138,12.138,0,0,0-4.094,6.365l5.9-2.968c-.963-1.921-1.639-3.172-1.639-3.172C818.026,672.759,817.968,672.685,817.909,672.611Z" fill="#fff"/>
    <path id="Path_534" data-name="Path 534" d="M813.22,674.465v4.294c.788-2.566,2.153-5.079,4.509-6.356a4.456,4.456,0,0,0-.325-.318l-4.732,2.38Z" fill="#fff"/>
    <path id="Path_535" data-name="Path 535" d="M812.912,679.009l.148.3c.028-.1.056-.2.085-.3Z" fill="#fff"/>
    <path id="Path_536" data-name="Path 536" d="M818.78,671.941h0a3.44,3.44,0,0,0-.317-.388h0A3.557,3.557,0,0,1,818.78,671.941Z" fill="#fff"/>
    <path id="Path_537" data-name="Path 537" d="M817.909,672.611c-.055-.071-.117-.14-.18-.208-2.356,1.277-3.721,3.79-4.509,6.356v.25h-.075c-.029.1-.057.2-.085.3l.021.041.734-.369A12.138,12.138,0,0,1,817.909,672.611Z" fill="#fff"/>
    <path id="Path_538" data-name="Path 538" d="M818.78,671.941h0Z" fill="#fff"/>
    <path id="Path_539" data-name="Path 539" d="M817.909,672.611c.059.074.117.148.169.225,0,0,.676,1.251,1.639,3.172l.971-.488c-1.108-2.152-1.907-3.578-1.908-3.579h0C818.557,672.12,818.257,672.333,817.909,672.611Z" fill="#fff"/>
    <path id="Path_540" data-name="Path 540" d="M817.729,672.4a6.907,6.907,0,0,1,1.051-.462h0a3.557,3.557,0,0,0-.317-.388l-1.059.532A4.456,4.456,0,0,1,817.729,672.4Z" fill="#fff"/>
    <path id="Path_541" data-name="Path 541" d="M818.78,671.941a6.907,6.907,0,0,0-1.051.462c.063.068.125.137.18.208C818.257,672.333,818.557,672.12,818.78,671.941Z" fill="#fff"/>
    <path id="Path_542" data-name="Path 542" d="M813.22,678.759v-4.294h-.548l-1.632.821,1.872,3.723h.233C813.169,678.925,813.194,678.842,813.22,678.759Z" fill="#fff"/>
    <path id="Path_543" data-name="Path 543" d="M813.22,679.009v-.25c-.026.083-.051.166-.075.25Z" fill="#fff"/>
    <g id="Group_154" data-name="Group 154" opacity="0.1">
      <g id="Group_152" data-name="Group 152">
        <path id="Path_544" data-name="Path 544" d="M806.477,692.939c-.332,9.61-.83,24.071-1.074,31.152a45.425,45.425,0,0,0,7.324-1.446v-35.07a26.69,26.69,0,0,1,1.54-9.827A18.993,18.993,0,0,0,806.477,692.939Z" fill="#6c6c6c"/>
      </g>
      <g id="Group_153" data-name="Group 153">
        <path id="Path_545" data-name="Path 545" d="M790.165,724.073c-.244-7.088-.742-21.532-1.073-31.134a19,19,0,0,0-7.791-15.191,26.692,26.692,0,0,1,1.54,9.827v35.07A51.3,51.3,0,0,0,790.165,724.073Z" fill="#6c6c6c"/>
      </g>
    </g>
  </g>
</svg>
