<svg xmlns="http://www.w3.org/2000/svg" width="57.958" height="61.41" viewBox="0 0 57.958 61.41">
  <g id="Group_199" data-name="Group 199" transform="translate(-48.697 -679.44)">
    <rect id="Rectangle_260" data-name="Rectangle 260" width="12.306" height="11.965" transform="translate(71.345 679.94)" fill="#15427f"/>
    <path id="Path_729" data-name="Path 729" d="M62.528,717.716h30.3v-4.293h-30.3Z" fill="#1c3661"/>
    <path id="Path_730" data-name="Path 730" d="M62.528,727.2h30.3v-4.875h-30.3Z" fill="#1c3661"/>
    <path id="Path_731" data-name="Path 731" d="M62.528,736.4h30.3v-4.6h-30.3Z" fill="#1c3661"/>
    <path id="Path_732" data-name="Path 732" d="M62.528,738.9a58.359,58.359,0,0,0,15.1,1.948,55.136,55.136,0,0,0,15.2-1.948v-2.5h-30.3Z" fill="#15427f"/>
    <path id="Path_733" data-name="Path 733" d="M62.528,731.8h30.3V727.2h-30.3Z" fill="#15427f"/>
    <path id="Path_734" data-name="Path 734" d="M62.528,722.322h30.3v-4.606h-30.3Z" fill="#15427f"/>
    <path id="Path_735" data-name="Path 735" d="M62.528,713.423h30.3v-4.6h-30.3Z" fill="#15427f"/>
    <path id="Path_736" data-name="Path 736" d="M92.409,700.539l-.067-.764.015-.164H62.995l.01.107.041.559.07,1.775c0,.271,0,.422,0,.422s-.218.3-.585.951v.792h30.3v-.423Z" fill="#15427f"/>
    <path id="Path_737" data-name="Path 737" d="M92.768,690.13H62.528l1.711.818-1.81,3.788H93.011l-1.9-3.774Z" fill="#15427f"/>
    <path id="Path_738" data-name="Path 738" d="M64.526,683.425l-.147.055-1.135.423,1.135-.423Z" fill="#fff"/>
    <path id="Path_739" data-name="Path 739" d="M92.609,684.09h0l-1.636-.61Z" fill="#fff"/>
    <path id="Path_740" data-name="Path 740" d="M82.566,684.608h0c-.34.223-.015.787-.447.966l10.49-.36v-.021c-.645-.253-1.339-.519-2.081-.8a41.408,41.408,0,0,1-5.9-2.938A5.357,5.357,0,0,1,82.566,684.608Z" fill="#15427f"/>
    <path id="Path_741" data-name="Path 741" d="M70.187,681.732a35.421,35.421,0,0,1-5.363,2.656c-.762.294-1.474.566-2.135.826H72.7C70.619,684.328,70.66,682.785,70.187,681.732Z" fill="#15427f"/>
    <path id="Path_742" data-name="Path 742" d="M69.866,680.852a36.829,36.829,0,0,1-5.34,2.573,36.829,36.829,0,0,0,5.34-2.573Z" fill="#fff"/>
    <path id="Path_743" data-name="Path 743" d="M84.624,681.45a41.408,41.408,0,0,0,5.9,2.938c.742.286,1.436.552,2.081.8v-1.1l-1.636-.61a43.345,43.345,0,0,1-6.037-2.827A7.437,7.437,0,0,1,84.624,681.45Z" fill="#1c3661"/>
    <path id="Path_744" data-name="Path 744" d="M82.566,684.608h0Z" fill="#fff"/>
    <path id="Path_745" data-name="Path 745" d="M62.2,695.079l.052.025.176-.368H62.1C62.138,694.85,62.171,694.965,62.2,695.079Z" fill="#1c3661"/>
    <path id="Path_746" data-name="Path 746" d="M62.528,690.13h-.7v3.737q.15.434.277.869h.325l1.81-3.788Z" fill="#15427f"/>
    <path id="Path_747" data-name="Path 747" d="M61.828,694.736H62.1q-.127-.435-.277-.869Z" fill="#15427f"/>
    <path id="Path_748" data-name="Path 748" d="M93.011,694.736l.151.3c.027-.1.056-.2.085-.3Z" fill="#1c3661"/>
    <path id="Path_749" data-name="Path 749" d="M62.528,708.817h30.3v-4.6h-30.3Z" fill="#1c3661"/>
    <path id="Path_750" data-name="Path 750" d="M106.627,704.242q-.067-.21-.141-.423c-.546-1.614-1.229-3.328-1.96-5.016-.625-1.442-1.285-2.865-1.924-4.188-.6-1.251-1.189-2.412-1.706-3.417-1.127-2.185-1.936-3.627-1.936-3.627h0a3.513,3.513,0,0,0-.322-.393c-1.053-1.137-3.092-1.986-6.029-3.088h0v1.124H82.566c-1.017.421-3.483,5.521-5.109,5.521-1.521,0-4.761-4.343-4.761-5.521H62.689c.661-.26,1.373-.532,2.135-.826a35.421,35.421,0,0,0,5.363-2.656c-.166-.371-.033-.875-.088-1.073a39.031,39.031,0,0,1-5.573,2.766l-.147.055-1.135.423c-.767.286-1.478.554-2.13.813-.27.107-.531.213-.781.317A9.92,9.92,0,0,0,56.6,687.3a3.3,3.3,0,0,0-.21.272l-.017.03c-.122.219-.923,1.659-1.993,3.742-.522,1.015-1.108,2.183-1.712,3.438-.638,1.326-1.295,2.749-1.916,4.189-.7,1.632-1.359,3.285-1.887,4.845-.021.06-.039.118-.059.177-.037.111-.075.223-.111.332.5,1.49,4.438,4.315,8.838,4.893.224.029.45.05.676.068l.056,0c.1.007.2.013.3.018l.15.005c.067,0,.133.007.2.008h.035c.026,0,.053,0,.08,0,.087,0,.174,0,.261,0h-.049c.056,0,.112,0,.167,0h.012q.24-.006.48-.024c.259-.705.508-1.332.75-1.92h0c.279-.677.545-1.28.791-1.809s.463-.964.662-1.346h0c-.2.382-.421.829-.662,1.346.241-.517.463-.964.662-1.346.159-.3.3-.569.43-.792.367-.646.585-.951.585-.951s0-.151,0-.422l-.07-1.775-.041-.559-.01-.107H92.357a26.384,26.384,0,0,1,.805-4.575l-.151-.3H62.43l-.176.368-.052-.025h0c-.031-.114-.064-.229-.1-.343h-.277V690.13h30.94l4.8-2.412h0l-4.8,2.412h.555v4.606h-.076c-.029.1-.058.2-.085.3h0a26.384,26.384,0,0,0-.805,4.575l-.015.164.067.764.415,3.255v-.369c.126.223.271.487.43.792.034.066.069.133.1.2h0c.24.468.51,1.026.8,1.677q.262.586.547,1.276h0c.179.436.363.893.551,1.388.066.174.132.349.2.531.159.012.319.02.478.024.128,0,.256,0,.384,0,.028,0,.057,0,.086,0,.139,0,.277-.007.416-.014l.114,0c.052,0,.1-.009.155-.012l.053,0c.257-.02.513-.045.768-.081.409-.056.814-.132,1.212-.224,3.851-.892,7.088-3.315,7.535-4.656Zm-45.2-9.534h0c.169.554.324,1.152.461,1.8a27.371,27.371,0,0,1,.448,2.893l.021.213h0l-.021-.213a27.371,27.371,0,0,0-.448-2.893C61.751,695.86,61.6,695.262,61.427,694.708Zm1.688,7.345-.587,1.231-.446.933h0l.446-.933.587-1.231c0-.468-.022-1.3-.114-2.337l-.219-.1h0l.219.1C63.093,700.754,63.113,701.585,63.115,702.053Zm30.629-7.258-.561.282h0Z" fill="#1c3661"/>
    <path id="Path_751" data-name="Path 751" d="M93.323,694.483V690.13h-.555l-1.655.833,1.9,3.773h.236C93.272,694.652,93.3,694.568,93.323,694.483Z" fill="#15427f"/>
    <path id="Path_752" data-name="Path 752" d="M93.323,694.736v-.253c-.026.085-.051.169-.076.253Z" fill="#15427f"/>
    <g id="Group_198" data-name="Group 198" opacity="0.1">
      <g id="Group_196" data-name="Group 196">
        <path id="Path_753" data-name="Path 753" d="M86.532,708.8c-.336,9.742-.841,24.4-1.088,31.579a46.133,46.133,0,0,0,7.424-1.465V703.366a27.058,27.058,0,0,1,1.562-9.961A19.253,19.253,0,0,0,86.532,708.8Z" fill="#6c6c6c"/>
      </g>
      <g id="Group_197" data-name="Group 197">
        <path id="Path_754" data-name="Path 754" d="M70,740.365c-.248-7.185-.752-21.828-1.088-31.561a19.253,19.253,0,0,0-7.9-15.4,27.037,27.037,0,0,1,1.562,9.961v35.552A52.073,52.073,0,0,0,70,740.365Z" fill="#6c6c6c"/>
      </g>
    </g>
    <path id="Path_755" data-name="Path 755" d="M83.651,680v-.06H71.345v.038a6.779,6.779,0,0,0-1.367.675c.269,1.931,1.446,6.091,6.454,10.3l1.023.8,1.027-.8c5.007-4.212,6.185-8.372,6.454-10.3A8,8,0,0,0,83.651,680Zm-6.194,9.579c-4.244-3.236-5.461-6.542-5.807-8.313H83.264C82.918,683.037,81.7,686.343,77.457,689.579Z" fill="#1c3661" stroke="#15427f" stroke-linecap="round" stroke-linejoin="round" stroke-width="1"/>
  </g>
</svg>
