<?xml version="1.0" encoding="utf-8"?>
<!-- Generator: Adobe Illustrator 23.0.3, SVG Export Plug-In . SVG Version: 6.00 Build 0)  -->
<svg version="1.1" id="Layer_1" xmlns="http://www.w3.org/2000/svg" xmlns:xlink="http://www.w3.org/1999/xlink" x="0px" y="0px"
	 viewBox="0 0 57.04 59.97" style="enable-background:new 0 0 57.04 59.97;" xml:space="preserve">
<style type="text/css">
	.st0{fill:#FFFFFF;}
	.st1{fill:#B2B2B2;}
	.st2{fill:#EDEDED;}
	.st3{opacity:0.1;fill:#00394F;enable-background:new    ;}
</style>
<g id="Group_334" transform="translate(-266.385 -65.098)">
	<rect id="Rectangle_368" x="289.35" y="65.96" class="st0" width="11.86" height="1.8"/>
	<path id="Path_933" class="st1" d="M320.97,99.22c-0.39-7.02-1.28-14-2.65-20.89c-0.45-3.49-2.84-6.42-6.16-7.56
		c-0.97-0.38-2.51-0.94-4-1.48l-0.05-0.02c-4.04-1.5-6.21-3.29-6.96-3.29c0.09,0.28,0.14,0.57,0.14,0.86l-0.04,0.01v-0.39h-11.88
		v0.38c-0.04-0.01-0.08-0.02-0.12-0.03c0-0.28,0.05-0.56,0.14-0.82c-0.75,0-2.92,1.79-6.96,3.29c-1.26,0.47-2.38,0.88-3.36,1.28
		c-0.21,0.08-0.4,0.15-0.58,0.22c-0.6,0.23-1.17,0.5-1.72,0.82c-0.8,0.37-1.51,0.93-2.06,1.63l0.01,0.01
		c-1.27,1.43-2.1,3.2-2.39,5.1c-1.37,6.89-2.26,13.88-2.65,20.89c-0.47,8.03-0.55,15.75-0.55,15.75l0.23,7.25
		c2.03,0.47,4.14,0.44,6.16-0.08c0,0,0.08-4.99,0.31-9.28c0.16-4.63,0.66-9.24,1.48-13.8c0,0,1.79-7.56,2.68-10.49
		c0.26-0.55,0.45-1.03,0.61-1.47c0.01,0.44,0.02,0.88,0.02,1.35v34.33c4.76,1.26,9.66,1.89,14.58,1.88
		c4.96,0.06,9.9-0.57,14.68-1.88V88.45c0-0.58,0.01-1.13,0.04-1.66c0.2,0.61,0.44,1.2,0.72,1.78c0.89,2.93,2.68,10.49,2.68,10.49
		c0.82,4.56,1.32,9.17,1.48,13.8c0.23,4.29,0.31,9.28,0.31,9.28c2.02,0.52,4.13,0.54,6.16,0.08l0.23-7.25
		C321.51,114.96,321.44,107.24,320.97,99.22z M310.44,82.3c-0.01,0.05-0.03,0.1-0.05,0.15c0.12-0.66,0.26-1.27,0.42-1.83
		C310.71,81.15,310.59,81.7,310.44,82.3z"/>
	<path id="Path_934" class="st0" d="M295.28,71.75c6.53,0,7.39-4.55,7.39-5.11c-0.46-0.32-0.98-0.55-1.52-0.67
		c0,0,0.75,4.11-5.88,4.11c-6.16,0-5.88-4.11-5.88-4.11c-0.55,0.13-1.06,0.35-1.52,0.67C287.86,66.64,288.8,71.75,295.28,71.75z"/>
	<rect id="Rectangle_369" x="289.35" y="65.96" class="st2" width="11.86" height="1.8"/>
	<path id="Path_935" class="st2" d="M295.28,71.75c6.53,0,7.39-4.55,7.39-5.11c-0.46-0.32-0.98-0.55-1.52-0.67
		c0,0,0.75,4.11-5.88,4.11c-6.16,0-5.88-4.11-5.88-4.11c-0.55,0.13-1.06,0.35-1.52,0.67C287.86,66.64,288.8,71.75,295.28,71.75z"/>
	<path id="Path_936" class="st3" d="M287.81,124.18c-0.24-6.94-0.73-21.08-1.05-30.48c-0.05-5.87-2.86-11.38-7.6-14.85v-0.01l0,0
		l-0.02-0.02c0,0.01,0.01,0.02,0.01,0.03c-2.36,3.73-4.04,7.84-4.98,12.14c-2.02,10.38-2.74,20.97-2.14,31.53
		c1.18,0.05,2.37-0.09,3.51-0.41c0,0,0.12-4.93,0.35-9.22c0.14-4.54,0.6-9.07,1.4-13.55c0,0,1.76-7.91,2.77-10.8
		c0.24-0.49,0.42-1.01,0.55-1.54c0.02,0.56,0.04,0.81,0.04,1.42v34.33C283,123.42,285.39,123.89,287.81,124.18z"/>
	<path id="Path_937" class="st3" d="M302.84,124.18c0.24-6.94,0.73-21.08,1.05-30.48c0.04-5.87,2.86-11.38,7.6-14.85v-0.01l0,0
		l0.02-0.02c0,0.01-0.01,0.02-0.01,0.03c2.36,3.73,4.04,7.84,4.98,12.14c2.02,10.38,2.74,20.97,2.14,31.53
		c-1.18,0.05-2.37-0.09-3.51-0.41c0,0-0.12-4.93-0.35-9.22c-0.14-4.54-0.6-9.07-1.4-13.55c0,0-1.76-7.91-2.77-10.8
		c-0.24-0.49-0.42-1.01-0.55-1.54c-0.02,0.56-0.04,0.81-0.04,1.42v34.33C307.65,123.42,305.26,123.88,302.84,124.18z"/>
	<path id="Path_938" class="st0" d="M272.17,122.56c-0.94,0.01-1.88-0.11-2.78-0.36l-0.04-0.52c2.04,0.42,4.15,0.42,6.19-0.01
		l-0.01,0.47C274.43,122.41,273.3,122.55,272.17,122.56z"/>
	<path id="Path_939" class="st0" d="M318.54,122.58c0.94,0.01,1.88-0.11,2.78-0.36l0.04-0.52c-2.04,0.42-4.15,0.42-6.19-0.01
		l0.01,0.47C316.28,122.44,317.41,122.58,318.54,122.58z"/>
</g>
</svg>
