<svg xmlns="http://www.w3.org/2000/svg" width="57.88" height="61.328" viewBox="0 0 57.88 61.328">
  <g id="Group_167" data-name="Group 167" transform="translate(-238.101 -666.401)">
    <rect id="Rectangle_246" data-name="Rectangle 246" width="12.289" height="11.949" transform="translate(260.718 666.901)" fill="#fff"/>
    <rect id="Rectangle_247" data-name="Rectangle 247" width="12.289" height="11.949" transform="translate(260.718 666.893)" fill="#1d1d1b" opacity="0.1"/>
    <path id="Path_663" data-name="Path 663" d="M251.913,704.626h30.255v-4.287H251.913Z" fill="#e52321"/>
    <path id="Path_664" data-name="Path 664" d="M251.913,714.094h30.255v-4.869H251.913Z" fill="#e42321"/>
    <path id="Path_665" data-name="Path 665" d="M251.913,723.288h30.255v-4.594H251.913Z" fill="#e42321"/>
    <path id="Path_666" data-name="Path 666" d="M251.913,725.784a58.3,58.3,0,0,0,15.077,1.945,55.063,55.063,0,0,0,15.178-1.945v-2.5H251.913Z" fill="#fff"/>
    <path id="Path_667" data-name="Path 667" d="M251.913,718.694h30.255v-4.6H251.913Z" fill="#fff"/>
    <path id="Path_668" data-name="Path 668" d="M251.913,709.225h30.255v-4.6H251.913Z" fill="#fff"/>
    <path id="Path_669" data-name="Path 669" d="M251.913,700.339h30.255v-4.6H251.913Z" fill="#fff"/>
    <path id="Path_670" data-name="Path 670" d="M281.754,687.472l-.067-.763c0-.053.01-.108.015-.163H252.38l.009.106.041.559.071,1.772c0,.271,0,.421,0,.421s-.217.3-.584.951v.79h30.255v-.422Z" fill="#fff"/>
    <path id="Path_671" data-name="Path 671" d="M282.113,677.078h-30.2l1.709.817-1.807,3.783h30.54l-1.9-3.769Z" fill="#fff"/>
    <path id="Path_672" data-name="Path 672" d="M253.908,670.381l-.146.056-1.134.422,1.134-.422Z" fill="#fff"/>
    <path id="Path_673" data-name="Path 673" d="M281.954,671.046h0c-.518-.2-1.061-.4-1.634-.609C280.893,670.65,281.436,670.851,281.954,671.046Z" fill="#fff"/>
    <path id="Path_674" data-name="Path 674" d="M271.924,671.563h0c-.339.223-.015.786-.446.965l10.476-.36v-.021c-.645-.253-1.337-.519-2.078-.8a41.161,41.161,0,0,1-5.9-2.934A5.348,5.348,0,0,1,271.924,671.563Z" fill="#fff"/>
    <path id="Path_675" data-name="Path 675" d="M259.562,668.691a35.383,35.383,0,0,1-5.356,2.652c-.761.293-1.472.566-2.132.825h9.994C259.994,671.283,260.035,669.743,259.562,668.691Z" fill="#fff"/>
    <path id="Path_676" data-name="Path 676" d="M259.241,667.812a36.9,36.9,0,0,1-5.333,2.569,36.794,36.794,0,0,0,5.333-2.569Z" fill="#fff"/>
    <path id="Path_677" data-name="Path 677" d="M273.979,668.409a41.161,41.161,0,0,0,5.9,2.934c.741.285,1.433.551,2.078.8v-1.1c-.518-.2-1.061-.4-1.634-.609a43.406,43.406,0,0,1-6.028-2.824A7.782,7.782,0,0,1,273.979,668.409Z" fill="#e42321"/>
    <path id="Path_678" data-name="Path 678" d="M271.924,671.563h0Z" fill="#fff"/>
    <path id="Path_679" data-name="Path 679" d="M251.588,682.019l.052.026.175-.368h-.324C251.524,681.791,251.556,681.905,251.588,682.019Z" fill="#e42321"/>
    <path id="Path_680" data-name="Path 680" d="M251.914,677.078h-.7v3.732q.15.432.277.867h.324l1.808-3.783Z" fill="#fff"/>
    <path id="Path_681" data-name="Path 681" d="M251.214,681.677h.277q-.127-.435-.277-.867Z" fill="#fff"/>
    <path id="Path_682" data-name="Path 682" d="M282.355,681.677l.151.3c.027-.1.056-.2.085-.3Z" fill="#e42321"/>
    <path id="Path_683" data-name="Path 683" d="M251.913,695.74h30.255v-4.595H251.913Z" fill="#e42321"/>
    <path id="Path_684" data-name="Path 684" d="M295.953,691.17c-.046-.14-.092-.281-.141-.422-.545-1.612-1.227-3.324-1.957-5.009-.625-1.441-1.284-2.861-1.922-4.182-.6-1.25-1.187-2.41-1.7-3.413-1.125-2.182-1.933-3.622-1.933-3.622h0a3.519,3.519,0,0,0-.321-.393c-1.053-1.135-3.089-1.983-6.021-3.083h0v1.122h-10.03c-1.015.421-3.478,5.513-5.1,5.513-1.518,0-4.754-4.336-4.754-5.513h-9.994c.66-.259,1.371-.532,2.132-.825a35.383,35.383,0,0,0,5.356-2.652c-.166-.371-.034-.874-.088-1.072a39,39,0,0,1-5.566,2.762l-.146.056-1.134.421c-.766.286-1.476.554-2.127.812-.27.108-.53.213-.78.317a9.9,9.9,0,0,0-3.726,2.263c-.075.089-.146.179-.21.272l-.016.03c-.123.219-.922,1.657-1.991,3.737-.521,1.014-1.106,2.18-1.709,3.433-.637,1.324-1.294,2.745-1.914,4.183-.7,1.63-1.357,3.281-1.885,4.839-.02.059-.039.118-.058.177-.037.11-.075.222-.111.332.5,1.487,4.432,4.309,8.826,4.885.224.03.449.051.675.068l.056,0c.1.007.2.014.294.018l.15.006c.067,0,.134.006.2.007h.115c.087,0,.174,0,.261,0h.13c.16-.005.319-.013.479-.025.259-.7.507-1.329.749-1.917h0c.278-.676.544-1.278.79-1.807s.462-.962.661-1.344h0c-.2.382-.421.828-.661,1.344.24-.516.462-.962.661-1.344.159-.3.3-.568.429-.79.367-.646.584-.951.584-.951s.005-.15,0-.421l-.071-1.772-.041-.559-.009-.106H281.7a26.4,26.4,0,0,1,.8-4.57l-.151-.3h-30.54l-.175.368-.052-.026h0c-.032-.114-.064-.228-.1-.342h-.277v-4.6h30.9l4.79-2.409h0l-4.79,2.409h.554v4.6h-.076c-.029.1-.058.2-.085.3h0a26.4,26.4,0,0,0-.8,4.57c-.005.055-.01.11-.015.163l.067.763.414,3.251v-.368c.126.222.271.485.43.79.034.066.069.133.1.2h0c.239.468.509,1.024.8,1.675q.262.586.547,1.274h0c.179.435.362.892.55,1.386.066.174.132.349.2.53.159.012.318.02.477.025.128,0,.256,0,.383,0h.086c.139,0,.277-.008.416-.015.038,0,.076,0,.113,0l.156-.012.053,0c.256-.02.512-.045.766-.08q.613-.086,1.211-.225c3.845-.89,7.078-3.31,7.525-4.648C295.972,691.225,295.962,691.2,295.953,691.17Zm-45.14-9.52h0q.255.829.462,1.794a27.781,27.781,0,0,1,.447,2.889l.021.213h0l-.021-.213a27.781,27.781,0,0,0-.447-2.889Q251.07,682.478,250.813,681.65Zm1.687,7.335-.587,1.228-.445.932h0l.445-.932.587-1.228c0-.468-.023-1.3-.114-2.335l-.219-.1h0l.219.1C252.477,687.687,252.5,688.517,252.5,688.985Zm30.587-7.249-.56.282h0Z" fill="#e42321"/>
    <path id="Path_685" data-name="Path 685" d="M282.667,681.425v-4.347h-.554l-1.653.831,1.9,3.768h.236C282.616,681.593,282.641,681.509,282.667,681.425Z" fill="#fff"/>
    <path id="Path_686" data-name="Path 686" d="M282.667,681.677v-.252c-.026.084-.051.168-.076.252Z" fill="#fff"/>
    <g id="Group_166" data-name="Group 166" opacity="0.1">
      <g id="Group_164" data-name="Group 164">
        <path id="Path_687" data-name="Path 687" d="M275.885,695.726c-.335,9.729-.84,24.368-1.087,31.537a46.13,46.13,0,0,0,7.415-1.464v-35.5a27.017,27.017,0,0,1,1.559-9.947A19.226,19.226,0,0,0,275.885,695.726Z" fill="#6c6c6c"/>
      </g>
      <g id="Group_165" data-name="Group 165">
        <path id="Path_688" data-name="Path 688" d="M259.372,727.244c-.247-7.175-.751-21.8-1.086-31.518a19.226,19.226,0,0,0-7.887-15.378,27.013,27.013,0,0,1,1.559,9.947v35.5A51.789,51.789,0,0,0,259.372,727.244Z" fill="#6c6c6c"/>
      </g>
    </g>
    <path id="Path_689" data-name="Path 689" d="M273.008,666.961v-.06h-12.29v.039a6.662,6.662,0,0,0-1.365.673c.269,1.928,1.445,6.083,6.445,10.289l1.022.8,1.025-.8c5-4.206,6.177-8.361,6.446-10.289A8.065,8.065,0,0,0,273.008,666.961Zm-6.186,9.567c-4.238-3.232-5.454-6.534-5.8-8.3h11.6C272.276,669.994,271.06,673.3,266.822,676.528Z" fill="#fff" stroke="#e52321" stroke-linecap="round" stroke-linejoin="round" stroke-width="1"/>
  </g>
</svg>
