<svg xmlns="http://www.w3.org/2000/svg" width="57.236" height="60.036" viewBox="0 0 57.236 60.036">
  <g id="Group_151" data-name="Group 151" transform="translate(-658.736 -657.908)">
    <rect id="Rectangle_208" data-name="Rectangle 208" width="12.153" height="11.304" transform="translate(681.318 658.412)" fill="#552e34"/>
    <rect id="Rectangle_209" data-name="Rectangle 209" width="12.129" height="1.838" transform="translate(681.3 657.908)" fill="#832437"/>
    <path id="Path_361" data-name="Path 361" d="M666.335,665.328s-5.291,9.426-7.6,16.544c.577,1.732,5.867,5.291,11.062,4.906a31.183,31.183,0,0,1,3.174-6.733S673.357,667.733,666.335,665.328Z" fill="#832437"/>
    <path id="Path_362" data-name="Path 362" d="M708.373,665.328s5.291,9.426,7.6,16.544c-.577,1.732-5.867,5.291-11.061,4.906a31.206,31.206,0,0,0-3.175-6.733S701.351,667.733,708.373,665.328Z" fill="#832437"/>
    <g id="Group_144" data-name="Group 144" opacity="0.2">
      <path id="Path_363" data-name="Path 363" d="M702.463,673.43a28.4,28.4,0,0,0-.727,6.615,31.206,31.206,0,0,1,3.175,6.733,12.161,12.161,0,0,0,3.68-.327C705.448,677.9,702.8,673.914,702.463,673.43Z" fill="#00394f"/>
    </g>
    <g id="Group_145" data-name="Group 145" opacity="0.1">
      <path id="Path_364" data-name="Path 364" d="M672.24,673.412c-.243.35-2.933,4.312-6.139,13.036a12.172,12.172,0,0,0,3.7.33,31.183,31.183,0,0,1,3.174-6.733A28.394,28.394,0,0,0,672.24,673.412Z" fill="#00394f"/>
    </g>
    <path id="Path_365" data-name="Path 365" d="M700.486,661.288c-4.136-1.539-6.349-3.367-7.118-3.367,0,0,1.613,4.38-6.006,5.911-7.635-2.029-6.022-5.911-6.022-5.911-.769,0-2.982,1.828-7.118,3.367s-6.829,2.5-7.887,4.04c1.443,1.154,6.06,3.751,6.06,15.583V716.02a57.619,57.619,0,0,0,14.909,1.924,54.437,54.437,0,0,0,15.009-1.924V680.911c0-11.832,4.618-14.429,6.06-15.583C707.315,663.789,704.622,662.827,700.486,661.288Z" fill="#832437"/>
    <g id="Group_146" data-name="Group 146">
      <path id="Path_366" data-name="Path 366" d="M658.95,681.211a4.827,4.827,0,0,0-.214.661c.577,1.732,5.867,5.291,11.062,4.906a7.387,7.387,0,0,1,.255-.7C665.775,686.234,660.471,683.14,658.95,681.211Z" fill="#fff"/>
    </g>
    <g id="Group_147" data-name="Group 147">
      <path id="Path_367" data-name="Path 367" d="M715.77,681.25c-1.505,1.9-6.82,4.991-11.115,4.833.239.58,0,0,.256.7,5.194.385,10.484-3.174,11.061-4.906A4.84,4.84,0,0,0,715.77,681.25Z" fill="#fff"/>
    </g>
    <g id="Group_150" data-name="Group 150" opacity="0.1">
      <g id="Group_148" data-name="Group 148">
        <path id="Path_368" data-name="Path 368" d="M696.056,686.281c-.332,9.62-.831,24.1-1.075,31.186a45.57,45.57,0,0,0,7.332-1.447V680.911a26.727,26.727,0,0,1,1.542-9.838A19.016,19.016,0,0,0,696.056,686.281Z" fill="#00394f"/>
      </g>
      <g id="Group_149" data-name="Group 149">
        <path id="Path_369" data-name="Path 369" d="M679.727,717.449c-.245-7.095-.743-21.556-1.075-31.168a19.016,19.016,0,0,0-7.8-15.208,26.727,26.727,0,0,1,1.542,9.838V716.02A51.251,51.251,0,0,0,679.727,717.449Z" fill="#00394f"/>
      </g>
    </g>
    <path id="Path_370" data-name="Path 370" d="M664.709,670.788c1.315-2.687,2.329-4.564,2.329-4.564,1.023-1.539,3.626-2.5,7.624-4.04,3.81-1.467,5.916-3.177,6.75-3.336a5.378,5.378,0,0,1-.072-.927c-.769,0-2.982,1.828-7.118,3.367s-6.829,2.5-7.887,4.04c0,0-1.068,1.911-2.447,4.638Z" fill="#832437"/>
    <path id="Path_371" data-name="Path 371" d="M700.046,662.184c4,1.539,6.6,2.5,7.624,4.04,0,0,.964,1.785,2.232,4.365l.82-.82c-1.332-2.626-2.349-4.441-2.349-4.441-1.058-1.539-3.751-2.5-7.887-4.04s-6.349-3.367-7.118-3.367a5.255,5.255,0,0,1-.072.927C694.13,659.007,696.236,660.718,700.046,662.184Z" fill="#832437"/>
    <path id="Path_372" data-name="Path 372" d="M687.362,663.832c6.682,0,7.563-4.648,7.563-5.228a4.574,4.574,0,0,0-1.557-.693s.762,4.208-6.014,4.208c-6.3,0-6.014-4.208-6.014-4.208a4.586,4.586,0,0,0-1.557.692S680.739,663.832,687.362,663.832Z" fill="#fff"/>
    <rect id="Rectangle_210" data-name="Rectangle 210" width="12.129" height="1.838" transform="translate(681.3 657.908)" fill="#00394f" opacity="0.1"/>
  </g>
</svg>
