<svg xmlns="http://www.w3.org/2000/svg" width="57.057" height="62.15" viewBox="0 0 57.057 62.15">
  <g id="Group_322" data-name="Group 322" transform="translate(-257.91 -231.794)">
    <rect id="Rectangle_359" data-name="Rectangle 359" width="12.115" height="11.269" transform="translate(280.422 232.297)" fill="#b1b1b1"/>
    <rect id="Rectangle_360" data-name="Rectangle 360" width="12.091" height="1.833" transform="translate(280.404 231.794)" fill="#fff"/>
    <path id="Path_907" data-name="Path 907" d="M265.485,245.413s-5.273,9.4-7.575,16.493c.576,1.726,5.849,5.274,11.027,4.89a31.092,31.092,0,0,1,3.165-6.712S272.485,247.81,265.485,245.413Z" transform="translate(0 -6.222)" fill="#fff"/>
    <path id="Path_908" data-name="Path 908" d="M343.45,245.413s5.274,9.4,7.575,16.493c-.575,1.726-5.849,5.274-11.027,4.89a31.126,31.126,0,0,0-3.165-6.712S336.45,247.81,343.45,245.413Z" transform="translate(-36.058 -6.222)" fill="#fff"/>
    <g id="Group_317" data-name="Group 317" transform="translate(257.91 253.652)">
      <path id="Path_909" data-name="Path 909" d="M258.629,272.041c-.259.69-.5,1.372-.719,2.031.576,1.726,5.849,5.274,11.027,4.89.255-.694.5-1.311.739-1.889C265.41,277.224,260.145,273.964,258.629,272.041Z" transform="translate(-257.91 -272.041)" fill="#fff"/>
    </g>
    <g id="Group_318" data-name="Group 318" transform="translate(303.202 253.774)">
      <path id="Path_910" data-name="Path 910" d="M352.4,272.264c-1.5,1.895-6.811,5.069-11.093,4.911.238.578.483,1.2.739,1.889,5.178.384,10.452-3.164,11.027-4.89C352.868,273.553,352.638,272.912,352.4,272.264Z" transform="translate(-341.304 -272.264)" fill="#fff"/>
    </g>
    <path id="Path_911" data-name="Path 911" d="M268.185,244.646c1.311-2.679,2.322-4.55,2.322-4.55,1.019-1.534,3.614-2.493,7.6-4.027,3.8-1.463,5.9-3.167,6.729-3.326a5.264,5.264,0,0,1-.072-.924c-.767,0-2.972,1.822-7.1,3.356s-6.808,2.493-7.863,4.027c0,0-1.064,1.905-2.44,4.625Z" transform="translate(-4.32 -0.011)" fill="#fff"/>
    <path id="Path_912" data-name="Path 912" d="M328.074,236.069c3.985,1.534,6.58,2.493,7.6,4.027,0,0,.961,1.779,2.225,4.351l.817-.818c-1.328-2.618-2.341-4.427-2.341-4.427-1.055-1.534-3.739-2.493-7.863-4.027s-6.329-3.356-7.1-3.356a5.26,5.26,0,0,1-.072.924C322.177,232.9,324.276,234.606,328.074,236.069Z" transform="translate(-28.983 -0.011)" fill="#fff"/>
    <g id="Group_319" data-name="Group 319" transform="translate(300.772 247.268)" opacity="0.2">
      <path id="Path_913" data-name="Path 913" d="M337.559,260.286a28.291,28.291,0,0,0-.724,6.593A31.123,31.123,0,0,1,340,273.592a12.132,12.132,0,0,0,3.669-.326C340.534,264.739,337.891,260.768,337.559,260.286Z" transform="translate(-336.831 -260.286)" fill="#00394f"/>
    </g>
    <g id="Group_320" data-name="Group 320" transform="translate(265.253 247.25)" opacity="0.1">
      <path id="Path_914" data-name="Path 914" d="M277.549,260.252c-.242.349-2.923,4.3-6.119,12.995a12.131,12.131,0,0,0,3.684.329,31.107,31.107,0,0,1,3.164-6.712A28.257,28.257,0,0,0,277.549,260.252Z" transform="translate(-271.43 -260.252)" fill="#00394f"/>
    </g>
    <path id="Path_915" data-name="Path 915" d="M320.661,231.819h0a3.6,3.6,0,0,1-.97,3.6h0A3.6,3.6,0,0,0,320.661,231.819Z" transform="translate(-28.227 -0.011)" fill="#18351c"/>
    <path id="Path_916" data-name="Path 916" d="M315.7,238.44h0a9.073,9.073,0,0,1-4.744,2.239h0A9.073,9.073,0,0,0,315.7,238.44Z" transform="translate(-24.236 -3.036)" fill="#08632d"/>
    <path id="Path_917" data-name="Path 917" d="M317.406,346.19l-.022.022h0l.022-.022Z" transform="translate(-27.174 -52.267)" fill="#0f9639"/>
    <rect id="Rectangle_361" data-name="Rectangle 361" width="0.031" height="0.031" transform="translate(290.189 293.923) rotate(-45.055)" fill="#0f9639"/>
    <g id="Group_321" data-name="Group 321" transform="translate(265.485 231.808)">
      <path id="Path_918" data-name="Path 918" d="M331.517,339.891h0l-.575.112Q331.238,339.947,331.517,339.891Z" transform="translate(-298.851 -281.197)" fill="#027738"/>
      <path id="Path_919" data-name="Path 919" d="M313.548,238.921q-.118-.138-.255-.269a11.082,11.082,0,0,0-3.369-1.933q-.283-.119-.583-.239c-1-.4-2.15-.826-3.438-1.305a31.749,31.749,0,0,1-3.318-1.458q-.418-.212-.79-.413c-.519-.279-.965-.531-1.355-.75s-.7-.387-.957-.513c-.03-.015-.058-.027-.087-.04-.093-.043-.179-.078-.257-.105-.028-.01-.057-.021-.083-.029a.9.9,0,0,0-.248-.048,3.6,3.6,0,0,1-.97,3.6,9.072,9.072,0,0,1-4.744,2.239c-.09.02-.18.039-.273.058-7.612-2.023-6-5.892-6-5.892-.767,0-2.972,1.822-7.1,3.356s-6.808,2.493-7.863,4.027a11.887,11.887,0,0,1,4.5,5.728h0c.1.254.2.522.29.8.02.058.039.117.058.176q.276.843.5,1.836c.017.075.033.15.049.226q.215,1.005.366,2.172l.034.282c.047.4.089.8.122,1.226v0c.033.423.057.866.076,1.319,0,.111.009.224.012.337.016.463.027.936.027,1.43v35h0a56.958,56.958,0,0,0,13.5,1.9c.449.011.9.017,1.365.017.51,0,1.01-.007,1.5-.019h.042c1.763-.044,3.395-.159,4.872-.313l.048,0q1.048-.11,1.986-.241c1.27-.177,2.382-.373,3.31-.56.559-.113,1.053-.222,1.473-.322.28-.066.528-.128.743-.183.644-.166.988-.275.988-.275v-35c0-.226.009-.435.012-.654,0-.317.006-.642.017-.946.007-.191.022-.367.032-.552.016-.313.03-.633.054-.931.014-.173.034-.331.049-.5.028-.294.053-.593.087-.872.015-.122.034-.232.051-.351.042-.311.083-.622.133-.915.012-.071.027-.134.04-.2.058-.329.118-.653.186-.96.008-.036.017-.068.026-.1.074-.332.153-.656.236-.962l.007-.022a17.907,17.907,0,0,1,.608-1.835h0a11.851,11.851,0,0,1,2.953-4.474c.079-.073.158-.144.234-.211l.114-.1q.169-.144.327-.27l.2-.16c.132-.1.255-.194.368-.28.085-.064.163-.123.235-.179l.07-.055A3.253,3.253,0,0,0,313.548,238.921Z" transform="translate(-271.858 -231.819)" fill="#027738"/>
    </g>
    <path id="Path_920" data-name="Path 920" d="M304.1,237.7c6.66,0,7.539-4.633,7.539-5.212a4.564,4.564,0,0,0-1.553-.69s.76,4.194-5.995,4.194c-6.278,0-5.995-4.194-5.995-4.194a4.56,4.56,0,0,0-1.553.69S297.494,237.7,304.1,237.7Z" transform="translate(-17.65 -0.003)" fill="#fff"/>
  </g>
</svg>
