<svg xmlns="http://www.w3.org/2000/svg" width="20.828" height="20.829" viewBox="0 0 20.828 20.829">
  <g id="Group_378" data-name="Group 378" transform="translate(-90.449 -391.858)">
    <circle id="Ellipse_27" data-name="Ellipse 27" cx="9.91" cy="9.91" r="9.91" transform="translate(91.012 392.523)" fill="#7f091d"/>
    <g id="Group_377" data-name="Group 377" transform="translate(90.449 391.858)">
      <path id="Path_1020" data-name="Path 1020" d="M108.237,394.9a10.106,10.106,0,0,1,2.691,4.683,10.525,10.525,0,0,1,0,5.382,10.356,10.356,0,0,1-7.374,7.374,10.536,10.536,0,0,1-5.382,0,10.354,10.354,0,0,1-7.374-7.374,10.543,10.543,0,0,1,0-5.382,10.353,10.353,0,0,1,7.374-7.374,10.54,10.54,0,0,1,5.381,0A10.116,10.116,0,0,1,108.237,394.9Zm-5.679,12.934-.029-3.894,3.895.029a.568.568,0,0,0,.505-.505v-2.378a.454.454,0,0,0-.148-.327.619.619,0,0,0-.357-.179l-3.895.03.029-3.894a.568.568,0,0,0-.505-.506H99.674a.455.455,0,0,0-.327.149.615.615,0,0,0-.179.357l.031,3.895-3.9-.031a.57.57,0,0,0-.505.506v2.378a.455.455,0,0,0,.149.327.609.609,0,0,0,.356.178l3.9-.029-.031,3.894a.571.571,0,0,0,.506.506h2.378a.454.454,0,0,0,.328-.148A.617.617,0,0,0,102.557,407.832Z" transform="translate(-90.449 -391.858)" fill="#e42321"/>
    </g>
  </g>
</svg>
