<svg xmlns="http://www.w3.org/2000/svg" width="58.08" height="61.157" viewBox="0 0 58.08 61.157">
  <g id="Group_375" data-name="Group 375" transform="translate(56.872 -791.392)">
    <rect id="Rectangle_399" data-name="Rectangle 399" width="12.332" height="11.991" transform="translate(-33.957 791.63)" fill="#fff"/>
    <rect id="Rectangle_400" data-name="Rectangle 400" width="12.332" height="1.329" transform="translate(-33.957 791.63)" fill="#fff"/>
    <rect id="Rectangle_401" data-name="Rectangle 401" width="12.332" height="10.662" transform="translate(-33.957 792.958)" fill="#1d1d1b" opacity="0.1"/>
    <path id="Path_1004" data-name="Path 1004" d="M-49.161,799.158s-5.369,9.565-7.711,16.788c.585,1.757,5.954,5.368,11.224,4.978a31.6,31.6,0,0,1,3.222-6.832S-42.036,801.6-49.161,799.158Z" fill="#294b9a"/>
    <path id="Path_1005" data-name="Path 1005" d="M-6.5,799.158s5.368,9.565,7.711,16.788c-.586,1.757-5.954,5.368-11.225,4.978a31.638,31.638,0,0,0-3.221-6.832S-13.629,801.6-6.5,799.158Z" fill="#294b9a"/>
    <g id="Group_369" data-name="Group 369" opacity="0.2">
      <path id="Path_1006" data-name="Path 1006" d="M-12.5,807.38a28.786,28.786,0,0,0-.737,6.711,31.667,31.667,0,0,1,3.221,6.833,12.318,12.318,0,0,0,3.734-.332C-9.472,811.913-12.162,807.871-12.5,807.38Z" fill="#00394f"/>
    </g>
    <g id="Group_370" data-name="Group 370" opacity="0.1">
      <path id="Path_1007" data-name="Path 1007" d="M-43.169,807.361c-.247.355-2.976,4.375-6.229,13.228a12.362,12.362,0,0,0,3.75.335,31.667,31.667,0,0,1,3.221-6.833A28.787,28.787,0,0,0-43.169,807.361Z" fill="#00394f"/>
    </g>
    <path id="Path_1008" data-name="Path 1008" d="M-14.507,795.058c-4.2-1.562-6.442-3.416-7.223-3.416,0,0,.28,4.9-6.1,9.647-6.382-4.747-6.1-9.647-6.1-9.647-.78,0-3.025,1.854-7.223,3.416s-6.93,2.538-8,4.1c1.464,1.172,6.149,3.807,6.149,15.813V850.6a58.487,58.487,0,0,0,15.129,1.952,55.243,55.243,0,0,0,15.23-1.952V814.97c0-12.006,4.686-14.641,6.15-15.813C-7.577,797.6-10.31,796.62-14.507,795.058Z" fill="#294b9a"/>
    <path id="Path_1009" data-name="Path 1009" d="M-56.655,815.274a4.809,4.809,0,0,0-.217.672c.585,1.757,5.954,5.368,11.224,4.978.26-.706.017-.117.26-.706C-49.73,820.372-55.111,817.231-56.655,815.274Z" fill="#fff"/>
    <path id="Path_1010" data-name="Path 1010" d="M1,815.274c-3.009,3.614-6.247,5.037-11.279,4.944.242.589,0,0,.259.706,5.271.39,10.307-2.937,11.225-4.978A5.415,5.415,0,0,0,1,815.274Z" fill="#fff"/>
    <g id="Group_371" data-name="Group 371" opacity="0.1">
      <path id="Path_1011" data-name="Path 1011" d="M-19,820.419c-.337,9.763-.843,24.453-1.091,31.646a46.211,46.211,0,0,0,7.44-1.468V814.97a27.113,27.113,0,0,1,1.565-9.982A19.291,19.291,0,0,0-19,820.419Z"/>
    </g>
    <g id="Group_372" data-name="Group 372" opacity="0.1">
      <path id="Path_1012" data-name="Path 1012" d="M-35.572,852.047c-.248-7.2-.754-21.874-1.09-31.628a19.3,19.3,0,0,0-7.915-15.431,27.109,27.109,0,0,1,1.565,9.982V850.6A52.134,52.134,0,0,0-35.572,852.047Z"/>
    </g>
    <path id="Path_1013" data-name="Path 1013" d="M-50.811,804.7c1.334-2.727,2.363-4.631,2.363-4.631,1.038-1.561,3.68-2.537,7.736-4.1,3.867-1.489,6-3.224,6.85-3.385a5.37,5.37,0,0,1-.073-.941c-.781,0-3.025,1.854-7.223,3.416s-6.93,2.538-8,4.1c0,0-1.084,1.94-2.484,4.708Z" fill="#79adde"/>
    <path id="Path_1014" data-name="Path 1014" d="M-14.953,795.968c4.057,1.562,6.7,2.538,7.736,4.1,0,0,.979,1.812,2.265,4.43l.832-.833C-5.472,801-6.5,799.157-6.5,799.157c-1.074-1.561-3.807-2.537-8-4.1s-6.442-3.416-7.223-3.416a5.37,5.37,0,0,1-.073.941C-20.956,792.744-18.82,794.479-14.953,795.968Z" fill="#79adde"/>
    <path id="Path_1015" data-name="Path 1015" d="M-28.86,802.669l1.026.8,1.029-.8c5.017-4.221,6.2-8.39,6.468-10.325a4.47,4.47,0,0,0-1.542-.7s.273,4.9-5.953,9.647c-6.226-4.747-5.953-9.647-5.953-9.647a4.472,4.472,0,0,0-1.543.7C-35.057,794.279-33.878,798.448-28.86,802.669Z" fill="#e42321"/>
    <path id="Path_1016" data-name="Path 1016" d="M-28.86,802.669l1.026.8,1.029-.8c5.017-4.221,6.2-8.39,6.468-10.325a4.47,4.47,0,0,0-1.542-.7s.273,4.9-5.953,9.647c-6.226-4.747-5.953-9.647-5.953-9.647a4.472,4.472,0,0,0-1.543.7C-35.057,794.279-33.878,798.448-28.86,802.669Z" fill="#fff" stroke="#fff" stroke-miterlimit="10" stroke-width="0.5"/>
    <g id="Group_373" data-name="Group 373">
      <path id="Path_1017" data-name="Path 1017" d="M-41.247,851.054c-.248-7.2.168-20.995-.168-30.749-.271-7.851.168-11.752-3.162-15.308a27.116,27.116,0,0,1,1.565,9.982v35.627A3.063,3.063,0,0,0-41.247,851.054Z" fill="#20234b"/>
    </g>
    <g id="Group_374" data-name="Group 374">
      <path id="Path_1018" data-name="Path 1018" d="M-14.418,851.054c.249-7.2-.168-20.995.168-30.749.271-7.851-.168-11.752,3.162-15.308a27.116,27.116,0,0,0-1.565,9.982v35.627A3.063,3.063,0,0,1-14.418,851.054Z" fill="#20234b"/>
    </g>
  </g>
</svg>
