<svg xmlns="http://www.w3.org/2000/svg" width="57.237" height="60.566" viewBox="0 0 57.237 60.566">
  <g id="Group_143" data-name="Group 143" transform="translate(-431.025 -656.877)">
    <rect id="Rectangle_205" data-name="Rectangle 205" width="12.153" height="11.817" transform="translate(453.607 657.365)" fill="#bfd4db"/>
    <rect id="Rectangle_206" data-name="Rectangle 206" width="4.868" height="11.817" transform="translate(457.074 657.365)" fill="#2a4b9a"/>
    <rect id="Rectangle_207" data-name="Rectangle 207" width="12.153" height="1.309" transform="translate(453.607 657.365)" fill="#2a4b9a"/>
    <path id="Path_345" data-name="Path 345" d="M438.624,664.783s-5.291,9.427-7.6,16.545c.577,1.732,5.867,5.291,11.062,4.906a31.178,31.178,0,0,1,3.174-6.734S445.646,667.188,438.624,664.783Z" fill="#2a4b9a"/>
    <path id="Path_346" data-name="Path 346" d="M480.663,664.783s5.29,9.427,7.6,16.545c-.578,1.732-5.868,5.291-11.062,4.906a31.2,31.2,0,0,0-3.175-6.734S473.641,667.188,480.663,664.783Z" fill="#2a4b9a"/>
    <path id="Path_347" data-name="Path 347" d="M474.752,672.886a28.391,28.391,0,0,0-.727,6.614,31.2,31.2,0,0,1,3.175,6.734,12.161,12.161,0,0,0,3.68-.327C477.737,677.353,475.086,673.37,474.752,672.886Z" fill="#2a4b9a"/>
    <path id="Path_348" data-name="Path 348" d="M444.529,672.868c-.243.349-2.933,4.311-6.139,13.035a12.173,12.173,0,0,0,3.7.331,31.178,31.178,0,0,1,3.174-6.734A28.382,28.382,0,0,0,444.529,672.868Z" fill="#2a4b9a"/>
    <path id="Path_349" data-name="Path 349" d="M472.775,660.743c-4.136-1.539-6.349-3.366-7.118-3.366,0,0,.275,4.828-6.014,9.507-6.289-4.679-6.013-9.507-6.013-9.507-.77,0-2.982,1.827-7.119,3.366s-6.829,2.5-7.887,4.04c1.443,1.155,6.06,3.752,6.06,15.583v35.11a57.656,57.656,0,0,0,14.909,1.923,54.475,54.475,0,0,0,15.01-1.923v-35.11c0-11.831,4.617-14.428,6.06-15.583C479.605,663.244,476.911,662.282,472.775,660.743Z" fill="#ecf6f7"/>
    <path id="Path_350" data-name="Path 350" d="M446.944,716.034a25.515,25.515,0,0,0,2.955.564V659.25c-.615.619-1.579.34-2.955,1.32Z" fill="#2a4b9a"/>
    <path id="Path_351" data-name="Path 351" d="M431.745,679.29c-.259.692-.506,1.377-.72,2.038.577,1.731,5.867,5.291,11.062,4.906.255-.7.5-1.315.74-1.9C438.549,684.49,433.266,681.219,431.745,679.29Z" fill="#2a4b9a"/>
    <path id="Path_352" data-name="Path 352" d="M468.38,685.791c-.332,9.621-.831,24.1-1.075,31.187a45.565,45.565,0,0,0,7.332-1.447v-35.11a26.717,26.717,0,0,1,1.542-9.837A19.016,19.016,0,0,0,468.38,685.791Z" fill="#00394f" opacity="0.1"/>
    <path id="Path_353" data-name="Path 353" d="M452.05,716.959c-.244-7.095-.743-21.555-1.074-31.168a19.014,19.014,0,0,0-7.8-15.207,26.7,26.7,0,0,1,1.542,9.837v35.11A51.4,51.4,0,0,0,452.05,716.959Z" fill="#00394f" opacity="0.1"/>
    <path id="Path_354" data-name="Path 354" d="M437,670.244c1.315-2.688,2.329-4.564,2.329-4.564,1.023-1.539,3.626-2.5,7.624-4.04,3.81-1.467,5.916-3.177,6.75-3.336a5.3,5.3,0,0,1-.071-.927c-.77,0-2.982,1.827-7.119,3.366s-6.829,2.5-7.887,4.04c0,0-1.068,1.911-2.447,4.639Z" fill="#2a4b9a"/>
    <path id="Path_355" data-name="Path 355" d="M472.335,661.64c4,1.539,6.6,2.5,7.624,4.04,0,0,.965,1.785,2.232,4.365l.82-.82c-1.332-2.627-2.348-4.442-2.348-4.442-1.059-1.539-3.752-2.5-7.888-4.04s-6.349-3.366-7.118-3.366a5.256,5.256,0,0,1-.072.927C466.419,658.463,468.525,660.173,472.335,661.64Z" fill="#2a4b9a"/>
    <path id="Path_356" data-name="Path 356" d="M452.586,716.977a17.494,17.494,0,0,0,2.955.279l-.528-54.351c-.615.641-.95-.94-2.427-2.969Z" fill="#2a4b9a"/>
    <path id="Path_357" data-name="Path 357" d="M458.206,717.4a29.266,29.266,0,0,0,2.955,0l-.522-49.954c-.615.62-1.057-1.081-2.433-.1Z" fill="#2a4b9a"/>
    <path id="Path_358" data-name="Path 358" d="M472.052,716.119a25.522,25.522,0,0,1-2.955.549V659.25c.615.619,1.579.34,2.955,1.32Z" fill="#2a4b9a"/>
    <path id="Path_359" data-name="Path 359" d="M466.411,717.026a27.037,27.037,0,0,1-2.956.254l.528-54.375c.616.641.95-.94,2.428-2.969Z" fill="#2a4b9a"/>
    <path id="Path_360" data-name="Path 360" d="M458.63,668.244l1.011.786,1.014-.786c4.945-4.16,6.108-8.268,6.375-10.175a4.407,4.407,0,0,0-1.52-.692s.269,4.828-5.867,9.507c-6.135-4.679-5.867-9.507-5.867-9.507a4.4,4.4,0,0,0-1.519.692C452.523,659.976,453.686,664.084,458.63,668.244Z" fill="#2a4b9a" stroke="#1c3661" stroke-miterlimit="10" stroke-width="1"/>
  </g>
</svg>
