<?xml version="1.0" encoding="utf-8"?>
<!-- Generator: Adobe Illustrator 23.0.3, SVG Export Plug-In . SVG Version: 6.00 Build 0)  -->
<svg version="1.1" id="Layer_1" xmlns="http://www.w3.org/2000/svg" xmlns:xlink="http://www.w3.org/1999/xlink" x="0px" y="0px"
	 viewBox="0 0 28 28" style="enable-background:new 0 0 28 28;" xml:space="preserve">
<style type="text/css">
	.st0{fill:#FFFFFF;}
</style>
<path id="Path_118" class="st0" d="M27.49,4.87c-0.26-0.26-0.62-0.4-0.99-0.4h-4.28c0.02-0.3,0.03-0.59,0.04-0.9h0.03
	c0.5,0,0.9-0.4,0.9-0.9c0-0.5-0.4-0.9-0.9-0.9c0,0,0,0-0.01,0H5.55c-0.5,0-0.9,0.4-0.9,0.9c0,0.5,0.4,0.9,0.9,0.9c0,0,0,0,0.01,0
	h0.03c0.01,0.31,0.03,0.6,0.04,0.9H1.35c-0.37,0-0.73,0.14-0.99,0.4c-0.26,0.25-0.4,0.6-0.4,0.96c0,0.22,0.01,0.4,0.01,0.49
	c0.01,2.7,1.07,5.29,2.96,7.22c1.71,1.58,3.93,2.5,6.26,2.6c0.52,0.6,1.14,1.11,1.83,1.5c0.64,0.35,1.04,1.01,1.05,1.74v0.72
	c0,1.01-1.58,1.5-2.93,1.79C8.68,22,8.35,22.39,8.34,22.86v0.49H7.41c-0.5-0.01-0.92,0.39-0.93,0.9c0,0,0,0,0,0v1.8
	c0.01,0.51,0.42,0.91,0.93,0.9c0,0,0,0,0,0h13.03c0.5,0.01,0.92-0.39,0.93-0.9c0,0,0,0,0,0v-1.8c-0.01-0.51-0.42-0.91-0.93-0.9
	c0,0,0,0,0,0h-0.93v-0.49c-0.01-0.47-0.34-0.86-0.79-0.96c-1.35-0.29-2.93-0.78-2.93-1.79v-0.72c0.01-0.73,0.41-1.4,1.05-1.74
	c0.69-0.39,1.31-0.9,1.83-1.5c2.33-0.1,4.55-1.02,6.26-2.6c1.88-1.93,2.95-4.52,2.96-7.22c0.01-0.09,0.01-0.27,0.01-0.49
	C27.9,5.47,27.75,5.12,27.49,4.87z M1.86,6.53C1.85,6.46,1.87,6.39,1.92,6.35C1.97,6.3,2.04,6.27,2.1,6.27h3.66
	c0.19,2.74,0.89,5.42,2.08,7.9C5.82,13.71,2.29,12.12,1.86,6.53L1.86,6.53z M20.02,14.17c1.18-2.48,1.89-5.16,2.08-7.9h3.66
	c0.07,0,0.14,0.03,0.18,0.08c0.05,0.05,0.07,0.11,0.07,0.18C25.58,12.12,22.04,13.71,20.02,14.17L20.02,14.17z"/>
</svg>
