<svg xmlns="http://www.w3.org/2000/svg" width="57.744" height="60.567" viewBox="0 0 57.744 60.567">
  <g id="Group_183" data-name="Group 183" transform="translate(-841.746 -777.54)">
    <rect id="Rectangle_253" data-name="Rectangle 253" width="12.26" height="11.404" transform="translate(864.529 778.048)" fill="#ffcb03"/>
    <rect id="Rectangle_254" data-name="Rectangle 254" width="12.236" height="1.855" transform="translate(864.51 777.54)" fill="#832437"/>
    <rect id="Rectangle_255" data-name="Rectangle 255" width="12.26" height="11.404" transform="translate(864.529 778.048)" fill="#00394f" opacity="0.1"/>
    <path id="Path_702" data-name="Path 702" d="M849.413,785.025s-5.338,9.51-7.667,16.691c.583,1.747,5.92,5.338,11.16,4.949a31.477,31.477,0,0,1,3.2-6.792S856.5,787.451,849.413,785.025Z" fill="#ffcb03"/>
    <path id="Path_703" data-name="Path 703" d="M891.823,785.025s5.338,9.51,7.667,16.691c-.583,1.747-5.92,5.338-11.16,4.949a31.474,31.474,0,0,0-3.2-6.792S884.739,787.451,891.823,785.025Z" fill="#ffcb03"/>
    <path id="Path_704" data-name="Path 704" d="M883.866,780.949c-4.173-1.552-6.405-3.4-7.181-3.4,0,0,1.627,4.418-6.059,5.963-7.7-2.047-6.075-5.963-6.075-5.963-.776,0-3.008,1.844-7.181,3.4s-6.89,2.524-7.957,4.076c1.455,1.165,6.113,3.785,6.113,15.721v35.42a58.142,58.142,0,0,0,15.042,1.941,54.922,54.922,0,0,0,15.142-1.941v-35.42c0-11.936,4.658-14.556,6.113-15.721C890.756,783.473,888.039,782.5,883.866,780.949Z" fill="#ffcb03"/>
    <g id="Group_177" data-name="Group 177">
      <g id="Group_176" data-name="Group 176">
        <path id="Path_705" data-name="Path 705" d="M841.963,801.049a4.938,4.938,0,0,0-.217.667c.582,1.747,5.92,5.338,11.16,4.949.258-.7.017-.116.258-.7C848.847,806.117,843.5,802.995,841.963,801.049Z" fill="#ffcb03"/>
      </g>
    </g>
    <path id="Path_706" data-name="Path 706" d="M847.773,790.534c1.326-2.711,2.349-4.6,2.349-4.6,1.032-1.553,3.658-2.523,7.691-4.076,3.845-1.48,5.969-3.206,6.811-3.366a5.3,5.3,0,0,1-.073-.935c-.776,0-3.008,1.844-7.181,3.4s-6.89,2.524-7.957,4.076c0,0-1.078,1.928-2.469,4.68Z" fill="#ffcb03"/>
    <path id="Path_707" data-name="Path 707" d="M883.423,781.854c4.033,1.553,6.659,2.523,7.691,4.076,0,0,.973,1.8,2.251,4.4l.828-.827c-1.344-2.65-2.37-4.481-2.37-4.481-1.067-1.552-3.784-2.523-7.957-4.076s-6.405-3.4-7.181-3.4a5.3,5.3,0,0,1-.073.935C877.454,778.649,879.578,780.374,883.423,781.854Z" fill="#ffcb03"/>
    <path id="Path_708" data-name="Path 708" d="M870.626,783.516c6.741,0,7.63-4.689,7.63-5.275a4.619,4.619,0,0,0-1.571-.7s.769,4.245-6.067,4.245c-6.353,0-6.067-4.245-6.067-4.245a4.629,4.629,0,0,0-1.572.7S863.944,783.516,870.626,783.516Z" fill="#fff"/>
    <g id="Group_178" data-name="Group 178" opacity="0.2">
      <path id="Path_709" data-name="Path 709" d="M886.2,793.688a24.563,24.563,0,0,0-.487,7.058s.873,1.164,2.62,5.919a12.247,12.247,0,0,0,3.713-.33C888.872,797.706,886.533,794.176,886.2,793.688Z" fill="#00394f"/>
    </g>
    <g id="Group_179" data-name="Group 179" opacity="0.1">
      <path id="Path_710" data-name="Path 710" d="M855.125,793.534c-.246.353-2.714,4-5.948,12.8a12.255,12.255,0,0,0,3.729.333,28.617,28.617,0,0,1,2.878-6.285A27.174,27.174,0,0,0,855.125,793.534Z" fill="#00394f"/>
    </g>
    <g id="Group_182" data-name="Group 182" opacity="0.1">
      <g id="Group_180" data-name="Group 180">
        <path id="Path_711" data-name="Path 711" d="M879.4,806.164c-.335,9.705-.838,24.311-1.085,31.462a45.958,45.958,0,0,0,7.4-1.46v-35.42a26.953,26.953,0,0,1,1.555-9.924A19.181,19.181,0,0,0,879.4,806.164Z" fill="#00394f"/>
      </g>
      <g id="Group_181" data-name="Group 181">
        <path id="Path_712" data-name="Path 712" d="M862.923,837.608c-.247-7.158-.75-21.747-1.084-31.444a19.179,19.179,0,0,0-7.869-15.342,26.927,26.927,0,0,1,1.556,9.924v35.42A51.72,51.72,0,0,0,862.923,837.608Z" fill="#00394f"/>
      </g>
    </g>
    <rect id="Rectangle_256" data-name="Rectangle 256" width="12.236" height="1.855" transform="translate(864.51 777.54)" fill="#fff"/>
  </g>
</svg>
