<svg xmlns="http://www.w3.org/2000/svg" width="279.007" height="43.547" viewBox="0 0 279.007 43.547">
  <g id="Group_307" data-name="Group 307" transform="translate(716.134 -767.874)">
    <path id="Path_875" data-name="Path 875" d="M-700.737,813.117a8.787,8.787,0,0,1-2.734-1.987,7.767,7.767,0,0,1-1.745-3.52,10.642,10.642,0,0,1,1.5-7.353,26.394,26.394,0,0,1,5.2-6.048,13.378,13.378,0,0,0-1.694,4.462c3.3-4.081,7.81-6.743,12.654-9.342-3.059-3.578-6.385-7.976-9.443-11.554l2.021-1.944A30.446,30.446,0,0,0-706.186,782a23.89,23.89,0,0,1,5.062-2.077c-5.188,2.8-10.683,7.134-13.332,12.65a18.229,18.229,0,0,0,.262,15.809,12.012,12.012,0,0,1,.292-5,12.991,12.991,0,0,0,5.07,9.96,16.051,16.051,0,0,0,11.286,3.5,12.624,12.624,0,0,0,5.808-1.92,10.382,10.382,0,0,0,3.632-4.534A10.1,10.1,0,0,1-700.737,813.117Z" transform="translate(0 -5.582)" fill="#1a6ab4"/>
    <circle id="Ellipse_25" data-name="Ellipse 25" cx="8.673" cy="8.673" r="8.673" transform="translate(-700.054 767.874)" fill="#0f265a"/>
    <path id="Path_876" data-name="Path 876" d="M-643.481,780.974l-2.717-1.826,1.177-3.428a7.683,7.683,0,0,0-3.236-2.47l-2.8,2.1-2.95-2.089a7.68,7.68,0,0,0-3.232,2.489l1.157,3.163-2.67,2.093a7.616,7.616,0,0,0,1.446,3.867l2.974-.109,1.08,2.952a7.655,7.655,0,0,0,2.255.3,7.674,7.674,0,0,0,1.968-.289l.8-2.818,3.355-.123A7.617,7.617,0,0,0-643.481,780.974ZM-649.248,783l-3.473.056-1.126-3.286,2.777-2.087,2.843,2Z" transform="translate(-40.257 -3.771)" fill="#fff"/>
    <path id="Path_877" data-name="Path 877" d="M-706.984,805.176l-3.264,1.777,1.917,3.172-2.5-2.838-3.6,1.193,3.264-1.777-2.267-3.657,2.852,3.322Z" transform="translate(-1.195 -24.673)" fill="#fff"/>
    <path id="Path_878" data-name="Path 878" d="M-708.818,832.16l-1.277.455.511,1.252-.74-1.165-1.365.225,1.277-.455-.511-1.252.74,1.165Z" transform="translate(-3.118 -44.438)" fill="#fff"/>
    <path id="Path_879" data-name="Path 879" d="M-664.932,900.362l-1.174,1.64,1.584,1.029-1.791-.728-1.457,1.445,1.174-1.639-1.584-1.029,1.791.728Z" transform="translate(-33.64 -92.94)" fill="#fff"/>
    <path id="Path_880" data-name="Path 880" d="M-696.47,885.795l-1.962,2.2,2.441,1.295-2.716-.895-2.19,1.944,1.827-2.193-2.306-1.3,2.581.9Z" transform="translate(-10.352 -82.721)" fill="#fff"/>
    <path id="Path_881" data-name="Path 881" d="M-677.832,907.352l-1.07.871.86.964-1.051-.8-1.222.692,1.07-.871-.86-.964,1.051.8Z" transform="translate(-25.127 -97.766)" fill="#fff"/>
    <path id="Path_882" data-name="Path 882" d="M-672.773,818.715l-1.125.574.623,1.1-.824-.987-1.233.373,1.125-.574-.623-1.1.825.987Z" transform="translate(-28.622 -35.235)" fill="#edeeef"/>
    <path id="Path_883" data-name="Path 883" d="M-677.025,804.2l-1.846.988,1.068,1.795-1.4-1.609-2.032.658,1.846-.988-1.068-1.795,1.4,1.609Z" transform="translate(-24.483 -24.818)" fill="#edeeef"/>
    <g id="Group_304" data-name="Group 304" transform="translate(-701.207 787.775)">
      <path id="Path_884" data-name="Path 884" d="M-663.439,837.026v2.919h3.94v2.064h-3.94v4.485h-2.689V834.97h7.42v2.056Z" transform="translate(666.128 -834.843)" fill="#fff"/>
      <path id="Path_885" data-name="Path 885" d="M-628.657,846.495h-2.073a.906.906,0,0,1-.561-.162,1.032,1.032,0,0,1-.325-.415l-.68-2.01h-4.382l-.681,2.01a.96.96,0,0,1-.312.4.872.872,0,0,1-.558.178h-2.088l4.461-11.525h2.737Zm-4.248-4.406-1.068-3.156q-.119-.3-.253-.708t-.269-.882q-.119.483-.253.894t-.253.712l-1.06,3.14Z" transform="translate(648.022 -834.843)" fill="#fff"/>
      <path id="Path_886" data-name="Path 886" d="M-584.7,834.97v11.525h-1.392a1.211,1.211,0,0,1-.518-.1,1.264,1.264,0,0,1-.415-.344l-5.434-6.874c.021.206.036.405.043.6s.012.373.012.542v6.178h-2.357V834.97h1.408a2.307,2.307,0,0,1,.293.016.775.775,0,0,1,.214.059.7.7,0,0,1,.182.123,2.08,2.08,0,0,1,.2.214l5.482,6.921q-.04-.332-.056-.645t-.016-.59v-6.1Z" transform="translate(616.066 -834.843)" fill="#fff"/>
      <path id="Path_887" data-name="Path 887" d="M-543.92,837.09h-3.243v9.405h-2.674V837.09h-3.243v-2.12h9.16Z" transform="translate(586.825 -834.843)" fill="#fff"/>
      <path id="Path_888" data-name="Path 888" d="M-510.945,846.495h-2.073a.906.906,0,0,1-.561-.162,1.029,1.029,0,0,1-.325-.415l-.68-2.01h-4.382l-.68,2.01a.96.96,0,0,1-.313.4.872.872,0,0,1-.558.178H-522.6l4.461-11.525h2.737Zm-4.248-4.406-1.068-3.156q-.119-.3-.253-.708t-.269-.882q-.119.483-.253.894t-.253.712l-1.06,3.14Z" transform="translate(565.446 -834.843)" fill="#fff"/>
      <path id="Path_889" data-name="Path 889" d="M-472.784,837.013a1.01,1.01,0,0,1-.249.285.56.56,0,0,1-.336.095.824.824,0,0,1-.392-.115l-.475-.257a3.893,3.893,0,0,0-.605-.257,2.423,2.423,0,0,0-.775-.115,1.668,1.668,0,0,0-1.119.32,1.09,1.09,0,0,0-.368.866.8.8,0,0,0,.221.578,1.9,1.9,0,0,0,.581.4,6.224,6.224,0,0,0,.823.3q.463.138.945.308a8.477,8.477,0,0,1,.945.4,3.152,3.152,0,0,1,.823.585,2.732,2.732,0,0,1,.581.866,3.078,3.078,0,0,1,.222,1.23,4.01,4.01,0,0,1-.277,1.495,3.5,3.5,0,0,1-.8,1.214,3.728,3.728,0,0,1-1.3.815,4.847,4.847,0,0,1-1.752.3,5.6,5.6,0,0,1-1.1-.111,6.473,6.473,0,0,1-1.08-.312,6.206,6.206,0,0,1-.981-.479,4.121,4.121,0,0,1-.8-.617l.791-1.25a.8.8,0,0,1,.249-.225.651.651,0,0,1,.336-.091.9.9,0,0,1,.479.15q.242.15.546.332a4.381,4.381,0,0,0,.7.332,2.623,2.623,0,0,0,.933.15,1.775,1.775,0,0,0,1.131-.321,1.219,1.219,0,0,0,.4-1.016.96.96,0,0,0-.221-.656,1.706,1.706,0,0,0-.582-.42,5.382,5.382,0,0,0-.819-.292q-.459-.126-.941-.281a6.893,6.893,0,0,1-.941-.379,2.973,2.973,0,0,1-.819-.594,2.771,2.771,0,0,1-.581-.918,3.645,3.645,0,0,1-.221-1.356,3.22,3.22,0,0,1,.261-1.266,3.263,3.263,0,0,1,.767-1.1,3.78,3.78,0,0,1,1.242-.771,4.589,4.589,0,0,1,1.685-.289,6.342,6.342,0,0,1,1.033.083,5.43,5.43,0,0,1,.953.245,5.25,5.25,0,0,1,.843.387,3.9,3.9,0,0,1,.7.51Z" transform="translate(535.591 -834.545)" fill="#fff"/>
      <path id="Path_890" data-name="Path 890" d="M-442.828,842.112v4.383H-445.5v-4.383l-4.177-7.142h2.357a.852.852,0,0,1,.55.162,1.323,1.323,0,0,1,.336.415l1.629,3.354q.206.395.372.739t.293.677q.118-.34.273-.684t.36-.732l1.614-3.354a1.539,1.539,0,0,1,.134-.206,1.044,1.044,0,0,1,.186-.186.913.913,0,0,1,.245-.134.87.87,0,0,1,.3-.051h2.373Z" transform="translate(514.288 -834.843)" fill="#fff"/>
      <path id="Path_891" data-name="Path 891" d="M-390.147,837.026v2.919h3.94v2.064h-3.94v4.485h-2.689V834.97h7.42v2.056Z" transform="translate(474.413 -834.843)" fill="#fff"/>
      <path id="Path_892" data-name="Path 892" d="M-349.96,840.431a6.193,6.193,0,0,1-.431,2.326,5.607,5.607,0,0,1-1.215,1.871,5.568,5.568,0,0,1-1.887,1.246,6.42,6.42,0,0,1-2.448.451,6.45,6.45,0,0,1-2.452-.451,5.6,5.6,0,0,1-1.895-1.246,5.572,5.572,0,0,1-1.218-1.871,6.188,6.188,0,0,1-.431-2.326,6.188,6.188,0,0,1,.431-2.326,5.527,5.527,0,0,1,1.218-1.867A5.623,5.623,0,0,1-358.392,835a6.439,6.439,0,0,1,2.452-.451,6.372,6.372,0,0,1,2.448.455,5.654,5.654,0,0,1,1.887,1.246,5.566,5.566,0,0,1,1.215,1.867A6.172,6.172,0,0,1-349.96,840.431Zm-2.737,0a4.991,4.991,0,0,0-.221-1.539,3.263,3.263,0,0,0-.637-1.159,2.748,2.748,0,0,0-1.016-.728,3.5,3.5,0,0,0-1.368-.253,3.551,3.551,0,0,0-1.38.253,2.743,2.743,0,0,0-1.021.728,3.257,3.257,0,0,0-.637,1.159,4.983,4.983,0,0,0-.221,1.539,5.005,5.005,0,0,0,.221,1.546,3.247,3.247,0,0,0,.637,1.159,2.7,2.7,0,0,0,1.021.724,3.6,3.6,0,0,0,1.38.249,3.552,3.552,0,0,0,1.368-.249,2.705,2.705,0,0,0,1.016-.724,3.252,3.252,0,0,0,.637-1.159A5.014,5.014,0,0,0-352.7,840.431Z" transform="translate(452.737 -834.545)" fill="#fff"/>
      <path id="Path_893" data-name="Path 893" d="M-303.347,840.431a6.194,6.194,0,0,1-.431,2.326,5.607,5.607,0,0,1-1.214,1.871,5.57,5.57,0,0,1-1.887,1.246,6.42,6.42,0,0,1-2.448.451,6.45,6.45,0,0,1-2.452-.451,5.6,5.6,0,0,1-1.894-1.246,5.561,5.561,0,0,1-1.218-1.871,6.187,6.187,0,0,1-.431-2.326,6.187,6.187,0,0,1,.431-2.326,5.517,5.517,0,0,1,1.218-1.867A5.622,5.622,0,0,1-311.779,835a6.439,6.439,0,0,1,2.452-.451,6.372,6.372,0,0,1,2.448.455,5.656,5.656,0,0,1,1.887,1.246,5.566,5.566,0,0,1,1.214,1.867A6.173,6.173,0,0,1-303.347,840.431Zm-2.737,0a4.992,4.992,0,0,0-.221-1.539,3.263,3.263,0,0,0-.637-1.159,2.745,2.745,0,0,0-1.016-.728,3.5,3.5,0,0,0-1.368-.253,3.553,3.553,0,0,0-1.38.253,2.746,2.746,0,0,0-1.021.728,3.263,3.263,0,0,0-.637,1.159,4.982,4.982,0,0,0-.221,1.539,5,5,0,0,0,.221,1.546,3.252,3.252,0,0,0,.637,1.159,2.7,2.7,0,0,0,1.021.724,3.6,3.6,0,0,0,1.38.249,3.552,3.552,0,0,0,1.368-.249,2.7,2.7,0,0,0,1.016-.724,3.252,3.252,0,0,0,.637-1.159A5.015,5.015,0,0,0-306.084,840.431Z" transform="translate(420.038 -834.545)" fill="#fff"/>
      <path id="Path_894" data-name="Path 894" d="M-261.193,837.09h-3.243v9.405h-2.674V837.09h-3.243v-2.12h9.16Z" transform="translate(388.491 -834.843)" fill="#fff"/>
      <path id="Path_895" data-name="Path 895" d="M-227.45,834.97a8.075,8.075,0,0,1,2.033.221,3.886,3.886,0,0,1,1.369.625,2.373,2.373,0,0,1,.771.981,3.311,3.311,0,0,1,.241,1.289,2.531,2.531,0,0,1-.111.748,2.15,2.15,0,0,1-.348.673,2.711,2.711,0,0,1-.609.573,3.82,3.82,0,0,1-.894.451,3.189,3.189,0,0,1,1.685.894,2.324,2.324,0,0,1,.546,1.6,3.3,3.3,0,0,1-.285,1.368,3.143,3.143,0,0,1-.835,1.1,3.965,3.965,0,0,1-1.357.735,5.891,5.891,0,0,1-1.843.265h-4.6V834.97Zm-1.566,2v2.848h1.392a4.574,4.574,0,0,0,.8-.063,1.658,1.658,0,0,0,.605-.221,1.014,1.014,0,0,0,.38-.435,1.63,1.63,0,0,0,.13-.7,1.965,1.965,0,0,0-.1-.684.981.981,0,0,0-.316-.439,1.336,1.336,0,0,0-.542-.237,3.748,3.748,0,0,0-.779-.071Zm1.883,7.507a2.357,2.357,0,0,0,.866-.134,1.363,1.363,0,0,0,.526-.348,1.165,1.165,0,0,0,.261-.482,2.124,2.124,0,0,0,.071-.546,1.824,1.824,0,0,0-.083-.57.941.941,0,0,0-.285-.427,1.387,1.387,0,0,0-.534-.269,3.117,3.117,0,0,0-.839-.095h-1.867v2.871Z" transform="translate(361.369 -834.843)" fill="#fff"/>
      <path id="Path_896" data-name="Path 896" d="M-186.19,846.495h-2.072a.906.906,0,0,1-.561-.162,1.029,1.029,0,0,1-.324-.415l-.68-2.01h-4.382l-.68,2.01a.961.961,0,0,1-.313.4.872.872,0,0,1-.558.178h-2.088l4.461-11.525h2.737Zm-4.248-4.406-1.068-3.156q-.119-.3-.253-.708t-.269-.882q-.119.483-.253.894t-.253.712l-1.06,3.14Z" transform="translate(337.63 -834.843)" fill="#fff"/>
      <path id="Path_897" data-name="Path 897" d="M-145.351,844.359v2.135H-152.3V834.97h2.674v9.39Z" transform="translate(305.674 -834.843)" fill="#fff"/>
      <path id="Path_898" data-name="Path 898" d="M-114.083,844.359v2.135h-6.945V834.97h2.674v9.39Z" transform="translate(283.739 -834.843)" fill="#fff"/>
    </g>
    <g id="Group_306" data-name="Group 306" transform="translate(-526.311 787.921)">
      <g id="Group_305" data-name="Group 305" transform="translate(0 0)">
        <path id="Path_899" data-name="Path 899" d="M-73.13,837.438a.97.97,0,0,1-.242.277.544.544,0,0,1-.328.093.8.8,0,0,1-.381-.112l-.463-.251a3.9,3.9,0,0,0-.59-.25,2.361,2.361,0,0,0-.756-.112,1.625,1.625,0,0,0-1.091.312,1.061,1.061,0,0,0-.359.844.78.78,0,0,0,.216.563,1.86,1.86,0,0,0,.567.385,5.982,5.982,0,0,0,.8.3q.45.135.921.3a8.239,8.239,0,0,1,.921.39,3.078,3.078,0,0,1,.8.57,2.66,2.66,0,0,1,.567.844,3,3,0,0,1,.216,1.2,3.9,3.9,0,0,1-.27,1.457,3.4,3.4,0,0,1-.783,1.183,3.624,3.624,0,0,1-1.264.794,4.73,4.73,0,0,1-1.707.289,5.456,5.456,0,0,1-1.068-.108,6.333,6.333,0,0,1-1.052-.3,6.107,6.107,0,0,1-.956-.467,4.037,4.037,0,0,1-.779-.6l.771-1.218a.78.78,0,0,1,.243-.22.634.634,0,0,1,.328-.088.881.881,0,0,1,.466.146q.236.147.532.324a4.331,4.331,0,0,0,.682.324,2.564,2.564,0,0,0,.91.146,1.731,1.731,0,0,0,1.1-.312,1.188,1.188,0,0,0,.393-.991A.938.938,0,0,0-75,842.5a1.671,1.671,0,0,0-.567-.409,5.3,5.3,0,0,0-.8-.285q-.447-.123-.918-.273a6.784,6.784,0,0,1-.917-.37,2.9,2.9,0,0,1-.8-.578,2.708,2.708,0,0,1-.567-.894,3.554,3.554,0,0,1-.216-1.322,3.141,3.141,0,0,1,.254-1.234,3.177,3.177,0,0,1,.748-1.071,3.674,3.674,0,0,1,1.21-.752,4.467,4.467,0,0,1,1.642-.281,6.147,6.147,0,0,1,1.006.081,5.26,5.26,0,0,1,.929.239,5.123,5.123,0,0,1,.821.378,3.793,3.793,0,0,1,.682.5Z" transform="translate(80.207 -835.033)" fill="#1a6ab4"/>
        <path id="Path_900" data-name="Path 900" d="M-39.211,843.482a.526.526,0,0,1,.185.035.5.5,0,0,1,.177.119l1.033,1.087a4.291,4.291,0,0,1-1.7,1.338,5.952,5.952,0,0,1-2.417.451,5.749,5.749,0,0,1-2.293-.436,4.948,4.948,0,0,1-1.719-1.2,5.285,5.285,0,0,1-1.083-1.819,6.711,6.711,0,0,1-.378-2.286A6.324,6.324,0,0,1-47,838.46a5.363,5.363,0,0,1,1.148-1.816,5.18,5.18,0,0,1,1.773-1.187,5.929,5.929,0,0,1,2.275-.424,6.085,6.085,0,0,1,1.191.112,5.809,5.809,0,0,1,1.045.308,4.8,4.8,0,0,1,.894.474,4.694,4.694,0,0,1,.725.6l-.879,1.18a1.108,1.108,0,0,1-.2.2.522.522,0,0,1-.324.089.574.574,0,0,1-.262-.062,2.9,2.9,0,0,1-.262-.15l-.3-.193a2.306,2.306,0,0,0-.393-.193,3.245,3.245,0,0,0-.532-.151,3.654,3.654,0,0,0-.713-.062,2.872,2.872,0,0,0-1.184.239,2.582,2.582,0,0,0-.925.7,3.235,3.235,0,0,0-.6,1.125,5.018,5.018,0,0,0-.212,1.523A4.621,4.621,0,0,0-44.5,842.3a3.366,3.366,0,0,0,.639,1.129,2.718,2.718,0,0,0,.945.7,2.826,2.826,0,0,0,1.156.239,5.44,5.44,0,0,0,.647-.035,2.9,2.9,0,0,0,.547-.115,2.232,2.232,0,0,0,.478-.216,3.008,3.008,0,0,0,.455-.343.893.893,0,0,1,.2-.127A.526.526,0,0,1-39.211,843.482Z" transform="translate(57.198 -835.033)" fill="#1a6ab4"/>
        <path id="Path_901" data-name="Path 901" d="M.529,840.769a6.04,6.04,0,0,1-.42,2.267,5.468,5.468,0,0,1-1.183,1.823,5.43,5.43,0,0,1-1.839,1.214,6.25,6.25,0,0,1-2.386.44,6.28,6.28,0,0,1-2.39-.44,5.457,5.457,0,0,1-1.846-1.214,5.433,5.433,0,0,1-1.188-1.823,6.034,6.034,0,0,1-.42-2.267,6.034,6.034,0,0,1,.42-2.266,5.393,5.393,0,0,1,1.188-1.82,5.483,5.483,0,0,1,1.846-1.21,6.28,6.28,0,0,1,2.39-.439,6.209,6.209,0,0,1,2.386.443,5.505,5.505,0,0,1,1.839,1.214A5.425,5.425,0,0,1,.109,838.51,6.021,6.021,0,0,1,.529,840.769Zm-2.667,0a4.859,4.859,0,0,0-.216-1.5,3.183,3.183,0,0,0-.621-1.13,2.685,2.685,0,0,0-.991-.709,3.408,3.408,0,0,0-1.334-.247,3.456,3.456,0,0,0-1.345.247,2.675,2.675,0,0,0-.995.709,3.183,3.183,0,0,0-.621,1.13,4.85,4.85,0,0,0-.216,1.5,4.873,4.873,0,0,0,.216,1.507,3.173,3.173,0,0,0,.621,1.13,2.633,2.633,0,0,0,.995.705,3.5,3.5,0,0,0,1.345.243,3.454,3.454,0,0,0,1.334-.243,2.643,2.643,0,0,0,.991-.705,3.173,3.173,0,0,0,.621-1.13A4.882,4.882,0,0,0-2.138,840.769Z" transform="translate(31.758 -835.033)" fill="#1a6ab4"/>
        <path id="Path_902" data-name="Path 902" d="M41.615,837.512H38.454v9.167H35.848v-9.167H32.687v-2.066h8.928Z" transform="translate(1.012 -835.323)" fill="#1a6ab4"/>
        <path id="Path_903" data-name="Path 903" d="M77.138,844.6v2.082H70.369V835.446h2.606V844.6Z" transform="translate(-25.422 -835.323)" fill="#1a6ab4"/>
        <path id="Path_904" data-name="Path 904" d="M107.9,846.679h-2.02a.883.883,0,0,1-.548-.158,1,1,0,0,1-.316-.4l-.663-1.958h-4.271l-.663,1.958a.936.936,0,0,1-.3.389.849.849,0,0,1-.543.174H96.533l4.348-11.233h2.668Zm-4.14-4.294-1.041-3.076q-.116-.293-.247-.69t-.262-.86q-.116.47-.247.871t-.246.694l-1.033,3.061Z" transform="translate(-43.776 -835.323)" fill="#1a6ab4"/>
        <path id="Path_905" data-name="Path 905" d="M150.738,835.446v11.233h-1.357a1.179,1.179,0,0,1-.5-.1,1.231,1.231,0,0,1-.405-.335l-5.3-6.7q.031.3.043.582c.007.188.011.364.011.528v6.021h-2.3V835.446H142.3a2.236,2.236,0,0,1,.285.015.74.74,0,0,1,.208.058.7.7,0,0,1,.177.119,1.992,1.992,0,0,1,.193.208l5.343,6.746c-.026-.216-.044-.426-.054-.629s-.016-.394-.016-.575v-5.944Z" transform="translate(-74.922 -835.323)" fill="#1a6ab4"/>
        <path id="Path_906" data-name="Path 906" d="M194.616,841.058a5.886,5.886,0,0,1-.42,2.247,5.26,5.26,0,0,1-1.184,1.781,5.37,5.37,0,0,1-1.839,1.172,6.5,6.5,0,0,1-2.386.42h-4.364V835.446h4.364a6.459,6.459,0,0,1,2.386.424,5.445,5.445,0,0,1,1.839,1.172,5.222,5.222,0,0,1,1.184,1.777A5.866,5.866,0,0,1,194.616,841.058Zm-2.668,0a4.893,4.893,0,0,0-.216-1.5,3.214,3.214,0,0,0-.621-1.137,2.7,2.7,0,0,0-.991-.717,3.361,3.361,0,0,0-1.334-.251h-1.742v7.224h1.742a3.362,3.362,0,0,0,1.334-.251,2.691,2.691,0,0,0,.991-.717,3.215,3.215,0,0,0,.621-1.137A4.918,4.918,0,0,0,191.949,841.058Z" transform="translate(-105.432 -835.323)" fill="#1a6ab4"/>
      </g>
    </g>
  </g>
</svg>
