<svg xmlns="http://www.w3.org/2000/svg" width="57.865" height="60.695" viewBox="0 0 57.865 60.695">
  <g id="Group_137" data-name="Group 137" transform="translate(-503.63 -657.248)">
    <rect id="Rectangle_200" data-name="Rectangle 200" width="12.286" height="11.428" transform="translate(526.461 657.758)" fill="#f9b513"/>
    <rect id="Rectangle_201" data-name="Rectangle 201" width="12.262" height="1.859" transform="translate(526.442 657.248)" fill="#941914"/>
    <path id="Path_320" data-name="Path 320" d="M511.313,664.75s-5.349,9.53-7.683,16.726c.584,1.751,5.932,5.349,11.183,4.96a31.537,31.537,0,0,1,3.21-6.807S518.412,667.181,511.313,664.75Z" fill="#f9b513"/>
    <path id="Path_321" data-name="Path 321" d="M553.813,664.75s5.348,9.53,7.682,16.726c-.583,1.751-5.932,5.349-11.183,4.96a31.512,31.512,0,0,0-3.209-6.807S546.714,667.181,553.813,664.75Z" fill="#f9b513"/>
    <path id="Path_322" data-name="Path 322" d="M545.839,660.665c-4.182-1.555-6.418-3.4-7.2-3.4,0,0,1.631,4.428-6.071,5.976-7.72-2.052-6.088-5.976-6.088-5.976-.778,0-3.015,1.848-7.2,3.4s-6.9,2.529-7.974,4.085c1.458,1.167,6.126,3.792,6.126,15.754V716a58.269,58.269,0,0,0,15.073,1.945A55.042,55.042,0,0,0,547.686,716V680.5c0-11.962,4.668-14.587,6.127-15.754C552.743,663.194,550.02,662.221,545.839,660.665Z" fill="#f9b513"/>
    <g id="Group_130" data-name="Group 130">
      <path id="Path_323" data-name="Path 323" d="M504.358,679.416c-.262.7-.511,1.392-.728,2.06.584,1.751,5.932,5.349,11.183,4.96.259-.7.507-1.33.749-1.917C511.237,684.673,505.9,681.366,504.358,679.416Z" fill="#f9b513"/>
    </g>
    <g id="Group_131" data-name="Group 131">
      <path id="Path_324" data-name="Path 324" d="M560.813,679.539c-1.521,1.922-6.907,5.141-11.25,4.981.242.587.491,1.213.749,1.916,5.251.389,10.6-3.209,11.183-4.96C561.291,680.847,561.058,680.2,560.813,679.539Z" fill="#f9b513"/>
    </g>
    <path id="Path_325" data-name="Path 325" d="M509.669,670.27c1.33-2.717,2.355-4.614,2.355-4.614,1.034-1.556,3.665-2.528,7.707-4.084,3.852-1.483,5.981-3.212,6.825-3.373a5.321,5.321,0,0,1-.073-.937c-.778,0-3.015,1.848-7.2,3.4s-6.9,2.529-7.974,4.085c0,0-1.08,1.932-2.474,4.69Z" fill="#f9b513"/>
    <path id="Path_326" data-name="Path 326" d="M545.394,661.572c4.042,1.556,6.674,2.528,7.708,4.084,0,0,.975,1.8,2.256,4.413l.829-.829c-1.347-2.655-2.374-4.49-2.374-4.49-1.07-1.556-3.793-2.529-7.974-4.085s-6.419-3.4-7.2-3.4a5.248,5.248,0,0,1-.072.937C539.413,658.36,541.542,660.089,545.394,661.572Z" fill="#f9b513"/>
    <path id="Path_327" data-name="Path 327" d="M532.571,663.238c6.755,0,7.646-4.7,7.646-5.286a4.626,4.626,0,0,0-1.575-.7s.772,4.254-6.079,4.254c-6.367,0-6.08-4.254-6.08-4.254a4.634,4.634,0,0,0-1.575.7S525.875,663.238,532.571,663.238Z" fill="#941914"/>
    <rect id="Rectangle_202" data-name="Rectangle 202" width="30.89" height="11.404" transform="translate(517.118 677.3)" fill="#941914"/>
    <g id="Group_134" data-name="Group 134" opacity="0.1">
      <g id="Group_132" data-name="Group 132">
        <path id="Path_328" data-name="Path 328" d="M541.36,685.933c-.335,9.726-.84,24.362-1.087,31.529A46.007,46.007,0,0,0,547.686,716V680.5a27,27,0,0,1,1.559-9.945A19.221,19.221,0,0,0,541.36,685.933Z" fill="#00394f"/>
      </g>
      <g id="Group_133" data-name="Group 133">
        <path id="Path_329" data-name="Path 329" d="M524.851,717.443c-.247-7.173-.751-21.792-1.086-31.51a19.218,19.218,0,0,0-7.885-15.374,27,27,0,0,1,1.559,9.945V716A51.9,51.9,0,0,0,524.851,717.443Z" fill="#00394f"/>
      </g>
    </g>
    <g id="Group_135" data-name="Group 135" opacity="0.2">
      <path id="Path_330" data-name="Path 330" d="M547.838,672.941a28.651,28.651,0,0,0-.735,6.688,31.512,31.512,0,0,1,3.209,6.807,12.3,12.3,0,0,0,3.721-.331C550.855,677.458,548.175,673.431,547.838,672.941Z" fill="#00394f"/>
    </g>
    <g id="Group_136" data-name="Group 136" opacity="0.1">
      <path id="Path_331" data-name="Path 331" d="M517.283,672.923c-.246.354-2.965,4.359-6.207,13.179a12.339,12.339,0,0,0,3.737.334,31.537,31.537,0,0,1,3.21-6.807A28.712,28.712,0,0,0,517.283,672.923Z" fill="#00394f"/>
    </g>
  </g>
</svg>
