<svg xmlns="http://www.w3.org/2000/svg" width="19.999" height="19.999" viewBox="0 0 19.999 19.999">
  <g id="Group_86" data-name="Group 86" transform="translate(382.008 -263.905)">
    <path id="Path_122" data-name="Path 122" d="M-141.338,401.782l-.665,3.243a.28.28,0,0,0,.327.327l3.243-.665.142-.076,6.974-6.974a.14.14,0,0,0,0-.2l-2.772-2.772a.14.14,0,0,0-.2,0l-6.974,6.974Z" transform="translate(-234 -127.452)" fill="#fff"/>
    <path id="Path_123" data-name="Path 123" d="M-364.409,353.913h-1.2a.4.4,0,0,0-.4.4v5.6h-14v-14h4.6a.4.4,0,0,0,.4-.4v-1.2a.4.4,0,0,0-.4-.4h-5.6a1,1,0,0,0-1,1v16a1,1,0,0,0,1,1h16a1,1,0,0,0,1-1v-6.6A.4.4,0,0,0-364.409,353.913Z" transform="translate(0 -78.009)" fill="#fff"/>
    <path id="Path_124" data-name="Path 124" d="M234.672,266.09l-1.98-1.98a.7.7,0,0,0-.99,0l-1.462,1.462a.2.2,0,0,0,0,.283l2.687,2.687a.2.2,0,0,0,.283,0l1.462-1.462A.7.7,0,0,0,234.672,266.09Z" transform="translate(-596.886 0)" fill="#fff"/>
  </g>
</svg>
