<svg xmlns="http://www.w3.org/2000/svg" xmlns:xlink="http://www.w3.org/1999/xlink" width="642.036" height="721.658" viewBox="0 0 642.036 721.658">
  <defs>
    <radialGradient id="radial-gradient" cx="197.512" cy="406.124" r="886.877" gradientTransform="translate(3.276 5.247) scale(0.983 0.983)" gradientUnits="userSpaceOnUse">
      <stop offset="0" stop-color="#04aa4f"/>
      <stop offset="0.996" stop-color="#027738"/>
    </radialGradient>
    <radialGradient id="radial-gradient-2" cx="208.364" cy="45.219" r="694.743" gradientTransform="translate(163.145 35.418) scale(0.217 0.217)" gradientUnits="userSpaceOnUse">
      <stop offset="0.001" stop-color="#1a66ae"/>
      <stop offset="0.996" stop-color="#0f265a"/>
    </radialGradient>
  </defs>
  <g id="Group_368" data-name="Group 368" transform="translate(114 -144)">
    <g id="Group_367" data-name="Group 367" transform="translate(-114.559 143.869)">
      <path id="Path_959" data-name="Path 959" d="M111.742,90.46.595,719.789l642,2-114-631.219Z" fill="url(#radial-gradient)"/>
      <path id="Path_960" data-name="Path 960" d="M61.3,375.639l-10.4,60.25H591.052L580.07,375.605Z" fill="#1a411e" opacity="0.11"/>
      <path id="Path_961" data-name="Path 961" d="M79.474,272.874,70.8,321.606l499.5.11-8.78-48.732Z" fill="#1a411e" opacity="0.11"/>
      <path id="Path_962" data-name="Path 962" d="M94.4,188.911l-7.134,40.171,466.243-.11L546.375,188.8Z" fill="#1a411e" opacity="0.11"/>
      <path id="Path_963" data-name="Path 963" d="M106.693,118.777l-5.829,33.6L539.68,152.2l-6.037-33.421Z" fill="#1a411e" opacity="0.11"/>
      <path id="Path_964" data-name="Path 964" d="M39.652,497.764,28.327,563.617l585.657.22-12.073-65.963Z" fill="#1a411e" opacity="0.11"/>
      <path id="Path_965" data-name="Path 965" d="M627.356,637.086l-612.09-.042L.559,719.69l641.852,2.086Z" fill="#1a411e" opacity="0.11"/>
      <path id="Path_966" data-name="Path 966" d="M286.128,183.954a96.113,96.113,0,0,0,15.124,3.562,109.241,109.241,0,0,0,32.6,0,96.366,96.366,0,0,0,15.14-3.562,81.262,81.262,0,0,0,13.466-5.709,65.4,65.4,0,0,0,11.314-7.658H261.394a65.171,65.171,0,0,0,11.288,7.658A80.934,80.934,0,0,0,286.128,183.954Z" fill="none"/>
      <path id="Path_967" data-name="Path 967" d="M255.1,168.465H440l-5.592-63.972H375.06l1.016,24.192H264.332l1.016-24.192H206l-5.592,63.972Z" fill="none"/>
      <path id="Path_968" data-name="Path 968" d="M140.545,110.922a14.778,14.778,0,0,0,3.59-2.915,9.115,9.115,0,0,0,1.977-3.514H131.485l-1.369,9.474a25.172,25.172,0,0,0,5.622-.976A21.231,21.231,0,0,0,140.545,110.922Z" fill="none"/>
      <path id="Path_969" data-name="Path 969" d="M234.743,324.4a55.4,55.4,0,0,1,5.481-11.351,63.742,63.742,0,0,1,8.122-10.311,75.9,75.9,0,0,1,10.58-9.066A87.584,87.584,0,0,1,271.79,286.1a96.855,96.855,0,0,1,14.237-5.5,105.984,105.984,0,0,1,15.3-3.358,113.554,113.554,0,0,1,32.114,0,105.65,105.65,0,0,1,15.283,3.358,96.451,96.451,0,0,1,14.218,5.5,87.125,87.125,0,0,1,12.835,7.579,75.331,75.331,0,0,1,10.545,9.066,63.343,63.343,0,0,1,8.081,10.311,55,55,0,0,1,5.425,11.351,50.94,50.94,0,0,1,2.567,12.178H542.448L510.577,115.93a29.905,29.905,0,0,1-6.824-1.139,25.281,25.281,0,0,1-5.827-2.494,17.413,17.413,0,0,1-4.316-3.536,10.608,10.608,0,0,1-2.312-4.268H437.4l5.928,66.094H377.783a61.1,61.1,0,0,1-5.352,4.332,70.57,70.57,0,0,1-6.077,3.92q-3.209,1.848-6.716,3.45t-7.271,2.923q-4.035,1.416-8.248,2.487t-8.58,1.788q-4.369.719-8.873,1.079t-9.121.362q-4.614,0-9.118-.362t-8.866-1.079q-4.363-.717-8.575-1.788t-8.239-2.487q-3.752-1.32-7.258-2.923t-6.7-3.45a70.536,70.536,0,0,1-6.059-3.92,60.975,60.975,0,0,1-5.335-4.332H197.085l5.93-66.094h-53.9a10.62,10.62,0,0,1-2.312,4.268,17.418,17.418,0,0,1-4.317,3.536,25.289,25.289,0,0,1-5.828,2.494,29.9,29.9,0,0,1-6.824,1.139L97.958,336.58h134.15A51.348,51.348,0,0,1,234.743,324.4Z" fill="none"/>
      <path id="Path_970" data-name="Path 970" d="M499.866,110.922a21.25,21.25,0,0,0,4.807,2.069,25.134,25.134,0,0,0,5.62.976l-1.369-9.474H494.3a9.087,9.087,0,0,0,1.976,3.514A14.772,14.772,0,0,0,499.866,110.922Z" fill="none"/>
      <path id="Path_971" data-name="Path 971" d="M364.673,676.874H275.737v.011h88.937Z" fill="none"/>
      <path id="Path_972" data-name="Path 972" d="M372.068,104.493H354.115l-67.819,0-17.953,0-.881,22.2H372.95Z" fill="none"/>
      <path id="Path_973" data-name="Path 973" d="M241.325,363.2a63.58,63.58,0,0,0,17.153,20.082A86.16,86.16,0,0,0,284.666,397.1a105.584,105.584,0,0,0,64.973,0,86.57,86.57,0,0,0,26.243-13.817A63.9,63.9,0,0,0,393.111,363.2a48.813,48.813,0,0,0,5.9-23.942H235.517A48.72,48.72,0,0,0,241.325,363.2Z" fill="none"/>
      <path id="Path_974" data-name="Path 974" d="M350.781,89.9h-61.15l-.3,12.673h61.751Z" fill="none"/>
      <path id="Path_975" data-name="Path 975" d="M356.188,530.364a103.071,103.071,0,0,0-19.022-5.531,109.683,109.683,0,0,0-40.516,0,103.446,103.446,0,0,0-19.041,5.531,98.2,98.2,0,0,0-17.362,9.005,93.9,93.9,0,0,0-15.184,12.343H388.646a93.307,93.307,0,0,0-15.132-12.343A97.667,97.667,0,0,0,356.188,530.364Z" fill="none"/>
      <path id="Path_976" data-name="Path 976" d="M372.784,295.076a88.846,88.846,0,0,0-25.245-12.116,105.856,105.856,0,0,0-60.337,0,89.218,89.218,0,0,0-25.289,12.116,67.506,67.506,0,0,0-18.08,18.363,50.62,50.62,0,0,0-8.169,23.141H398.872a50.46,50.46,0,0,0-8.078-23.141A67.137,67.137,0,0,0,372.784,295.076Z" fill="none"/>
      <path id="Path_977" data-name="Path 977" d="M580.794,655.66a19.244,19.244,0,0,0-5.827,4.149,17.787,17.787,0,0,0-3.741,5.895,18.34,18.34,0,0,0-1.187,7.194H591.03l-2.772-19.188A22.176,22.176,0,0,0,580.794,655.66Z" fill="none"/>
      <path id="Path_978" data-name="Path 978" d="M578.64,652.075a26.358,26.358,0,0,1,9.055-2.259l-44.86-310.56H402.57a50.236,50.236,0,0,1-1.306,12.415,52.935,52.935,0,0,1-4.384,11.939,60.075,60.075,0,0,1-7.394,11.165,71.966,71.966,0,0,1-10.324,10.081,84.2,84.2,0,0,1-13.14,8.621,94.769,94.769,0,0,1-15.006,6.368,105.017,105.017,0,0,1-16.446,3.937,113.792,113.792,0,0,1-34.862,0,104.738,104.738,0,0,1-16.43-3.937,94.383,94.383,0,0,1-14.982-6.368,83.7,83.7,0,0,1-13.106-8.621,71.422,71.422,0,0,1-10.284-10.081,59.752,59.752,0,0,1-7.348-11.165,52.551,52.551,0,0,1-4.327-11.939,49.856,49.856,0,0,1-1.24-12.415H97.572L52.71,649.816a26.358,26.358,0,0,1,9.056,2.259,22.838,22.838,0,0,1,7.059,4.972,21.092,21.092,0,0,1,4.5,7.13,21.744,21.744,0,0,1,1.349,8.721h77.352L162.9,551.712h77.05a94.938,94.938,0,0,1,7.342-7.022,98.931,98.931,0,0,1,8.106-6.267,101.8,101.8,0,0,1,8.764-5.451,103.463,103.463,0,0,1,9.32-4.569,107.863,107.863,0,0,1,21.15-6.607,110.022,110.022,0,0,1,11.01-1.653q5.572-.549,11.277-.551t11.278.551A109.857,109.857,0,0,1,339.2,521.8a107.474,107.474,0,0,1,21.123,6.607,102.9,102.9,0,0,1,9.3,4.569,101.189,101.189,0,0,1,8.746,5.451,98.582,98.582,0,0,1,8.084,6.267,94.174,94.174,0,0,1,7.314,7.022h83.743L488.384,672.9h77.351a21.779,21.779,0,0,1,1.349-8.721,21.087,21.087,0,0,1,4.5-7.13A22.858,22.858,0,0,1,578.64,652.075Z" fill="none"/>
      <path id="Path_979" data-name="Path 979" d="M396.974,555.186H166.607L156.316,672.9h85.164l2-47.671H396.924l2,47.671h85.169L473.8,555.186Z" fill="none"/>
      <path id="Path_980" data-name="Path 980" d="M65.442,659.809a19.236,19.236,0,0,0-5.828-4.149,22.187,22.187,0,0,0-7.467-1.95L49.376,672.9h20.99a18.286,18.286,0,0,0-1.185-7.194A17.765,17.765,0,0,0,65.442,659.809Z" fill="none"/>
      <path id="Path_981" data-name="Path 981" d="M247.522,629l-1.744,43.9h25.764l97.326-.012,25.764.012L392.888,629Z" fill="none"/>
      <path id="Path_982" data-name="Path 982" d="M255.1,168.465H440l-5.592-63.972H375.06l1.016,24.192H264.332l1.016-24.192H206l-5.592,63.972Z" fill="none"/>
      <path id="Path_983" data-name="Path 983" d="M234.743,324.4a55.4,55.4,0,0,1,5.481-11.351,63.742,63.742,0,0,1,8.122-10.311,75.9,75.9,0,0,1,10.58-9.066A87.584,87.584,0,0,1,271.79,286.1a96.855,96.855,0,0,1,14.237-5.5,105.984,105.984,0,0,1,15.3-3.358,113.554,113.554,0,0,1,32.114,0,105.65,105.65,0,0,1,15.283,3.358,96.451,96.451,0,0,1,14.218,5.5,87.125,87.125,0,0,1,12.835,7.579,75.331,75.331,0,0,1,10.545,9.066,63.343,63.343,0,0,1,8.081,10.311,55,55,0,0,1,5.425,11.351,50.94,50.94,0,0,1,2.567,12.178H542.448L510.577,115.93a29.905,29.905,0,0,1-6.824-1.139,25.281,25.281,0,0,1-5.827-2.494,17.413,17.413,0,0,1-4.316-3.536,10.608,10.608,0,0,1-2.312-4.268H437.4l5.928,66.094H377.783a61.1,61.1,0,0,1-5.352,4.332,70.57,70.57,0,0,1-6.077,3.92q-3.209,1.848-6.716,3.45t-7.271,2.923q-4.035,1.416-8.248,2.487t-8.58,1.788q-4.369.719-8.873,1.079t-9.121.362q-4.614,0-9.118-.362t-8.866-1.079q-4.363-.717-8.575-1.788t-8.239-2.487q-3.752-1.32-7.258-2.923t-6.7-3.45a70.536,70.536,0,0,1-6.059-3.92,60.975,60.975,0,0,1-5.335-4.332H197.085l5.93-66.094h-53.9a10.62,10.62,0,0,1-2.312,4.268,17.418,17.418,0,0,1-4.317,3.536,25.289,25.289,0,0,1-5.828,2.494,29.9,29.9,0,0,1-6.824,1.139L97.958,336.58h134.15A51.348,51.348,0,0,1,234.743,324.4Z" fill="none"/>
      <path id="Path_984" data-name="Path 984" d="M140.545,110.922a14.778,14.778,0,0,0,3.59-2.915,9.115,9.115,0,0,0,1.977-3.514H131.485l-1.369,9.474a25.172,25.172,0,0,0,5.622-.976A21.231,21.231,0,0,0,140.545,110.922Z" fill="none"/>
      <path id="Path_985" data-name="Path 985" d="M499.866,110.922a21.25,21.25,0,0,0,4.807,2.069,25.134,25.134,0,0,0,5.62.976l-1.369-9.474H494.3a9.087,9.087,0,0,0,1.976,3.514A14.772,14.772,0,0,0,499.866,110.922Z" fill="none"/>
      <path id="Path_986" data-name="Path 986" d="M350.781,89.9h-61.15l-.015.628H350.8Z" fill="none"/>
      <path id="Path_987" data-name="Path 987" d="M372.068,104.493H354.115l-67.819,0-17.953,0-.881,22.2H372.95Z" fill="none"/>
      <path id="Path_988" data-name="Path 988" d="M289.331,102.57h61.751l0-.147H289.334Z" fill="none"/>
      <path id="Path_989" data-name="Path 989" d="M241.325,363.2a63.58,63.58,0,0,0,17.153,20.082A86.16,86.16,0,0,0,284.666,397.1a105.584,105.584,0,0,0,64.973,0,86.57,86.57,0,0,0,26.243-13.817A63.9,63.9,0,0,0,393.111,363.2a48.813,48.813,0,0,0,5.9-23.942H235.517A48.72,48.72,0,0,0,241.325,363.2Z" fill="none"/>
      <path id="Path_990" data-name="Path 990" d="M286.128,183.954a96.113,96.113,0,0,0,15.124,3.562,109.241,109.241,0,0,0,32.6,0,96.366,96.366,0,0,0,15.14-3.562,81.262,81.262,0,0,0,13.466-5.709,65.4,65.4,0,0,0,11.314-7.658H261.394a65.171,65.171,0,0,0,11.288,7.658A80.934,80.934,0,0,0,286.128,183.954Z" fill="none"/>
      <path id="Path_991" data-name="Path 991" d="M578.64,652.075a26.358,26.358,0,0,1,9.055-2.259l-44.86-310.56H402.57a50.236,50.236,0,0,1-1.306,12.415,52.935,52.935,0,0,1-4.384,11.939,60.075,60.075,0,0,1-7.394,11.165,71.966,71.966,0,0,1-10.324,10.081,84.2,84.2,0,0,1-13.14,8.621,94.769,94.769,0,0,1-15.006,6.368,105.017,105.017,0,0,1-16.446,3.937,113.792,113.792,0,0,1-34.862,0,104.738,104.738,0,0,1-16.43-3.937,94.383,94.383,0,0,1-14.982-6.368,83.7,83.7,0,0,1-13.106-8.621,71.422,71.422,0,0,1-10.284-10.081,59.752,59.752,0,0,1-7.348-11.165,52.551,52.551,0,0,1-4.327-11.939,49.856,49.856,0,0,1-1.24-12.415H97.572L52.71,649.816a26.358,26.358,0,0,1,9.056,2.259,22.838,22.838,0,0,1,7.059,4.972,21.092,21.092,0,0,1,4.5,7.13,21.744,21.744,0,0,1,1.349,8.721h77.352L162.9,551.712h77.05a94.938,94.938,0,0,1,7.342-7.022,98.931,98.931,0,0,1,8.106-6.267,101.8,101.8,0,0,1,8.764-5.451,103.463,103.463,0,0,1,9.32-4.569,107.863,107.863,0,0,1,21.15-6.607,110.022,110.022,0,0,1,11.01-1.653q5.572-.549,11.277-.551t11.278.551A109.857,109.857,0,0,1,339.2,521.8a107.474,107.474,0,0,1,21.123,6.607,102.9,102.9,0,0,1,9.3,4.569,101.189,101.189,0,0,1,8.746,5.451,98.582,98.582,0,0,1,8.084,6.267,94.174,94.174,0,0,1,7.314,7.022h83.743L488.384,672.9h77.351a21.779,21.779,0,0,1,1.349-8.721,21.087,21.087,0,0,1,4.5-7.13A22.858,22.858,0,0,1,578.64,652.075Z" fill="none"/>
      <path id="Path_992" data-name="Path 992" d="M356.188,530.364a103.071,103.071,0,0,0-19.022-5.531,109.683,109.683,0,0,0-40.516,0,103.446,103.446,0,0,0-19.041,5.531,98.2,98.2,0,0,0-17.362,9.005,93.9,93.9,0,0,0-15.184,12.343H388.646a93.307,93.307,0,0,0-15.132-12.343A97.667,97.667,0,0,0,356.188,530.364Z" fill="none"/>
      <path id="Path_993" data-name="Path 993" d="M580.794,655.66a19.244,19.244,0,0,0-5.827,4.149,17.787,17.787,0,0,0-3.741,5.895,18.34,18.34,0,0,0-1.187,7.194H591.03l-2.772-19.188A22.176,22.176,0,0,0,580.794,655.66Z" fill="none"/>
      <path id="Path_994" data-name="Path 994" d="M372.784,295.076a88.846,88.846,0,0,0-25.245-12.116,105.856,105.856,0,0,0-60.337,0,89.218,89.218,0,0,0-25.289,12.116,67.506,67.506,0,0,0-18.08,18.363,50.62,50.62,0,0,0-8.169,23.141H398.872a50.46,50.46,0,0,0-8.078-23.141A67.137,67.137,0,0,0,372.784,295.076Z" fill="none"/>
      <path id="Path_995" data-name="Path 995" d="M396.974,555.186H166.607L156.316,672.9h85.164l2-47.671H396.924l2,47.671h85.169L473.8,555.186Z" fill="none"/>
      <path id="Path_996" data-name="Path 996" d="M65.442,659.809a19.236,19.236,0,0,0-5.828-4.149,22.187,22.187,0,0,0-7.467-1.95L49.376,672.9h20.99a18.286,18.286,0,0,0-1.185-7.194A17.765,17.765,0,0,0,65.442,659.809Z" fill="none"/>
      <path id="Path_997" data-name="Path 997" d="M247.522,629l-1.744,43.9h25.764l97.326-.012,25.764.012L392.888,629Z" fill="none"/>
      <path id="Path_998" data-name="Path 998" d="M289.631,89.9h61.15l.015.628h2.958l-.065-2.507H286.723l-.065,2.507h2.958Z" fill="#fff"/>
      <path id="Path_999" data-name="Path 999" d="M361.875,102.423v-11.9h-8.122l.308,11.9Z" fill="#039545"/>
      <path id="Path_1000" data-name="Path 1000" d="M279.01,90.525v11.9h7.34l.309-11.9Z" fill="#039545"/>
      <path id="Path_1001" data-name="Path 1001" d="M351.078,102.423h2.984l-.308-11.9H350.8Z" fill="#039545"/>
      <path id="Path_1002" data-name="Path 1002" d="M289.616,90.525h-2.958l-.309,11.9h2.985Z" fill="#039545"/>
      <rect id="Rectangle_398" data-name="Rectangle 398" width="416.728" height="90.439" transform="translate(111.742 0.131)" fill="url(#radial-gradient-2)"/>
      <path id="Path_1003" data-name="Path 1003" d="M592.511,653.7l-.57-3.885-45.572-310.56-.393-2.676L513.6,115.933l-.287-1.961-1.674-11.4-17.6-.008-2.994.008h-115.9V64.74H265.4v37.83H203.187l-53.822-.008-3,.008h-17.6l-1.674,11.4-.287,1.961L94.435,336.58l-.393,2.676L48.469,649.816,47.9,653.7l-3.4,23.173H271.439v.011h4.3v-.011h88.936v.011h4.3v-.011H595.912ZM508.924,104.493l1.369,9.474a25.134,25.134,0,0,1-5.62-.976,21.25,21.25,0,0,1-4.807-2.069,14.772,14.772,0,0,1-3.589-2.915,9.087,9.087,0,0,1-1.976-3.514Zm-135.974,22.2H267.463l.873-22h103.74ZM267.9,67.24H372.643v34.951H267.9ZM206,104.493h59.344l-1.015,24.192H376.076l-1.007-23.994h.074v-.2h59.265L440,168.465H200.411Zm167.77,66.094a65.4,65.4,0,0,1-11.314,7.658,81.262,81.262,0,0,1-13.466,5.709,96.366,96.366,0,0,1-15.14,3.562,109.241,109.241,0,0,1-32.6,0,96.113,96.113,0,0,1-15.124-3.562,80.934,80.934,0,0,1-13.446-5.709,65.171,65.171,0,0,1-11.288-7.658ZM131.485,104.493h14.627a9.115,9.115,0,0,1-1.977,3.514,14.778,14.778,0,0,1-3.59,2.915,21.231,21.231,0,0,1-4.807,2.069,25.172,25.172,0,0,1-5.622.976Zm-1.652,11.437a29.9,29.9,0,0,0,6.824-1.139,25.289,25.289,0,0,0,5.828-2.494,17.418,17.418,0,0,0,4.317-3.536,10.62,10.62,0,0,0,2.312-4.268h53.9l-5.93,66.094h60.306a60.975,60.975,0,0,0,5.335,4.332,70.536,70.536,0,0,0,6.059,3.92q3.2,1.848,6.7,3.45t7.258,2.923q4.032,1.416,8.239,2.487t8.575,1.788q4.365.719,8.866,1.079t9.118.362q4.615,0,9.121-.362t8.873-1.079q4.365-.717,8.58-1.788t8.248-2.487q3.756-1.32,7.271-2.923t6.716-3.45a70.57,70.57,0,0,0,6.077-3.92,61.1,61.1,0,0,0,5.352-4.332h65.542L437.4,104.493h53.9a10.608,10.608,0,0,0,2.312,4.268,17.413,17.413,0,0,0,4.316,3.536,25.281,25.281,0,0,0,5.827,2.494,29.905,29.905,0,0,0,6.824,1.139l31.871,220.65H402.392a50.94,50.94,0,0,0-2.567-12.178,55,55,0,0,0-5.425-11.351,63.343,63.343,0,0,0-8.081-10.311,75.331,75.331,0,0,0-10.545-9.066,87.125,87.125,0,0,0-12.835-7.579,96.451,96.451,0,0,0-14.218-5.5,105.65,105.65,0,0,0-15.283-3.358,113.554,113.554,0,0,0-32.114,0,105.984,105.984,0,0,0-15.3,3.358,96.855,96.855,0,0,0-14.237,5.5,87.584,87.584,0,0,0-12.864,7.579,75.9,75.9,0,0,0-10.58,9.066,63.742,63.742,0,0,0-8.122,10.311,55.4,55.4,0,0,0-5.481,11.351,51.348,51.348,0,0,0-2.635,12.178H97.958ZM399.008,339.256a48.813,48.813,0,0,1-5.9,23.942,63.9,63.9,0,0,1-17.229,20.082A86.57,86.57,0,0,1,349.639,397.1a105.584,105.584,0,0,1-64.973,0,86.16,86.16,0,0,1-26.188-13.817A63.58,63.58,0,0,1,241.325,363.2a48.72,48.72,0,0,1-5.808-23.942ZM235.664,336.58a50.62,50.62,0,0,1,8.169-23.141,67.506,67.506,0,0,1,18.08-18.363A89.218,89.218,0,0,1,287.2,282.96a105.856,105.856,0,0,1,60.337,0,88.846,88.846,0,0,1,25.245,12.116,67.137,67.137,0,0,1,18.01,18.363,50.46,50.46,0,0,1,8.078,23.141ZM49.376,672.9l2.771-19.188a22.187,22.187,0,0,1,7.467,1.95,19.236,19.236,0,0,1,5.828,4.149,17.765,17.765,0,0,1,3.739,5.895,18.286,18.286,0,0,1,1.185,7.194Zm319.492-.012-97.326.012H245.778l1.744-43.9H392.888l1.744,43.9Zm30.058.012-2-47.672H243.482l-2,47.672H156.316l10.291-117.712H473.8L484.1,672.9ZM245.063,551.712a93.9,93.9,0,0,1,15.184-12.343,98.2,98.2,0,0,1,17.362-9.005,103.446,103.446,0,0,1,19.041-5.531,109.683,109.683,0,0,1,40.516,0,103.071,103.071,0,0,1,19.022,5.531,97.667,97.667,0,0,1,17.326,9.005,93.307,93.307,0,0,1,15.132,12.343ZM565.735,672.9H488.384L477.513,551.712H393.77a94.174,94.174,0,0,0-7.314-7.022,98.582,98.582,0,0,0-8.084-6.267,101.189,101.189,0,0,0-8.746-5.451,102.9,102.9,0,0,0-9.3-4.569A107.474,107.474,0,0,0,339.2,521.8a109.857,109.857,0,0,0-11.006-1.653q-5.572-.549-11.278-.551t-11.277.551a110.022,110.022,0,0,0-11.01,1.653,107.863,107.863,0,0,0-21.15,6.607,103.463,103.463,0,0,0-9.32,4.569,101.8,101.8,0,0,0-8.764,5.451,98.931,98.931,0,0,0-8.106,6.267,94.938,94.938,0,0,0-7.342,7.022H162.9L152.026,672.9H74.674a21.744,21.744,0,0,0-1.349-8.721,21.092,21.092,0,0,0-4.5-7.13,22.838,22.838,0,0,0-7.059-4.972,26.358,26.358,0,0,0-9.056-2.259l44.862-310.56H231.991a49.856,49.856,0,0,0,1.24,12.415,52.551,52.551,0,0,0,4.327,11.939,59.752,59.752,0,0,0,7.348,11.165,71.422,71.422,0,0,0,10.284,10.081,83.7,83.7,0,0,0,13.106,8.621,94.383,94.383,0,0,0,14.982,6.368,104.738,104.738,0,0,0,16.43,3.937,113.792,113.792,0,0,0,34.862,0,105.017,105.017,0,0,0,16.446-3.937,94.769,94.769,0,0,0,15.006-6.368,84.2,84.2,0,0,0,13.14-8.621,71.966,71.966,0,0,0,10.324-10.081,60.075,60.075,0,0,0,7.394-11.165,52.935,52.935,0,0,0,4.384-11.939,50.236,50.236,0,0,0,1.306-12.415H542.835l44.86,310.56a26.358,26.358,0,0,0-9.055,2.259,22.858,22.858,0,0,0-7.058,4.972,21.087,21.087,0,0,0-4.5,7.13A21.779,21.779,0,0,0,565.735,672.9Zm4.3,0a18.34,18.34,0,0,1,1.187-7.194,17.787,17.787,0,0,1,3.741-5.895,19.244,19.244,0,0,1,5.827-4.149,22.176,22.176,0,0,1,7.464-1.95L591.03,672.9Z" fill="#fff"/>
    </g>
  </g>
</svg>
