<svg xmlns="http://www.w3.org/2000/svg" width="56.829" height="59.608" viewBox="0 0 56.829 59.608">
  <g id="Group_331" data-name="Group 331" transform="translate(-257.452 -64.693)">
    <rect id="Rectangle_362" data-name="Rectangle 362" width="12.066" height="11.223" transform="translate(279.874 65.193)" fill="#00394f"/>
    <rect id="Rectangle_363" data-name="Rectangle 363" width="12.042" height="1.825" transform="translate(279.856 64.693)" fill="#bd1622"/>
    <path id="Path_921" data-name="Path 921" d="M265,78.312s-5.252,9.359-7.545,16.426c.573,1.719,5.826,5.253,10.983,4.871a30.967,30.967,0,0,1,3.152-6.685S271.969,80.7,265,78.312Z" transform="translate(0 -6.252)" fill="blue"/>
    <path id="Path_922" data-name="Path 922" d="M342.966,78.312s5.252,9.359,7.545,16.426c-.573,1.719-5.826,5.253-10.983,4.871a30.966,30.966,0,0,0-3.152-6.685S335.994,80.7,342.966,78.312Z" transform="translate(-36.23 -6.252)" fill="blue"/>
    <g id="Group_323" data-name="Group 323" transform="translate(300.143 80.104)" opacity="0.2">
      <path id="Path_923" data-name="Path 923" d="M337.1,93.184a28.165,28.165,0,0,0-.722,6.567,30.967,30.967,0,0,1,3.152,6.685,12.067,12.067,0,0,0,3.654-.325C340.062,97.62,337.429,93.665,337.1,93.184Z" transform="translate(-336.373 -93.184)" fill="#00394f"/>
    </g>
    <g id="Group_324" data-name="Group 324" transform="translate(264.765 80.087)" opacity="0.1">
      <path id="Path_924" data-name="Path 924" d="M277.067,93.151c-.242.347-2.912,4.281-6.1,12.942a12.081,12.081,0,0,0,3.67.328,30.964,30.964,0,0,1,3.152-6.685A28.181,28.181,0,0,0,277.067,93.151Z" transform="translate(-270.972 -93.151)" fill="#00394f"/>
    </g>
    <path id="Path_925" data-name="Path 925" d="M305.307,68.06c-4.107-1.528-6.3-3.343-7.067-3.343,0,0,1.6,4.349-5.963,5.869-7.581-2.015-5.979-5.869-5.979-5.869-.764,0-2.961,1.815-7.067,3.343s-6.781,2.483-7.832,4.011c1.433,1.146,6.017,3.725,6.017,15.472V122.4a57.227,57.227,0,0,0,14.8,1.91,54.063,54.063,0,0,0,14.9-1.91V87.543c0-11.747,4.584-14.325,6.017-15.472C312.089,70.543,309.414,69.588,305.307,68.06Z" transform="translate(-6.403 -0.011)" fill="blue"/>
    <g id="Group_325" data-name="Group 325" transform="translate(257.452 87.83)">
      <path id="Path_926" data-name="Path 926" d="M257.665,107.466a4.831,4.831,0,0,0-.213.656c.573,1.719,5.826,5.253,10.983,4.871.254-.691.023-.153.26-.729C264.447,112.415,259.175,109.381,257.665,107.466Z" transform="translate(-257.452 -107.466)" fill="#fff"/>
    </g>
    <g id="Group_326" data-name="Group 326" transform="translate(303.044 87.874)">
      <path id="Path_927" data-name="Path 927" d="M352.783,107.548c-1.494,1.888-6.783,4.949-11.047,4.792.238.577,0,0,.254.691,5.157.382,10.41-3.152,10.982-4.871A4.564,4.564,0,0,0,352.783,107.548Z" transform="translate(-341.736 -107.548)" fill="#fff"/>
    </g>
    <g id="Group_329" data-name="Group 329" transform="translate(269.483 77.764)" opacity="0.1">
      <g id="Group_327" data-name="Group 327" transform="translate(23.956 0)">
        <path id="Path_928" data-name="Path 928" d="M325.047,103.957c-.329,9.552-.824,23.926-1.067,30.964a45.232,45.232,0,0,0,7.28-1.437V98.625a26.522,26.522,0,0,1,1.531-9.767A18.878,18.878,0,0,0,325.047,103.957Z" transform="translate(-323.98 -88.858)" fill="#00394f"/>
      </g>
      <g id="Group_328" data-name="Group 328" transform="translate(0 0)">
        <path id="Path_929" data-name="Path 929" d="M288.5,134.9c-.243-7.045-.738-21.4-1.067-30.945a18.877,18.877,0,0,0-7.744-15.1,26.523,26.523,0,0,1,1.531,9.767v34.859A50.951,50.951,0,0,0,288.5,134.9Z" transform="translate(-279.693 -88.858)" fill="#00394f"/>
      </g>
    </g>
    <path id="Path_930" data-name="Path 930" d="M267.724,77.492c1.305-2.668,2.312-4.531,2.312-4.531,1.015-1.528,3.6-2.483,7.569-4.012,3.783-1.456,5.874-3.155,6.7-3.312a5.25,5.25,0,0,1-.071-.921c-.764,0-2.961,1.815-7.067,3.343s-6.781,2.483-7.832,4.011c0,0-1.06,1.9-2.43,4.605Z" transform="translate(-4.341 -0.011)" fill="blue"/>
    <path id="Path_931" data-name="Path 931" d="M327.589,68.95c3.969,1.528,6.554,2.483,7.569,4.012,0,0,.958,1.772,2.216,4.333l.815-.814c-1.323-2.608-2.332-4.41-2.332-4.41-1.05-1.528-3.724-2.483-7.831-4.011s-6.3-3.343-7.067-3.343a5.245,5.245,0,0,1-.071.921C321.716,65.8,323.806,67.494,327.589,68.95Z" transform="translate(-29.121 -0.011)" fill="blue"/>
    <path id="Path_932" data-name="Path 932" d="M303.609,70.578c6.634,0,7.509-4.615,7.509-5.191a4.551,4.551,0,0,0-1.546-.688s.757,4.178-5.971,4.178c-6.253,0-5.971-4.178-5.971-4.178a4.553,4.553,0,0,0-1.547.687S297.033,70.578,303.609,70.578Z" transform="translate(-17.735 -0.003)" fill="#e42321"/>
  </g>
</svg>
