<?xml version="1.0" encoding="utf-8"?>
<!-- Generator: Adobe Illustrator 23.0.3, SVG Export Plug-In . SVG Version: 6.00 Build 0)  -->
<svg version="1.1" id="Layer_1" xmlns="http://www.w3.org/2000/svg" xmlns:xlink="http://www.w3.org/1999/xlink" x="0px" y="0px"
	 viewBox="0 0 28 28" style="enable-background:new 0 0 28 28;" xml:space="preserve">
<style type="text/css">
	.st0{fill:#FFFFFF;}
</style>
<path id="Cog" class="st0" d="M19.49,22.97l1.52,0.82c0.51,0.28,1.15,0.18,1.56-0.23l0.91-0.91c0.41-0.41,0.51-1.04,0.23-1.56
	l-0.82-1.52c-0.2-0.37-0.21-0.81-0.03-1.18c0.09-0.19,0.18-0.38,0.26-0.58c0.06-0.14,0.11-0.29,0.16-0.43
	c0.14-0.4,0.46-0.71,0.87-0.84l1.65-0.5c0.56-0.17,0.94-0.68,0.94-1.26v-1.29c0-0.58-0.38-1.09-0.94-1.26l-1.65-0.5
	c-0.41-0.12-0.73-0.44-0.87-0.84c-0.05-0.15-0.11-0.29-0.16-0.43c-0.08-0.2-0.16-0.39-0.26-0.58c-0.18-0.38-0.17-0.82,0.03-1.18
	l0.82-1.52c0.28-0.51,0.18-1.14-0.23-1.56l-0.91-0.91c-0.41-0.41-1.04-0.5-1.56-0.23l-1.52,0.82c-0.37,0.2-0.81,0.21-1.19,0.03
	c-0.19-0.09-0.38-0.18-0.58-0.26c-0.14-0.06-0.29-0.11-0.44-0.16c-0.4-0.14-0.71-0.46-0.84-0.87l-0.5-1.65
	c-0.17-0.56-0.68-0.94-1.26-0.94H13.4c-0.58,0-1.09,0.38-1.26,0.94l-0.5,1.65c-0.12,0.41-0.44,0.73-0.84,0.87
	c-0.15,0.05-0.29,0.11-0.44,0.16c-0.2,0.08-0.39,0.16-0.57,0.26C9.41,5.48,8.97,5.47,8.6,5.27L7.08,4.45
	C6.57,4.18,5.93,4.27,5.52,4.68L4.61,5.6C4.2,6.01,4.1,6.64,4.38,7.15l0.82,1.52c0.2,0.37,0.21,0.81,0.03,1.18
	c-0.09,0.19-0.18,0.38-0.26,0.58c-0.06,0.14-0.11,0.29-0.16,0.43c-0.14,0.4-0.46,0.71-0.87,0.84l-1.65,0.5
	c-0.56,0.17-0.94,0.68-0.94,1.26v1.29c0,0.58,0.38,1.09,0.94,1.26l1.65,0.5c0.41,0.12,0.73,0.44,0.87,0.84
	c0.05,0.15,0.11,0.29,0.16,0.43c0.08,0.2,0.16,0.39,0.26,0.58c0.18,0.38,0.17,0.82-0.03,1.18l-0.82,1.52
	C4.1,21.6,4.2,22.23,4.61,22.64l0.91,0.91c0.41,0.41,1.04,0.51,1.56,0.23l1.52-0.82c0.37-0.2,0.81-0.21,1.19-0.03
	c0.19,0.09,0.38,0.18,0.57,0.26c0.14,0.06,0.29,0.11,0.44,0.16c0.4,0.14,0.71,0.46,0.84,0.87l0.5,1.65
	c0.17,0.56,0.68,0.94,1.26,0.94h1.29c0.58,0,1.09-0.38,1.26-0.94l0.5-1.65c0.12-0.41,0.44-0.73,0.84-0.87
	c0.15-0.05,0.29-0.11,0.44-0.16c0.2-0.08,0.39-0.16,0.58-0.26C18.68,22.76,19.12,22.77,19.49,22.97z M17.73,17.67
	c-1.96,2.03-5.19,2.09-7.23,0.14c-2.03-1.96-2.09-5.19-0.14-7.23s5.19-2.09,7.23-0.14c0.05,0.04,0.09,0.09,0.14,0.14
	C19.63,12.56,19.63,15.69,17.73,17.67L17.73,17.67z"/>
</svg>
