<svg xmlns="http://www.w3.org/2000/svg" width="57.211" height="60.005" viewBox="0 0 57.211 60.005">
  <g id="Group_175" data-name="Group 175" transform="translate(-171.01 -667.058)">
    <rect id="Rectangle_248" data-name="Rectangle 248" width="12.147" height="11.299" transform="translate(193.582 667.559)" fill="#fff"/>
    <rect id="Rectangle_249" data-name="Rectangle 249" width="12.123" height="1.654" transform="translate(193.554 667.058)" fill="#fff"/>
    <rect id="Rectangle_250" data-name="Rectangle 250" width="12.147" height="11.299" transform="translate(193.582 667.559)" fill="#00394f" opacity="0.1"/>
    <rect id="Rectangle_251" data-name="Rectangle 251" width="12.123" height="1.654" transform="translate(193.554 667.058)" fill="#030404"/>
    <path id="Path_690" data-name="Path 690" d="M178.606,674.471s-5.288,9.422-7.6,16.537c.577,1.731,5.865,5.288,11.057,4.9a31.163,31.163,0,0,1,3.173-6.731S185.624,676.875,178.606,674.471Z" fill="#030404"/>
    <path id="Path_691" data-name="Path 691" d="M220.625,674.471s5.288,9.422,7.6,16.537c-.577,1.731-5.865,5.288-11.057,4.9a31.225,31.225,0,0,0-3.173-6.731S213.606,676.875,220.625,674.471Z" fill="#030404"/>
    <path id="Path_692" data-name="Path 692" d="M212.741,670.433c-4.134-1.538-6.345-3.365-7.115-3.365,0,0,1.613,4.377-6,5.908-7.633-2.028-6.02-5.908-6.02-5.908-.769,0-2.98,1.827-7.114,3.365s-6.827,2.5-7.884,4.038c1.442,1.154,6.057,3.75,6.057,15.576V725.14a57.6,57.6,0,0,0,14.9,1.923,54.424,54.424,0,0,0,15-1.923V690.047c0-11.826,4.615-14.422,6.057-15.576C219.568,672.933,216.875,671.971,212.741,670.433Z" fill="#fff"/>
    <g id="Group_168" data-name="Group 168">
      <path id="Path_693" data-name="Path 693" d="M171.224,690.347a4.834,4.834,0,0,0-.214.661c.577,1.731,5.865,5.288,11.057,4.9a7.368,7.368,0,0,1,.255-.7C178.046,695.368,172.745,692.275,171.224,690.347Z" fill="#e42321"/>
    </g>
    <g id="Group_169" data-name="Group 169">
      <path id="Path_694" data-name="Path 694" d="M228.019,690.386c-1.5,1.9-6.817,4.988-11.111,4.83a7.336,7.336,0,0,1,.256.7c5.192.384,10.48-3.173,11.057-4.9A4.845,4.845,0,0,0,228.019,690.386Z" fill="#e42321"/>
    </g>
    <rect id="Rectangle_252" data-name="Rectangle 252" width="55.79" height="8.607" transform="translate(203.959 671.264) rotate(90)" fill="#030404"/>
    <g id="Group_172" data-name="Group 172" opacity="0.1">
      <g id="Group_170" data-name="Group 170">
        <path id="Path_695" data-name="Path 695" d="M208.313,695.414c-.331,9.617-.83,24.087-1.074,31.173a45.531,45.531,0,0,0,7.329-1.447V690.047a26.7,26.7,0,0,1,1.541-9.833A19.005,19.005,0,0,0,208.313,695.414Z" fill="#00394f"/>
      </g>
      <g id="Group_171" data-name="Group 171">
        <path id="Path_696" data-name="Path 696" d="M191.991,726.568c-.244-7.091-.742-21.546-1.074-31.154a19,19,0,0,0-7.8-15.2,26.7,26.7,0,0,1,1.542,9.833V725.14A51.154,51.154,0,0,0,191.991,726.568Z" fill="#00394f"/>
      </g>
    </g>
    <g id="Group_173" data-name="Group 173" opacity="0.2">
      <path id="Path_697" data-name="Path 697" d="M214.718,682.57a28.365,28.365,0,0,0-.727,6.611,31.225,31.225,0,0,1,3.173,6.731,12.176,12.176,0,0,0,3.678-.327C217.7,687.035,215.051,683.054,214.718,682.57Z" fill="#00394f"/>
    </g>
    <g id="Group_174" data-name="Group 174" opacity="0.1">
      <path id="Path_698" data-name="Path 698" d="M184.508,682.552c-.243.349-2.931,4.309-6.136,13.029a12.158,12.158,0,0,0,3.7.331,31.163,31.163,0,0,1,3.173-6.731A28.36,28.36,0,0,0,184.508,682.552Z" fill="#00394f"/>
    </g>
    <path id="Path_699" data-name="Path 699" d="M176.981,679.929c1.314-2.686,2.328-4.562,2.328-4.562,1.022-1.538,3.624-2.5,7.62-4.038,3.809-1.466,5.913-3.176,6.747-3.334a5.383,5.383,0,0,1-.072-.927c-.769,0-2.98,1.827-7.114,3.365s-6.827,2.5-7.884,4.038c0,0-1.068,1.91-2.447,4.637Z" fill="#030404"/>
    <path id="Path_700" data-name="Path 700" d="M212.3,671.329c4,1.538,6.6,2.5,7.62,4.038,0,0,.964,1.784,2.231,4.363l.82-.82c-1.332-2.625-2.348-4.439-2.348-4.439-1.057-1.538-3.75-2.5-7.884-4.038s-6.346-3.365-7.115-3.365a5.257,5.257,0,0,1-.072.927C206.389,668.153,208.493,669.863,212.3,671.329Z" fill="#030404"/>
    <path id="Path_701" data-name="Path 701" d="M199.624,672.976c6.678,0,7.559-4.646,7.559-5.226a4.578,4.578,0,0,0-1.557-.692s.763,4.206-6.011,4.206c-6.294,0-6.011-4.206-6.011-4.206a4.594,4.594,0,0,0-1.557.692S193,672.976,199.624,672.976Z" fill="#030404"/>
  </g>
</svg>
