<?xml version="1.0" encoding="utf-8"?>
<!-- Generator: Adobe Illustrator 23.0.3, SVG Export Plug-In . SVG Version: 6.00 Build 0)  -->
<svg version="1.1" id="Layer_1" xmlns="http://www.w3.org/2000/svg" xmlns:xlink="http://www.w3.org/1999/xlink" x="0px" y="0px"
	 viewBox="0 0 28 28" style="enable-background:new 0 0 28 28;" xml:space="preserve">
<style type="text/css">
	.st0{fill:#FFFFFF;}
</style>
<g id="Group_85" transform="translate(-1065.558 169.826)">
	<path id="Path_120" class="st0" d="M1077.44-159.32l-2.13,4.52l3.48,3.5l4.28-2.35l-0.83-4.95L1077.44-159.32z"/>
	<path id="Path_121" class="st0" d="M1087.99-164.99c-4.55-4.64-12-4.72-16.64-0.17c-0.15,0.15-0.3,0.3-0.44,0.46
		c-4.64,5.05-4.52,12.84,0.28,17.74c4.55,4.64,12,4.72,16.64,0.17c0.15-0.15,0.3-0.3,0.44-0.46
		C1092.9-152.29,1092.78-160.09,1087.99-164.99z M1077.92-148.31l-3.57,2.06c-0.81-0.47-1.56-1.05-2.22-1.72
		c-0.77-0.77-1.42-1.65-1.93-2.61l1.84-4.12l-3.04-2.93c0.29-1.99,1.12-3.87,2.39-5.43l4.69,0.59l1.98-4.42
		c1.91-0.28,3.87-0.02,5.64,0.76l0.85,5.16l4.83,0.71c0.75,1.85,1.01,3.86,0.75,5.84l-4.54,2.3l0.88,4.65
		c-1.44,1.29-3.22,2.15-5.12,2.48L1077.92-148.31z"/>
</g>
</svg>
