<?xml version="1.0" encoding="utf-8"?>
<!-- Generator: Adobe Illustrator 23.0.3, SVG Export Plug-In . SVG Version: 6.00 Build 0)  -->
<svg version="1.1" id="Layer_1" xmlns="http://www.w3.org/2000/svg" xmlns:xlink="http://www.w3.org/1999/xlink" x="0px" y="0px"
	 viewBox="0 0 28 28" style="enable-background:new 0 0 28 28;" xml:space="preserve">
<style type="text/css">
	.st0{fill-rule:evenodd;clip-rule:evenodd;fill:#FFFFFF;}
</style>
<g id="loop" transform="translate(-954.354 281.056)">
	<path id="Path_119" class="st0" d="M971.76-259.64c-0.5-0.05-1-0.13-1.48-0.24c-2.37-0.64-4.47-2-6.03-3.89
		c-0.25-0.3-0.21-0.74,0.09-0.99c0.02-0.01,0.03-0.03,0.05-0.04l1.86-1.35c0.34-0.24,0.28-0.51-0.13-0.59l-8.26-1.66
		c-0.37-0.08-0.73,0.15-0.81,0.51c-0.01,0.03-0.01,0.06-0.01,0.09l-0.96,8.33c-0.05,0.41,0.19,0.55,0.52,0.3l1.25-0.9
		c0.35-0.24,0.82-0.18,1.1,0.13c1.88,2.27,4.39,3.94,7.21,4.79c0.49,0.11,0.99,0.19,1.48,0.24c1.05,0.1,2.12,0.06,3.16-0.12
		c0.49-0.1,0.98-0.23,1.45-0.39c0.75-0.25,1.48-0.56,2.17-0.93c0.44-0.24,0.87-0.5,1.27-0.8c1.07-0.85,1.99-1.88,2.71-3.04
		c0.13-0.31,0.23-0.64,0.3-0.97c-0.06,0.03-0.34,0.15-0.68,0.29C976.08-259.92,973.92-259.5,971.76-259.64z M978.71-261.17
		l0.01-0.01C978.72-261.2,978.72-261.2,978.71-261.17L978.71-261.17z M980.48-275.5l-1.25,0.9c-0.35,0.24-0.82,0.18-1.1-0.13
		c-1.88-2.27-4.39-3.94-7.21-4.79c-0.49-0.11-0.99-0.19-1.48-0.24c-1.05-0.1-2.12-0.06-3.16,0.12c-0.49,0.1-0.98,0.23-1.45,0.39
		c-0.75,0.25-1.48,0.56-2.17,0.93c-0.44,0.24-0.87,0.5-1.27,0.8c-1.07,0.85-1.99,1.88-2.71,3.04c-0.17,0.3-0.27,0.63-0.31,0.98
		c0,0,0.31-0.14,0.69-0.3c2.38-1.25,5.14-1.6,7.76-0.99c2.37,0.64,4.47,2,6.03,3.89c0.25,0.3,0.21,0.74-0.09,0.99
		c-0.02,0.01-0.03,0.03-0.05,0.04l-1.86,1.35c-0.34,0.24-0.28,0.51,0.13,0.59l8.26,1.66c0.37,0.08,0.73-0.15,0.81-0.51
		c0.01-0.03,0.01-0.06,0.01-0.09l0.96-8.33C981.05-275.61,980.82-275.74,980.48-275.5L980.48-275.5z"/>
</g>
</svg>
