<svg xmlns="http://www.w3.org/2000/svg" width="20.181" height="20.181" viewBox="0 0 20.181 20.181">
  <g id="Group_382" data-name="Group 382" transform="translate(-93.681 -455.471)">
    <circle id="Ellipse_29" data-name="Ellipse 29" cx="10.09" cy="10.09" r="10.09" transform="translate(93.681 455.471)" fill="#f9b513"/>
    <g id="Group_381" data-name="Group 381" transform="translate(99.837 459.291)">
      <path id="Path_1022" data-name="Path 1022" d="M108.561,462.12a4.491,4.491,0,0,1,3.512,1.767,3.1,3.1,0,0,1,.636,1.862,2.747,2.747,0,0,1-.33,1.366,3.183,3.183,0,0,1-.778.9,8.8,8.8,0,0,1-.919.589,5.005,5.005,0,0,0-.66.425.657.657,0,0,0-.283.495v.141a.563.563,0,0,1-.565.565h-1.7a.563.563,0,0,1-.566-.565v-.236a2.27,2.27,0,0,1,.613-1.6,5.928,5.928,0,0,1,1.273-.872l.047-.024a4.238,4.238,0,0,0,.848-.565.848.848,0,0,0,.306-.636.974.974,0,0,0-.542-.849,1.913,1.913,0,0,0-1.084-.33,1.87,1.87,0,0,0-1.084.306,4.672,4.672,0,0,0-.872.848.55.55,0,0,1-.365.224.526.526,0,0,1-.413-.106l-1.013-.778a.55.55,0,0,1-.224-.365.526.526,0,0,1,.106-.412,5.261,5.261,0,0,1,1.673-1.58A4.806,4.806,0,0,1,108.561,462.12Zm-.236,8.791a1.551,1.551,0,0,1,1.155.483,1.65,1.65,0,0,1,0,2.309,1.622,1.622,0,0,1-2.31,0,1.65,1.65,0,0,1,0-2.309A1.551,1.551,0,0,1,108.326,470.911Z" transform="translate(-104.395 -462.12)" fill="#fff"/>
    </g>
  </g>
</svg>
