<svg xmlns="http://www.w3.org/2000/svg" width="20.077" height="20.077" viewBox="0 0 20.077 20.077">
  <g id="Group_308" data-name="Group 308" transform="translate(-1898.88 -299.88)">
    <g id="Group_202" data-name="Group 202" transform="translate(1898.88 299.88)">
      <circle id="Ellipse_20" data-name="Ellipse 20" cx="7.047" cy="7.047" r="7.047" transform="translate(2.991 2.237)" fill="#fff"/>
      <path id="Path_757" data-name="Path 757" d="M254.568,395.764A10.039,10.039,0,1,0,264.607,405.8,10.038,10.038,0,0,0,254.568,395.764Zm4.8,5.962-3.614,9.016a.259.259,0,0,1-.24.162h-1.893a.256.256,0,0,1-.24-.163l-3.615-9.016a.262.262,0,0,1,.026-.241.258.258,0,0,1,.214-.113h1.684a.956.956,0,0,1,.595.179,1.067,1.067,0,0,1,.334.427l1.752,4.843c.066.168.134.358.206.577.065-.215.133-.41.2-.585L256.51,402a1.022,1.022,0,0,1,.328-.428.932.932,0,0,1,.6-.2h1.7a.257.257,0,0,1,.214.114A.26.26,0,0,1,259.369,401.726Z" transform="translate(-244.53 -395.764)" fill="#0f265a"/>
    </g>
  </g>
</svg>
