<?xml version="1.0" encoding="utf-8"?>
<!-- Generator: Adobe Illustrator 16.0.0, SVG Export Plug-In . SVG Version: 6.00 Build 0)  -->
<!DOCTYPE svg PUBLIC "-//W3C//DTD SVG 1.1//EN" "http://www.w3.org/Graphics/SVG/1.1/DTD/svg11.dtd">
<svg version="1.1" id="Layer_1" xmlns="http://www.w3.org/2000/svg" xmlns:xlink="http://www.w3.org/1999/xlink" x="0px" y="0px"
	 width="19.917px" height="24.999px" viewBox="0.521 0.9 19.917 24.999" enable-background="new 0.521 0.9 19.917 24.999"
	 xml:space="preserve">
<path id="svg2" display="none" fill="#A4A3A3" d="M12.5,0C6.661,0,1.868,4.558,1.49,10.303H0v7.324h4.428
	C4.8,21.754,8.278,25,12.5,25c4.223,0,7.7-3.246,8.072-7.373H25v-7.324h-1.49C23.132,4.558,18.338,0,12.5,0z M4.395,16.162h-2.93
	v-4.395h2.93V16.162z M19.141,16.895c0,0.787-0.139,1.543-0.391,2.242h-3.689c-0.303-0.853-1.117-1.466-2.073-1.466H12.01
	c-1.212,0-2.198,0.986-2.198,2.198s0.986,2.199,2.198,2.199h0.978c0.956,0,1.77-0.613,2.073-1.467h2.945
	c-1.193,1.77-3.217,2.935-5.507,2.935c-3.662,0-6.641-2.979-6.641-6.64v-5.86c0-0.028,0.001-0.056,0.001-0.084
	c0.919,0.333,1.899,0.507,2.882,0.507c2.033,0,3.963-0.717,5.493-2.03c1.246,0.69,2.646,1.053,4.086,1.053
	c0.265,0,0.529-0.013,0.791-0.037c0.018,0.195,0.027,0.392,0.027,0.592L19.141,16.895L19.141,16.895z M13.723,19.869
	c0,0.404-0.33,0.734-0.733,0.734h-0.979c-0.404,0-0.733-0.33-0.733-0.734s0.329-0.733,0.733-0.733h0.979
	C13.393,19.136,13.723,19.465,13.723,19.869z M6.05,9.455c0.711-2.901,3.333-5.06,6.45-5.06c2.951,0,5.458,1.936,6.32,4.603
	c-0.166,0.012-0.334,0.018-0.5,0.018c-1.346,0-2.654-0.385-3.78-1.112l-0.492-0.318l-0.418,0.41
	c-1.313,1.288-3.049,1.997-4.887,1.997C7.804,9.993,6.9,9.812,6.05,9.455z M12.5,2.93c-4.222,0-7.7,3.246-8.072,7.373h-1.47
	C3.333,5.366,7.469,1.465,12.5,1.465s9.167,3.901,9.542,8.838H20.57C20.2,6.175,16.723,2.93,12.5,2.93z M23.535,16.162h-2.93v-4.395
	h2.93V16.162z"/>
<g id="svg3" display="none">
	<g display="inline">
		<path fill="#A3A3A3" d="M11.581,10.478c0,1.42,0.727,2.678,1.835,3.422l0.005-0.969v-2.443c0-0.034,0-0.068,0.005-0.098
			c0.069-1.244,1.098-2.208,2.364-2.208c1.281,0,2.325,1.008,2.369,2.267l0.376,3.114c0.86-0.758,1.405-1.86,1.405-3.084
			c0-2.281-1.875-4.137-4.18-4.137c-0.871,0-1.678,0.264-2.345,0.715L8.049,3.154c0.148-0.421,0.232-0.876,0.232-1.346
			c0-2.287-1.87-4.137-4.18-4.137s-4.18,1.851-4.18,4.137c0,2.286,1.87,4.137,4.18,4.137c0.93,0,1.781-0.303,2.473-0.808
			l5.293,3.848C11.685,9.45,11.581,9.954,11.581,10.478z M4.102,3.805c-1.113,0-2.018-0.891-2.018-1.997
			c0-1.102,0.905-1.998,2.018-1.998S6.12,0.706,6.12,1.808C6.12,2.909,5.214,3.805,4.102,3.805z M23.853,18.043
			c-0.05-0.436-0.307-0.818-0.688-1.043c-2.483-1.445-5.604-1.959-5.604-1.959l-0.549-4.519c0-0.671-0.549-1.209-1.222-1.209
			c-0.663,0-1.202,0.524-1.222,1.175v2.453l-0.05,6.952l-1.444-1.102c0,0-1.449-1.268-2.849-0.4
			c-0.326,0.199-0.405,0.637-0.168,0.934c0.425,0.525,2.875,3.416,3.865,4.346c0,0,1.585,2.842,3.493,2.65
			c2.885-0.287,6.507-3.65,6.507-3.65C24.269,21.299,23.946,18.859,23.853,18.043z"/>
	</g>
</g>
<g id="svg2_1_" display="none">
	<path display="inline" fill="#A3A3A3" d="M0.089,4.084L0.09,23.087l14.999-0.004v-17l-2-2H0.089z M14.089,22.083h-13v-17
		l10.998-0.055v2.043l2.002,0.012V22.083L14.089,22.083z"/>
	<path display="inline" fill="#A3A3A3" d="M3.089,1.084v3h1l-0.016-2.02l11.016,0.02v2h2v14.999h-1v1h2V3.084l-2-2H3.089z"/>
	<path display="inline" fill="#A3A3A3" d="M18.184-1.919L5.089-1.916v2h2v-1h10v2h3v14.999l-0.949,0.055l-0.051,0.945h2L21.08,0.765
		L18.184-1.919z"/>
</g>
<g id="svg4" display="none">
	<g display="inline">
		<path fill="#9E9E9E" d="M22.276,0.867H3.39c-1.686,0-3.057,1.369-3.057,3.053v12.894c0,1.684,1.371,3.053,3.057,3.053h18.882
			c1.686,0,3.057-1.369,3.057-3.053V3.925C25.333,2.241,23.963,0.867,22.276,0.867z M22.276,18.473H3.39
			c-0.915,0-1.66-0.744-1.66-1.658V3.925c0-0.914,0.745-1.658,1.66-1.658h18.882c0.916,0,1.66,0.744,1.66,1.658v12.889h0.005
			C23.937,17.729,23.192,18.473,22.276,18.473z M16.097,10.207l6.113-5.476c0.284-0.258,0.31-0.698,0.052-0.987
			c-0.259-0.284-0.698-0.31-0.988-0.052l-8.43,7.557l-1.645-1.467c-0.006-0.005-0.011-0.01-0.011-0.016
			c-0.036-0.035-0.072-0.066-0.113-0.098L4.383,3.688c-0.29-0.259-0.729-0.232-0.988,0.057C3.137,4.034,3.162,4.473,3.452,4.731
			l6.185,5.522l-6.159,5.76C3.198,16.277,3.183,16.716,3.446,17c0.14,0.145,0.326,0.223,0.513,0.223c0.17,0,0.341-0.063,0.476-0.187
			l6.252-5.843l1.696,1.514c0.135,0.119,0.301,0.176,0.466,0.176c0.166,0,0.336-0.063,0.466-0.181l1.742-1.56l6.217,5.898
			c0.135,0.129,0.311,0.191,0.48,0.191c0.187,0,0.367-0.072,0.508-0.217c0.264-0.279,0.253-0.723-0.026-0.986L16.097,10.207z"/>
	</g>
</g>
<g display="none">
	<g display="inline">
		<path fill="#9E9E9E" d="M25.429,19.061V2.028c0-0.641-0.524-1.161-1.172-1.161H1.601c-0.647,0-1.172,0.52-1.172,1.161v17.032
			c0,0.214-0.216,0.807,0,0.807h9v3l-1.188-0.322c-0.216,0-0.391,0.173-0.391,0.387v1.161H7.069v0.774h11.719v-0.774h-0.781v-1.161
			c0-0.214-0.175-0.387-0.391-0.387l-1.188,0.322v-3c0,0,8.609-0.42,8.733-0.027C25.477,20.15,25.447,19.334,25.429,19.061z
			 M17.226,23.318v0.774H8.632v-0.774H17.226z M10.429,22.867v-3h5v3H10.429z M24.429,18.867h-23v-4h23V18.867z M19.429,4.867h-4
			c0.034,0.063,0,0.786,0,1l0.234,2.355h0.781l-0.016-2.355h2v1h-1v1h1v2h-1v1h1v1h-1v1h1v1h-2v-2h-1v2h-1v-1
			c0-1.58,1.607-2.314,1.689-2.328c0.048-0.008,0.094-0.025,0.136-0.05c0.186-0.109,0.245-0.347,0.135-0.531l-2.96-6.091h9v10h-3v-8
			C19.429,5.653,19.426,5.336,19.429,4.867z M15.449,9.912c-0.852,0.283-1.833,0.725-2.021,1.956h-2c-0.188-1.231-0.149-1.716-1-2
			l2-4v4h1v-4L15.449,9.912z M13.429,13.867h-2v-1h1.891L13.429,13.867z M8.688,9.958C8.663,10,8.646,10.045,8.638,10.093
			c-0.036,0.211,0.106,0.411,0.319,0.446c0.083,0.014,1.472,0.749,1.472,2.328v1h-1v-2h-1v-4h1L9.413,7.061
			C9.101,7.008,9.449,6.915,9.429,6.867L8.21,4.198C8.17,4.107,8.097,4.035,8.005,3.995C7.806,3.911,7.576,4.002,7.491,4.198
			l-1.172,2.71C6.299,6.956,6.429,6.814,6.429,6.867v7h-3v-10h9L8.688,9.958z M7.429,6.867l0.422-1.535l0.578,1.535H7.429z
			 M24.647,2.028l-0.219,11.839h-1l0.047-10.678c0-0.213,0.169-0.322-0.047-0.322h-21c-0.216,0-0.047,0.109-0.047,0.322
			l0.047,10.678h-1v-12h23c0.116,0.084,0.185,0.117,0.224,0.128C24.65,2.005,24.647,2.012,24.647,2.028z M12.929,17.899
			c0.647,0,1.172-0.521,1.172-1.161c0-0.642-0.524-1.162-1.172-1.162s-1.172,0.521-1.172,1.162
			C11.757,17.379,12.281,17.899,12.929,17.899z M12.929,16.352c0.216,0,0.391,0.173,0.391,0.387s-0.175,0.387-0.391,0.387
			s-0.391-0.173-0.391-0.387S12.713,16.352,12.929,16.352z"/>
	</g>
</g>
<g id="clipboard">
	<g>
		<path fill="#A4A4A4" d="M18.779,0.9H5.641c-0.96,0-2.12,0.026-2.12,1v3L2.262,4.786c-0.96,0-1.741,0.792-1.741,1.766v17.582
			c0,0.975,0.781,1.766,1.741,1.766h14.259c0.96,0,1-1.025,1-2v-2l1.259,0.115c0.96,0,1.741-0.793,1.741-1.766V2.666
			C20.521,1.692,19.739,0.9,18.779,0.9z M15.521,23.898h-13V6.9h13V23.898z M18.521,19.898h-1V6.9c0-0.974-1.04-2-2-2h-10v-2h13
			V19.898z M4.586,10.196h8.489c0.412,0,0.746-0.339,0.746-0.757s-0.334-0.757-0.746-0.757H4.586c-0.412,0-0.746,0.339-0.746,0.757
			S4.174,10.196,4.586,10.196z M4.586,13.604h8.489c0.412,0,0.746-0.34,0.746-0.757s-0.334-0.756-0.746-0.756H4.586
			c-0.412,0-0.746,0.338-0.746,0.756S4.174,13.604,4.586,13.604z M4.586,17.012h8.489c0.412,0,0.746-0.338,0.746-0.758
			c0-0.418-0.334-0.756-0.746-0.756H4.586c-0.412,0-0.746,0.338-0.746,0.756C3.84,16.674,4.174,17.012,4.586,17.012z M4.586,20.42
			h8.489c0.412,0,0.746-0.338,0.746-0.756s-0.334-0.758-0.746-0.758H4.586c-0.412,0-0.746,0.34-0.746,0.758S4.174,20.42,4.586,20.42
			z"/>
	</g>
</g>
</svg>
