<?xml version="1.0" encoding="utf-8"?>
<!-- Generator: Adobe Illustrator 16.0.0, SVG Export Plug-In . SVG Version: 6.00 Build 0)  -->
<!DOCTYPE svg PUBLIC "-//W3C//DTD SVG 1.1//EN" "http://www.w3.org/Graphics/SVG/1.1/DTD/svg11.dtd">
<svg version="1.1" id="Layer_1" xmlns="http://www.w3.org/2000/svg" xmlns:xlink="http://www.w3.org/1999/xlink" x="0px" y="0px"
	 width="24.157px" height="28.66px" viewBox="-0.078 -2.33 24.157 28.66" enable-background="new -0.078 -2.33 24.157 28.66"
	 xml:space="preserve">
<path display="none" fill="#A4A3A3" d="M12.5,0C6.661,0,1.868,4.558,1.49,10.303H0v7.324h4.428C4.8,21.754,8.278,25,12.5,25
	c4.223,0,7.7-3.246,8.072-7.373H25v-7.324h-1.49C23.132,4.558,18.338,0,12.5,0z M4.395,16.162h-2.93v-4.395h2.93V16.162z
	 M19.141,16.895c0,0.787-0.139,1.543-0.391,2.242h-3.689c-0.303-0.853-1.117-1.466-2.073-1.466H12.01
	c-1.212,0-2.198,0.986-2.198,2.198s0.986,2.199,2.198,2.199h0.978c0.956,0,1.77-0.613,2.073-1.467h2.945
	c-1.193,1.77-3.217,2.935-5.507,2.935c-3.662,0-6.641-2.979-6.641-6.64v-5.86c0-0.028,0.001-0.056,0.001-0.084
	c0.919,0.333,1.899,0.507,2.882,0.507c2.033,0,3.963-0.717,5.493-2.03c1.246,0.69,2.646,1.053,4.086,1.053
	c0.265,0,0.529-0.013,0.791-0.037c0.018,0.195,0.027,0.392,0.027,0.592L19.141,16.895L19.141,16.895z M13.723,19.869
	c0,0.404-0.33,0.734-0.733,0.734h-0.979c-0.404,0-0.733-0.33-0.733-0.734s0.329-0.733,0.733-0.733h0.979
	C13.393,19.136,13.723,19.465,13.723,19.869z M6.05,9.455c0.711-2.901,3.333-5.06,6.45-5.06c2.951,0,5.458,1.936,6.32,4.603
	c-0.166,0.012-0.334,0.018-0.5,0.018c-1.346,0-2.654-0.385-3.78-1.112l-0.492-0.318l-0.418,0.41
	c-1.313,1.288-3.049,1.997-4.887,1.997C7.804,9.993,6.9,9.812,6.05,9.455z M12.5,2.93c-4.222,0-7.7,3.246-8.072,7.373h-1.47
	C3.333,5.366,7.469,1.465,12.5,1.465s9.167,3.901,9.542,8.838H20.57C20.2,6.175,16.723,2.93,12.5,2.93z M23.535,16.162h-2.93v-4.395
	h2.93V16.162z"/>
<g>
	<g>
		<path fill="#A3A3A3" d="M11.581,10.478c0,1.42,0.727,2.678,1.835,3.422l0.005-0.969v-2.443c0-0.034,0-0.068,0.005-0.098
			c0.069-1.244,1.098-2.208,2.364-2.208c1.281,0,2.325,1.008,2.369,2.267l0.376,3.114c0.86-0.758,1.405-1.86,1.405-3.084
			c0-2.281-1.875-4.137-4.18-4.137c-0.871,0-1.678,0.264-2.345,0.715L8.049,3.154c0.148-0.421,0.232-0.876,0.232-1.346
			c0-2.287-1.87-4.137-4.18-4.137s-4.18,1.851-4.18,4.137c0,2.286,1.87,4.137,4.18,4.137c0.93,0,1.781-0.303,2.473-0.808
			l5.293,3.848C11.685,9.45,11.581,9.954,11.581,10.478z M4.102,3.805c-1.113,0-2.018-0.891-2.018-1.997
			c0-1.102,0.905-1.998,2.018-1.998S6.12,0.706,6.12,1.808C6.12,2.909,5.214,3.805,4.102,3.805z M23.853,18.043
			c-0.05-0.436-0.307-0.818-0.688-1.043c-2.483-1.445-5.604-1.959-5.604-1.959l-0.549-4.519c0-0.671-0.549-1.209-1.222-1.209
			c-0.663,0-1.202,0.524-1.222,1.175v2.453l-0.05,6.952l-1.444-1.102c0,0-1.449-1.268-2.849-0.4
			c-0.326,0.199-0.405,0.637-0.168,0.934c0.425,0.525,2.875,3.416,3.865,4.346c0,0,1.585,2.842,3.493,2.65
			c2.885-0.287,6.507-3.65,6.507-3.65C24.269,21.299,23.946,18.859,23.853,18.043z"/>
	</g>
</g>
</svg>
