<svg version="1.1" id="Layer_1" xmlns="http://www.w3.org/2000/svg" xmlns:xlink="http://www.w3.org/1999/xlink" x="0px" y="0px" viewBox="0 0 100 100" style="transform-origin: 50px 50px 0px;" xml:space="preserve"><g style="transform-origin: 50px 50px 0px;"><g fill="#5f2a62" style="fill: rgb(95, 42, 98); transform-origin: 50px 50px 0px; transform: scale(0.6);"><g style="transform-origin: 50px 50px 0px;"><g fill="#5f2a62" style="fill: rgb(95, 42, 98);"><style type="text/css" class="ld ld-spin" style="transform-origin: 50px 50px 0px; animation-duration: 1s; animation-delay: -1s; animation-direction: normal;">.st0{fill:#F4E6C8;} .st1{opacity:0.8;fill:#849B87;} .st2{fill:#D65A62;} .st3{fill:#E15C64;} .st4{fill:#F47E5F;} .st5{fill:#F7B26A;} .st6{fill:#FEE8A2;} .st7{fill:#ACBD81;} .st8{fill:#F5E169;} .st9{fill:#F0AF6B;} .st10{fill:#EA7C60;} .st11{fill:#A8B980;} .st12{fill:#829985;} .st13{fill:#798AAE;} .st14{fill:#8672A7;} .st15{fill:#CC5960;} .st16{fill:#E17A5F;} .st17{fill:#849B87;} .st18{opacity:0.8;fill:#E15C64;} .st19{opacity:0.8;fill:#F7B26A;} .st20{fill:#79A5B5;} .st21{opacity:0.8;fill:#79A5B4;} .st22{fill:#666766;}</style><g class="ld ld-spin" style="transform-origin: 50px 50px 0px; animation-duration: 1s; animation-delay: -0.941176s; animation-direction: normal;"><path id="XMLID_390_" class="st11" d="M40.5,90.4c-6.2-1.4-12.1-4.2-17.1-8.2l9.4-11.8c3.2,2.6,7,4.4,11,5.3L40.5,90.4z" fill="#a976c3" style="fill: rgb(169, 118, 195);"></path></g><g class="ld ld-spin" style="transform-origin: 50px 50px 0px; animation-duration: 1s; animation-delay: -0.882353s; animation-direction: normal;"><path id="XMLID_391_" class="st12" d="M59.4,90.3l-3.4-14.7c4-0.9,7.8-2.7,11-5.3l9.4,11.8C71.5,86.1,65.6,88.9,59.4,90.3z" fill="#7ab428" style="fill: rgb(122, 180, 40);"></path></g><g class="ld ld-spin" style="transform-origin: 50px 50px 0px; animation-duration: 1s; animation-delay: -0.823529s; animation-direction: normal;"><path id="XMLID_402_" class="st9" d="M11.7,67.4c-2.8-5.8-4.2-12-4.2-18.4l15.1,0c0,4.2,0.9,8.2,2.7,11.9L11.7,67.4z" fill="#466b5a" style="fill: rgb(70, 107, 90);"></path></g><g class="ld ld-spin" style="transform-origin: 50px 50px 0px; animation-duration: 1s; animation-delay: -0.764706s; animation-direction: normal;"><path id="XMLID_403_" class="st13" d="M88.3,67.3l-13.6-6.6c1.8-3.7,2.7-7.7,2.7-11.9l0-0.1l15.1,0l0,0.1l0,0 C92.5,55.4,91,61.6,88.3,67.3z" fill="#f5c024" style="fill: rgb(245, 192, 36);"></path></g><g class="ld ld-spin" style="transform-origin: 50px 50px 0px; animation-duration: 1s; animation-delay: -0.705882s; animation-direction: normal;"><path id="XMLID_404_" class="st10" d="M25.2,37.1l-13.6-6.5c2.7-5.7,6.8-10.8,11.8-14.8l9.5,11.8C29.6,30.1,27,33.4,25.2,37.1z" fill="#5f2a62" style="fill: rgb(95, 42, 98);"></path></g><g class="ld ld-spin" style="transform-origin: 50px 50px 0px; animation-duration: 1s; animation-delay: -0.647059s; animation-direction: normal;"><path id="XMLID_405_" class="st14" d="M74.6,36.9c-1.8-3.7-4.4-7-7.6-9.5l9.4-11.8c5,3.9,9.1,9,11.8,14.7L74.6,36.9z" fill="#a976c3" style="fill: rgb(169, 118, 195);"></path></g><g class="ld ld-spin" style="transform-origin: 50px 50px 0px; animation-duration: 1s; animation-delay: -0.588235s; animation-direction: normal;"><path id="XMLID_406_" class="st2" d="M43.8,22.2L40.4,7.5c3.1-0.7,6.3-1.1,9.6-1.1c0,0,0,0,0,0c3.1,0,6.3,0.3,9.3,1L56,22.2 c-2-0.4-4-0.7-6-0.7c0,0,0,0,0,0C47.9,21.5,45.8,21.8,43.8,22.2z" fill="#7ab428" style="fill: rgb(122, 180, 40);"></path></g><metadata xmlns:d="https://loading.io/stock/" class="ld ld-spin" style="transform-origin: 50px 50px 0px; animation-duration: 1s; animation-delay: -0.529412s; animation-direction: normal;">
<d:name class="ld ld-spin" style="transform-origin: 50px 50px 0px; animation-duration: 1s; animation-delay: -0.470588s; animation-direction: normal;">wheel</d:name>
<d:tags class="ld ld-spin" style="transform-origin: 50px 50px 0px; animation-duration: 1s; animation-delay: -0.411765s; animation-direction: normal;">curve,circle,rotate,dash,spinner,preloader,loading icon,wheel,spinner</d:tags>
<d:license class="ld ld-spin" style="transform-origin: 50px 50px 0px; animation-duration: 1s; animation-delay: -0.352941s; animation-direction: normal;">cc-by</d:license>
<d:slug class="ld ld-spin" style="transform-origin: 50px 50px 0px; animation-duration: 1s; animation-delay: -0.294118s; animation-direction: normal;">pd8fa5</d:slug>
</metadata></g></g></g></g><style type="text/css" class="ld ld-spin" style="transform-origin: 50px 50px 0px; animation-duration: 1s; animation-delay: -0.235294s; animation-direction: normal;">path,ellipse,circle,rect,polygon,polyline,line { stroke-width: 0; }@keyframes ld-spin {
  0% {
    -webkit-transform: rotate(0);
    transform: rotate(0);
    animation-timing-function: cubic-bezier(0.55, 0.055, 0.675, 0.19);
  }
  50% {
    -webkit-transform: rotate(180deg);
    transform: rotate(180deg);
    animation-timing-function: cubic-bezier(0.215, 0.61, 0.355, 1);
  }
  100% {
    -webkit-transform: rotate(360deg);
    transform: rotate(360deg);
  }
}
@-webkit-keyframes ld-spin {
  0% {
    -webkit-transform: rotate(0);
    transform: rotate(0);
    animation-timing-function: cubic-bezier(0.55, 0.055, 0.675, 0.19);
  }
  50% {
    -webkit-transform: rotate(180deg);
    transform: rotate(180deg);
    animation-timing-function: cubic-bezier(0.215, 0.61, 0.355, 1);
  }
  100% {
    -webkit-transform: rotate(360deg);
    transform: rotate(360deg);
  }
}
.ld.ld-spin {
  -webkit-animation: ld-spin 1s infinite;
  animation: ld-spin 1s infinite;
}

</style></svg>