<svg xmlns="http://www.w3.org/2000/svg" width="112.771" height="27.027" viewBox="0 0 112.771 27.027">
  <g id="Group_339" data-name="Group 339" transform="translate(-151 -684.973)">
    <g id="Group_7" data-name="Group 7" transform="translate(-275.013 -1139.56)">
      <path id="Path_39" data-name="Path 39" d="M565.275,1825.482a.642.642,0,0,1,.645-.642h13.8a.642.642,0,0,1,.644.642v2.764a.642.642,0,0,1-.644.642H569.684v5.533h8.376a.664.664,0,0,1,.644.639v2.8a.642.642,0,0,1-.644.641h-8.376v5.9h10.038a.642.642,0,0,1,.644.641v2.766a.642.642,0,0,1-.644.641h-13.8a.642.642,0,0,1-.645-.641Z" transform="translate(-67.872 -0.192)" fill="#fff"/>
      <path id="Path_40" data-name="Path 40" d="M624.1,1824.533a11.894,11.894,0,1,1-11.924,11.926A11.9,11.9,0,0,1,624.1,1824.533Zm0,19.492a7.6,7.6,0,1,0-7.6-7.566A7.635,7.635,0,0,0,624.1,1844.025Z" transform="translate(-97.277)" fill="#fff"/>
      <path id="Path_41" data-name="Path 41" d="M457.08,1847.391l10.45-22.491a.6.6,0,0,1,.571-.367h.336a.569.569,0,0,1,.57.367l10.35,22.491a.591.591,0,0,1-.572.868h-2.924a.964.964,0,0,1-.973-.668l-1.647-3.608H463.2l-1.646,3.608a1.013,1.013,0,0,1-.976.668h-2.921A.59.59,0,0,1,457.08,1847.391Zm14.515-7.117-3.36-7.353h-.1l-3.292,7.353Z" fill="#fff"/>
      <path id="Path_42" data-name="Path 42" d="M508.686,1824.84H500.63a.577.577,0,0,0-.167.028l1.869,4.045h0l.011.022,2.086-.005h3.847a7.737,7.737,0,0,1,1.165,15.371l1.813,3.925a11.823,11.823,0,0,0-2.57-23.387Z" transform="translate(-27.24 -0.192)" fill="#fff"/>
    </g>
    <text id="By" transform="translate(151 708)" fill="#fff" font-size="20" font-family="Lato-Black, Lato" font-weight="800"><tspan x="0" y="0">By</tspan></text>
  </g>
</svg>
