<svg xmlns="http://www.w3.org/2000/svg" width="253.193" height="299.89" viewBox="0 0 253.193 299.89">
  <g id="Group_6" data-name="Group 6" transform="translate(-245.188 -78.573)">
    <path id="Path_1" data-name="Path 1" d="M260.423,94.857C259.616,107.43,245.9,287.5,245.189,298.488a.8.8,0,0,0,.454.767l126.141,62.751,126.142-62.751a.807.807,0,0,0,.453-.772L483.146,94.862a.835.835,0,0,0-.768-.763c-115.771-10.6-105.417-10.6-221.187,0A.83.83,0,0,0,260.423,94.857Z" transform="translate(0 -2.136)" fill="#0f265a"/>
    <path id="Path_2" data-name="Path 2" d="M266.057,101.186c-.78,12.14-14.1,185.989-14.783,196.6a.774.774,0,0,0,.438.741L373.5,359.112l121.786-60.584a.779.779,0,0,0,.438-.746L480.941,101.191a.8.8,0,0,0-.74-.736c-111.774-10.23-101.628-10.23-213.4,0A.8.8,0,0,0,266.057,101.186Z" transform="translate(-1.714 -4.004)" fill="#fff"/>
    <path id="Path_3" data-name="Path 3" d="M273.865,109.959c-.74,11.537-13.509,176.77-14.157,186.856a.734.734,0,0,0,.417.7L375.875,355.1l115.751-57.582a.739.739,0,0,0,.416-.708L477.885,109.964a.766.766,0,0,0-.7-.7c-106.234-9.722-96.377-9.722-202.612,0A.761.761,0,0,0,273.865,109.959Z" transform="translate(-4.091 -6.593)" fill="#0f265a"/>
    <path id="Path_4" data-name="Path 4" d="M421.445,479" transform="translate(-49.661 -112.822)" fill="none"/>
    <path id="Path_5" data-name="Path 5" d="M421.445,479" transform="translate(-49.661 -112.822)" fill="none"/>
    <g id="Group_1" data-name="Group 1" transform="translate(273.384 78.573)">
      <path id="Path_6" data-name="Path 6" d="M369.3,308.514c-5.763-3.293-11.129-7.039-15.139-12.144A44.6,44.6,0,0,1,345.12,275.7c-2.214-14.393,2.478-29.142,10.606-41.76s19.529-23.334,31.5-33.263a76.81,76.81,0,0,0-10.94,25.129c20.031-22.5,46.637-36.537,75.132-50.116-16.563-21.357-34.435-47.492-51-68.85l12.124-10.593a174.812,174.812,0,0,0-65.977,32.313c13.079-6.893,29.6-10.523,29.6-10.523-30.523,14.629-63.223,37.992-79.932,68.9-15.078,27.9-15.347,61.872-2.828,90.743,0,0-2-11.451,3.048-28.624-.878,23.533,10.02,43.869,26.351,58.515,16.817,15.082,40.524,24.137,63.77,23.191,11.694-.475,23.737-3.407,33.837-9.418,9.092-5.411,17.239-14.833,22.07-25.01C417.456,323.9,385.834,317.962,369.3,308.514Z" transform="translate(-284.445 -83.553)" fill="#1a6ab4"/>
      <circle id="Ellipse_1" data-name="Ellipse 1" cx="49.798" cy="49.798" r="49.798" transform="translate(97.203)" fill="#0f265a"/>
      <path id="Path_7" data-name="Path 7" d="M515.549,137.581l-15.082-11.218,7.692-19.34a44.128,44.128,0,0,0-17.882-15.052l-16.613,11.291L457.315,90.47A44.094,44.094,0,0,0,438.1,103.858l5.77,18.46-15.888,11.273a43.737,43.737,0,0,0,7.231,22.575l17.089.192,5.384,17.225A44.138,44.138,0,0,0,481.9,174.8l5.379-15.945,19.275.216A43.735,43.735,0,0,0,515.549,137.581Zm-33.63,10.047L461.982,147l-5.561-19.156,16.5-11.208,15.758,12.229Z" transform="translate(-324.887 -81.925)" fill="#fff"/>
      <path id="Path_8" data-name="Path 8" d="M338.325,154.925l-14.71,8.708,9.337,14.266-11.968-12.632-16.343,6.076,14.709-8.708L308.325,146.2,321.981,161Z" transform="translate(-290.135 -97.627)" fill="#fff"/>
      <path id="Path_9" data-name="Path 9" d="M322.587,198.131l-5.8,2.3,2.554,5.671-3.6-5.232-6.235,1.261,5.8-2.3-2.554-5.671,3.6,5.232Z" transform="translate(-291.509 -111.139)" fill="#fff"/>
      <path id="Path_10" data-name="Path 10" d="M412.538,391.7l-7.181,9.082,8.8,6.335-10.072-4.664-8.75,7.891,7.181-9.082-8.8-6.335,10.072,4.664Z" transform="translate(-315.232 -166.798)" fill="#fff"/>
      <path id="Path_11" data-name="Path 11" d="M344.544,353.836l-11.856,12.092,13.648,8.095L331,368.145,317.91,378.694l11.079-12.08-12.87-8.107,14.554,5.889Z" transform="translate(-293.369 -156.129)" fill="#fff"/>
      <path id="Path_12" data-name="Path 12" d="M378.291,406.819l-6.375,4.7,4.671,5.767-5.809-4.892-7.2,3.633,6.375-4.7-4.671-5.767,5.809,4.892Z" transform="translate(-306.742 -170.702)" fill="#fff"/>
      <path id="Path_13" data-name="Path 13" d="M398.55,184.143l-6.609,2.987,3.273,6.451-4.459-5.884-7.175,1.8,6.609-2.987-3.273-6.451,4.459,5.884Z" transform="translate(-312.377 -107.167)" fill="#edeeef"/>
      <path id="Path_14" data-name="Path 14" d="M395.8,156.917l-8.139,3.87,4.222,7.936-5.681-7.2-8.871,2.41,8.139-3.87-4.222-7.936,5.681,7.2Z" transform="translate(-310.617 -99.296)" fill="#edeeef"/>
    </g>
    <g id="Group_2" data-name="Group 2" transform="translate(284.864 184.162)">
      <path id="Path_15" data-name="Path 15" d="M306.777,230.853v6.891h9.3v4.874h-9.3v10.588h-6.349V226h17.516v4.855Z" transform="translate(-300.428 -225.699)" fill="#fff"/>
      <path id="Path_16" data-name="Path 16" d="M353.278,253.207h-4.893a2.137,2.137,0,0,1-1.326-.383,2.43,2.43,0,0,1-.766-.98l-1.606-4.743H334.342l-1.606,4.743a2.279,2.279,0,0,1-.738.943,2.059,2.059,0,0,1-1.317.42h-4.93L336.284,226h6.461Zm-10.029-10.4-2.52-7.451q-.28-.71-.6-1.671T339.5,231.6q-.28,1.139-.6,2.11t-.6,1.681l-2.5,7.414Z" transform="translate(-307.563 -225.699)" fill="#fff"/>
      <path id="Path_17" data-name="Path 17" d="M394.2,226v27.209h-3.287a2.856,2.856,0,0,1-1.223-.233,3.005,3.005,0,0,1-.98-.812L375.88,235.933q.073.728.1,1.41c.019.455.028.881.028,1.279v14.585h-5.565V226h3.324a5.315,5.315,0,0,1,.691.037,1.779,1.779,0,0,1,.5.14,1.674,1.674,0,0,1,.43.289,4.929,4.929,0,0,1,.467.5l12.941,16.34q-.094-.784-.131-1.522t-.037-1.391V226Z" transform="translate(-320.155 -225.699)" fill="#fff"/>
      <path id="Path_18" data-name="Path 18" d="M432.967,231h-7.656v22.2H419V231h-7.657v-5h21.624Z" transform="translate(-331.679 -225.699)" fill="#fff"/>
      <path id="Path_19" data-name="Path 19" d="M468.769,253.207h-4.893a2.137,2.137,0,0,1-1.326-.383,2.432,2.432,0,0,1-.766-.98l-1.606-4.743H449.833l-1.606,4.743a2.273,2.273,0,0,1-.738.943,2.059,2.059,0,0,1-1.317.42h-4.93L451.775,226h6.461ZM458.74,242.8l-2.52-7.451q-.28-.71-.6-1.671t-.635-2.082q-.28,1.139-.6,2.11t-.6,1.681l-2.5,7.414Z" transform="translate(-340.103 -225.699)" fill="#fff"/>
      <path id="Path_20" data-name="Path 20" d="M500.142,231.408a2.37,2.37,0,0,1-.588.672,1.318,1.318,0,0,1-.794.224,1.945,1.945,0,0,1-.924-.271q-.494-.27-1.12-.607a9.277,9.277,0,0,0-1.429-.607,5.719,5.719,0,0,0-1.829-.271,3.936,3.936,0,0,0-2.642.756,2.571,2.571,0,0,0-.868,2.045,1.884,1.884,0,0,0,.522,1.363,4.5,4.5,0,0,0,1.373.934,14.616,14.616,0,0,0,1.942.719q1.091.326,2.231.728a19.932,19.932,0,0,1,2.232.943,7.465,7.465,0,0,1,1.942,1.382,6.466,6.466,0,0,1,1.373,2.045,7.291,7.291,0,0,1,.522,2.9,9.456,9.456,0,0,1-.654,3.529,8.255,8.255,0,0,1-1.9,2.867,8.808,8.808,0,0,1-3.062,1.923,11.467,11.467,0,0,1-4.137.7,13.292,13.292,0,0,1-2.586-.261,15.378,15.378,0,0,1-2.548-.738,14.759,14.759,0,0,1-2.316-1.13A9.83,9.83,0,0,1,483,249.8l1.868-2.951a1.856,1.856,0,0,1,.588-.532,1.536,1.536,0,0,1,.793-.215,2.131,2.131,0,0,1,1.13.355q.569.354,1.289.784a10.418,10.418,0,0,0,1.652.784,6.188,6.188,0,0,0,2.2.355,4.2,4.2,0,0,0,2.67-.756,2.882,2.882,0,0,0,.952-2.4,2.267,2.267,0,0,0-.524-1.55,4.031,4.031,0,0,0-1.373-.99,12.6,12.6,0,0,0-1.932-.691q-1.084-.3-2.222-.663a16.266,16.266,0,0,1-2.223-.9,7.006,7.006,0,0,1-1.932-1.4,6.543,6.543,0,0,1-1.373-2.166,8.593,8.593,0,0,1-.524-3.2,7.6,7.6,0,0,1,.616-2.988,7.722,7.722,0,0,1,1.812-2.6,8.9,8.9,0,0,1,2.932-1.821,10.816,10.816,0,0,1,3.977-.682,14.937,14.937,0,0,1,2.438.2,12.833,12.833,0,0,1,2.25.579,12.278,12.278,0,0,1,1.989.915,9.2,9.2,0,0,1,1.653,1.2Z" transform="translate(-351.868 -225.582)" fill="#fff"/>
      <path id="Path_21" data-name="Path 21" d="M528.968,242.861v10.346h-6.313V242.861L512.8,226h5.565a2.016,2.016,0,0,1,1.3.383,3.107,3.107,0,0,1,.794.98l3.848,7.918q.485.934.877,1.746t.691,1.6q.28-.8.644-1.615t.85-1.727l3.81-7.918a3.512,3.512,0,0,1,.317-.486,2.441,2.441,0,0,1,.439-.439,2.172,2.172,0,0,1,.579-.317,2.044,2.044,0,0,1,.719-.121h5.6Z" transform="translate(-360.263 -225.699)" fill="#fff"/>
    </g>
    <g id="Group_3" data-name="Group 3" transform="translate(269.401 221.895)">
      <path id="Path_22" data-name="Path 22" d="M285.248,283.388v6.891h9.3v4.874h-9.3v10.588H278.9V278.533h17.517v4.855Z" transform="translate(-278.899 -278.234)" fill="#fff"/>
      <path id="Path_23" data-name="Path 23" d="M337.489,292.011a14.625,14.625,0,0,1-1.018,5.49,12.97,12.97,0,0,1-7.32,7.358,16.252,16.252,0,0,1-11.57,0,12.988,12.988,0,0,1-7.348-7.358,15.316,15.316,0,0,1,0-10.98,13.047,13.047,0,0,1,2.876-4.407,13.291,13.291,0,0,1,4.472-2.932,15.219,15.219,0,0,1,5.79-1.064,15.04,15.04,0,0,1,5.78,1.074,13.345,13.345,0,0,1,4.454,2.941,13.122,13.122,0,0,1,2.866,4.407A14.585,14.585,0,0,1,337.489,292.011Zm-6.461,0a11.749,11.749,0,0,0-.523-3.632,7.689,7.689,0,0,0-1.5-2.736,6.493,6.493,0,0,0-2.4-1.718,8.263,8.263,0,0,0-3.231-.6,8.373,8.373,0,0,0-3.259.6,6.471,6.471,0,0,0-2.41,1.718,7.7,7.7,0,0,0-1.5,2.736,12.942,12.942,0,0,0,0,7.283,7.7,7.7,0,0,0,1.5,2.736,6.369,6.369,0,0,0,2.41,1.708,8.494,8.494,0,0,0,3.259.589,8.382,8.382,0,0,0,3.231-.589A6.389,6.389,0,0,0,329,298.4a7.689,7.689,0,0,0,1.5-2.736A11.813,11.813,0,0,0,331.028,292.011Z" transform="translate(-287.441 -278.117)" fill="#fff"/>
      <path id="Path_24" data-name="Path 24" d="M383.222,292.011a14.609,14.609,0,0,1-1.018,5.49,12.97,12.97,0,0,1-7.32,7.358,16.25,16.25,0,0,1-11.569,0,12.985,12.985,0,0,1-7.348-7.358,15.315,15.315,0,0,1,0-10.98,13.065,13.065,0,0,1,2.876-4.407,13.3,13.3,0,0,1,4.473-2.932,15.213,15.213,0,0,1,5.789-1.064,15.04,15.04,0,0,1,5.78,1.074,13.345,13.345,0,0,1,4.454,2.941,13.12,13.12,0,0,1,2.866,4.407A14.57,14.57,0,0,1,383.222,292.011Zm-6.461,0a11.769,11.769,0,0,0-.522-3.632,7.7,7.7,0,0,0-1.5-2.736,6.488,6.488,0,0,0-2.4-1.718,8.258,8.258,0,0,0-3.231-.6,8.373,8.373,0,0,0-3.259.6,6.469,6.469,0,0,0-2.409,1.718,7.679,7.679,0,0,0-1.5,2.736,12.924,12.924,0,0,0,0,7.283,7.679,7.679,0,0,0,1.5,2.736,6.366,6.366,0,0,0,2.409,1.708,8.494,8.494,0,0,0,3.259.589,8.377,8.377,0,0,0,3.231-.589,6.384,6.384,0,0,0,2.4-1.708,7.7,7.7,0,0,0,1.5-2.736A11.834,11.834,0,0,0,376.761,292.011Z" transform="translate(-300.327 -278.117)" fill="#fff"/>
      <path id="Path_25" data-name="Path 25" d="M420.7,283.538H413.04v22.2h-6.312v-22.2h-7.656v-5H420.7Z" transform="translate(-312.758 -278.234)" fill="#fff"/>
      <path id="Path_26" data-name="Path 26" d="M447.015,278.533a19.049,19.049,0,0,1,4.8.523,9.158,9.158,0,0,1,3.231,1.475,5.6,5.6,0,0,1,1.821,2.316,7.822,7.822,0,0,1,.57,3.044,5.986,5.986,0,0,1-.261,1.765,5.073,5.073,0,0,1-.822,1.587,6.376,6.376,0,0,1-1.438,1.354,9.013,9.013,0,0,1-2.109,1.064,7.53,7.53,0,0,1,3.978,2.11,5.483,5.483,0,0,1,1.289,3.772,7.782,7.782,0,0,1-.673,3.231,7.4,7.4,0,0,1-1.969,2.605,9.351,9.351,0,0,1-3.2,1.737,13.922,13.922,0,0,1-4.351.626H437.006V278.533Zm-3.7,4.725v6.723H446.6a10.8,10.8,0,0,0,1.886-.149,3.91,3.91,0,0,0,1.428-.523,2.39,2.39,0,0,0,.9-1.027,3.838,3.838,0,0,0,.309-1.643,4.629,4.629,0,0,0-.243-1.615,2.312,2.312,0,0,0-.747-1.036,3.142,3.142,0,0,0-1.279-.56,8.788,8.788,0,0,0-1.84-.168Zm4.444,17.722a5.572,5.572,0,0,0,2.046-.318,3.238,3.238,0,0,0,1.242-.822,2.762,2.762,0,0,0,.616-1.139,5.019,5.019,0,0,0,.167-1.289,4.3,4.3,0,0,0-.2-1.344,2.221,2.221,0,0,0-.673-1.008,3.28,3.28,0,0,0-1.26-.635,7.346,7.346,0,0,0-1.979-.224h-4.407v6.779Z" transform="translate(-323.446 -278.234)" fill="#fff"/>
      <path id="Path_27" data-name="Path 27" d="M497.734,305.742h-4.893a2.136,2.136,0,0,1-1.326-.383,2.44,2.44,0,0,1-.766-.98l-1.606-4.743H478.8l-1.606,4.743a2.284,2.284,0,0,1-.738.943,2.059,2.059,0,0,1-1.317.42h-4.93l10.532-27.209H487.2Zm-10.029-10.4-2.52-7.451q-.28-.71-.6-1.671t-.635-2.082q-.28,1.14-.6,2.11t-.6,1.681l-2.5,7.414Z" transform="translate(-332.801 -278.234)" fill="#fff"/>
      <path id="Path_28" data-name="Path 28" d="M531.3,300.7v5.042H514.9V278.533h6.312V300.7Z" transform="translate(-345.393 -278.234)" fill="#fff"/>
      <path id="Path_29" data-name="Path 29" d="M561.977,300.7v5.042h-16.4V278.533h6.312V300.7Z" transform="translate(-354.037 -278.234)" fill="#fff"/>
    </g>
    <g id="Group_5" data-name="Group 5" transform="translate(345.36 259.803)">
      <g id="Group_4" data-name="Group 4">
        <path id="Path_30" data-name="Path 30" d="M395.2,334.481a1.448,1.448,0,0,1-.362.414.807.807,0,0,1-.488.138,1.189,1.189,0,0,1-.569-.167c-.2-.111-.433-.236-.69-.373a5.763,5.763,0,0,0-.88-.374,3.527,3.527,0,0,0-1.126-.167,2.424,2.424,0,0,0-1.627.465,1.585,1.585,0,0,0-.534,1.258,1.157,1.157,0,0,0,.321.839,2.794,2.794,0,0,0,.845.575,9.146,9.146,0,0,0,1.2.442q.671.2,1.373.448a12.213,12.213,0,0,1,1.373.58,4.587,4.587,0,0,1,1.2.85,3.954,3.954,0,0,1,.845,1.258,4.473,4.473,0,0,1,.322,1.787,5.828,5.828,0,0,1-.4,2.172,5.1,5.1,0,0,1-1.166,1.764,5.414,5.414,0,0,1-1.885,1.184,7.037,7.037,0,0,1-2.545.431,8.119,8.119,0,0,1-1.592-.161,9.424,9.424,0,0,1-1.569-.454,9.074,9.074,0,0,1-1.424-.695,6.1,6.1,0,0,1-1.161-.9l1.148-1.816a1.157,1.157,0,0,1,.362-.328.95.95,0,0,1,.489-.132,1.316,1.316,0,0,1,.7.218q.35.219.792.483a6.457,6.457,0,0,0,1.017.483,3.811,3.811,0,0,0,1.357.218,2.585,2.585,0,0,0,1.643-.465,1.77,1.77,0,0,0,.585-1.476,1.4,1.4,0,0,0-.322-.955,2.488,2.488,0,0,0-.845-.609,7.79,7.79,0,0,0-1.189-.425q-.666-.183-1.367-.407a9.929,9.929,0,0,1-1.368-.552,4.31,4.31,0,0,1-1.19-.862,4.023,4.023,0,0,1-.844-1.333,5.286,5.286,0,0,1-.323-1.971,4.664,4.664,0,0,1,.38-1.839,4.735,4.735,0,0,1,1.114-1.6,5.5,5.5,0,0,1,1.8-1.12,6.671,6.671,0,0,1,2.448-.419,9.176,9.176,0,0,1,1.5.12,7.87,7.87,0,0,1,1.385.357,7.582,7.582,0,0,1,1.224.562,5.668,5.668,0,0,1,1.017.741Z" transform="translate(-384.655 -330.896)" fill="#1a6ab4"/>
        <path id="Path_31" data-name="Path 31" d="M417.19,343.491a.78.78,0,0,1,.275.052.744.744,0,0,1,.264.178l1.541,1.62a6.406,6.406,0,0,1-2.534,1.994,8.866,8.866,0,0,1-3.6.672,8.579,8.579,0,0,1-3.419-.649,7.385,7.385,0,0,1-2.563-1.793,7.9,7.9,0,0,1-1.615-2.712,10.023,10.023,0,0,1-.563-3.407,9.423,9.423,0,0,1,.609-3.442A7.978,7.978,0,0,1,407.3,333.3a7.716,7.716,0,0,1,2.642-1.77,8.837,8.837,0,0,1,3.39-.631,9.1,9.1,0,0,1,1.776.166,8.681,8.681,0,0,1,1.557.46,7.1,7.1,0,0,1,1.332.706,6.988,6.988,0,0,1,1.079.9l-1.31,1.758a1.654,1.654,0,0,1-.3.293.773.773,0,0,1-.482.132.857.857,0,0,1-.391-.092,4.347,4.347,0,0,1-.391-.223q-.206-.133-.454-.288a3.48,3.48,0,0,0-.586-.287,4.884,4.884,0,0,0-.793-.224,5.435,5.435,0,0,0-1.063-.092,4.281,4.281,0,0,0-1.764.356,3.852,3.852,0,0,0-1.379,1.04,4.835,4.835,0,0,0-.9,1.678,7.5,7.5,0,0,0-.316,2.27,6.862,6.862,0,0,0,.351,2.287,5.018,5.018,0,0,0,.953,1.684,4.047,4.047,0,0,0,1.408,1.04,4.212,4.212,0,0,0,1.723.356,8.253,8.253,0,0,0,.965-.052,4.4,4.4,0,0,0,.817-.172,3.316,3.316,0,0,0,.712-.322,4.517,4.517,0,0,0,.678-.511,1.347,1.347,0,0,1,.3-.19A.785.785,0,0,1,417.19,343.491Z" transform="translate(-390.38 -330.896)" fill="#1a6ab4"/>
        <path id="Path_32" data-name="Path 32" d="M444.836,339.445a8.987,8.987,0,0,1-.626,3.379,7.991,7.991,0,0,1-4.5,4.529,10.012,10.012,0,0,1-7.12,0,7.992,7.992,0,0,1-4.521-4.529,9.416,9.416,0,0,1,0-6.757,8.041,8.041,0,0,1,1.769-2.712,8.185,8.185,0,0,1,2.752-1.8,9.354,9.354,0,0,1,3.563-.655,9.258,9.258,0,0,1,3.557.66,8.215,8.215,0,0,1,2.74,1.81,8.063,8.063,0,0,1,1.764,2.712A8.959,8.959,0,0,1,444.836,339.445Zm-3.976,0a7.246,7.246,0,0,0-.321-2.234,4.749,4.749,0,0,0-.925-1.684,4,4,0,0,0-1.477-1.057,5.087,5.087,0,0,0-1.988-.368,5.165,5.165,0,0,0-2.005.368,3.991,3.991,0,0,0-1.482,1.057,4.726,4.726,0,0,0-.924,1.684,7.96,7.96,0,0,0,0,4.481,4.722,4.722,0,0,0,.924,1.684,3.929,3.929,0,0,0,1.482,1.052,5.233,5.233,0,0,0,2.005.362,5.153,5.153,0,0,0,1.988-.362,3.94,3.94,0,0,0,1.477-1.052,4.746,4.746,0,0,0,.925-1.684A7.292,7.292,0,0,0,440.86,339.445Z" transform="translate(-396.709 -330.896)" fill="#1a6ab4"/>
        <path id="Path_33" data-name="Path 33" d="M467.9,334.231h-4.711v13.664H459.3V334.231h-4.711v-3.08H467.9Z" transform="translate(-404.36 -330.968)" fill="#1a6ab4"/>
        <path id="Path_34" data-name="Path 34" d="M488.024,344.793v3.1H477.935V331.151h3.884v13.642Z" transform="translate(-410.937 -330.968)" fill="#1a6ab4"/>
        <path id="Path_35" data-name="Path 35" d="M511.082,347.895h-3.012a1.314,1.314,0,0,1-.816-.236,1.494,1.494,0,0,1-.471-.6l-.988-2.919h-6.366l-.988,2.919a1.4,1.4,0,0,1-.455.581,1.271,1.271,0,0,1-.81.258h-3.033l6.482-16.744H504.6Zm-6.171-6.4-1.551-4.585q-.173-.436-.368-1.029T502.6,334.6q-.172.7-.368,1.3t-.367,1.034l-1.54,4.562Z" transform="translate(-415.503 -330.968)" fill="#1a6ab4"/>
        <path id="Path_36" data-name="Path 36" d="M536.265,331.151v16.744h-2.023a1.761,1.761,0,0,1-.753-.144,1.84,1.84,0,0,1-.6-.5l-7.895-9.987c.03.3.052.588.063.868s.017.542.017.787v8.975h-3.425V331.151h2.046a3.212,3.212,0,0,1,.426.024,1.1,1.1,0,0,1,.31.086,1.045,1.045,0,0,1,.264.178,3.143,3.143,0,0,1,.287.31l7.964,10.055q-.058-.483-.08-.937c-.016-.3-.024-.588-.024-.856v-8.86Z" transform="translate(-423.253 -330.968)" fill="#1a6ab4"/>
        <path id="Path_37" data-name="Path 37" d="M563.782,339.517a8.786,8.786,0,0,1-.626,3.35,7.845,7.845,0,0,1-1.764,2.655,8,8,0,0,1-2.741,1.747,9.69,9.69,0,0,1-3.557.626h-6.5V331.151h6.5a9.616,9.616,0,0,1,3.557.632,8.129,8.129,0,0,1,2.741,1.747,7.793,7.793,0,0,1,1.764,2.649A8.756,8.756,0,0,1,563.782,339.517Zm-3.976,0a7.285,7.285,0,0,0-.322-2.241,4.8,4.8,0,0,0-.925-1.7,4.022,4.022,0,0,0-1.477-1.069,5.008,5.008,0,0,0-1.988-.373h-2.6v10.767h2.6a5.008,5.008,0,0,0,1.988-.373,4.014,4.014,0,0,0,1.477-1.069,4.8,4.8,0,0,0,.925-1.694A7.333,7.333,0,0,0,559.806,339.517Z" transform="translate(-430.844 -330.968)" fill="#1a6ab4"/>
      </g>
    </g>
    <path id="Path_38" data-name="Path 38" d="M421.445,496.1" transform="translate(-49.661 -117.64)" fill="#1a1818" stroke="#fff" stroke-miterlimit="10" stroke-width="1"/>
  </g>
</svg>
