<?xml version="1.0" encoding="utf-8"?>
<!-- Generator: Adobe Illustrator 23.0.3, SVG Export Plug-In . SVG Version: 6.00 Build 0)  -->
<svg version="1.1" id="Layer_1" xmlns="http://www.w3.org/2000/svg" xmlns:xlink="http://www.w3.org/1999/xlink" x="0px" y="0px"
	 viewBox="0 0 20 16" style="enable-background:new 0 0 20 16;" xml:space="preserve">
<style type="text/css">
	.st0{fill:#0F265A;}
</style>
<g>
	<path class="st0" d="M14.5,7.2h-0.3V4.1C14.2,1.8,12.3,0,10,0C7.7,0,5.9,1.8,5.9,4.1v3.1H5.6c-1.1,0-1.9,0.9-1.9,1.9v5
		c0,1.1,0.9,1.9,1.9,1.9h8.9c1.1,0,1.9-0.9,1.9-1.9v-5C16.4,8.1,15.5,7.2,14.5,7.2z M6.7,8.8h6.7h1.1c0.2,0,0.3,0.1,0.3,0.3v5
		c0,0.2-0.1,0.3-0.3,0.3H5.6c-0.2,0-0.3-0.1-0.3-0.3v-5c0-0.2,0.1-0.3,0.3-0.3H6.7z M12.5,7.2h-5V4.1c0-1.4,1.1-2.5,2.5-2.5
		c1.4,0,2.5,1.1,2.5,2.5V7.2z"/>
	<path class="st0" d="M9.5,13.8h1.1c0.4,0,0.8-0.4,0.8-0.8v-2.8c0-0.4-0.4-0.8-0.8-0.8H9.5c-0.4,0-0.8,0.4-0.8,0.8V13
		C8.7,13.4,9,13.8,9.5,13.8z"/>
</g>
</svg>
